<svg fill="none" stroke-linecap="square" stroke-miterlimit="10" width="762" height="465" xmlns="http://www.w3.org/2000/svg"><path fill="#fff" d="M0 0h762v465H0V0Z"/><path stroke="#333" stroke-linecap="butt" d="M83.5 390.5h655"/><path stroke="#ccc" stroke-linecap="butt" d="M83.5 318.5h655M83.5 245.5h655M83.5 173.5h655M83.5 100.5h655"/><path d="M83.5 366.5h655M83.5 342.5h655M83.5 294.5h655M83.5 269.5h655M83.5 221.5h655M83.5 197.5h655M83.5 149.5h655M83.5 124.5h655"/><path stroke="#eee" stroke-linecap="butt" d="M130.071 327.988v16M223.714 305.15v16M317.357 289.563v16M411 296.813v16M504.643 293.55v16M598.286 300.075v16M691.929 328.712v16M130.071 157.613v16M223.714 159.063v16M317.357 158.338v16M411 147.825v16M504.643 161.6v16M598.286 159.425v16M691.929 186.25v16M130.071 153.625v16M223.714 149.275v16M317.357 146.375v16M411 146.012v16M504.643 147.825v16M598.286 136.95v16M691.929 156.525v16"/><path stroke="#000" stroke-linecap="butt" d="M738.5 390.5h-655M83.5 390.5v-290"/><clipPath id="a"><path d="M83.25 100.75h655.5v290H83.25v-290Z"/></clipPath><path stroke="#ea4335" stroke-width="2" stroke-linecap="butt" clip-path="url(#a)" d="m130.071 343.988 93.643-22.838 93.643-15.587 93.643 7.25 93.643-3.263 93.643 6.525 93.643 28.637"/><path stroke="#fbbc04" stroke-width="2" stroke-linecap="butt" clip-path="url(#a)" d="m130.071 173.613 93.643 1.45 93.643-.725L411 163.825l93.643 13.775 93.643-2.175 93.643 26.825"/><path stroke="#4285f4" stroke-width="2" stroke-linecap="butt" clip-path="url(#a)" d="m130.071 169.625 93.643-4.35 93.643-2.9 93.643-.363 93.643 1.813 93.643-10.875 93.643 19.575"/><path fill="#ea4335" clip-path="url(#a)" d="M134.571 343.988a4.5 4.5 0 1 1-9 0 4.5 4.5 0 0 1 9 0ZM228.214 321.15a4.5 4.5 0 1 1-9 0 4.5 4.5 0 0 1 9 0ZM321.857 305.563a4.5 4.5 0 1 1-9 0 4.5 4.5 0 0 1 9 0ZM415.5 312.813a4.5 4.5 0 1 1-9 0 4.5 4.5 0 0 1 9 0ZM509.143 309.55a4.5 4.5 0 1 1-9 0 4.5 4.5 0 0 1 9 0ZM602.786 316.075a4.5 4.5 0 1 1-9 0 4.5 4.5 0 0 1 9 0ZM696.429 344.712a4.5 4.5 0 1 1-9 0 4.5 4.5 0 0 1 9 0Z"/><path fill="#fbbc04" clip-path="url(#a)" d="M134.571 173.613a4.5 4.5 0 1 1-9 0 4.5 4.5 0 0 1 9 0ZM228.214 175.063a4.5 4.5 0 1 1-9 0 4.5 4.5 0 0 1 9 0ZM321.857 174.338a4.5 4.5 0 1 1-9 0 4.5 4.5 0 0 1 9 0ZM415.5 163.825a4.5 4.5 0 1 1-9 0 4.5 4.5 0 0 1 9 0ZM509.143 177.6a4.5 4.5 0 1 1-9 0 4.5 4.5 0 0 1 9 0ZM602.786 175.425a4.5 4.5 0 1 1-9 0 4.5 4.5 0 0 1 9 0ZM696.429 202.25a4.5 4.5 0 1 1-9 0 4.5 4.5 0 0 1 9 0Z"/><path fill="#4285f4" clip-path="url(#a)" d="M134.571 169.625a4.5 4.5 0 1 1-9 0 4.5 4.5 0 0 1 9 0ZM228.214 165.275a4.5 4.5 0 1 1-9 0 4.5 4.5 0 0 1 9 0ZM321.857 162.375a4.5 4.5 0 1 1-9 0 4.5 4.5 0 0 1 9 0ZM415.5 162.012a4.5 4.5 0 1 1-9 0 4.5 4.5 0 0 1 9 0ZM509.143 163.825a4.5 4.5 0 1 1-9 0 4.5 4.5 0 0 1 9 0ZM602.786 152.95a4.5 4.5 0 1 1-9 0 4.5 4.5 0 0 1 9 0ZM696.429 172.525a4.5 4.5 0 1 1-9 0 4.5 4.5 0 0 1 9 0Z"/><path stroke="#000" stroke-linecap="butt" d="M130.5 390.5v-12M223.5 390.5v-12M317.5 390.5v-12M411.5 390.5v-12M504.5 390.5v-12M598.5 390.5v-12M691.5 390.5v-12M83.5 390.5h12M83.5 318.5h12M83.5 245.5h12M83.5 173.5h12M83.5 100.5h12"/><path stroke="#fff" stroke-width="3" stroke-linejoin="round" stroke-linecap="round" d="M123.837 325.988h-1.078v-7.22l-2.188.798v-.985l3.11-1.172h.156v8.579Zm9.031 0h-5.593v-.782l2.953-3.281q.656-.75.906-1.203.25-.469.25-.969 0-.672-.406-1.094-.391-.437-1.078-.437-.797 0-1.25.469-.454.453-.454 1.28h-1.078q0-1.187.75-1.905.766-.735 2.032-.735 1.203 0 1.89.625.688.625.688 1.672 0 1.25-1.61 3l-2.28 2.469h4.28v.89Zm5.563-3.75q-.328.406-.813.656-.468.234-1.03.234-.735 0-1.282-.36-.547-.359-.844-1.015-.297-.672-.297-1.469 0-.843.313-1.53.328-.688.922-1.048.609-.375 1.406-.375 1.265 0 1.984.953.735.954.735 2.579v.312q0 2.5-.985 3.64-.984 1.141-2.969 1.173h-.218v-.907h.234q1.344-.031 2.063-.703.718-.672.78-2.14Zm-1.672 0q.547 0 1-.329.469-.343.687-.828v-.437q0-1.063-.468-1.735-.47-.671-1.172-.671-.719 0-1.156.546-.422.547-.422 1.454 0 .875.406 1.437.422.563 1.125.563Z"/><path fill="#ea4335" d="M123.837 325.988h-1.078v-7.22l-2.188.798v-.985l3.11-1.172h.156v8.579Zm9.031 0h-5.593v-.782l2.953-3.281q.656-.75.906-1.203.25-.469.25-.969 0-.672-.406-1.094-.391-.437-1.078-.437-.797 0-1.25.469-.454.453-.454 1.28h-1.078q0-1.187.75-1.905.766-.735 2.032-.735 1.203 0 1.89.625.688.625.688 1.672 0 1.25-1.61 3l-2.28 2.469h4.28v.89Zm5.563-3.75q-.328.406-.813.656-.468.234-1.03.234-.735 0-1.282-.36-.547-.359-.844-1.015-.297-.672-.297-1.469 0-.843.313-1.53.328-.688.922-1.048.609-.375 1.406-.375 1.265 0 1.984.953.735.954.735 2.579v.312q0 2.5-.985 3.64-.984 1.141-2.969 1.173h-.218v-.907h.234q1.344-.031 2.063-.703.718-.672.78-2.14Zm-1.672 0q.547 0 1-.329.469-.343.687-.828v-.437q0-1.063-.468-1.735-.47-.671-1.172-.671-.719 0-1.156.546-.422.547-.422 1.454 0 .875.406 1.437.422.563 1.125.563Z"/><path stroke="#fff" stroke-width="3" stroke-linejoin="round" stroke-linecap="round" d="M217.48 303.15h-1.078v-7.219l-2.188.797v-.984l3.11-1.172h.156v8.578Zm7.594-3.75q-.328.406-.813.656-.469.235-1.031.235-.734 0-1.281-.36-.547-.36-.844-1.015-.297-.672-.297-1.47 0-.843.313-1.53.328-.688.921-1.047.61-.375 1.407-.375 1.265 0 1.984.953.734.953.734 2.578v.313q0 2.5-.984 3.64-.984 1.14-2.969 1.172h-.218v-.906h.234q1.344-.032 2.062-.703.72-.672.782-2.141Zm-1.672 0q.547 0 1-.328.469-.344.687-.828v-.438q0-1.062-.468-1.734-.47-.672-1.172-.672-.72 0-1.157.547-.421.547-.421 1.453 0 .875.406 1.438.422.562 1.125.562Zm10.11 3.75h-5.595v-.781l2.954-3.282q.656-.75.906-1.203.25-.468.25-.968 0-.672-.406-1.094-.391-.438-1.079-.438-.796 0-1.25.47-.453.452-.453 1.28h-1.078q0-1.187.75-1.906.766-.734 2.031-.734 1.204 0 1.891.625.688.625.688 1.672 0 1.25-1.61 3l-2.281 2.468h4.281v.891Z"/><path fill="#ea4335" d="M217.48 303.15h-1.078v-7.219l-2.188.797v-.984l3.11-1.172h.156v8.578Zm7.594-3.75q-.328.406-.813.656-.469.235-1.031.235-.734 0-1.281-.36-.547-.36-.844-1.015-.297-.672-.297-1.47 0-.843.313-1.53.328-.688.921-1.047.61-.375 1.407-.375 1.265 0 1.984.953.734.953.734 2.578v.313q0 2.5-.984 3.64-.984 1.14-2.969 1.172h-.218v-.906h.234q1.344-.032 2.062-.703.72-.672.782-2.141Zm-1.672 0q.547 0 1-.328.469-.344.687-.828v-.438q0-1.062-.468-1.734-.47-.672-1.172-.672-.72 0-1.157.547-.421.547-.421 1.453 0 .875.406 1.438.422.562 1.125.562Zm10.11 3.75h-5.595v-.781l2.954-3.282q.656-.75.906-1.203.25-.468.25-.968 0-.672-.406-1.094-.391-.438-1.079-.438-.796 0-1.25.47-.453.452-.453 1.28h-1.078q0-1.187.75-1.906.766-.734 2.031-.734 1.204 0 1.891.625.688.625.688 1.672 0 1.25-1.61 3l-2.281 2.468h4.281v.891Z"/><path stroke="#fff" stroke-width="3" stroke-linejoin="round" stroke-linecap="round" d="M313.154 287.563h-5.594v-.782l2.953-3.281q.657-.75.907-1.203.25-.469.25-.969 0-.672-.407-1.094-.39-.437-1.078-.437-.797 0-1.25.469-.453.453-.453 1.28h-1.078q0-1.187.75-1.905.766-.735 2.031-.735 1.203 0 1.89.625.688.625.688 1.672 0 1.25-1.609 3l-2.281 2.469h4.281v.89Zm2.984-4.797h.813q.781-.016 1.219-.407.437-.39.437-1.062 0-1.5-1.5-1.5-.703 0-1.125.406-.406.406-.406 1.063h-1.094q0-1.016.735-1.688.75-.672 1.89-.672 1.203 0 1.89.64.688.642.688 1.782 0 .563-.36 1.078-.358.516-.983.781.703.22 1.078.735.39.515.39 1.265 0 1.141-.75 1.829-.75.671-1.953.671-1.187 0-1.953-.656-.75-.656-.75-1.719h1.094q0 .672.437 1.079.438.406 1.188.406.781 0 1.187-.406.422-.422.422-1.188 0-.734-.453-1.125-.453-.406-1.328-.422h-.813v-.89Zm5.922.515.438-4.25h4.375v1h-3.453l-.266 2.328q.64-.375 1.438-.375 1.156 0 1.843.782.688.765.688 2.078 0 1.312-.719 2.078-.703.765-1.984.765-1.125 0-1.844-.625-.719-.64-.813-1.75h1.016q.11.735.531 1.11.422.375 1.11.375.75 0 1.187-.516.438-.515.438-1.422 0-.859-.47-1.375-.468-.515-1.25-.515-.702 0-1.108.297l-.282.234-.875-.219Z"/><path fill="#ea4335" d="M313.154 287.563h-5.594v-.782l2.953-3.281q.657-.75.907-1.203.25-.469.25-.969 0-.672-.407-1.094-.39-.437-1.078-.437-.797 0-1.25.469-.453.453-.453 1.28h-1.078q0-1.187.75-1.905.766-.735 2.031-.735 1.203 0 1.89.625.688.625.688 1.672 0 1.25-1.609 3l-2.281 2.469h4.281v.89Zm2.984-4.797h.813q.781-.016 1.219-.407.437-.39.437-1.062 0-1.5-1.5-1.5-.703 0-1.125.406-.406.406-.406 1.063h-1.094q0-1.016.735-1.688.75-.672 1.89-.672 1.203 0 1.89.64.688.642.688 1.782 0 .563-.36 1.078-.358.516-.983.781.703.22 1.078.735.39.515.39 1.265 0 1.141-.75 1.829-.75.671-1.953.671-1.187 0-1.953-.656-.75-.656-.75-1.719h1.094q0 .672.437 1.079.438.406 1.188.406.781 0 1.187-.406.422-.422.422-1.188 0-.734-.453-1.125-.453-.406-1.328-.422h-.813v-.89Zm5.922.515.438-4.25h4.375v1h-3.453l-.266 2.328q.64-.375 1.438-.375 1.156 0 1.843.782.688.765.688 2.078 0 1.312-.719 2.078-.703.765-1.984.765-1.125 0-1.844-.625-.719-.64-.813-1.75h1.016q.11.735.531 1.11.422.375 1.11.375.75 0 1.187-.516.438-.515.438-1.422 0-.859-.47-1.375-.468-.515-1.25-.515-.702 0-1.108.297l-.282.234-.875-.219Z"/><path stroke="#fff" stroke-width="3" stroke-linejoin="round" stroke-linecap="round" d="M406.797 294.813h-5.594v-.782l2.953-3.281q.656-.75.906-1.203.25-.469.25-.969 0-.672-.406-1.094-.39-.437-1.078-.437-.797 0-1.25.469-.453.453-.453 1.28h-1.078q0-1.187.75-1.905.765-.735 2.031-.735 1.203 0 1.89.625.688.625.688 1.672 0 1.25-1.61 3l-2.28 2.469h4.28v.89Zm4.969 0h-1.079v-7.22l-2.187.798v-.985l3.11-1.172h.156v8.579Zm3.937-4.282.438-4.25h4.375v1h-3.454l-.265 2.328q.64-.375 1.437-.375 1.157 0 1.844.782.688.765.688 2.078 0 1.312-.72 2.078-.702.765-1.983.765-1.125 0-1.844-.625-.719-.64-.813-1.75h1.016q.11.735.531 1.11.422.375 1.11.375.75 0 1.187-.516.438-.515.438-1.422 0-.859-.47-1.375-.468-.515-1.25-.515-.702 0-1.109.297l-.28.234-.876-.219Z"/><path fill="#ea4335" d="M406.797 294.813h-5.594v-.782l2.953-3.281q.656-.75.906-1.203.25-.469.25-.969 0-.672-.406-1.094-.39-.437-1.078-.437-.797 0-1.25.469-.453.453-.453 1.28h-1.078q0-1.187.75-1.905.765-.735 2.031-.735 1.203 0 1.89.625.688.625.688 1.672 0 1.25-1.61 3l-2.28 2.469h4.28v.89Zm4.969 0h-1.079v-7.22l-2.187.798v-.985l3.11-1.172h.156v8.579Zm3.937-4.282.438-4.25h4.375v1h-3.454l-.265 2.328q.64-.375 1.437-.375 1.157 0 1.844.782.688.765.688 2.078 0 1.312-.72 2.078-.702.765-1.983.765-1.125 0-1.844-.625-.719-.64-.813-1.75h1.016q.11.735.531 1.11.422.375 1.11.375.75 0 1.187-.516.438-.515.438-1.422 0-.859-.47-1.375-.468-.515-1.25-.515-.702 0-1.109.297l-.28.234-.876-.219Z"/><path stroke="#fff" stroke-width="3" stroke-linejoin="round" stroke-linecap="round" d="M500.44 291.55h-5.594v-.781l2.953-3.281q.656-.75.906-1.204.25-.468.25-.968 0-.672-.406-1.094-.39-.438-1.078-.438-.797 0-1.25.47-.453.452-.453 1.28h-1.078q0-1.187.75-1.906.765-.734 2.031-.734 1.203 0 1.89.625.688.625.688 1.672 0 1.25-1.61 3l-2.28 2.468h4.28v.891Zm7 0h-5.594v-.781l2.953-3.281q.656-.75.906-1.204.25-.468.25-.968 0-.672-.406-1.094-.39-.438-1.078-.438-.797 0-1.25.47-.453.452-.453 1.28h-1.078q0-1.187.75-1.906.765-.734 2.031-.734 1.203 0 1.89.625.688.625.688 1.672 0 1.25-1.61 3l-2.28 2.468h4.28v.891Zm5.984-2.86h1.188v.876h-1.188v1.984h-1.078v-1.984h-3.89v-.641l3.812-5.906h1.156v5.672Zm-3.734 0h2.656v-4.187l-.14.235-2.516 3.953Z"/><path fill="#ea4335" d="M500.44 291.55h-5.594v-.781l2.953-3.281q.656-.75.906-1.204.25-.468.25-.968 0-.672-.406-1.094-.39-.438-1.078-.438-.797 0-1.25.47-.453.452-.453 1.28h-1.078q0-1.187.75-1.906.765-.734 2.031-.734 1.203 0 1.89.625.688.625.688 1.672 0 1.25-1.61 3l-2.28 2.468h4.28v.891Zm7 0h-5.594v-.781l2.953-3.281q.656-.75.906-1.204.25-.468.25-.968 0-.672-.406-1.094-.39-.438-1.078-.438-.797 0-1.25.47-.453.452-.453 1.28h-1.078q0-1.187.75-1.906.765-.734 2.031-.734 1.203 0 1.89.625.688.625.688 1.672 0 1.25-1.61 3l-2.28 2.468h4.28v.891Zm5.984-2.86h1.188v.876h-1.188v1.984h-1.078v-1.984h-3.89v-.641l3.812-5.906h1.156v5.672Zm-3.734 0h2.656v-4.187l-.14.235-2.516 3.953Z"/><path stroke="#fff" stroke-width="3" stroke-linejoin="round" stroke-linecap="round" d="M594.083 298.075h-5.594v-.781l2.953-3.281q.656-.75.906-1.204.25-.468.25-.968 0-.672-.406-1.094-.39-.438-1.078-.438-.797 0-1.25.47-.453.452-.453 1.28h-1.078q0-1.187.75-1.906.765-.734 2.03-.734 1.204 0 1.891.625.688.625.688 1.672 0 1.25-1.61 3l-2.28 2.468h4.28v.891Zm6.765-3.64q0 1.906-.656 2.843-.64.922-2.031.922-1.36 0-2.016-.906-.656-.906-.687-2.719v-1.438q0-1.89.64-2.796.656-.922 2.047-.922 1.375 0 2.031.89.657.875.672 2.72v1.405Zm-1.094-1.485q0-1.375-.39-2-.375-.64-1.219-.64-.828 0-1.219.64-.375.625-.375 1.922v1.734q0 1.375.391 2.047.406.656 1.219.656.797 0 1.187-.625t.406-1.953v-1.781Zm7-3.406v.906h-.203q-1.265.031-2.015.766-.75.718-.875 2.03.687-.765 1.843-.765 1.11 0 1.782.781.672.782.672 2.032 0 1.312-.72 2.11-.718.796-1.937.796-1.218 0-1.984-.938-.75-.953-.75-2.437v-.406q0-2.36 1-3.61t2.984-1.265h.203Zm-1.421 3.844q-.563 0-1.032.328-.468.328-.656.843v.391q0 1.063.469 1.703.484.64 1.187.64.735 0 1.157-.53.421-.547.421-1.422 0-.875-.421-1.407-.422-.547-1.125-.547Z"/><path fill="#ea4335" d="M594.083 298.075h-5.594v-.781l2.953-3.281q.656-.75.906-1.204.25-.468.25-.968 0-.672-.406-1.094-.39-.438-1.078-.438-.797 0-1.25.47-.453.452-.453 1.28h-1.078q0-1.187.75-1.906.765-.734 2.03-.734 1.204 0 1.891.625.688.625.688 1.672 0 1.25-1.61 3l-2.28 2.468h4.28v.891Zm6.765-3.64q0 1.906-.656 2.843-.64.922-2.031.922-1.36 0-2.016-.906-.656-.906-.687-2.719v-1.438q0-1.89.64-2.796.656-.922 2.047-.922 1.375 0 2.031.89.657.875.672 2.72v1.405Zm-1.094-1.485q0-1.375-.39-2-.375-.64-1.219-.64-.828 0-1.219.64-.375.625-.375 1.922v1.734q0 1.375.391 2.047.406.656 1.219.656.797 0 1.187-.625t.406-1.953v-1.781Zm7-3.406v.906h-.203q-1.265.031-2.015.766-.75.718-.875 2.03.687-.765 1.843-.765 1.11 0 1.782.781.672.782.672 2.032 0 1.312-.72 2.11-.718.796-1.937.796-1.218 0-1.984-.938-.75-.953-.75-2.437v-.406q0-2.36 1-3.61t2.984-1.265h.203Zm-1.421 3.844q-.563 0-1.032.328-.468.328-.656.843v.391q0 1.063.469 1.703.484.64 1.187.64.735 0 1.157-.53.421-.547.421-1.422 0-.875-.421-1.407-.422-.547-1.125-.547Z"/><path stroke="#fff" stroke-width="3" stroke-linejoin="round" stroke-linecap="round" d="M685.694 326.712h-1.078v-7.218l-2.187.797v-.985l3.109-1.172h.156v8.578Zm9.031 0h-5.593v-.78l2.953-3.282q.656-.75.906-1.203.25-.469.25-.969 0-.672-.406-1.094-.39-.437-1.078-.437-.797 0-1.25.469-.453.453-.453 1.28h-1.079q0-1.187.75-1.905.766-.735 2.032-.735 1.203 0 1.89.625.688.625.688 1.672 0 1.25-1.61 3l-2.28 2.469h4.28v.89Zm6.922-7.921-3.53 7.921h-1.142l3.516-7.64h-4.61v-.89h5.766v.609Z"/><path fill="#ea4335" d="M685.694 326.712h-1.078v-7.218l-2.187.797v-.985l3.109-1.172h.156v8.578Zm9.031 0h-5.593v-.78l2.953-3.282q.656-.75.906-1.203.25-.469.25-.969 0-.672-.406-1.094-.39-.437-1.078-.437-.797 0-1.25.469-.453.453-.453 1.28h-1.079q0-1.187.75-1.905.766-.735 2.032-.735 1.203 0 1.89.625.688.625.688 1.672 0 1.25-1.61 3l-2.28 2.469h4.28v.89Zm6.922-7.921-3.53 7.921h-1.142l3.516-7.64h-4.61v-.89h5.766v.609Z"/><path stroke="#fff" stroke-width="3" stroke-linejoin="round" stroke-linecap="round" d="m120.775 151.331.437-4.25h4.375v1h-3.453l-.266 2.328q.64-.375 1.438-.375 1.156 0 1.844.782.687.765.687 2.078 0 1.312-.719 2.078-.703.766-1.984.766-1.125 0-1.844-.625-.719-.641-.812-1.75h1.015q.11.734.532 1.109.421.375 1.109.375.75 0 1.187-.516.438-.515.438-1.422 0-.859-.469-1.375-.469-.515-1.25-.515-.703 0-1.11.297l-.28.234-.875-.219Zm10.656.532q-.328.406-.813.656-.468.234-1.03.234-.735 0-1.282-.36-.547-.359-.844-1.015-.297-.672-.297-1.469 0-.843.313-1.53.328-.688.922-1.048.609-.375 1.406-.375 1.265 0 1.984.953.735.954.735 2.579v.312q0 2.5-.985 3.64-.984 1.141-2.969 1.173h-.218v-.907h.234q1.344-.031 2.063-.703.718-.672.78-2.14Zm-1.672 0q.547 0 1-.329.469-.343.687-.828v-.437q0-1.063-.468-1.735-.47-.671-1.172-.671-.719 0-1.156.546-.422.547-.422 1.454 0 .875.406 1.437.422.563 1.125.563Zm8.672 0q-.328.406-.813.656-.468.234-1.03.234-.735 0-1.282-.36-.547-.359-.844-1.015-.297-.672-.297-1.469 0-.843.313-1.53.328-.688.922-1.048.609-.375 1.406-.375 1.265 0 1.984.953.735.954.735 2.579v.312q0 2.5-.985 3.64-.984 1.141-2.969 1.173h-.218v-.907h.234q1.344-.031 2.063-.703.718-.672.78-2.14Zm-1.672 0q.547 0 1-.329.469-.343.687-.828v-.437q0-1.063-.468-1.735-.47-.671-1.172-.671-.719 0-1.156.546-.422.547-.422 1.454 0 .875.406 1.437.422.563 1.125.563Z"/><path fill="#fbbc04" d="m120.775 151.331.437-4.25h4.375v1h-3.453l-.266 2.328q.64-.375 1.438-.375 1.156 0 1.844.782.687.765.687 2.078 0 1.312-.719 2.078-.703.766-1.984.766-1.125 0-1.844-.625-.719-.641-.812-1.75h1.015q.11.734.532 1.109.421.375 1.109.375.75 0 1.187-.516.438-.515.438-1.422 0-.859-.469-1.375-.469-.515-1.25-.515-.703 0-1.11.297l-.28.234-.875-.219Zm10.656.532q-.328.406-.813.656-.468.234-1.03.234-.735 0-1.282-.36-.547-.359-.844-1.015-.297-.672-.297-1.469 0-.843.313-1.53.328-.688.922-1.048.609-.375 1.406-.375 1.265 0 1.984.953.735.954.735 2.579v.312q0 2.5-.985 3.64-.984 1.141-2.969 1.173h-.218v-.907h.234q1.344-.031 2.063-.703.718-.672.78-2.14Zm-1.672 0q.547 0 1-.329.469-.343.687-.828v-.437q0-1.063-.468-1.735-.47-.671-1.172-.671-.719 0-1.156.546-.422.547-.422 1.454 0 .875.406 1.437.422.563 1.125.563Zm8.672 0q-.328.406-.813.656-.468.234-1.03.234-.735 0-1.282-.36-.547-.359-.844-1.015-.297-.672-.297-1.469 0-.843.313-1.53.328-.688.922-1.048.609-.375 1.406-.375 1.265 0 1.984.953.735.954.735 2.579v.312q0 2.5-.985 3.64-.984 1.141-2.969 1.173h-.218v-.907h.234q1.344-.031 2.063-.703.718-.672.78-2.14Zm-1.672 0q.547 0 1-.329.469-.343.687-.828v-.437q0-1.063-.468-1.735-.47-.671-1.172-.671-.719 0-1.156.546-.422.547-.422 1.454 0 .875.406 1.437.422.563 1.125.563Z"/><path stroke="#fff" stroke-width="3" stroke-linejoin="round" stroke-linecap="round" d="m214.417 152.781.438-4.25h4.375v1h-3.453l-.266 2.328q.64-.375 1.438-.375 1.156 0 1.843.782.688.765.688 2.078 0 1.312-.719 2.078-.703.766-1.984.766-1.125 0-1.844-.625-.719-.641-.812-1.75h1.015q.11.734.531 1.109.422.375 1.11.375.75 0 1.187-.516.438-.515.438-1.422 0-.859-.469-1.375-.469-.515-1.25-.515-.703 0-1.11.297l-.28.234-.876-.219Zm10.657.531q-.328.407-.813.657-.469.234-1.031.234-.734 0-1.281-.36-.547-.359-.844-1.015-.297-.672-.297-1.469 0-.843.313-1.53.328-.688.921-1.048.61-.375 1.407-.375 1.265 0 1.984.953.734.953.734 2.578v.313q0 2.5-.984 3.64-.984 1.141-2.969 1.173h-.218v-.907h.234q1.344-.031 2.062-.703.72-.672.782-2.14Zm-1.672 0q.547 0 1-.328.469-.343.687-.828v-.437q0-1.063-.468-1.735-.47-.672-1.172-.672-.72 0-1.157.547-.421.547-.421 1.453 0 .875.406 1.438.422.563 1.125.563Zm5.015-.53.438-4.25h4.375v1h-3.453l-.266 2.327q.64-.375 1.438-.375 1.156 0 1.843.782.688.765.688 2.078 0 1.312-.719 2.078-.703.766-1.984.766-1.125 0-1.844-.625-.719-.641-.812-1.75h1.015q.11.734.531 1.109.422.375 1.11.375.75 0 1.187-.516.438-.515.438-1.422 0-.859-.469-1.375-.469-.515-1.25-.515-.703 0-1.11.297l-.28.234-.876-.219Z"/><path fill="#fbbc04" d="m214.417 152.781.438-4.25h4.375v1h-3.453l-.266 2.328q.64-.375 1.438-.375 1.156 0 1.843.782.688.765.688 2.078 0 1.312-.719 2.078-.703.766-1.984.766-1.125 0-1.844-.625-.719-.641-.812-1.75h1.015q.11.734.531 1.109.422.375 1.11.375.75 0 1.187-.516.438-.515.438-1.422 0-.859-.469-1.375-.469-.515-1.25-.515-.703 0-1.11.297l-.28.234-.876-.219Zm10.657.531q-.328.407-.813.657-.469.234-1.031.234-.734 0-1.281-.36-.547-.359-.844-1.015-.297-.672-.297-1.469 0-.843.313-1.53.328-.688.921-1.048.61-.375 1.407-.375 1.265 0 1.984.953.734.953.734 2.578v.313q0 2.5-.984 3.64-.984 1.141-2.969 1.173h-.218v-.907h.234q1.344-.031 2.062-.703.72-.672.782-2.14Zm-1.672 0q.547 0 1-.328.469-.343.687-.828v-.437q0-1.063-.468-1.735-.47-.672-1.172-.672-.72 0-1.157.547-.421.547-.421 1.453 0 .875.406 1.438.422.563 1.125.563Zm5.015-.53.438-4.25h4.375v1h-3.453l-.266 2.327q.64-.375 1.438-.375 1.156 0 1.843.782.688.765.688 2.078 0 1.312-.719 2.078-.703.766-1.984.766-1.125 0-1.844-.625-.719-.641-.812-1.75h1.015q.11.734.531 1.109.422.375 1.11.375.75 0 1.187-.516.438-.515.438-1.422 0-.859-.469-1.375-.469-.515-1.25-.515-.703 0-1.11.297l-.28.234-.876-.219Z"/><path stroke="#fff" stroke-width="3" stroke-linejoin="round" stroke-linecap="round" d="m308.06 152.056.438-4.25h4.375v1h-3.453l-.266 2.328q.64-.375 1.438-.375 1.156 0 1.843.782.688.765.688 2.078 0 1.312-.719 2.078-.703.766-1.984.766-1.125 0-1.844-.625-.719-.641-.813-1.75h1.016q.11.734.531 1.109.422.375 1.11.375.75 0 1.187-.516.438-.515.438-1.422 0-.859-.47-1.375-.468-.515-1.25-.515-.702 0-1.108.297l-.282.234-.875-.219Zm10.657.531q-.329.407-.813.657-.469.234-1.031.234-.735 0-1.281-.36-.547-.359-.844-1.015-.297-.672-.297-1.469 0-.843.312-1.53.329-.688.922-1.048.61-.375 1.407-.375 1.265 0 1.984.953.734.954.734 2.579v.312q0 2.5-.984 3.64-.984 1.141-2.969 1.173h-.219v-.907h.235q1.344-.031 2.062-.703.719-.672.782-2.14Zm-1.672 0q.547 0 1-.328.468-.343.687-.828v-.437q0-1.063-.469-1.735-.468-.671-1.171-.671-.72 0-1.157.546-.422.547-.422 1.454 0 .875.407 1.437.422.563 1.125.563Zm10.03-4.171-3.53 7.922h-1.141l3.516-7.641h-4.61v-.89h5.766v.609Z"/><path fill="#fbbc04" d="m308.06 152.056.438-4.25h4.375v1h-3.453l-.266 2.328q.64-.375 1.438-.375 1.156 0 1.843.782.688.765.688 2.078 0 1.312-.719 2.078-.703.766-1.984.766-1.125 0-1.844-.625-.719-.641-.813-1.75h1.016q.11.734.531 1.109.422.375 1.11.375.75 0 1.187-.516.438-.515.438-1.422 0-.859-.47-1.375-.468-.515-1.25-.515-.702 0-1.108.297l-.282.234-.875-.219Zm10.657.531q-.329.407-.813.657-.469.234-1.031.234-.735 0-1.281-.36-.547-.359-.844-1.015-.297-.672-.297-1.469 0-.843.312-1.53.329-.688.922-1.048.61-.375 1.407-.375 1.265 0 1.984.953.734.954.734 2.579v.312q0 2.5-.984 3.64-.984 1.141-2.969 1.173h-.219v-.907h.235q1.344-.031 2.062-.703.719-.672.782-2.14Zm-1.672 0q.547 0 1-.328.468-.343.687-.828v-.437q0-1.063-.469-1.735-.468-.671-1.171-.671-.72 0-1.157.546-.422.547-.422 1.454 0 .875.407 1.437.422.563 1.125.563Zm10.03-4.171-3.53 7.922h-1.141l3.516-7.641h-4.61v-.89h5.766v.609Z"/><path stroke="#fff" stroke-width="3" stroke-linejoin="round" stroke-linecap="round" d="M405.469 137.294v.906h-.203q-1.266.031-2.016.766-.75.718-.875 2.03.688-.765 1.844-.765 1.11 0 1.781.781.672.782.672 2.032 0 1.312-.719 2.11-.719.796-1.937.796-1.22 0-1.985-.938-.75-.953-.75-2.437v-.406q0-2.36 1-3.61t2.985-1.265h.203Zm-1.422 3.843q-.563 0-1.031.329-.47.328-.657.843v.391q0 1.063.47 1.703.483.64 1.187.64.734 0 1.156-.53.422-.547.422-1.422 0-.875-.422-1.407-.422-.547-1.125-.547Zm9.75 4.688h-5.594v-.781l2.953-3.282q.656-.75.906-1.203.25-.468.25-.968 0-.672-.406-1.094-.39-.438-1.078-.438-.797 0-1.25.47-.453.452-.453 1.28h-1.078q0-1.187.75-1.906.765-.734 2.031-.734 1.203 0 1.89.625.688.625.688 1.672 0 1.25-1.61 3l-2.28 2.468h4.28v.891Zm5.672-8.531v.906h-.203q-1.266.031-2.016.766-.75.718-.875 2.03.688-.765 1.844-.765 1.11 0 1.781.781.672.782.672 2.032 0 1.312-.719 2.11-.719.796-1.937.796-1.22 0-1.985-.938-.75-.953-.75-2.437v-.406q0-2.36 1-3.61t2.985-1.265h.203Zm-1.422 3.843q-.563 0-1.031.329-.47.328-.657.843v.391q0 1.063.47 1.703.483.64 1.187.64.734 0 1.156-.53.422-.547.422-1.422 0-.875-.422-1.407-.422-.547-1.125-.547Z"/><path fill="#fbbc04" d="M405.469 137.294v.906h-.203q-1.266.031-2.016.766-.75.718-.875 2.03.688-.765 1.844-.765 1.11 0 1.781.781.672.782.672 2.032 0 1.312-.719 2.11-.719.796-1.937.796-1.22 0-1.985-.938-.75-.953-.75-2.437v-.406q0-2.36 1-3.61t2.985-1.265h.203Zm-1.422 3.843q-.563 0-1.031.329-.47.328-.657.843v.391q0 1.063.47 1.703.483.64 1.187.64.734 0 1.156-.53.422-.547.422-1.422 0-.875-.422-1.407-.422-.547-1.125-.547Zm9.75 4.688h-5.594v-.781l2.953-3.282q.656-.75.906-1.203.25-.468.25-.968 0-.672-.406-1.094-.39-.438-1.078-.438-.797 0-1.25.47-.453.452-.453 1.28h-1.078q0-1.187.75-1.906.765-.734 2.031-.734 1.203 0 1.89.625.688.625.688 1.672 0 1.25-1.61 3l-2.28 2.468h4.28v.891Zm5.672-8.531v.906h-.203q-1.266.031-2.016.766-.75.718-.875 2.03.688-.765 1.844-.765 1.11 0 1.781.781.672.782.672 2.032 0 1.312-.719 2.11-.719.796-1.937.796-1.22 0-1.985-.938-.75-.953-.75-2.437v-.406q0-2.36 1-3.61t2.985-1.265h.203Zm-1.422 3.843q-.563 0-1.031.329-.47.328-.657.843v.391q0 1.063.47 1.703.483.64 1.187.64.734 0 1.156-.53.422-.547.422-1.422 0-.875-.422-1.407-.422-.547-1.125-.547Z"/><path stroke="#fff" stroke-width="3" stroke-linejoin="round" stroke-linecap="round" d="m495.346 155.319.437-4.25h4.375v1h-3.453l-.265 2.328q.64-.375 1.437-.375 1.156 0 1.844.781.687.766.687 2.078 0 1.313-.718 2.078-.703.766-1.985.766-1.125 0-1.843-.625-.72-.64-.813-1.75h1.016q.11.734.531 1.11.422.374 1.11.374.75 0 1.187-.515.437-.516.437-1.422 0-.86-.468-1.375-.47-.516-1.25-.516-.704 0-1.11.297l-.281.234-.875-.218Zm11.687-2.031q0 .64-.343 1.14-.344.5-.907.781.657.282 1.047.844.391.547.391 1.25 0 1.094-.75 1.766-.734.656-1.953.656-1.235 0-1.985-.656-.734-.672-.734-1.766 0-.703.375-1.25.375-.562 1.047-.844-.563-.28-.89-.78-.329-.5-.329-1.142 0-1.078.688-1.703.687-.64 1.828-.64 1.125 0 1.812.64.703.625.703 1.703Zm-.89 3.984q0-.719-.453-1.156-.453-.454-1.188-.454-.734 0-1.187.454-.438.437-.438 1.171 0 .72.438 1.141.437.406 1.203.406.75 0 1.187-.422.438-.421.438-1.14Zm-1.625-5.438q-.64 0-1.047.407-.39.39-.39 1.078 0 .64.39 1.047.39.406 1.031.406.656 0 1.047-.406.39-.407.39-1.047 0-.656-.406-1.063-.406-.422-1.015-.422Zm9.516 1.453q0 .641-.344 1.141t-.907.781q.657.282 1.047.844.391.547.391 1.25 0 1.094-.75 1.766-.734.656-1.953.656-1.235 0-1.985-.656-.734-.672-.734-1.766 0-.703.375-1.25.375-.562 1.047-.844-.563-.28-.89-.78-.329-.5-.329-1.142 0-1.078.688-1.703.687-.64 1.828-.64 1.125 0 1.812.64.703.625.703 1.703Zm-.891 3.985q0-.719-.453-1.156-.453-.454-1.188-.454-.734 0-1.187.454-.438.437-.438 1.171 0 .72.438 1.141.437.406 1.203.406.75 0 1.187-.422.438-.421.438-1.14Zm-1.625-5.438q-.64 0-1.047.407-.39.39-.39 1.078 0 .64.39 1.047.39.406 1.031.406.656 0 1.047-.406.39-.407.39-1.047 0-.656-.405-1.063-.407-.422-1.016-.422Z"/><path fill="#fbbc04" d="m495.346 155.319.437-4.25h4.375v1h-3.453l-.265 2.328q.64-.375 1.437-.375 1.156 0 1.844.781.687.766.687 2.078 0 1.313-.718 2.078-.703.766-1.985.766-1.125 0-1.843-.625-.72-.64-.813-1.75h1.016q.11.734.531 1.11.422.374 1.11.374.75 0 1.187-.515.437-.516.437-1.422 0-.86-.468-1.375-.47-.516-1.25-.516-.704 0-1.11.297l-.281.234-.875-.218Zm11.687-2.031q0 .64-.343 1.14-.344.5-.907.781.657.282 1.047.844.391.547.391 1.25 0 1.094-.75 1.766-.734.656-1.953.656-1.235 0-1.985-.656-.734-.672-.734-1.766 0-.703.375-1.25.375-.562 1.047-.844-.563-.28-.89-.78-.329-.5-.329-1.142 0-1.078.688-1.703.687-.64 1.828-.64 1.125 0 1.812.64.703.625.703 1.703Zm-.89 3.984q0-.719-.453-1.156-.453-.454-1.188-.454-.734 0-1.187.454-.438.437-.438 1.171 0 .72.438 1.141.437.406 1.203.406.75 0 1.187-.422.438-.421.438-1.14Zm-1.625-5.438q-.64 0-1.047.407-.39.39-.39 1.078 0 .64.39 1.047.39.406 1.031.406.656 0 1.047-.406.39-.407.39-1.047 0-.656-.406-1.063-.406-.422-1.015-.422Zm9.515 1.453q0 .641-.343 1.141-.344.5-.907.781.657.282 1.047.844.39.547.39 1.25 0 1.094-.75 1.766-.733.656-1.952.656-1.235 0-1.985-.656-.734-.672-.734-1.766 0-.703.375-1.25.375-.562 1.047-.844-.563-.28-.89-.78-.329-.5-.329-1.142 0-1.078.688-1.703.687-.64 1.828-.64 1.125 0 1.812.64.703.625.703 1.703Zm-.89 3.985q0-.719-.453-1.156-.453-.454-1.188-.454-.734 0-1.187.454-.438.437-.438 1.171 0 .72.438 1.141.437.406 1.203.406.75 0 1.187-.422.438-.421.438-1.14Zm-1.625-5.438q-.64 0-1.047.407-.39.39-.39 1.078 0 .64.39 1.047.39.406 1.031.406.656 0 1.047-.406.39-.407.39-1.047 0-.656-.406-1.063-.406-.422-1.015-.422Z"/><path stroke="#fff" stroke-width="3" stroke-linejoin="round" stroke-linecap="round" d="m588.989 153.144.437-4.25h4.375v1h-3.453l-.265 2.328q.64-.375 1.437-.375 1.156 0 1.844.781.687.766.687 2.078 0 1.313-.718 2.078-.704.766-1.985.766-1.125 0-1.844-.625-.718-.64-.812-1.75h1.016q.109.734.53 1.11.423.374 1.11.374.75 0 1.188-.515.437-.516.437-1.422 0-.86-.469-1.375-.468-.516-1.25-.516-.703 0-1.109.297l-.281.235-.875-.22Zm10.656.531q-.328.406-.812.656-.47.235-1.032.235-.734 0-1.28-.36-.548-.36-.845-1.015-.297-.672-.297-1.47 0-.843.313-1.53.328-.688.922-1.047.61-.375 1.406-.375 1.266 0 1.984.953.735.953.735 2.578v.313q0 2.5-.985 3.64-.984 1.14-2.968 1.172h-.219v-.906h.234q1.344-.031 2.063-.703.719-.672.781-2.141Zm-1.672 0q.547 0 1-.328.469-.344.688-.828v-.438q0-1.062-.469-1.734-.469-.672-1.172-.672-.719 0-1.156.547-.422.547-.422 1.453 0 .875.406 1.438.422.562 1.125.562Zm9.094.89h1.187v.876h-1.187v1.984h-1.078v-1.984h-3.89v-.641l3.812-5.906h1.156v5.672Zm-3.734 0h2.656v-4.187l-.14.235-2.516 3.953Z"/><path fill="#fbbc04" d="m588.989 153.144.437-4.25h4.375v1h-3.453l-.265 2.328q.64-.375 1.437-.375 1.156 0 1.844.781.687.766.687 2.078 0 1.313-.718 2.078-.704.766-1.985.766-1.125 0-1.844-.625-.718-.64-.812-1.75h1.016q.109.734.53 1.11.423.374 1.11.374.75 0 1.188-.515.437-.516.437-1.422 0-.86-.469-1.375-.468-.516-1.25-.516-.703 0-1.109.297l-.281.235-.875-.22Zm10.656.531q-.328.406-.812.656-.47.235-1.032.235-.734 0-1.28-.36-.548-.36-.845-1.015-.297-.672-.297-1.47 0-.843.313-1.53.328-.688.922-1.047.61-.375 1.406-.375 1.266 0 1.984.953.735.953.735 2.578v.313q0 2.5-.985 3.64-.984 1.14-2.968 1.172h-.219v-.906h.234q1.344-.031 2.063-.703.719-.672.781-2.141Zm-1.672 0q.547 0 1-.328.469-.344.688-.828v-.438q0-1.062-.469-1.734-.469-.672-1.172-.672-.719 0-1.156.547-.422.547-.422 1.453 0 .875.406 1.438.422.562 1.125.562Zm9.094.89h1.187v.876h-1.187v1.984h-1.078v-1.984h-3.89v-.641l3.812-5.906h1.156v5.672Zm-3.734 0h2.656v-4.187l-.14.235-2.516 3.953Z"/><path stroke="#fff" stroke-width="3" stroke-linejoin="round" stroke-linecap="round" d="m682.632 179.969.437-4.25h4.375v1h-3.453l-.266 2.328q.641-.375 1.438-.375 1.156 0 1.844.781.687.766.687 2.078 0 1.313-.719 2.078-.703.766-1.984.766-1.125 0-1.844-.625-.718-.64-.812-1.75h1.015q.11.734.532 1.11.422.374 1.11.374.75 0 1.187-.515.437-.516.437-1.422 0-.86-.469-1.375-.468-.516-1.25-.516-.703 0-1.109.297l-.281.234-.875-.218Zm12.093 4.281h-5.593v-.781l2.953-3.281q.656-.75.906-1.204.25-.468.25-.968 0-.672-.406-1.094-.39-.438-1.078-.438-.797 0-1.25.47-.453.452-.453 1.28h-1.079q0-1.187.75-1.906.766-.734 2.032-.734 1.203 0 1.89.625.688.625.688 1.672 0 1.25-1.61 3l-2.28 2.468h4.28v.891Zm6.766-3.64q0 1.906-.656 2.843-.64.922-2.031.922-1.36 0-2.016-.906-.656-.906-.688-2.719v-1.438q0-1.89.641-2.796.656-.922 2.047-.922 1.375 0 2.031.89.656.875.672 2.72v1.405Zm-1.094-1.485q0-1.375-.39-2-.375-.64-1.219-.64-.828 0-1.219.64-.375.625-.375 1.922v1.734q0 1.375.39 2.047.407.656 1.22.656.796 0 1.187-.625.39-.625.406-1.953v-1.781Z"/><path fill="#fbbc04" d="m682.632 179.969.437-4.25h4.375v1h-3.453l-.266 2.328q.641-.375 1.438-.375 1.156 0 1.844.781.687.766.687 2.078 0 1.313-.719 2.078-.703.766-1.984.766-1.125 0-1.844-.625-.718-.64-.812-1.75h1.015q.11.734.532 1.11.422.374 1.11.374.75 0 1.187-.515.437-.516.437-1.422 0-.86-.469-1.375-.468-.516-1.25-.516-.703 0-1.109.297l-.281.234-.875-.218Zm12.093 4.281h-5.593v-.781l2.953-3.281q.656-.75.906-1.204.25-.468.25-.968 0-.672-.406-1.094-.39-.438-1.078-.438-.797 0-1.25.47-.453.452-.453 1.28h-1.079q0-1.187.75-1.906.766-.734 2.032-.734 1.203 0 1.89.625.688.625.688 1.672 0 1.25-1.61 3l-2.28 2.468h4.28v.891Zm6.766-3.64q0 1.906-.656 2.843-.64.922-2.031.922-1.36 0-2.016-.906-.656-.906-.688-2.719v-1.438q0-1.89.641-2.796.656-.922 2.047-.922 1.375 0 2.031.89.656.875.672 2.72v1.405Zm-1.094-1.485q0-1.375-.39-2-.375-.64-1.219-.64-.828 0-1.219.64-.375.625-.375 1.922v1.734q0 1.375.39 2.047.407.656 1.22.656.796 0 1.187-.625.39-.625.406-1.953v-1.781Z"/><path stroke="#fff" stroke-width="3" stroke-linejoin="round" stroke-linecap="round" d="M124.54 143.094V144h-.203q-1.266.031-2.016.766-.75.718-.875 2.03.688-.765 1.844-.765 1.11 0 1.781.781.672.782.672 2.032 0 1.312-.718 2.11-.72.796-1.938.796-1.219 0-1.984-.938-.75-.953-.75-2.437v-.406q0-2.36 1-3.61t2.984-1.265h.203Zm-1.422 3.844q-.562 0-1.03.328-.47.328-.657.843v.391q0 1.063.469 1.703.484.64 1.187.64.734 0 1.156-.53.422-.547.422-1.422 0-.875-.422-1.407-.422-.547-1.125-.547Zm7.72 4.687h-1.08v-7.219l-2.187.797v-.984l3.11-1.172h.156v8.578Zm8.796-3.64q0 1.906-.656 2.843-.641.922-2.032.922-1.359 0-2.015-.906-.656-.906-.688-2.719v-1.438q0-1.89.64-2.796.657-.922 2.048-.922 1.375 0 2.031.89.656.875.672 2.72v1.405Zm-1.094-1.485q0-1.375-.39-2-.375-.64-1.22-.64-.827 0-1.218.64-.375.625-.375 1.922v1.734q0 1.375.39 2.047.407.656 1.22.656.796 0 1.187-.625.39-.625.406-1.953V146.5Z"/><path fill="#4285f4" d="M124.54 143.094V144h-.203q-1.266.031-2.016.766-.75.718-.875 2.03.688-.765 1.844-.765 1.11 0 1.781.781.672.782.672 2.032 0 1.312-.718 2.11-.72.796-1.938.796-1.219 0-1.984-.938-.75-.953-.75-2.437v-.406q0-2.36 1-3.61t2.984-1.265h.203Zm-1.422 3.844q-.562 0-1.03.328-.47.328-.657.843v.391q0 1.063.469 1.703.484.64 1.187.64.734 0 1.156-.53.422-.547.422-1.422 0-.875-.422-1.407-.422-.547-1.125-.547Zm7.72 4.687h-1.08v-7.219l-2.187.797v-.984l3.11-1.172h.156v8.578Zm8.796-3.64q0 1.906-.656 2.843-.641.922-2.032.922-1.359 0-2.015-.906-.656-.906-.688-2.719v-1.438q0-1.89.64-2.796.657-.922 2.048-.922 1.375 0 2.031.89.656.875.672 2.72v1.405Zm-1.094-1.485q0-1.375-.39-2-.375-.64-1.22-.64-.827 0-1.218.64-.375.625-.375 1.922v1.734q0 1.375.39 2.047.407.656 1.22.656.796 0 1.187-.625.39-.625.406-1.953V146.5Z"/><path stroke="#fff" stroke-width="3" stroke-linejoin="round" stroke-linecap="round" d="M218.183 138.744v.906h-.203q-1.266.031-2.016.766-.75.718-.875 2.03.688-.765 1.844-.765 1.11 0 1.781.781.672.782.672 2.032 0 1.312-.719 2.11-.718.796-1.937.796t-1.984-.938q-.75-.953-.75-2.437v-.406q0-2.36 1-3.61t2.984-1.265h.203Zm-1.422 3.844q-.562 0-1.031.328-.469.328-.656.843v.391q0 1.063.468 1.703.485.64 1.188.64.734 0 1.156-.53.422-.547.422-1.422 0-.875-.422-1.407-.422-.546-1.125-.546Zm9.75 4.687h-5.594v-.781l2.954-3.281q.656-.75.906-1.204.25-.468.25-.968 0-.672-.406-1.094-.391-.438-1.079-.438-.796 0-1.25.47-.453.452-.453 1.28h-1.078q0-1.187.75-1.906.766-.734 2.031-.734 1.204 0 1.891.625.688.625.688 1.672 0 1.25-1.61 3l-2.281 2.468h4.281v.891Zm7 0h-5.594v-.781l2.954-3.281q.656-.75.906-1.204.25-.468.25-.968 0-.672-.406-1.094-.391-.438-1.079-.438-.796 0-1.25.47-.453.452-.453 1.28h-1.078q0-1.187.75-1.906.766-.734 2.031-.734 1.204 0 1.891.625.688.625.688 1.672 0 1.25-1.61 3l-2.281 2.468h4.281v.891Z"/><path fill="#4285f4" d="M218.183 138.744v.906h-.203q-1.266.031-2.016.766-.75.718-.875 2.03.688-.765 1.844-.765 1.11 0 1.781.781.672.782.672 2.032 0 1.312-.719 2.11-.718.796-1.937.796t-1.984-.938q-.75-.953-.75-2.437v-.406q0-2.36 1-3.61t2.984-1.265h.203Zm-1.422 3.844q-.562 0-1.031.328-.469.328-.656.843v.391q0 1.063.468 1.703.485.64 1.188.64.734 0 1.156-.53.422-.547.422-1.422 0-.875-.422-1.407-.422-.546-1.125-.546Zm9.75 4.687h-5.594v-.781l2.954-3.281q.656-.75.906-1.204.25-.468.25-.968 0-.672-.406-1.094-.391-.438-1.079-.438-.796 0-1.25.47-.453.452-.453 1.28h-1.078q0-1.187.75-1.906.766-.734 2.031-.734 1.204 0 1.891.625.688.625.688 1.672 0 1.25-1.61 3l-2.281 2.468h4.281v.891Zm7 0h-5.594v-.781l2.954-3.281q.656-.75.906-1.204.25-.468.25-.968 0-.672-.406-1.094-.391-.438-1.079-.438-.796 0-1.25.47-.453.452-.453 1.28h-1.078q0-1.187.75-1.906.766-.734 2.031-.734 1.204 0 1.891.625.688.625.688 1.672 0 1.25-1.61 3l-2.281 2.468h4.281v.891Z"/><path stroke="#fff" stroke-width="3" stroke-linejoin="round" stroke-linecap="round" d="M311.826 135.844v.906h-.203q-1.266.031-2.016.766-.75.718-.875 2.03.688-.765 1.844-.765 1.11 0 1.781.781.672.782.672 2.032 0 1.312-.719 2.11-.718.796-1.937.796t-1.985-.938q-.75-.953-.75-2.437v-.406q0-2.36 1-3.61t2.985-1.265h.203Zm-1.422 3.844q-.562 0-1.031.328-.469.328-.656.843v.391q0 1.063.468 1.703.485.64 1.188.64.734 0 1.156-.53.422-.547.422-1.422 0-.875-.422-1.407-.422-.547-1.125-.547Zm5.734-.11h.813q.781-.016 1.219-.406.437-.39.437-1.063 0-1.5-1.5-1.5-.703 0-1.125.407-.406.406-.406 1.062h-1.094q0-1.016.735-1.687.75-.672 1.89-.672 1.203 0 1.89.64.688.641.688 1.782 0 .562-.36 1.078-.358.515-.983.781.703.219 1.078.734.39.516.39 1.266 0 1.14-.75 1.828-.75.672-1.953.672-1.187 0-1.953-.656-.75-.656-.75-1.719h1.094q0 .672.437 1.078.438.406 1.188.406.781 0 1.187-.406.422-.422.422-1.187 0-.735-.453-1.125-.453-.407-1.328-.422h-.813v-.89Zm10.782 1.156q0 1.907-.657 2.844-.64.922-2.03.922-1.36 0-2.016-.906-.657-.906-.688-2.719v-1.438q0-1.89.64-2.796.657-.922 2.048-.922 1.375 0 2.03.89.657.875.673 2.72v1.405Zm-1.094-1.484q0-1.375-.39-2-.376-.64-1.22-.64-.828 0-1.218.64-.375.625-.375 1.922v1.734q0 1.375.39 2.047.407.656 1.22.656.796 0 1.187-.625.39-.625.406-1.953v-1.781Z"/><path fill="#4285f4" d="M311.826 135.844v.906h-.203q-1.266.031-2.016.766-.75.718-.875 2.03.688-.765 1.844-.765 1.11 0 1.781.781.672.782.672 2.032 0 1.312-.719 2.11-.718.796-1.937.796t-1.985-.938q-.75-.953-.75-2.437v-.406q0-2.36 1-3.61t2.985-1.265h.203Zm-1.422 3.844q-.562 0-1.031.328-.469.328-.656.843v.391q0 1.063.468 1.703.485.64 1.188.64.734 0 1.156-.53.422-.547.422-1.422 0-.875-.422-1.407-.422-.547-1.125-.547Zm5.734-.11h.813q.781-.016 1.219-.406.437-.39.437-1.063 0-1.5-1.5-1.5-.703 0-1.125.407-.406.406-.406 1.062h-1.094q0-1.016.735-1.687.75-.672 1.89-.672 1.203 0 1.89.64.688.641.688 1.782 0 .562-.36 1.078-.358.515-.983.781.703.219 1.078.734.39.516.39 1.266 0 1.14-.75 1.828-.75.672-1.953.672-1.187 0-1.953-.656-.75-.656-.75-1.719h1.094q0 .672.437 1.078.438.406 1.188.406.781 0 1.187-.406.422-.422.422-1.187 0-.735-.453-1.125-.453-.407-1.328-.422h-.813v-.89Zm10.782 1.156q0 1.907-.657 2.844-.64.922-2.03.922-1.36 0-2.016-.906-.657-.906-.688-2.719v-1.438q0-1.89.64-2.796.657-.922 2.048-.922 1.375 0 2.03.89.657.875.673 2.72v1.405Zm-1.094-1.484q0-1.375-.39-2-.376-.64-1.22-.64-.828 0-1.218.64-.375.625-.375 1.922v1.734q0 1.375.39 2.047.407.656 1.22.656.796 0 1.187-.625.39-.625.406-1.953v-1.781Z"/><path stroke="#fff" stroke-width="3" stroke-linejoin="round" stroke-linecap="round" d="M405.469 135.481v.906h-.203q-1.266.032-2.016.766-.75.719-.875 2.031.688-.765 1.844-.765 1.11 0 1.781.781.672.781.672 2.031 0 1.313-.719 2.11-.719.796-1.937.796-1.22 0-1.985-.937-.75-.953-.75-2.438v-.406q0-2.36 1-3.61t2.985-1.265h.203Zm-1.422 3.844q-.563 0-1.031.328-.47.328-.657.844v.39q0 1.063.47 1.704.483.64 1.187.64.734 0 1.156-.531.422-.547.422-1.422 0-.875-.422-1.406-.422-.547-1.125-.547Zm5.734-.11h.813q.781-.015 1.219-.406.437-.39.437-1.062 0-1.5-1.5-1.5-.703 0-1.125.406-.406.406-.406 1.063h-1.094q0-1.016.734-1.688.75-.672 1.891-.672 1.203 0 1.89.64.688.641.688 1.782 0 .563-.36 1.078-.359.516-.984.781.704.22 1.079.735.39.515.39 1.265 0 1.141-.75 1.829-.75.671-1.953.671-1.188 0-1.953-.656-.75-.656-.75-1.719h1.094q0 .672.437 1.079.438.406 1.188.406.78 0 1.187-.406.422-.422.422-1.188 0-.734-.453-1.125-.453-.406-1.328-.422h-.813v-.89Zm8.985 4.797h-1.079v-7.218l-2.187.797v-.985l3.11-1.172h.156v8.578Z"/><path fill="#4285f4" d="M405.469 135.481v.906h-.203q-1.266.032-2.016.766-.75.719-.875 2.031.688-.765 1.844-.765 1.11 0 1.781.781.672.781.672 2.031 0 1.313-.719 2.11-.719.796-1.937.796-1.22 0-1.985-.937-.75-.953-.75-2.438v-.406q0-2.36 1-3.61t2.985-1.265h.203Zm-1.422 3.844q-.563 0-1.031.328-.47.328-.657.844v.39q0 1.063.47 1.704.483.64 1.187.64.734 0 1.156-.531.422-.547.422-1.422 0-.875-.422-1.406-.422-.547-1.125-.547Zm5.734-.11h.813q.781-.015 1.219-.406.437-.39.437-1.062 0-1.5-1.5-1.5-.703 0-1.125.406-.406.406-.406 1.063h-1.094q0-1.016.734-1.688.75-.672 1.891-.672 1.203 0 1.89.64.688.641.688 1.782 0 .563-.36 1.078-.359.516-.984.781.704.22 1.079.735.39.515.39 1.265 0 1.141-.75 1.829-.75.671-1.953.671-1.188 0-1.953-.656-.75-.656-.75-1.719h1.094q0 .672.437 1.079.438.406 1.188.406.78 0 1.187-.406.422-.422.422-1.188 0-.734-.453-1.125-.453-.406-1.328-.422h-.813v-.89Zm8.985 4.797h-1.079v-7.218l-2.187.797v-.985l3.11-1.172h.156v8.578Z"/><path stroke="#fff" stroke-width="3" stroke-linejoin="round" stroke-linecap="round" d="M499.112 137.294v.906h-.204q-1.265.031-2.015.766-.75.718-.875 2.03.687-.765 1.844-.765 1.109 0 1.78.781.673.782.673 2.032 0 1.312-.719 2.11-.719.796-1.938.796-1.218 0-1.984-.938-.75-.953-.75-2.437v-.406q0-2.36 1-3.61t2.984-1.265h.204Zm-1.422 3.843q-.563 0-1.032.329-.468.328-.656.843v.391q0 1.063.469 1.703.484.64 1.187.64.735 0 1.157-.53.422-.547.422-1.422 0-.875-.422-1.407-.422-.547-1.125-.547Zm9.75 4.688h-5.594v-.781l2.953-3.282q.656-.75.906-1.203.25-.468.25-.968 0-.672-.406-1.094-.39-.438-1.078-.438-.797 0-1.25.47-.453.452-.453 1.28h-1.078q0-1.187.75-1.906.765-.734 2.031-.734 1.203 0 1.89.625.688.625.688 1.672 0 1.25-1.61 3l-2.28 2.468h4.28v.891Zm5.672-8.531v.906h-.203q-1.266.031-2.016.766-.75.718-.875 2.03.687-.765 1.844-.765 1.109 0 1.78.781.673.782.673 2.032 0 1.312-.719 2.11-.719.796-1.938.796-1.218 0-1.984-.938-.75-.953-.75-2.437v-.406q0-2.36 1-3.61t2.985-1.265h.203Zm-1.422 3.843q-.563 0-1.032.329-.468.328-.656.843v.391q0 1.063.469 1.703.484.64 1.187.64.735 0 1.157-.53.422-.547.422-1.422 0-.875-.422-1.407-.422-.547-1.125-.547Z"/><path fill="#4285f4" d="M499.112 137.294v.906h-.204q-1.265.031-2.015.766-.75.718-.875 2.03.687-.765 1.844-.765 1.109 0 1.78.781.673.782.673 2.032 0 1.312-.719 2.11-.719.796-1.938.796-1.218 0-1.984-.938-.75-.953-.75-2.437v-.406q0-2.36 1-3.61t2.984-1.265h.204Zm-1.422 3.843q-.563 0-1.032.329-.468.328-.656.843v.391q0 1.063.469 1.703.484.64 1.187.64.735 0 1.157-.53.422-.547.422-1.422 0-.875-.422-1.407-.422-.547-1.125-.547Zm9.75 4.688h-5.594v-.781l2.953-3.282q.656-.75.906-1.203.25-.468.25-.968 0-.672-.406-1.094-.39-.438-1.078-.438-.797 0-1.25.47-.453.452-.453 1.28h-1.078q0-1.187.75-1.906.765-.734 2.031-.734 1.203 0 1.89.625.688.625.688 1.672 0 1.25-1.61 3l-2.28 2.468h4.28v.891Zm5.672-8.531v.906h-.204q-1.265.031-2.015.766-.75.718-.875 2.03.687-.765 1.844-.765 1.109 0 1.78.781.673.782.673 2.032 0 1.312-.72 2.11-.718.796-1.937.796-1.218 0-1.984-.938-.75-.953-.75-2.437v-.406q0-2.36 1-3.61t2.984-1.265h.204Zm-1.422 3.843q-.563 0-1.032.329-.468.328-.656.843v.391q0 1.063.469 1.703.484.64 1.187.64.735 0 1.157-.53.422-.547.422-1.422 0-.875-.422-1.407-.422-.547-1.125-.547Z"/><path stroke="#fff" stroke-width="3" stroke-linejoin="round" stroke-linecap="round" d="M592.754 126.419v.906h-.203q-1.265.031-2.015.766-.75.718-.875 2.03.687-.765 1.843-.765 1.11 0 1.782.781.672.782.672 2.032 0 1.312-.72 2.11-.718.796-1.937.796-1.218 0-1.984-.938-.75-.953-.75-2.437v-.406q0-2.36 1-3.61t2.984-1.265h.203Zm-1.421 3.843q-.563 0-1.032.329-.468.328-.656.843v.391q0 1.063.469 1.703.484.64 1.187.64.735 0 1.157-.53.421-.547.421-1.422 0-.875-.421-1.407-.422-.547-1.125-.547Zm4.656.407.437-4.25h4.375v1h-3.453l-.265 2.328q.64-.375 1.437-.375 1.156 0 1.844.781.687.766.687 2.078 0 1.313-.718 2.078-.704.766-1.985.766-1.125 0-1.844-.625-.718-.64-.812-1.75h1.016q.109.734.53 1.11.423.374 1.11.374.75 0 1.188-.515.437-.516.437-1.422 0-.86-.469-1.375-.468-.516-1.25-.516-.703 0-1.109.297l-.281.234-.875-.218Zm10.765-4.25v.906h-.203q-1.265.031-2.015.766-.75.718-.875 2.03.687-.765 1.843-.765 1.11 0 1.782.781.672.782.672 2.032 0 1.312-.72 2.11-.718.796-1.937.796-1.218 0-1.984-.938-.75-.953-.75-2.437v-.406q0-2.36 1-3.61t2.984-1.265h.203Zm-1.421 3.843q-.563 0-1.032.329-.468.328-.656.843v.391q0 1.063.469 1.703.484.64 1.187.64.735 0 1.157-.53.421-.547.421-1.422 0-.875-.421-1.407-.422-.547-1.125-.547Z"/><path fill="#4285f4" d="M592.754 126.419v.906h-.203q-1.265.031-2.015.766-.75.718-.875 2.03.687-.765 1.843-.765 1.11 0 1.782.781.672.782.672 2.032 0 1.312-.72 2.11-.718.796-1.937.796-1.218 0-1.984-.938-.75-.953-.75-2.437v-.406q0-2.36 1-3.61t2.984-1.265h.203Zm-1.421 3.843q-.563 0-1.032.329-.468.328-.656.843v.391q0 1.063.469 1.703.484.64 1.187.64.735 0 1.157-.53.421-.547.421-1.422 0-.875-.421-1.407-.422-.547-1.125-.547Zm4.656.407.437-4.25h4.375v1h-3.453l-.265 2.328q.64-.375 1.437-.375 1.156 0 1.844.781.687.766.687 2.078 0 1.313-.718 2.078-.704.766-1.985.766-1.125 0-1.844-.625-.718-.64-.812-1.75h1.016q.109.734.53 1.11.423.374 1.11.374.75 0 1.188-.515.437-.516.437-1.422 0-.86-.469-1.375-.468-.516-1.25-.516-.703 0-1.109.297l-.281.234-.875-.218Zm10.765-4.25v.906h-.203q-1.265.031-2.015.766-.75.718-.875 2.03.687-.765 1.843-.765 1.11 0 1.782.781.672.782.672 2.032 0 1.312-.72 2.11-.718.796-1.937.796-1.218 0-1.984-.938-.75-.953-.75-2.437v-.406q0-2.36 1-3.61t2.984-1.265h.203Zm-1.421 3.843q-.563 0-1.032.329-.468.328-.656.843v.391q0 1.063.469 1.703.484.64 1.187.64.735 0 1.157-.53.421-.547.421-1.422 0-.875-.421-1.407-.422-.547-1.125-.547Z"/><path stroke="#fff" stroke-width="3" stroke-linejoin="round" stroke-linecap="round" d="M686.397 145.994v.906h-.203q-1.265.031-2.015.766-.75.718-.875 2.03.687-.765 1.843-.765 1.11 0 1.782.781.671.782.671 2.032 0 1.312-.718 2.11-.719.796-1.938.796-1.219 0-1.984-.938-.75-.953-.75-2.437v-.406q0-2.36 1-3.61t2.984-1.265h.203Zm-1.422 3.844q-.562 0-1.03.328-.47.328-.657.843v.391q0 1.063.469 1.703.484.64 1.187.64.735 0 1.156-.53.422-.547.422-1.422 0-.875-.422-1.407-.421-.546-1.125-.546Zm9.516 1.046q0 1.907-.656 2.844-.64.922-2.031.922-1.36 0-2.016-.906-.656-.906-.688-2.719v-1.438q0-1.89.641-2.796.656-.922 2.047-.922 1.375 0 2.031.89.656.875.672 2.72v1.405Zm-1.094-1.484q0-1.375-.39-2-.375-.64-1.219-.64-.828 0-1.219.64-.375.625-.375 1.922v1.734q0 1.375.39 2.047.407.656 1.22.656.796 0 1.187-.625.39-.625.406-1.953V149.4Zm8.328 5.125h-5.593v-.781l2.953-3.281q.656-.75.906-1.204.25-.468.25-.968 0-.672-.406-1.094-.39-.438-1.078-.438-.797 0-1.25.47-.453.452-.453 1.28h-1.079q0-1.187.75-1.906.766-.734 2.032-.734 1.203 0 1.89.625.688.625.688 1.672 0 1.25-1.61 3l-2.28 2.468h4.28v.891Z"/><path fill="#4285f4" d="M686.397 145.994v.906h-.203q-1.265.031-2.015.766-.75.718-.875 2.03.687-.765 1.843-.765 1.11 0 1.782.781.671.782.671 2.032 0 1.312-.718 2.11-.719.796-1.938.796-1.219 0-1.984-.938-.75-.953-.75-2.437v-.406q0-2.36 1-3.61t2.984-1.265h.203Zm-1.422 3.844q-.562 0-1.03.328-.47.328-.657.843v.391q0 1.063.469 1.703.484.64 1.187.64.735 0 1.156-.53.422-.547.422-1.422 0-.875-.422-1.407-.421-.546-1.125-.546Zm9.516 1.046q0 1.907-.656 2.844-.64.922-2.031.922-1.36 0-2.016-.906-.656-.906-.688-2.719v-1.438q0-1.89.641-2.796.656-.922 2.047-.922 1.375 0 2.031.89.656.875.672 2.72v1.405Zm-1.094-1.484q0-1.375-.39-2-.375-.64-1.219-.64-.828 0-1.219.64-.375.625-.375 1.922v1.734q0 1.375.39 2.047.407.656 1.22.656.796 0 1.187-.625.39-.625.406-1.953V149.4Zm8.328 5.125h-5.593v-.781l2.953-3.281q.656-.75.906-1.204.25-.468.25-.968 0-.672-.406-1.094-.39-.438-1.078-.438-.797 0-1.25.47-.453.452-.453 1.28h-1.079q0-1.187.75-1.906.766-.734 2.032-.734 1.203 0 1.89.625.688.625.688 1.672 0 1.25-1.61 3l-2.28 2.468h4.28v.891Z"/><path fill="#000" d="M384.984 438.75v-8.531h2.797q1.39 0 2.078.578.704.562.704 1.687 0 .61-.344 1.079-.328.453-.922.703.703.187 1.094.734.406.531.406 1.281 0 1.156-.75 1.813-.735.656-2.094.656h-2.969Zm1.125-3.984v3.062h1.86q.797 0 1.25-.406.453-.406.453-1.125 0-1.531-1.688-1.531h-1.875Zm0-.907h1.704q.734 0 1.171-.359.454-.375.454-1.016 0-.703-.407-1.015-.406-.328-1.25-.328h-1.672v2.718ZM393 438.75h-1.078v-9H393v9Zm1.531-3.234q0-.922.36-1.672.375-.75 1.03-1.14.657-.407 1.485-.407 1.297 0 2.094.89.813.891.813 2.391v.078q0 .922-.36 1.656-.36.735-1.015 1.157-.657.406-1.516.406-1.281 0-2.094-.89-.797-.907-.797-2.391v-.078Zm1.094.14q0 1.047.484 1.688.5.64 1.313.64.828 0 1.312-.64.485-.656.485-1.828 0-1.032-.5-1.672-.485-.656-1.313-.656-.797 0-1.297.64-.484.625-.484 1.828Zm8.734 2.328q.579 0 1.016-.343.438-.36.484-.891h1.032q-.032.547-.391 1.047-.344.484-.922.781-.562.297-1.219.297-1.296 0-2.062-.86-.75-.874-.75-2.374v-.188q0-.922.328-1.64.344-.72.969-1.11.64-.406 1.515-.406 1.063 0 1.766.64.719.625.766 1.657h-1.032q-.046-.625-.468-1.016-.422-.39-1.032-.39-.828 0-1.28.593-.454.594-.454 1.719v.203q0 1.094.453 1.688.453.593 1.281.593Zm5.235-2.171-.688.703v2.234h-1.078v-9h1.078v5.438l.578-.688 1.985-2.094h1.312l-2.469 2.656 2.766 3.688h-1.281l-2.203-2.938Zm9.906-.86q-1.438-.422-2.11-1.031-.656-.61-.656-1.5 0-1 .797-1.656.813-.672 2.11-.672.875 0 1.562.344.688.343 1.063.937.39.594.39 1.313h-1.14q0-.782-.5-1.22-.485-.437-1.375-.437-.829 0-1.297.375-.469.36-.469 1 0 .531.438.89.453.36 1.515.657 1.063.297 1.656.656.61.36.891.844.297.485.297 1.125 0 1.047-.813 1.672-.812.625-2.156.625-.89 0-1.656-.344-.75-.344-1.172-.922-.406-.593-.406-1.328h1.125q0 .766.578 1.219.578.453 1.531.453.89 0 1.36-.36.468-.374.468-1 0-.624-.437-.968-.438-.344-1.594-.672Zm5.5 3.797h-1.078v-6.344H425v6.344Zm-1.172-8.016q0-.265.156-.453.172-.187.485-.187.312 0 .469.187.171.188.171.453 0 .25-.171.438-.157.172-.47.172-.312 0-.484-.172-.156-.188-.156-.438Zm4.016 7.125h3.703v.891h-5.031v-.797l3.5-4.64h-3.454v-.907h4.813v.766l-3.531 4.687Zm7.61 1.016q-1.298 0-2.11-.844-.797-.86-.797-2.281v-.188q0-.953.36-1.687.359-.75 1-1.156.656-.422 1.406-.422 1.234 0 1.921.812.688.813.688 2.329v.453h-4.297q.031.937.547 1.515.531.578 1.344.578.562 0 .953-.234.406-.234.719-.625l.656.516q-.797 1.234-2.39 1.234Zm-.142-5.688q-.656 0-1.109.485-.437.469-.531 1.328h3.172v-.078q-.047-.828-.453-1.281-.391-.454-1.079-.454ZM31.484 256.297v3.594h3.766v1.125h-8.531v-5.297h.922v4.172h2.922v-3.594h.921Zm.422-3.406h3.344v1.125h-8.531v-3.157q0-1.39.718-2.187.704-.797 1.891-.797 1.235 0 1.906.781.672.766.672 2.219v2.016Zm-.922 0v-2.032q0-.906-.422-1.375-.421-.484-1.218-.484-.766 0-1.219.484-.469.47-.484 1.313v2.094h3.343Zm.47-9.391q-.423 1.438-1.032 2.11-.61.656-1.5.656-1 0-1.656-.797-.672-.813-.672-2.11 0-.875.343-1.562.344-.688.938-1.063.594-.39 1.313-.39v1.14q-.782 0-1.22.5-.437.485-.437 1.375 0 .828.375 1.297.36.469 1 .469.532 0 .89-.438.36-.453.657-1.515.297-1.063.656-1.656.36-.61.844-.891.485-.297 1.125-.297 1.047 0 1.672.813.625.812.625 2.156 0 .89-.344 1.656-.343.75-.922 1.172-.593.406-1.328.406v-1.125q.766 0 1.219-.578.453-.578.453-1.531 0-.89-.36-1.36-.374-.468-1-.468-.624 0-.968.437-.344.438-.672 1.594ZM76.313 391.61q0 1.906-.657 2.843-.64.922-2.031.922-1.36 0-2.016-.906-.656-.906-.687-2.719v-1.438q0-1.89.64-2.796.657-.922 2.047-.922 1.375 0 2.032.89.656.875.671 2.72v1.405Zm-1.094-1.485q0-1.375-.39-2-.376-.64-1.22-.64-.828 0-1.218.64-.375.625-.375 1.922v1.734q0 1.375.39 2.047.406.656 1.219.656.797 0 1.188-.625.39-.625.406-1.953v-1.781ZM62.547 322.75h-5.594v-.781l2.953-3.281q.657-.75.907-1.204.25-.468.25-.968 0-.672-.407-1.094-.39-.438-1.078-.438-.797 0-1.25.47-.453.452-.453 1.28h-1.078q0-1.187.75-1.906.766-.734 2.031-.734 1.203 0 1.89.625.688.625.688 1.672 0 1.25-1.61 3l-2.28 2.468h4.28v.891Zm6.766-3.64q0 1.906-.657 2.843-.64.922-2.031.922-1.36 0-2.016-.906-.656-.906-.687-2.719v-1.438q0-1.89.64-2.796.657-.922 2.047-.922 1.375 0 2.032.89.656.875.671 2.72v1.405Zm-1.094-1.485q0-1.375-.39-2-.376-.64-1.22-.64-.828 0-1.218.64-.375.625-.375 1.922v1.734q0 1.375.39 2.047.406.656 1.219.656.797 0 1.188-.625.39-.625.406-1.953v-1.781Zm8.094 1.484q0 1.907-.657 2.844-.64.922-2.031.922-1.36 0-2.016-.906-.656-.906-.687-2.719v-1.438q0-1.89.64-2.796.657-.922 2.047-.922 1.375 0 2.032.89.656.875.671 2.72v1.405Zm-1.094-1.484q0-1.375-.39-2-.376-.64-1.22-.64-.828 0-1.218.64-.375.625-.375 1.922v1.734q0 1.375.39 2.047.406.656 1.219.656.797 0 1.188-.625.39-.625.406-1.953v-1.781ZM61.531 247.39h1.188v.876H61.53v1.984h-1.078v-1.984h-3.89v-.641l3.812-5.906h1.156v5.672Zm-3.734 0h2.656v-4.187l-.14.234-2.516 3.954Zm11.516-.78q0 1.906-.657 2.843-.64.922-2.031.922-1.36 0-2.016-.906-.656-.906-.687-2.719v-1.438q0-1.89.64-2.796.657-.922 2.047-.922 1.375 0 2.032.89.656.875.671 2.72v1.405Zm-1.094-1.485q0-1.375-.39-2-.376-.64-1.22-.64-.828 0-1.218.64-.375.625-.375 1.922v1.734q0 1.375.39 2.047.406.656 1.219.656.797 0 1.188-.625.39-.625.406-1.953v-1.781Zm8.094 1.484q0 1.907-.657 2.844-.64.922-2.031.922-1.36 0-2.016-.906-.656-.906-.687-2.719v-1.438q0-1.89.64-2.796.657-.922 2.047-.922 1.375 0 2.032.89.656.875.671 2.72v1.405Zm-1.094-1.484q0-1.375-.39-2-.376-.64-1.22-.64-.828 0-1.218.64-.375.625-.375 1.922v1.734q0 1.375.39 2.047.406.656 1.219.656.797 0 1.188-.625.39-.625.406-1.953v-1.781ZM61.219 169.219v.906h-.203q-1.266.031-2.016.766-.75.718-.875 2.03.688-.765 1.844-.765 1.11 0 1.781.781.672.782.672 2.032 0 1.312-.719 2.11-.719.796-1.937.796-1.22 0-1.985-.938-.75-.953-.75-2.437v-.406q0-2.36 1-3.61t2.985-1.265h.203Zm-1.422 3.844q-.563 0-1.031.328-.47.328-.657.843v.391q0 1.063.47 1.703.483.64 1.187.64.734 0 1.156-.53.422-.547.422-1.422 0-.875-.422-1.407-.422-.547-1.125-.547Zm9.516 1.046q0 1.907-.657 2.844-.64.922-2.031.922-1.36 0-2.016-.906-.656-.906-.687-2.719v-1.438q0-1.89.64-2.796.657-.922 2.047-.922 1.375 0 2.032.89.656.875.671 2.72v1.405Zm-1.094-1.484q0-1.375-.39-2-.376-.64-1.22-.64-.828 0-1.218.64-.375.625-.375 1.922v1.734q0 1.375.39 2.047.406.656 1.219.656.797 0 1.188-.625.39-.625.406-1.953v-1.781Zm8.094 1.484q0 1.907-.657 2.844-.64.922-2.031.922-1.36 0-2.016-.906-.656-.906-.687-2.719v-1.438q0-1.89.64-2.796.657-.922 2.047-.922 1.375 0 2.032.89.656.875.671 2.72v1.405Zm-1.094-1.484q0-1.375-.39-2-.376-.64-1.22-.64-.828 0-1.218.64-.375.625-.375 1.922v1.734q0 1.375.39 2.047.406.656 1.219.656.797 0 1.188-.625.39-.625.406-1.953v-1.781ZM62.14 98.938q0 .64-.343 1.14-.344.5-.906.781.656.282 1.047.844.39.547.39 1.25 0 1.094-.75 1.766-.734.656-1.953.656-1.234 0-1.984-.656-.735-.672-.735-1.766 0-.703.375-1.25.375-.562 1.047-.844-.562-.28-.89-.78-.329-.5-.329-1.141 0-1.079.688-1.704.687-.64 1.828-.64 1.125 0 1.813.64.703.625.703 1.704Zm-.89 3.984q0-.719-.453-1.156-.453-.454-1.188-.454-.734 0-1.187.454-.438.437-.438 1.171 0 .72.438 1.141.437.406 1.203.406.75 0 1.188-.421.437-.422.437-1.141Zm-1.625-5.438q-.64 0-1.047.407-.39.39-.39 1.078 0 .64.39 1.047.39.406 1.031.406.657 0 1.047-.406.39-.407.39-1.047 0-.656-.405-1.063-.407-.422-1.016-.422Zm9.688 4.125q0 1.907-.657 2.844-.64.922-2.031.922-1.36 0-2.016-.906-.656-.906-.687-2.719v-1.438q0-1.89.64-2.796.657-.922 2.047-.922 1.375 0 2.032.89.656.875.671 2.72v1.405Zm-1.094-1.484q0-1.375-.39-2-.376-.64-1.22-.64-.828 0-1.218.64-.375.625-.375 1.922v1.734q0 1.375.39 2.047.406.656 1.219.656.797 0 1.188-.625.39-.625.406-1.953v-1.781Zm8.094 1.484q0 1.907-.657 2.844-.64.922-2.031.922-1.36 0-2.016-.906-.656-.906-.687-2.719v-1.438q0-1.89.64-2.796.657-.922 2.047-.922 1.375 0 2.032.89.656.875.671 2.72v1.405Zm-1.094-1.484q0-1.375-.39-2-.376-.64-1.22-.64-.828 0-1.218.64-.375.625-.375 1.922v1.734q0 1.375.39 2.047.406.656 1.219.656.797 0 1.188-.625.39-.625.406-1.953v-1.781ZM127.634 405.75h-.906v-6.016l-1.828.657v-.813l2.593-.969h.14v7.141Zm6.578-7.11v.766h-.172q-1.047.016-1.672.625-.625.594-.734 1.703.562-.64 1.531-.64.938 0 1.485.656.562.64.562 1.688 0 1.093-.61 1.75-.593.656-1.593.656-1.016 0-1.656-.781-.641-.782-.641-2.016v-.344q0-1.969.828-3 .844-1.047 2.5-1.062h.172Zm-1.187 3.204q-.47 0-.86.281-.39.266-.547.688v.328q0 .89.39 1.421.407.532 1 .532.61 0 .954-.438.36-.453.36-1.187 0-.735-.36-1.172-.36-.453-.937-.453ZM219.62 401.75h.672q.641 0 1-.328.375-.328.375-.89 0-1.25-1.25-1.25-.578 0-.937.343-.344.328-.344.875h-.906q0-.844.625-1.39.625-.563 1.562-.563 1.016 0 1.579.531.578.531.578 1.469 0 .469-.297.906-.297.438-.828.656.593.172.906.61.328.422.328 1.047 0 .953-.625 1.515-.625.563-1.625.563t-1.64-.531q-.626-.547-.626-1.438h.922q0 .563.36.906.359.328.984.328.656 0 1-.343.344-.344.344-.985 0-.61-.39-.937-.376-.344-1.095-.344h-.671v-.75Zm9.344 4h-4.656v-.656l2.453-2.735q.547-.609.75-1 .219-.39.219-.812 0-.547-.344-.906-.328-.36-.89-.36-.672 0-1.047.39-.375.376-.375 1.063h-.907q0-.984.625-1.578.641-.61 1.704-.61.984 0 1.562.517.578.515.578 1.39 0 1.047-1.344 2.5l-1.89 2.063h3.562v.734ZM315.498 398.64v.766h-.172q-1.047.016-1.672.625-.625.594-.734 1.703.562-.64 1.53-.64.938 0 1.485.656.563.64.563 1.688 0 1.093-.61 1.75-.593.656-1.593.656-1.016 0-1.657-.781-.64-.782-.64-2.016v-.344q0-1.969.828-3 .844-1.047 2.5-1.062h.172Zm-1.188 3.204q-.468 0-.86.281-.39.266-.546.688v.328q0 .89.39 1.421.407.532 1 .532.61 0 .954-.438.36-.453.36-1.187 0-.735-.36-1.172-.36-.453-.938-.453Zm7.453 1.515h.985v.735h-.985v1.656h-.906v-1.656h-3.234v-.531l3.172-4.922h.968v4.718Zm-3.125 0h2.22v-3.484l-.11.203-2.11 3.281ZM405.563 405.75h-.907v-6.016l-1.828.657v-.813l2.594-.969h.14v7.141Zm7.687 0h-4.656v-.656l2.453-2.735q.547-.609.75-1 .219-.39.219-.812 0-.547-.344-.906-.328-.36-.89-.36-.673 0-1.048.39-.375.376-.375 1.063h-.906q0-.984.625-1.578.64-.61 1.703-.61.985 0 1.563.517.578.515.578 1.39 0 1.047-1.344 2.5l-1.89 2.063h3.562v.734Zm5.656-5.25q0 .531-.281.953-.281.406-.766.64.563.235.875.704.329.453.329 1.031 0 .922-.625 1.469-.61.547-1.625.547-1.032 0-1.657-.547-.61-.547-.61-1.469 0-.578.313-1.031.313-.469.875-.703-.468-.235-.75-.656-.265-.422-.265-.938 0-.906.562-1.422.578-.531 1.531-.531.938 0 1.516.531.578.516.578 1.422Zm-.734 3.313q0-.594-.39-.97-.376-.374-.985-.374-.61 0-.985.375-.359.36-.359.969t.36.953q.359.343 1 .343.625 0 .984-.343.375-.36.375-.954Zm-1.36-4.532q-.53 0-.875.328-.328.329-.328.907 0 .53.329.875.328.328.859.328.547 0 .875-.328.328-.344.328-.875 0-.547-.344-.891-.328-.344-.844-.344ZM500.893 405.75h-4.656v-.656l2.453-2.735q.547-.609.75-1 .218-.39.218-.812 0-.547-.343-.906-.328-.36-.89-.36-.673 0-1.048.39-.375.376-.375 1.063h-.906q0-.984.625-1.578.64-.61 1.703-.61.984 0 1.563.517.578.515.578 1.39 0 1.047-1.344 2.5l-1.89 2.063h3.562v.734Zm1.75-3.563.375-3.546h3.64v.828h-2.875l-.218 1.937q.515-.297 1.187-.297.969 0 1.531.641.579.64.579 1.734 0 1.094-.594 1.735-.594.625-1.656.625-.938 0-1.547-.516-.594-.531-.672-1.453h.86q.077.61.421.922.36.312.938.312.625 0 .984-.421.36-.438.36-1.188 0-.719-.391-1.14-.375-.438-1.032-.438-.578 0-.921.25l-.235.203-.734-.188Zm9.14-3.546v.765h-.171q-1.047.016-1.672.625-.625.594-.735 1.703.563-.64 1.532-.64.937 0 1.484.656.562.64.562 1.688 0 1.093-.609 1.75-.594.656-1.594.656-1.015 0-1.656-.781-.64-.782-.64-2.016v-.344q0-1.969.828-3 .843-1.047 2.5-1.062h.171Zm-1.187 3.203q-.469 0-.86.281-.39.266-.546.688v.328q0 .89.39 1.421.407.532 1 .532.61 0 .953-.438.36-.453.36-1.187 0-.735-.36-1.172-.359-.453-.937-.453ZM590.286 402.188l.375-3.547h3.64v.828h-2.875l-.218 1.937q.515-.297 1.187-.297.969 0 1.531.641.578.64.578 1.734 0 1.094-.593 1.735-.594.625-1.657.625-.937 0-1.546-.516-.594-.531-.672-1.453h.86q.077.61.421.922.36.312.937.312.625 0 .985-.421.36-.438.36-1.188 0-.719-.391-1.14-.375-.438-1.032-.438-.578 0-.922.25l-.234.203-.734-.188Zm8.562 3.562h-.906v-6.016l-1.828.657v-.813l2.594-.969h.14v7.141Zm7.688 0h-4.657v-.656l2.454-2.735q.546-.609.75-1 .218-.39.218-.812 0-.547-.343-.906-.329-.36-.891-.36-.672 0-1.047.39-.375.376-.375 1.063h-.906q0-.984.625-1.578.64-.61 1.703-.61.984 0 1.562.517.579.515.579 1.39 0 1.047-1.344 2.5l-1.89 2.063h3.562v.734ZM682.491 405.75h-.906v-6.016l-1.828.657v-.813l2.593-.969h.141v7.141Zm3.094 1.422-.516-.36q.453-.64.485-1.312v-.813h.875v.704q0 .484-.25.984-.235.5-.594.797Zm6.39-4.453q0 1.578-.546 2.36-.532.765-1.688.765-1.14 0-1.687-.75-.547-.75-.563-2.25v-1.203q0-1.579.531-2.329.547-.765 1.703-.765 1.157 0 1.688.734.547.735.562 2.266v1.172Zm-.906-1.235q0-1.156-.328-1.671-.312-.532-1.016-.532-.687 0-1.015.531-.313.516-.313 1.594v1.453q0 1.157.328 1.704.344.546 1.016.546t.984-.515q.329-.516.344-1.625v-1.485Zm7.11 4.266h-4.657v-.656l2.453-2.735q.547-.609.75-1 .22-.39.22-.812 0-.547-.345-.906-.328-.36-.89-.36-.672 0-1.047.39-.375.376-.375 1.063h-.906q0-.984.625-1.578.64-.61 1.703-.61.984 0 1.562.517.578.515.578 1.39 0 1.047-1.343 2.5l-1.89 2.063h3.562v.734Zm5.156-2.39h.984v.734h-.984v1.656h-.906v-1.656h-3.235v-.531l3.172-4.922h.969v4.718Zm-3.125 0h2.219v-3.485l-.11.203-2.11 3.281Z"/><path fill="#ea4335" d="M271.5 70.25a6 6 0 1 1-12 0 6 6 0 0 1 12 0Z"/><path fill="#1a1a1a" d="M287.047 74.75h-1.125l-4.297-6.578v6.578h-1.14v-8.531h1.14l4.297 6.61v-6.61h1.125v8.531Zm6.187 0q-.093-.188-.156-.672-.75.797-1.797.797-.937 0-1.547-.531-.593-.531-.593-1.36 0-.984.75-1.53.75-.548 2.125-.548h1.046v-.5q0-.562-.343-.89-.328-.344-1-.344-.578 0-.969.297-.39.281-.39.703h-1.094q0-.484.328-.922.344-.438.922-.688.578-.265 1.265-.265 1.11 0 1.719.547.625.547.656 1.5v2.922q0 .875.219 1.39v.094h-1.14Zm-1.796-.828q.515 0 .968-.266.453-.265.656-.687v-1.297h-.843q-2 0-2 1.172 0 .5.344.797.343.28.875.28Zm6.062.828h-1.078v-6.344h1.078v6.344Zm-1.172-8.016q0-.265.156-.453.172-.187.485-.187.312 0 .469.187.171.188.171.453 0 .25-.171.438-.157.172-.47.172-.312 0-.484-.172-.156-.188-.156-.438Zm5.078 6.547 1.578-4.875h1.11l-2.281 6.344h-.829l-2.296-6.344h1.109l1.61 4.875Zm6.547 1.594q-1.297 0-2.11-.844-.796-.86-.796-2.281v-.188q0-.953.36-1.687.359-.75 1-1.156.656-.422 1.406-.422 1.234 0 1.921.812.688.813.688 2.329v.453h-4.297q.031.937.547 1.515.531.578 1.344.578.562 0 .953-.234.406-.234.719-.625l.656.516q-.797 1.234-2.39 1.234Zm-.14-5.688q-.657 0-1.11.485-.437.469-.531 1.328h3.172v-.078q-.047-.828-.453-1.281-.391-.454-1.079-.454Z"/><path fill="#fbbc04" d="M338.5 70.25a6 6 0 1 1-12 0 6 6 0 0 1 12 0Z"/><path fill="#1a1a1a" d="M350 70.953q-1.438-.422-2.11-1.031-.656-.61-.656-1.5 0-1 .797-1.656.813-.672 2.11-.672.875 0 1.562.344.688.343 1.063.937.39.594.39 1.313h-1.14q0-.782-.5-1.22-.485-.437-1.375-.437-.829 0-1.297.375-.469.36-.469 1 0 .531.438.89.453.36 1.515.657 1.063.297 1.656.656.61.36.891.844.297.484.297 1.125 0 1.047-.813 1.672-.812.625-2.156.625-.89 0-1.656-.344-.75-.344-1.172-.922-.406-.593-.406-1.328h1.125q0 .766.578 1.219.578.453 1.531.453.89 0 1.36-.36.468-.374.468-1 0-.624-.437-.968-.438-.344-1.594-.672Zm6.86 3.031q.577 0 1.015-.343.438-.36.484-.891h1.032q-.032.547-.391 1.047-.344.484-.922.781-.562.297-1.219.297-1.296 0-2.062-.86-.75-.874-.75-2.374v-.188q0-.922.328-1.64.344-.72.969-1.11.64-.406 1.515-.406 1.063 0 1.766.64.719.626.766 1.657h-1.032q-.046-.625-.468-1.016-.422-.39-1.032-.39-.828 0-1.28.593-.454.594-.454 1.719v.203q0 1.094.453 1.688.453.593 1.281.593Zm7.374.766q-.093-.188-.156-.672-.75.797-1.797.797-.937 0-1.547-.531-.593-.531-.593-1.36 0-.984.75-1.53.75-.548 2.125-.548h1.046v-.5q0-.562-.343-.89-.328-.344-1-.344-.578 0-.969.297-.39.281-.39.703h-1.094q0-.484.328-.922.344-.438.922-.688.578-.265 1.265-.265 1.11 0 1.719.547.625.547.656 1.5v2.922q0 .875.219 1.39v.094h-1.14Zm-1.796-.828q.515 0 .968-.266.453-.265.656-.687v-1.297h-.843q-2 0-2 1.172 0 .5.344.797.343.28.875.28Zm6.359-7.047v1.531h1.172v.844h-1.172v3.922q0 .39.156.578.156.188.531.188.188 0 .516-.063v.875q-.422.125-.828.125-.719 0-1.094-.438-.375-.453-.375-1.265V69.25h-1.156v-.844h1.156v-1.531h1.094Zm4 0v1.531h1.172v.844h-1.172v3.922q0 .39.156.578.156.188.531.188.188 0 .516-.063v.875q-.422.125-.828.125-.719 0-1.094-.438-.375-.453-.375-1.265V69.25h-1.156v-.844h1.156v-1.531h1.094Zm5.156 8q-1.297 0-2.11-.844-.796-.86-.796-2.281v-.188q0-.953.36-1.687.359-.75 1-1.156.656-.422 1.406-.422 1.234 0 1.921.812.688.813.688 2.329v.453h-4.297q.031.937.547 1.515.531.578 1.344.578.562 0 .953-.234.406-.234.719-.625l.656.516q-.797 1.234-2.39 1.234Zm-.14-5.688q-.657 0-1.11.485-.437.469-.531 1.328h3.172v-.078q-.047-.828-.453-1.281-.391-.454-1.079-.454Zm6.578.188q-.25-.031-.532-.031-1.078 0-1.453.906v4.5h-1.078v-6.344h1.047l.016.735q.53-.844 1.515-.844.313 0 .485.078v1Zm3.562 5.5q-1.297 0-2.11-.844-.796-.86-.796-2.281v-.188q0-.953.36-1.687.359-.75 1-1.156.656-.422 1.406-.422 1.234 0 1.921.812.688.813.688 2.329v.453h-4.297q.031.937.547 1.515.531.578 1.344.578.562 0 .953-.234.406-.234.719-.625l.656.516q-.797 1.234-2.39 1.234Zm-.14-5.688q-.657 0-1.11.485-.437.469-.531 1.328h3.172v-.078q-.047-.828-.453-1.281-.391-.454-1.079-.454Zm3.25 2.344q0-1.469.687-2.344.688-.89 1.813-.89 1.109 0 1.765.75V65.75h1.078v9h-1l-.047-.688q-.656.813-1.812.813-1.094 0-1.797-.906-.688-.906-.688-2.36v-.078Zm1.078.125q0 1.078.437 1.688.453.61 1.235.61 1.03 0 1.515-.938v-2.907q-.484-.89-1.5-.89-.797 0-1.25.61-.437.609-.437 1.827Zm8.437-.094h-2.86v-.874h2.86v.874Zm5.813-3.124q0 .64-.344 1.14-.344.5-.906.781.656.282 1.046.844.391.547.391 1.25 0 1.094-.75 1.766-.734.656-1.953.656-1.234 0-1.984-.656-.735-.672-.735-1.766 0-.703.375-1.25.375-.562 1.047-.844-.562-.28-.89-.78-.329-.5-.329-1.141 0-1.079.688-1.704.687-.64 1.828-.64 1.125 0 1.813.64.703.625.703 1.704Zm-.891 3.984q0-.719-.453-1.156-.453-.454-1.188-.454-.734 0-1.187.454-.438.437-.438 1.171 0 .72.438 1.141.437.406 1.203.406.75 0 1.188-.421.437-.422.437-1.141Zm-1.625-5.438q-.64 0-1.047.407-.39.39-.39 1.078 0 .64.39 1.047.39.406 1.031.406.657 0 1.047-.406.39-.407.39-1.047 0-.656-.405-1.063-.407-.422-1.016-.422Z"/><path fill="#4285f4" d="M435.5 70.25a6 6 0 1 1-12 0 6 6 0 0 1 12 0Z"/><path fill="#1a1a1a" d="M450.766 72.047q-.157 1.344-1 2.094-.844.734-2.235.734-1.515 0-2.422-1.078-.906-1.094-.906-2.922v-.813q0-1.187.422-2.093.422-.906 1.203-1.39.781-.485 1.797-.485 1.36 0 2.172.765.828.766.969 2.094h-1.125q-.157-1.016-.641-1.469-.484-.453-1.375-.453-1.078 0-1.688.797-.609.797-.609 2.266v.828q0 1.39.578 2.219.578.812 1.625.812.938 0 1.438-.422.5-.437.672-1.484h1.125Zm1.265-.531q0-.922.36-1.672.375-.75 1.03-1.14.657-.407 1.485-.407 1.297 0 2.094.89.813.891.813 2.391v.078q0 .922-.36 1.656-.36.735-1.015 1.157-.657.406-1.516.406-1.281 0-2.094-.89-.797-.907-.797-2.391v-.078Zm1.094.14q0 1.047.484 1.688.5.64 1.313.64.828 0 1.312-.64.485-.656.485-1.828 0-1.032-.5-1.672-.485-.656-1.313-.656-.797 0-1.297.64-.484.625-.484 1.828Zm7.281-2.484q.719-.875 1.875-.875 2.016 0 2.031 2.266v4.187h-1.093v-4.203q0-.672-.313-1-.297-.328-.953-.328-.531 0-.937.281-.391.281-.61.734v4.516h-1.078v-9h1.078v3.422Zm8.547 5.703q-1.297 0-2.11-.844-.796-.86-.796-2.281v-.188q0-.953.36-1.687.359-.75 1-1.156.656-.422 1.406-.422 1.234 0 1.921.812.688.813.688 2.329v.453h-4.297q.031.937.547 1.515.531.578 1.344.578.562 0 .953-.234.406-.234.719-.625l.656.516q-.797 1.234-2.39 1.234Zm-.14-5.688q-.657 0-1.11.485-.437.469-.531 1.328h3.172v-.078q-.047-.828-.453-1.281-.391-.454-1.079-.454Zm6.578.188q-.25-.031-.532-.031-1.078 0-1.453.906v4.5h-1.078v-6.344h1.047l.016.735q.53-.844 1.515-.844.313 0 .485.078v1Zm3.562 5.5q-1.297 0-2.11-.844-.796-.86-.796-2.281v-.188q0-.953.36-1.687.359-.75 1-1.156.656-.422 1.406-.422 1.234 0 1.921.812.688.813.688 2.329v.453h-4.297q.031.937.547 1.515.531.578 1.344.578.562 0 .953-.234.406-.234.719-.625l.656.516q-.797 1.234-2.39 1.234Zm-.14-5.688q-.657 0-1.11.485-.437.469-.531 1.328h3.172v-.078q-.047-.828-.453-1.281-.391-.454-1.079-.454Zm4.53-.78.032.796q.734-.906 1.906-.906 2.016 0 2.031 2.266v4.187h-1.093v-4.203q0-.672-.313-1-.297-.328-.953-.328-.531 0-.937.281-.391.281-.61.734v4.516h-1.078v-6.344h1.016Zm7.454-1.532v1.531h1.172v.844h-1.172v3.922q0 .39.156.578.156.188.531.188.188 0 .516-.063v.875q-.422.125-.828.125-.719 0-1.094-.438-.375-.453-.375-1.265V69.25h-1.156v-.844h1.156v-1.531h1.094Zm4.781 4.688h-2.86v-.876h2.86v.876Zm5.813-3.126q0 .641-.344 1.141t-.906.781q.656.282 1.046.844.391.547.391 1.25 0 1.094-.75 1.766-.734.656-1.953.656-1.234 0-1.984-.656-.735-.672-.735-1.766 0-.703.375-1.25.375-.562 1.047-.844-.562-.28-.89-.78-.329-.5-.329-1.141 0-1.079.688-1.704.687-.64 1.828-.64 1.125 0 1.813.64.703.625.703 1.704Zm-.891 3.985q0-.719-.453-1.156-.453-.454-1.188-.454-.734 0-1.187.454-.438.437-.438 1.171 0 .72.438 1.141.437.406 1.203.406.75 0 1.188-.421.437-.422.437-1.141Zm-1.625-5.438q-.64 0-1.047.407-.39.39-.39 1.078 0 .64.39 1.047.39.406 1.031.406.657 0 1.047-.406.39-.407.39-1.047 0-.656-.405-1.063-.407-.422-1.016-.422Z"/><path fill="#757575" d="M32.75 35.969h-5.969v6.281h-1.875V28.031h8.797v1.547h-6.922v4.86h5.969v1.53Zm5.031.718v5.563h-1.875V28.031h5.235q2.343 0 3.656 1.188 1.328 1.187 1.328 3.156 0 2.078-1.297 3.203-1.297 1.11-3.703 1.11h-3.344Zm0-1.53h3.36q1.515 0 2.312-.704.797-.719.797-2.062 0-1.266-.797-2.016-.797-.766-2.203-.797h-3.469v5.578Zm15.313.75q-2.422-.688-3.516-1.688-1.094-1.016-1.094-2.5 0-1.688 1.344-2.782 1.344-1.109 3.484-1.109 1.47 0 2.61.578 1.156.563 1.781 1.563.625.984.625 2.172h-1.875q0-1.282-.828-2.016-.813-.75-2.313-.75-1.39 0-2.171.61-.766.609-.766 1.703 0 .859.734 1.468.735.594 2.5 1.094 1.782.5 2.782 1.11 1 .593 1.484 1.39.484.797.484 1.89 0 1.72-1.343 2.766-1.344 1.047-3.61 1.047-1.453 0-2.734-.562-1.266-.563-1.953-1.532-.688-.984-.688-2.234h1.89q0 1.297.954 2.047.953.734 2.531.734 1.485 0 2.282-.593.796-.61.796-1.657 0-1.047-.734-1.61-.734-.577-2.656-1.14Zm21.875 3.859L77 31.688h1.813L75.734 42.25h-1.468l-2.563-8.016-2.5 8.016h-1.469l-3.062-10.563h1.797l2.078 7.907 2.469-7.907h1.453l2.5 8.079Zm7.61 2.484H80.78V31.687h1.797V42.25Zm-1.954-13.375q0-.438.266-.734.28-.313.796-.313.532 0 .797.313.282.297.282.734 0 .438-.282.734-.265.297-.796.297-.516 0-.797-.297-.266-.297-.266-.734Zm7.438.25v2.563h1.984v1.39h-1.984v6.547q0 .64.265.969.266.312.906.312.313 0 .86-.125v1.469q-.719.203-1.39.203-1.204 0-1.829-.734-.61-.735-.61-2.094v-6.547h-1.921v-1.39h1.922v-2.563h1.796Zm6.359 3.844q1.203-1.485 3.125-1.485 3.36 0 3.375 3.782v6.984h-1.797v-7q-.016-1.14-.531-1.688-.5-.546-1.594-.546-.875 0-1.547.468-.656.47-1.031 1.235v7.531h-1.797v-15h1.797v5.719Zm14.844 2.156.718-7.094h7.282v1.672h-5.75l-.422 3.875q1.047-.61 2.375-.61 1.937 0 3.078 1.282 1.14 1.281 1.14 3.469 0 2.203-1.187 3.468-1.188 1.266-3.313 1.266-1.89 0-3.078-1.047-1.187-1.047-1.359-2.89h1.719q.156 1.218.86 1.843.702.61 1.859.61 1.265 0 1.984-.86.719-.859.719-2.375 0-1.422-.782-2.28-.78-.876-2.062-.876-1.188 0-1.86.516l-.484.39-1.437-.359Zm10.296 9.953-1.03-.703q.921-1.281.952-2.64v-1.626h1.782v1.422q0 .985-.485 1.969-.484.984-1.219 1.578Zm12.782-8.89q0 3.171-1.078 4.718-1.078 1.547-3.391 1.547-2.281 0-3.375-1.516-1.094-1.515-1.125-4.515v-2.406q0-3.141 1.078-4.657 1.094-1.53 3.406-1.53 2.297 0 3.375 1.483 1.078 1.47 1.11 4.532v2.343Zm-1.797-2.47q0-2.296-.656-3.343-.641-1.063-2.032-1.063-1.39 0-2.03 1.047-.626 1.047-.641 3.22v2.89q0 2.297.656 3.406.672 1.094 2.031 1.094 1.344 0 1.984-1.032.657-1.03.688-3.265v-2.953Zm12.797 2.47q0 3.171-1.078 4.718-1.078 1.547-3.391 1.547-2.281 0-3.375-1.516-1.094-1.515-1.125-4.515v-2.406q0-3.141 1.078-4.657 1.094-1.53 3.406-1.53 2.297 0 3.375 1.483 1.078 1.47 1.11 4.532v2.343Zm-1.797-2.47q0-2.296-.656-3.343-.641-1.063-2.032-1.063-1.39 0-2.03 1.047-.626 1.047-.642 3.22v2.89q0 2.297.657 3.406.672 1.094 2.031 1.094 1.344 0 1.984-1.032.657-1.03.688-3.265v-2.953Zm12.797 2.47q0 3.171-1.078 4.718-1.078 1.547-3.391 1.547-2.281 0-3.375-1.516-1.094-1.515-1.125-4.515v-2.406q0-3.141 1.078-4.657 1.094-1.53 3.406-1.53 2.297 0 3.375 1.483 1.078 1.47 1.11 4.532v2.343Zm-1.797-2.47q0-2.296-.656-3.343-.641-1.063-2.032-1.063-1.39 0-2.03 1.047-.626 1.047-.642 3.22v2.89q0 2.297.657 3.406.672 1.094 2.031 1.094 1.344 0 1.984-1.032.657-1.03.688-3.265v-2.953Zm9.36 8.532V28.031h4.64q2.312 0 3.484.953 1.172.953 1.172 2.828 0 1-.578 1.766-.563.766-1.531 1.188 1.14.328 1.812 1.234.672.89.672 2.14 0 1.922-1.25 3.016-1.234 1.094-3.5 1.094h-4.922Zm1.874-6.656v5.125h3.094q1.313 0 2.063-.672.75-.688.75-1.875 0-2.578-2.782-2.578h-3.125Zm0-1.5h2.828q1.235 0 1.97-.61.733-.625.733-1.672 0-1.171-.687-1.703-.672-.53-2.078-.53h-2.766v4.515Zm9.36 2.781q0-1.563.609-2.797.61-1.25 1.688-1.922 1.093-.672 2.5-.672 2.156 0 3.484 1.5 1.344 1.485 1.344 3.97v.124q0 1.547-.594 2.781-.594 1.22-1.703 1.907-1.094.687-2.516.687-2.14 0-3.484-1.5-1.328-1.5-1.328-3.953v-.125Zm1.812.203q0 1.766.813 2.828.828 1.063 2.187 1.063 1.375 0 2.188-1.078.812-1.078.812-3.016 0-1.75-.828-2.828-.828-1.078-2.188-1.078-1.343 0-2.171 1.062-.813 1.063-.813 3.047Zm11.625 5.172h-1.797V31.687h1.797V42.25Zm-1.953-13.375q0-.438.266-.734.28-.313.797-.313.53 0 .796.313.282.297.282.734 0 .438-.282.734-.265.297-.797.297-.515 0-.796-.297-.266-.297-.266-.734Zm4.547 8q0-2.422 1.156-3.906 1.156-1.485 3.016-1.485t2.937 1.266v-5.5h1.813v15h-1.656l-.094-1.14q-1.078 1.343-3.016 1.343-1.828 0-3-1.5-1.156-1.516-1.156-3.937v-.141Zm1.812.203q0 1.797.735 2.813.75 1.015 2.062 1.015 1.719 0 2.5-1.531v-4.86q-.797-1.5-2.484-1.5-1.328 0-2.078 1.032-.735 1.031-.735 3.031Zm15.782 2.375q0-.734-.547-1.14-.547-.407-1.922-.704t-2.188-.703q-.797-.406-1.187-.968-.375-.579-.375-1.36 0-1.297 1.094-2.187 1.093-.907 2.812-.907 1.797 0 2.906.938 1.125.922 1.125 2.36h-1.828q0-.735-.625-1.266-.625-.547-1.578-.547-1 0-1.562.437-.547.422-.547 1.125 0 .64.515.985.516.328 1.875.64 1.36.297 2.188.719.844.406 1.25 1t.406 1.438q0 1.421-1.14 2.28-1.125.86-2.938.86-1.266 0-2.25-.453-.969-.453-1.531-1.25-.547-.813-.547-1.75h1.812q.047.906.72 1.438.687.53 1.796.53 1.031 0 1.64-.406.626-.421.626-1.109Zm15.375 2.797q-.157-.313-.25-1.11-1.266 1.313-3.016 1.313-1.563 0-2.563-.89-1-.891-1-2.25 0-1.641 1.25-2.547 1.266-.922 3.532-.922h1.765v-.828q0-.953-.578-1.516-.562-.563-1.656-.563-.969 0-1.625.5-.656.485-.656 1.172h-1.813q0-.78.563-1.515.562-.75 1.515-1.172.97-.438 2.125-.438 1.828 0 2.86.922 1.031.907 1.078 2.516v4.86q0 1.452.36 2.312v.156h-1.891Zm-3-1.375q.859 0 1.609-.438.766-.437 1.11-1.14v-2.172h-1.423q-3.312 0-3.312 1.938 0 .859.563 1.343.562.469 1.453.469Zm9.187-9.188.063 1.329q1.203-1.532 3.156-1.532 3.36 0 3.375 3.782v6.984h-1.797v-7q-.016-1.14-.531-1.688-.5-.546-1.594-.546-.875 0-1.547.468-.656.47-1.031 1.235v7.531h-1.797V31.687h1.703Zm8.844 5.188q0-2.422 1.156-3.906 1.156-1.485 3.016-1.485t2.937 1.266v-5.5h1.813v15h-1.656l-.094-1.14q-1.078 1.343-3.016 1.343-1.828 0-3-1.5-1.156-1.516-1.156-3.937v-.141Zm1.812.203q0 1.797.735 2.813.75 1.015 2.062 1.015 1.719 0 2.5-1.531v-4.86q-.797-1.5-2.484-1.5-1.328 0-2.078 1.032-.735 1.031-.735 3.031Zm19.625 2.688 4.063-11.735h2.047l-5.266 14.219h-1.672l-5.25-14.219h2.031l4.047 11.735Zm9.97 2.484h-1.798V31.687h1.797V42.25Zm-1.954-13.375q0-.438.266-.734.28-.313.796-.313.532 0 .797.313.282.297.282.734 0 .438-.282.734-.265.297-.796.297-.516 0-.797-.297-.266-.297-.266-.734Zm11.14 10.578q0-.734-.546-1.14-.547-.407-1.922-.704t-2.188-.703q-.796-.406-1.187-.968-.375-.579-.375-1.36 0-1.297 1.094-2.187 1.093-.907 2.812-.907 1.797 0 2.906.938 1.125.922 1.125 2.36h-1.828q0-.735-.625-1.266-.625-.547-1.578-.547-1 0-1.562.437-.547.422-.547 1.125 0 .64.515.985.516.328 1.875.64 1.36.297 2.188.719.844.406 1.25 1t.406 1.438q0 1.421-1.14 2.28-1.125.86-2.938.86-1.266 0-2.25-.453-.969-.453-1.531-1.25-.547-.813-.547-1.75h1.812q.047.906.72 1.438.687.53 1.796.53 1.031 0 1.64-.406.626-.421.626-1.109Zm10.376 1.75q-1.047 1.25-3.094 1.25-1.688 0-2.578-.984-.875-.985-.89-2.907v-6.874h1.812v6.828q0 2.39 1.953 2.39 2.062 0 2.75-1.531v-7.688h1.812V42.25h-1.719l-.046-1.047Zm11 1.047q-.157-.313-.25-1.11-1.266 1.313-3.016 1.313-1.563 0-2.563-.89-1-.891-1-2.25 0-1.641 1.25-2.547 1.266-.922 3.532-.922h1.765v-.828q0-.953-.578-1.516-.562-.563-1.656-.563-.969 0-1.625.5-.656.485-.656 1.172h-1.813q0-.78.563-1.515.562-.75 1.515-1.172.97-.438 2.125-.438 1.829 0 2.86.922 1.031.907 1.078 2.516v4.86q0 1.452.36 2.312v.156h-1.891Zm-3-1.375q.859 0 1.609-.438.766-.437 1.11-1.14v-2.172h-1.423q-3.312 0-3.312 1.938 0 .859.563 1.343.562.469 1.453.469Zm9.437 1.375h-1.797v-15h1.797v15Zm5 0h-1.797V31.687h1.797V42.25Zm-1.953-13.375q0-.438.266-.734.28-.313.796-.313.532 0 .797.313.282.297.282.734 0 .438-.282.734-.265.297-.796.297-.516 0-.797-.297-.266-.297-.266-.734Zm6.688 11.906h6.187v1.469h-8.39v-1.328l5.827-7.75h-5.734v-1.484h8v1.28l-5.89 7.813Zm14.828 1.469q-.157-.313-.25-1.11-1.266 1.313-3.016 1.313-1.563 0-2.563-.89-1-.891-1-2.25 0-1.641 1.25-2.547 1.266-.922 3.532-.922h1.765v-.828q0-.953-.578-1.516-.562-.563-1.656-.563-.969 0-1.625.5-.656.485-.656 1.172h-1.813q0-.78.563-1.515.562-.75 1.515-1.172.97-.438 2.125-.438 1.829 0 2.86.922 1.031.907 1.078 2.516v4.86q0 1.452.36 2.312v.156h-1.891Zm-3-1.375q.859 0 1.609-.438.766-.437 1.11-1.14v-2.172h-1.423q-3.312 0-3.312 1.938 0 .859.563 1.343.562.469 1.453.469Zm9.921-11.75v2.563h1.985v1.39h-1.985v6.547q0 .64.266.969.266.312.906.312.313 0 .86-.125v1.469q-.719.203-1.39.203-1.204 0-1.829-.734-.61-.735-.61-2.094v-6.547h-1.921v-1.39h1.922v-2.563h1.796Zm6.516 13.125h-1.797V31.687h1.797V42.25Zm-1.953-13.375q0-.438.266-.734.28-.313.796-.313.532 0 .797.313.282.297.282.734 0 .438-.282.734-.265.297-.796.297-.516 0-.797-.297-.266-.297-.266-.734Zm4.516 8q0-1.563.609-2.797.61-1.25 1.688-1.922 1.093-.672 2.5-.672 2.156 0 3.484 1.5 1.344 1.485 1.344 3.97v.124q0 1.547-.594 2.781-.594 1.22-1.703 1.907-1.094.687-2.516.687-2.14 0-3.484-1.5-1.328-1.5-1.328-3.953v-.125Zm1.812.203q0 1.766.813 2.828.828 1.063 2.187 1.063 1.375 0 2.188-1.078.812-1.078.812-3.016 0-1.75-.828-2.828-.828-1.078-2.188-1.078-1.343 0-2.171 1.062-.813 1.063-.813 3.047Zm11.375-5.39.063 1.328q1.203-1.532 3.156-1.532 3.36 0 3.375 3.782v6.984h-1.797v-7q-.016-1.14-.531-1.688-.5-.546-1.594-.546-.875 0-1.547.468-.656.47-1.031 1.235v7.531h-1.797V31.687h1.703Zm25.516 3.906q0 2.093-.703 3.656-.704 1.547-2 2.375-1.282.828-3 .828-1.688 0-2.985-.828t-2.015-2.36q-.72-1.53-.735-3.546v-1.016q0-2.047.703-3.625.72-1.578 2.016-2.406 1.313-.844 2.984-.844 1.72 0 3.016.828 1.313.828 2.016 2.407.703 1.562.703 3.64v.89Zm-1.875-.907q0-2.53-1.016-3.874-1.015-1.36-2.844-1.36-1.765 0-2.796 1.36-1.016 1.343-1.047 3.734v1.047q0 2.453 1.03 3.86 1.032 1.405 2.845 1.405 1.812 0 2.796-1.328 1-1.328 1.032-3.797v-1.047Zm12.781 1.282h-5.969v6.281h-1.875V28.031h8.797v1.547h-6.922v4.86h5.969v1.53Zm11 0h-5.969v6.281h-1.875V28.031h8.797v1.547h-6.922v4.86h5.969v1.53Z"/></svg>