<svg fill="none" stroke-linecap="square" stroke-miterlimit="10" width="762" height="465" xmlns="http://www.w3.org/2000/svg"><path fill="#fff" d="M0 0h762v465H0V0Z"/><path stroke="#333" stroke-linecap="butt" d="M107.5 93.5v327"/><path stroke="#ccc" stroke-linecap="butt" d="M265.5 93.5v327M423.5 93.5v327M580.5 93.5v327M738.5 93.5v327"/><path d="M159.5 93.5v327M212.5 93.5v327M317.5 93.5v327M370.5 93.5v327M475.5 93.5v327M528.5 93.5v327M633.5 93.5v327M686.5 93.5v327"/><path stroke="#000" stroke-linecap="butt" d="M738.5 420.5h-631M107.5 420.5v-327"/><clipPath id="a"><path d="M107.25 93.25h631.5v327.5h-631.5V93.25Z"/></clipPath><path clip-path="url(#a)" d="M107 155v-40h145v40Z"/><path fill="#ea4335" clip-path="url(#a)" d="M107 155v-40h145v40Z"/><path clip-path="url(#a)" d="M107 216v-40h81v40Z"/><path fill="#ea4335" clip-path="url(#a)" d="M107 216v-40h81v40Z"/><path clip-path="url(#a)" d="M107 277v-40h55v40Z"/><path fill="#ea4335" clip-path="url(#a)" d="M107 277v-40h55v40Z"/><path clip-path="url(#a)" d="M107 338v-40h13v40Z"/><path fill="#ea4335" clip-path="url(#a)" d="M107 338v-40h13v40Z"/><path clip-path="url(#a)" d="M107 399v-40h8v40Z"/><path fill="#ea4335" clip-path="url(#a)" d="M107 399v-40h8v40Z"/><path clip-path="url(#a)" d="M252 155v-40h152v40Z"/><path fill="#fbbc04" clip-path="url(#a)" d="M252 155v-40h152v40Z"/><path clip-path="url(#a)" d="M188 216v-40h118v40Z"/><path fill="#fbbc04" clip-path="url(#a)" d="M188 216v-40h118v40Z"/><path clip-path="url(#a)" d="M162 277v-40h104v40Z"/><path fill="#fbbc04" clip-path="url(#a)" d="M162 277v-40h104v40Z"/><path clip-path="url(#a)" d="M120 338v-40h26v40Z"/><path fill="#fbbc04" clip-path="url(#a)" d="M120 338v-40h26v40Z"/><path clip-path="url(#a)" d="M115 399v-40h15v40Z"/><path fill="#fbbc04" clip-path="url(#a)" d="M115 399v-40h15v40Z"/><path clip-path="url(#a)" d="M404 155v-40h164v40Z"/><path fill="#4285f4" clip-path="url(#a)" d="M404 155v-40h164v40Z"/><path clip-path="url(#a)" d="M306 216v-40h194v40Z"/><path fill="#4285f4" clip-path="url(#a)" d="M306 216v-40h194v40Z"/><path clip-path="url(#a)" d="M266 277v-40h160v40Z"/><path fill="#4285f4" clip-path="url(#a)" d="M266 277v-40h160v40Z"/><path clip-path="url(#a)" d="M146 338v-40h131v40Z"/><path fill="#4285f4" clip-path="url(#a)" d="M146 338v-40h131v40Z"/><path clip-path="url(#a)" d="M130 399v-40h100v40Z"/><path fill="#4285f4" clip-path="url(#a)" d="M130 399v-40h100v40Z"/><path clip-path="url(#a)" d="M568 155v-40h169a2 2 0 0 1 2 2v36a2 2 0 0 1-2 2Z"/><path fill="#34a853" clip-path="url(#a)" d="M568 155v-40h169a2 2 0 0 1 2 2v36a2 2 0 0 1-2 2Z"/><path clip-path="url(#a)" d="M500 216v-40h237a2 2 0 0 1 2 2v36a2 2 0 0 1-2 2Z"/><path fill="#34a853" clip-path="url(#a)" d="M500 216v-40h237a2 2 0 0 1 2 2v36a2 2 0 0 1-2 2Z"/><path clip-path="url(#a)" d="M426 277v-40h311a2 2 0 0 1 2 2v36a2 2 0 0 1-2 2Z"/><path fill="#34a853" clip-path="url(#a)" d="M426 277v-40h311a2 2 0 0 1 2 2v36a2 2 0 0 1-2 2Z"/><path clip-path="url(#a)" d="M277 338v-40h460a2 2 0 0 1 2 2v36a2 2 0 0 1-2 2Z"/><path fill="#34a853" clip-path="url(#a)" d="M277 338v-40h460a2 2 0 0 1 2 2v36a2 2 0 0 1-2 2Z"/><path clip-path="url(#a)" d="M230 399v-40h507a2 2 0 0 1 2 2v36a2 2 0 0 1-2 2Z"/><path fill="#34a853" clip-path="url(#a)" d="M230 399v-40h507a2 2 0 0 1 2 2v36a2 2 0 0 1-2 2Z"/><path stroke="#000" stroke-linecap="butt" d="M107.5 420.5v-12M265.5 420.5v-12M423.5 420.5v-12M580.5 420.5v-12M738.5 420.5v-12"/><path stroke="#ea4335" stroke-width="3" stroke-linejoin="round" stroke-linecap="round" d="M230.717 135.75q-.328.406-.812.656-.469.235-1.031.235-.735 0-1.282-.36-.546-.36-.843-1.015-.297-.672-.297-1.47 0-.843.312-1.53.328-.688.922-1.047.61-.375 1.406-.375 1.266 0 1.985.953.734.953.734 2.578v.313q0 2.5-.984 3.64-.985 1.14-2.969 1.172h-.219v-.906h.235q1.343-.031 2.062-.703.719-.672.781-2.141Zm-1.671 0q.546 0 1-.328.468-.344.687-.828v-.438q0-1.062-.469-1.734-.468-.672-1.172-.672-.718 0-1.156.547-.422.547-.422 1.453 0 .875.407 1.438.421.562 1.125.562Zm9.093.89h1.188v.876h-1.188v1.984h-1.078v-1.984h-3.89v-.641l3.812-5.906h1.156v5.672Zm-3.734 0h2.656v-4.187l-.14.234-2.516 3.954Zm10.312-.89q-.328.406-.812.656-.469.235-1.031.235-.735 0-1.282-.36-.546-.36-.843-1.015-.297-.672-.297-1.47 0-.843.312-1.53.328-.688.922-1.047.61-.375 1.406-.375 1.266 0 1.985.953.734.953.734 2.578v.313q0 2.5-.984 3.64-.985 1.14-2.969 1.172h-.219v-.906h.235q1.343-.031 2.062-.703.719-.672.781-2.141Zm-1.671 0q.546 0 1-.328.468-.344.687-.828v-.438q0-1.062-.469-1.734-.468-.672-1.172-.672-.718 0-1.156.547-.422.547-.422 1.453 0 .875.407 1.438.421.562 1.125.562Z"/><path fill="#fff" d="M230.717 135.75q-.328.406-.812.656-.469.235-1.031.235-.735 0-1.282-.36-.546-.36-.843-1.015-.297-.672-.297-1.47 0-.843.312-1.53.328-.688.922-1.047.61-.375 1.406-.375 1.266 0 1.985.953.734.953.734 2.578v.313q0 2.5-.984 3.64-.985 1.14-2.969 1.172h-.219v-.906h.235q1.343-.031 2.062-.703.719-.672.781-2.141Zm-1.671 0q.546 0 1-.328.468-.344.687-.828v-.438q0-1.062-.469-1.734-.468-.672-1.172-.672-.718 0-1.156.547-.422.547-.422 1.453 0 .875.407 1.438.421.562 1.125.562Zm9.093.89h1.188v.876h-1.188v1.984h-1.078v-1.984h-3.89v-.641l3.812-5.906h1.156v5.672Zm-3.734 0h2.656v-4.187l-.14.234-2.516 3.954Zm10.312-.89q-.328.406-.812.656-.469.235-1.031.235-.735 0-1.282-.36-.546-.36-.843-1.015-.297-.672-.297-1.47 0-.843.312-1.53.328-.688.922-1.047.61-.375 1.406-.375 1.266 0 1.985.953.734.953.734 2.578v.313q0 2.5-.984 3.64-.985 1.14-2.969 1.172h-.219v-.906h.235q1.343-.031 2.062-.703.719-.672.781-2.141Zm-1.671 0q.546 0 1-.328.468-.344.687-.828v-.438q0-1.062-.469-1.734-.468-.672-1.172-.672-.718 0-1.156.547-.422.547-.422 1.453 0 .875.407 1.438.421.562 1.125.562Z"/><path stroke="#ea4335" stroke-width="3" stroke-linejoin="round" stroke-linecap="round" d="M168.223 200.5h-5.594v-.781l2.953-3.281q.657-.75.907-1.204.25-.468.25-.968 0-.672-.407-1.094-.39-.438-1.078-.438-.797 0-1.25.47-.453.452-.453 1.28h-1.078q0-1.187.75-1.906.766-.734 2.031-.734 1.203 0 1.89.625.688.625.688 1.672 0 1.25-1.61 3l-2.28 2.468h4.28v.891Zm1.906-4.281.438-4.25h4.375v1h-3.453l-.266 2.328q.64-.375 1.437-.375 1.157 0 1.844.781.688.766.688 2.078 0 1.313-.72 2.078-.702.766-1.983.766-1.125 0-1.844-.625-.719-.64-.813-1.75h1.016q.11.734.531 1.11.422.374 1.11.374.75 0 1.187-.515.438-.516.438-1.422 0-.86-.47-1.375-.468-.516-1.25-.516-.702 0-1.109.297l-.28.234-.876-.218Zm7 0 .438-4.25h4.375v1h-3.453l-.266 2.328q.64-.375 1.437-.375 1.157 0 1.844.781.688.766.688 2.078 0 1.313-.72 2.078-.702.766-1.983.766-1.125 0-1.844-.625-.719-.64-.813-1.75h1.016q.11.734.531 1.11.422.374 1.11.374.75 0 1.187-.515.438-.516.438-1.422 0-.86-.47-1.375-.468-.516-1.25-.516-.702 0-1.109.297l-.28.234-.876-.218Z"/><path fill="#fff" d="M168.223 200.5h-5.594v-.781l2.953-3.281q.657-.75.907-1.204.25-.468.25-.968 0-.672-.407-1.094-.39-.438-1.078-.438-.797 0-1.25.47-.453.452-.453 1.28h-1.078q0-1.187.75-1.906.766-.734 2.031-.734 1.203 0 1.89.625.688.625.688 1.672 0 1.25-1.61 3l-2.28 2.468h4.28v.891Zm1.906-4.281.438-4.25h4.375v1h-3.453l-.266 2.328q.64-.375 1.437-.375 1.157 0 1.844.781.688.766.688 2.078 0 1.313-.72 2.078-.702.766-1.983.766-1.125 0-1.844-.625-.719-.64-.813-1.75h1.016q.11.734.531 1.11.422.374 1.11.374.75 0 1.187-.515.438-.516.438-1.422 0-.86-.47-1.375-.468-.516-1.25-.516-.702 0-1.109.297l-.28.234-.876-.218Zm7 0 .438-4.25h4.375v1h-3.453l-.266 2.328q.64-.375 1.437-.375 1.157 0 1.844.781.688.766.688 2.078 0 1.313-.72 2.078-.702.766-1.983.766-1.125 0-1.844-.625-.719-.64-.813-1.75h1.016q.11.734.531 1.11.422.374 1.11.374.75 0 1.187-.515.438-.516.438-1.422 0-.86-.47-1.375-.468-.516-1.25-.516-.702 0-1.109.297l-.28.234-.876-.218Z"/><path stroke="#ea4335" stroke-width="3" stroke-linejoin="round" stroke-linecap="round" d="M140.895 261.5h-1.078v-7.219l-2.187.797v-.984l3.109-1.172h.156v8.578Zm9.031 0h-5.593v-.781l2.953-3.281q.656-.75.906-1.204.25-.468.25-.968 0-.672-.406-1.094-.39-.438-1.078-.438-.797 0-1.25.47-.453.452-.453 1.28h-1.079q0-1.187.75-1.906.766-.734 2.032-.734 1.203 0 1.89.625.688.625.688 1.672 0 1.25-1.61 3l-2.28 2.468h4.28v.891Zm5.672-8.531v.906h-.203q-1.265.031-2.015.766-.75.718-.875 2.03.687-.765 1.843-.765 1.11 0 1.782.781.671.782.671 2.032 0 1.312-.718 2.11-.719.796-1.938.796-1.219 0-1.984-.938-.75-.953-.75-2.437v-.406q0-2.36 1-3.61t2.984-1.265h.203Zm-1.422 3.844q-.562 0-1.03.328-.47.328-.657.843v.391q0 1.063.469 1.703.484.64 1.187.64.735 0 1.156-.53.422-.547.422-1.422 0-.875-.422-1.407-.421-.546-1.125-.546Z"/><path fill="#fff" d="M140.895 261.5h-1.078v-7.219l-2.187.797v-.984l3.109-1.172h.156v8.578Zm9.031 0h-5.593v-.781l2.953-3.281q.656-.75.906-1.204.25-.468.25-.968 0-.672-.406-1.094-.39-.438-1.078-.438-.797 0-1.25.47-.453.452-.453 1.28h-1.079q0-1.187.75-1.906.766-.734 2.032-.734 1.203 0 1.89.625.688.625.688 1.672 0 1.25-1.61 3l-2.28 2.468h4.28v.891Zm5.672-8.531v.906h-.203q-1.265.031-2.015.766-.75.718-.875 2.03.687-.765 1.843-.765 1.11 0 1.782.781.671.782.671 2.032 0 1.312-.718 2.11-.719.796-1.938.796-1.219 0-1.984-.938-.75-.953-.75-2.437v-.406q0-2.36 1-3.61t2.984-1.265h.203Zm-1.422 3.844q-.562 0-1.03.328-.47.328-.657.843v.391q0 1.063.469 1.703.484.64 1.187.64.735 0 1.156-.53.422-.547.422-1.422 0-.875-.422-1.407-.421-.546-1.125-.546Z"/><path stroke="#ea4335" stroke-width="3" stroke-linejoin="round" stroke-linecap="round" d="m111.477 318.219.437-4.25h4.375v1h-3.453l-.265 2.328q.64-.375 1.437-.375 1.156 0 1.844.781.687.766.687 2.078 0 1.313-.718 2.078-.703.766-1.985.766-1.125 0-1.843-.625-.72-.64-.813-1.75h1.016q.109.734.53 1.11.423.374 1.11.374.75 0 1.188-.515.437-.516.437-1.422 0-.86-.468-1.375-.47-.516-1.25-.516-.704 0-1.11.297l-.281.235-.875-.22Z"/><path fill="#fff" d="m111.477 318.219.437-4.25h4.375v1h-3.453l-.265 2.328q.64-.375 1.437-.375 1.156 0 1.844.781.687.766.687 2.078 0 1.313-.718 2.078-.703.766-1.985.766-1.125 0-1.843-.625-.72-.64-.813-1.75h1.016q.109.734.53 1.11.423.374 1.11.374.75 0 1.188-.515.437-.516.437-1.422 0-.86-.468-1.375-.47-.516-1.25-.516-.704 0-1.11.297l-.281.235-.875-.22Z"/><path stroke="#fff" stroke-width="3" stroke-linejoin="round" stroke-linecap="round" d="M131.217 383.5h-1.078v-7.219l-2.188.797v-.984l3.11-1.172h.156v8.578Z"/><path fill="#ea4335" d="M131.217 383.5h-1.078v-7.219l-2.188.797v-.984l3.11-1.172h.156v8.578Z"/><path stroke="#fbbc04" stroke-width="3" stroke-linejoin="round" stroke-linecap="round" d="M375.445 139.5h-1.079v-7.219l-2.187.797v-.984l3.11-1.172h.156v8.578Zm8.796-3.64q0 1.906-.656 2.843-.64.922-2.031.922-1.36 0-2.016-.906-.656-.906-.687-2.719v-1.438q0-1.89.64-2.796.657-.922 2.047-.922 1.375 0 2.032.89.656.875.671 2.72v1.405Zm-1.093-1.485q0-1.375-.391-2-.375-.64-1.219-.64-.828 0-1.218.64-.375.625-.375 1.922v1.734q0 1.375.39 2.047.406.656 1.219.656.797 0 1.187-.625.391-.625.407-1.953v-1.781Zm8.093 1.484q0 1.907-.656 2.844-.64.922-2.031.922-1.36 0-2.016-.906-.656-.906-.687-2.719v-1.438q0-1.89.64-2.796.657-.922 2.047-.922 1.375 0 2.032.89.656.875.671 2.72v1.405Zm-1.093-1.484q0-1.375-.391-2-.375-.64-1.219-.64-.828 0-1.218.64-.375.625-.375 1.922v1.734q0 1.375.39 2.047.406.656 1.219.656.797 0 1.187-.625.391-.625.407-1.953v-1.781Zm6.297 5.125h-1.079v-7.219l-2.187.797v-.984l3.11-1.172h.156v8.578Z"/><path fill="#000" d="M375.445 139.5h-1.079v-7.219l-2.187.797v-.984l3.11-1.172h.156v8.578Zm8.796-3.64q0 1.906-.656 2.843-.64.922-2.031.922-1.36 0-2.016-.906-.656-.906-.687-2.719v-1.438q0-1.89.64-2.796.657-.922 2.047-.922 1.375 0 2.032.89.656.875.671 2.72v1.405Zm-1.093-1.485q0-1.375-.391-2-.375-.64-1.219-.64-.828 0-1.218.64-.375.625-.375 1.922v1.734q0 1.375.39 2.047.406.656 1.219.656.797 0 1.187-.625.391-.625.407-1.953v-1.781Zm8.093 1.484q0 1.907-.656 2.844-.64.922-2.031.922-1.36 0-2.016-.906-.656-.906-.687-2.719v-1.438q0-1.89.64-2.796.657-.922 2.047-.922 1.375 0 2.032.89.656.875.671 2.72v1.405Zm-1.093-1.484q0-1.375-.391-2-.375-.64-1.219-.64-.828 0-1.218.64-.375.625-.375 1.922v1.734q0 1.375.39 2.047.406.656 1.219.656.797 0 1.187-.625.391-.625.407-1.953v-1.781Zm6.297 5.125h-1.079v-7.219l-2.187.797v-.984l3.11-1.172h.156v8.578Z"/><path stroke="#fbbc04" stroke-width="3" stroke-linejoin="round" stroke-linecap="round" d="M282.239 195.703h.812q.781-.016 1.219-.406.438-.39.438-1.063 0-1.5-1.5-1.5-.704 0-1.126.407-.406.406-.406 1.062h-1.094q0-1.016.735-1.687.75-.672 1.89-.672 1.204 0 1.891.64.688.641.688 1.782 0 .562-.36 1.078-.36.515-.984.781.703.219 1.078.734.39.516.39 1.266 0 1.14-.75 1.828-.75.672-1.953.672-1.187 0-1.953-.656-.75-.656-.75-1.719h1.094q0 .672.438 1.078.437.406 1.187.406.781 0 1.188-.406.421-.422.421-1.187 0-.735-.453-1.125-.453-.407-1.328-.422h-.812v-.89Zm10.937-3.125-3.531 7.922h-1.14l3.515-7.64h-4.61v-.891h5.766v.61Zm6.063 5.063h1.187v.875h-1.187v1.984h-1.078v-1.984h-3.891v-.641l3.813-5.906h1.156v5.672Zm-3.735 0h2.657v-4.188l-.141.234-2.516 3.954Z"/><path fill="#000" d="M282.239 195.703h.812q.781-.016 1.219-.406.438-.39.438-1.063 0-1.5-1.5-1.5-.704 0-1.126.407-.406.406-.406 1.062h-1.094q0-1.016.735-1.687.75-.672 1.89-.672 1.204 0 1.891.64.688.641.688 1.782 0 .562-.36 1.078-.36.515-.984.781.703.219 1.078.734.39.516.39 1.266 0 1.14-.75 1.828-.75.672-1.953.672-1.187 0-1.953-.656-.75-.656-.75-1.719h1.094q0 .672.438 1.078.437.406 1.187.406.781 0 1.188-.406.421-.422.421-1.187 0-.735-.453-1.125-.453-.407-1.328-.422h-.812v-.89Zm10.937-3.125-3.531 7.922h-1.14l3.515-7.64h-4.61v-.891h5.766v.61Zm6.063 5.063h1.187v.875h-1.187v1.984h-1.078v-1.984h-3.891v-.641l3.813-5.906h1.156v5.672Zm-3.735 0h2.657v-4.188l-.141.234-2.516 3.954Z"/><path stroke="#fbbc04" stroke-width="3" stroke-linejoin="round" stroke-linecap="round" d="M246.717 261.5h-5.594v-.781l2.953-3.281q.656-.75.906-1.204.25-.468.25-.968 0-.672-.406-1.094-.39-.438-1.078-.438-.797 0-1.25.47-.453.452-.453 1.28h-1.078q0-1.187.75-1.906.765-.734 2.031-.734 1.203 0 1.89.625.688.625.688 1.672 0 1.25-1.61 3l-2.28 2.468h4.28v.891Zm2.984-4.797h.813q.78-.015 1.218-.406.438-.39.438-1.063 0-1.5-1.5-1.5-.703 0-1.125.407-.406.406-.406 1.062h-1.094q0-1.016.734-1.687.75-.672 1.89-.672 1.204 0 1.891.64.688.641.688 1.782 0 .562-.36 1.078-.359.515-.984.781.703.219 1.078.734.391.516.391 1.266 0 1.14-.75 1.828-.75.672-1.953.672-1.188 0-1.953-.656-.75-.656-.75-1.719h1.093q0 .672.438 1.078.437.406 1.187.406.782 0 1.188-.406.422-.422.422-1.187 0-.735-.453-1.125-.453-.407-1.328-.422h-.813v-.89Zm10.938-3.125-3.532 7.922h-1.14l3.515-7.64h-4.609v-.891h5.766v.61Z"/><path fill="#000" d="M246.717 261.5h-5.594v-.781l2.953-3.281q.656-.75.906-1.204.25-.468.25-.968 0-.672-.406-1.094-.39-.438-1.078-.438-.797 0-1.25.47-.453.452-.453 1.28h-1.078q0-1.187.75-1.906.765-.734 2.031-.734 1.203 0 1.89.625.688.625.688 1.672 0 1.25-1.61 3l-2.28 2.468h4.28v.891Zm2.984-4.797h.813q.78-.015 1.218-.406.438-.39.438-1.063 0-1.5-1.5-1.5-.703 0-1.125.407-.406.406-.406 1.062h-1.094q0-1.016.734-1.687.75-.672 1.89-.672 1.204 0 1.891.64.688.641.688 1.782 0 .562-.36 1.078-.359.515-.984.781.703.219 1.078.734.391.516.391 1.266 0 1.14-.75 1.828-.75.672-1.953.672-1.188 0-1.953-.656-.75-.656-.75-1.719h1.093q0 .672.438 1.078.437.406 1.187.406.782 0 1.188-.406.422-.422.422-1.187 0-.735-.453-1.125-.453-.407-1.328-.422h-.813v-.89Zm10.938-3.125-3.532 7.922h-1.14l3.515-7.64h-4.609v-.891h5.766v.61Z"/><path stroke="#fbbc04" stroke-width="3" stroke-linejoin="round" stroke-linecap="round" d="M131.858 322.5h-1.078v-7.219l-2.187.797v-.984l3.109-1.172h.156v8.578Zm8.797-3.64q0 1.906-.656 2.843-.64.922-2.031.922-1.36 0-2.016-.906-.656-.906-.688-2.719v-1.438q0-1.89.641-2.796.656-.922 2.047-.922 1.375 0 2.031.89.656.875.672 2.72v1.405Zm-1.094-1.485q0-1.375-.39-2-.375-.64-1.22-.64-.827 0-1.218.64-.375.625-.375 1.922v1.734q0 1.375.39 2.047.407.656 1.22.656.796 0 1.187-.625.39-.625.406-1.953v-1.781Z"/><path fill="#000" d="M131.858 322.5h-1.078v-7.219l-2.187.797v-.984l3.109-1.172h.156v8.578Zm8.797-3.64q0 1.906-.656 2.843-.64.922-2.031.922-1.36 0-2.016-.906-.656-.906-.688-2.719v-1.438q0-1.89.641-2.796.656-.922 2.047-.922 1.375 0 2.031.89.656.875.672 2.72v1.405Zm-1.094-1.485q0-1.375-.39-2-.375-.64-1.22-.64-.827 0-1.218.64-.375.625-.375 1.922v1.734q0 1.375.39 2.047.407.656 1.22.656.796 0 1.187-.625.39-.625.406-1.953v-1.781Z"/><path stroke="#fff" stroke-width="3" stroke-linejoin="round" stroke-linecap="round" d="M145.048 383.5h-5.594v-.781l2.953-3.281q.657-.75.907-1.204.25-.468.25-.968 0-.672-.407-1.094-.39-.438-1.078-.438-.797 0-1.25.47-.453.452-.453 1.28h-1.078q0-1.187.75-1.906.766-.734 2.031-.734 1.203 0 1.891.625.687.625.687 1.672 0 1.25-1.609 3l-2.281 2.468h4.281v.891Z"/><path fill="#fbbc04" d="M145.048 383.5h-5.594v-.781l2.953-3.281q.657-.75.907-1.204.25-.468.25-.968 0-.672-.407-1.094-.39-.438-1.078-.438-.797 0-1.25.47-.453.452-.453 1.28h-1.078q0-1.187.75-1.906.766-.734 2.031-.734 1.203 0 1.891.625.687.625.687 1.672 0 1.25-1.609 3l-2.281 2.468h4.281v.891Z"/><path stroke="#4285f4" stroke-width="3" stroke-linejoin="round" stroke-linecap="round" d="M539.482 139.5h-1.078v-7.219l-2.187.797v-.984l3.11-1.172h.155v8.578Zm8.797-3.64q0 1.906-.656 2.843-.64.922-2.031.922-1.36 0-2.016-.906-.656-.906-.687-2.719v-1.438q0-1.89.64-2.796.657-.922 2.047-.922 1.375 0 2.031.89.657.875.672 2.72v1.405Zm-1.093-1.485q0-1.375-.391-2-.375-.64-1.219-.64-.828 0-1.219.64-.375.625-.375 1.922v1.734q0 1.375.391 2.047.406.656 1.219.656.797 0 1.187-.625t.407-1.953v-1.781Zm8.25-2.797-3.532 7.922h-1.14l3.515-7.64h-4.61v-.891h5.767v.61Zm6.671 1.61q0 .64-.343 1.14-.344.5-.907.781.657.282 1.047.844.39.547.39 1.25 0 1.094-.75 1.766-.733.656-1.952.656-1.235 0-1.985-.656-.734-.672-.734-1.766 0-.703.375-1.25.375-.562 1.047-.844-.563-.28-.89-.78-.329-.5-.329-1.142 0-1.078.688-1.703.687-.64 1.828-.64 1.125 0 1.812.64.703.625.703 1.703Zm-.89 3.984q0-.719-.453-1.156-.453-.453-1.188-.453-.734 0-1.187.453-.438.437-.438 1.172 0 .718.438 1.14.437.406 1.203.406.75 0 1.187-.422.438-.421.438-1.14Zm-1.625-5.438q-.64 0-1.047.407-.39.39-.39 1.078 0 .64.39 1.047.39.406 1.031.406.656 0 1.047-.406.39-.407.39-1.047 0-.656-.406-1.063-.406-.422-1.015-.422Z"/><path fill="#fff" d="M539.482 139.5h-1.078v-7.219l-2.187.797v-.984l3.11-1.172h.155v8.578Zm8.797-3.64q0 1.906-.656 2.843-.64.922-2.031.922-1.36 0-2.016-.906-.656-.906-.687-2.719v-1.438q0-1.89.64-2.796.657-.922 2.047-.922 1.375 0 2.031.89.657.875.672 2.72v1.405Zm-1.093-1.485q0-1.375-.391-2-.375-.64-1.219-.64-.828 0-1.219.64-.375.625-.375 1.922v1.734q0 1.375.391 2.047.406.656 1.219.656.797 0 1.187-.625t.407-1.953v-1.781Zm8.25-2.797-3.532 7.922h-1.14l3.515-7.64h-4.61v-.891h5.767v.61Zm6.671 1.61q0 .64-.343 1.14-.344.5-.907.781.657.282 1.047.844.39.547.39 1.25 0 1.094-.75 1.766-.733.656-1.952.656-1.235 0-1.985-.656-.734-.672-.734-1.766 0-.703.375-1.25.375-.562 1.047-.844-.563-.28-.89-.78-.329-.5-.329-1.142 0-1.078.688-1.703.687-.64 1.828-.64 1.125 0 1.812.64.703.625.703 1.703Zm-.89 3.984q0-.719-.453-1.156-.453-.453-1.188-.453-.734 0-1.187.453-.438.437-.438 1.172 0 .718.438 1.14.437.406 1.203.406.75 0 1.187-.422.438-.421.438-1.14Zm-1.625-5.438q-.64 0-1.047.407-.39.39-.39 1.078 0 .64.39 1.047.39.406 1.031.406.656 0 1.047-.406.39-.407.39-1.047 0-.656-.406-1.063-.406-.422-1.015-.422Z"/><path stroke="#4285f4" stroke-width="3" stroke-linejoin="round" stroke-linecap="round" d="M479.647 191.969v.906h-.204q-1.265.031-2.015.766-.75.718-.875 2.03.687-.765 1.844-.765 1.109 0 1.78.781.673.782.673 2.032 0 1.312-.719 2.11-.719.796-1.938.796-1.218 0-1.984-.938-.75-.953-.75-2.437v-.406q0-2.36 1-3.61t2.984-1.265h.204Zm-1.422 3.844q-.563 0-1.032.328-.468.328-.656.843v.391q0 1.063.469 1.703.484.64 1.188.64.734 0 1.156-.53.422-.547.422-1.422 0-.875-.422-1.407-.422-.547-1.125-.547Zm7.718 4.687h-1.078v-7.219l-2.187.797v-.984l3.11-1.172h.155v8.578Zm8.954-7.922-3.532 7.922h-1.14l3.515-7.64h-4.609v-.891h5.766v.61Z"/><path fill="#fff" d="M479.647 191.969v.906h-.204q-1.265.031-2.015.766-.75.718-.875 2.03.687-.765 1.844-.765 1.109 0 1.78.781.673.782.673 2.032 0 1.312-.719 2.11-.719.796-1.938.796-1.218 0-1.984-.938-.75-.953-.75-2.437v-.406q0-2.36 1-3.61t2.984-1.265h.204Zm-1.422 3.844q-.563 0-1.032.328-.468.328-.656.843v.391q0 1.063.469 1.703.484.64 1.188.64.734 0 1.156-.53.422-.547.422-1.422 0-.875-.422-1.407-.422-.547-1.125-.547Zm7.718 4.687h-1.078v-7.219l-2.187.797v-.984l3.11-1.172h.155v8.578Zm8.954-7.922-3.532 7.922h-1.14l3.515-7.64h-4.609v-.891h5.766v.61Z"/><path stroke="#4285f4" stroke-width="3" stroke-linejoin="round" stroke-linecap="round" d="M402.547 256.703h.812q.782-.015 1.219-.406.438-.39.438-1.063 0-1.5-1.5-1.5-.704 0-1.125.407-.407.406-.407 1.062h-1.093q0-1.016.734-1.687.75-.672 1.89-.672 1.204 0 1.891.64.688.641.688 1.782 0 .562-.36 1.078-.36.515-.984.781.703.219 1.078.734.39.516.39 1.266 0 1.14-.75 1.828-.75.672-1.952.672-1.188 0-1.954-.656-.75-.656-.75-1.719h1.094q0 .672.438 1.078.437.406 1.187.406.781 0 1.188-.406.422-.422.422-1.187 0-.735-.454-1.125-.453-.407-1.328-.422h-.812v-.89Zm9.687-3.734v.906h-.203q-1.265.031-2.015.766-.75.718-.875 2.03.687-.765 1.843-.765 1.11 0 1.782.781.671.782.671 2.032 0 1.312-.718 2.11-.72.796-1.938.796-1.219 0-1.984-.938-.75-.953-.75-2.437v-.406q0-2.36 1-3.61t2.984-1.265h.203Zm-1.422 3.844q-.562 0-1.03.328-.47.328-.657.843v.391q0 1.063.469 1.703.484.64 1.187.64.735 0 1.156-.53.422-.547.422-1.422 0-.875-.422-1.407-.421-.546-1.125-.546Zm4.657.406.437-4.25h4.375v1h-3.453l-.266 2.328q.641-.375 1.438-.375 1.156 0 1.844.781.687.766.687 2.078 0 1.313-.719 2.078-.703.766-1.984.766-1.125 0-1.844-.625-.718-.64-.812-1.75h1.015q.11.734.532 1.11.422.374 1.109.374.75 0 1.188-.515.437-.516.437-1.422 0-.86-.469-1.375-.468-.516-1.25-.516-.703 0-1.11.297l-.28.235-.875-.22Z"/><path fill="#fff" d="M402.547 256.703h.812q.782-.015 1.219-.406.438-.39.438-1.063 0-1.5-1.5-1.5-.704 0-1.125.407-.407.406-.407 1.062h-1.093q0-1.016.734-1.687.75-.672 1.89-.672 1.204 0 1.891.64.688.641.688 1.782 0 .562-.36 1.078-.36.515-.984.781.703.219 1.078.734.39.516.39 1.266 0 1.14-.75 1.828-.75.672-1.952.672-1.188 0-1.954-.656-.75-.656-.75-1.719h1.094q0 .672.438 1.078.437.406 1.187.406.781 0 1.188-.406.422-.422.422-1.187 0-.735-.454-1.125-.453-.407-1.328-.422h-.812v-.89Zm9.687-3.734v.906h-.203q-1.265.031-2.015.766-.75.718-.875 2.03.687-.765 1.843-.765 1.11 0 1.782.781.671.782.671 2.032 0 1.312-.718 2.11-.72.796-1.938.796-1.219 0-1.984-.938-.75-.953-.75-2.437v-.406q0-2.36 1-3.61t2.984-1.265h.203Zm-1.422 3.844q-.562 0-1.03.328-.47.328-.657.843v.391q0 1.063.469 1.703.484.64 1.187.64.735 0 1.156-.53.422-.547.422-1.422 0-.875-.422-1.407-.421-.546-1.125-.546Zm4.657.406.437-4.25h4.375v1h-3.453l-.266 2.328q.641-.375 1.438-.375 1.156 0 1.844.781.687.766.687 2.078 0 1.313-.719 2.078-.703.766-1.984.766-1.125 0-1.844-.625-.718-.64-.812-1.75h1.015q.11.734.532 1.11.422.374 1.109.374.75 0 1.188-.515.437-.516.437-1.422 0-.86-.469-1.375-.468-.516-1.25-.516-.703 0-1.11.297l-.28.235-.875-.22Z"/><path stroke="#4285f4" stroke-width="3" stroke-linejoin="round" stroke-linecap="round" d="m259.27 318.219.438-4.25h4.375v1h-3.453l-.265 2.328q.64-.375 1.437-.375 1.156 0 1.844.781.687.766.687 2.078 0 1.313-.718 2.078-.703.766-1.985.766-1.125 0-1.843-.625-.72-.64-.813-1.75h1.016q.109.734.53 1.11.423.374 1.11.374.75 0 1.188-.515.437-.516.437-1.422 0-.86-.468-1.375-.47-.516-1.25-.516-.704 0-1.11.297l-.281.235-.875-.22Zm11.86.64q0 1.907-.656 2.844-.64.922-2.031.922-1.36 0-2.016-.906-.656-.906-.687-2.719v-1.438q0-1.89.64-2.796.657-.922 2.047-.922 1.375 0 2.031.89.657.875.672 2.72v1.405Zm-1.093-1.484q0-1.375-.391-2-.375-.64-1.219-.64-.828 0-1.219.64-.375.625-.375 1.922v1.734q0 1.375.391 2.047.406.656 1.219.656.797 0 1.187-.625t.407-1.953v-1.781Z"/><path fill="#fff" d="m259.27 318.219.438-4.25h4.375v1h-3.453l-.265 2.328q.64-.375 1.437-.375 1.156 0 1.844.781.687.766.687 2.078 0 1.313-.718 2.078-.703.766-1.985.766-1.125 0-1.843-.625-.72-.64-.813-1.75h1.016q.109.734.53 1.11.423.374 1.11.374.75 0 1.188-.515.437-.516.437-1.422 0-.86-.468-1.375-.47-.516-1.25-.516-.704 0-1.11.297l-.281.235-.875-.22Zm11.86.64q0 1.907-.656 2.844-.64.922-2.031.922-1.36 0-2.016-.906-.656-.906-.687-2.719v-1.438q0-1.89.64-2.796.657-.922 2.047-.922 1.375 0 2.031.89.657.875.672 2.72v1.405Zm-1.093-1.484q0-1.375-.391-2-.375-.64-1.219-.64-.828 0-1.219.64-.375.625-.375 1.922v1.734q0 1.375.391 2.047.406.656 1.219.656.797 0 1.187-.625t.407-1.953v-1.781Z"/><path stroke="#4285f4" stroke-width="3" stroke-linejoin="round" stroke-linecap="round" d="M215.935 383.5h-1.078v-7.219l-2.187.797v-.984l3.109-1.172h.156v8.578Zm5.016-4.797h.812q.782-.015 1.219-.406.438-.39.438-1.063 0-1.5-1.5-1.5-.704 0-1.125.407-.407.406-.407 1.062h-1.093q0-1.015.734-1.687.75-.672 1.89-.672 1.204 0 1.891.64.688.641.688 1.782 0 .562-.36 1.078-.36.515-.984.781.703.219 1.078.734.39.516.39 1.266 0 1.14-.75 1.828-.75.672-1.952.672-1.188 0-1.954-.656-.75-.656-.75-1.719h1.094q0 .672.438 1.078.437.406 1.187.406.781 0 1.188-.406.422-.422.422-1.187 0-.735-.454-1.125-.453-.407-1.328-.422h-.812v-.89Z"/><path fill="#fff" d="M215.935 383.5h-1.078v-7.219l-2.187.797v-.984l3.109-1.172h.156v8.578Zm5.016-4.797h.812q.782-.015 1.219-.406.438-.39.438-1.063 0-1.5-1.5-1.5-.704 0-1.125.407-.407.406-.407 1.062h-1.093q0-1.015.734-1.687.75-.672 1.89-.672 1.204 0 1.891.64.688.641.688 1.782 0 .562-.36 1.078-.36.515-.984.781.703.219 1.078.734.39.516.39 1.266 0 1.14-.75 1.828-.75.672-1.952.672-1.188 0-1.954-.656-.75-.656-.75-1.719h1.094q0 .672.438 1.078.437.406 1.187.406.781 0 1.188-.406.422-.422.422-1.187 0-.735-.454-1.125-.453-.407-1.328-.422h-.812v-.89Z"/><path stroke="#34a853" stroke-width="3" stroke-linejoin="round" stroke-linecap="round" d="M710.216 139.5h-1.078v-7.219l-2.188.797v-.984l3.11-1.172h.156v8.578Zm7 0h-1.078v-7.219l-2.188.797v-.984l3.11-1.172h.156v8.578Zm9.03 0h-5.593v-.781l2.953-3.281q.657-.75.907-1.204.25-.468.25-.968 0-.672-.407-1.094-.39-.438-1.078-.438-.797 0-1.25.47-.453.452-.453 1.28h-1.078q0-1.187.75-1.906.766-.734 2.031-.734 1.203 0 1.89.625.688.625.688 1.672 0 1.25-1.61 3l-2.28 2.468h4.28v.891Zm7 0h-5.593v-.781l2.953-3.281q.657-.75.907-1.204.25-.468.25-.968 0-.672-.407-1.094-.39-.438-1.078-.438-.797 0-1.25.47-.453.452-.453 1.28h-1.078q0-1.187.75-1.906.766-.734 2.031-.734 1.203 0 1.89.625.688.625.688 1.672 0 1.25-1.61 3l-2.28 2.468h4.28v.891Z"/><path fill="#fff" d="M710.216 139.5h-1.078v-7.219l-2.188.797v-.984l3.11-1.172h.156v8.578Zm7 0h-1.078v-7.219l-2.188.797v-.984l3.11-1.172h.156v8.578Zm9.03 0h-5.593v-.781l2.953-3.281q.657-.75.907-1.204.25-.468.25-.968 0-.672-.407-1.094-.39-.438-1.078-.438-.797 0-1.25.47-.453.452-.453 1.28h-1.078q0-1.187.75-1.906.766-.734 2.031-.734 1.203 0 1.89.625.688.625.688 1.672 0 1.25-1.61 3l-2.28 2.468h4.28v.891Zm7 0h-5.593v-.781l2.953-3.281q.657-.75.907-1.204.25-.468.25-.968 0-.672-.407-1.094-.39-.438-1.078-.438-.797 0-1.25.47-.453.452-.453 1.28h-1.078q0-1.187.75-1.906.766-.734 2.031-.734 1.203 0 1.89.625.688.625.688 1.672 0 1.25-1.61 3l-2.28 2.468h4.28v.891Z"/><path stroke="#34a853" stroke-width="3" stroke-linejoin="round" stroke-linecap="round" d="m719.169 192.578-3.531 7.922h-1.141l3.516-7.64h-4.61v-.891h5.766v.61Zm1.984 3.64.438-4.25h4.375v1h-3.453l-.266 2.329q.64-.375 1.437-.375 1.157 0 1.844.781.688.766.688 2.078 0 1.313-.72 2.078-.702.766-1.983.766-1.125 0-1.844-.625-.719-.64-.813-1.75h1.016q.11.734.531 1.11.422.374 1.11.374.75 0 1.187-.515.438-.516.438-1.422 0-.86-.47-1.375-.468-.516-1.25-.516-.702 0-1.109.297l-.28.234-.876-.218Zm7 0 .438-4.25h4.375v1h-3.453l-.266 2.329q.64-.375 1.437-.375 1.157 0 1.844.781.688.766.688 2.078 0 1.313-.72 2.078-.702.766-1.983.766-1.125 0-1.844-.625-.719-.64-.813-1.75h1.016q.11.734.531 1.11.422.374 1.11.374.75 0 1.187-.515.438-.516.438-1.422 0-.86-.47-1.375-.468-.516-1.25-.516-.702 0-1.109.297l-.28.234-.876-.218Z"/><path fill="#fff" d="m719.169 192.578-3.531 7.922h-1.141l3.516-7.64h-4.61v-.891h5.766v.61Zm1.984 3.64.438-4.25h4.375v1h-3.453l-.266 2.329q.64-.375 1.437-.375 1.157 0 1.844.781.688.766.688 2.078 0 1.313-.72 2.078-.702.766-1.983.766-1.125 0-1.844-.625-.719-.64-.813-1.75h1.016q.11.734.531 1.11.422.374 1.11.374.75 0 1.187-.515.438-.516.438-1.422 0-.86-.47-1.375-.468-.516-1.25-.516-.702 0-1.109.297l-.28.234-.876-.218Zm7 0 .438-4.25h4.375v1h-3.453l-.266 2.329q.64-.375 1.437-.375 1.157 0 1.844.781.688.766.688 2.078 0 1.313-.72 2.078-.702.766-1.983.766-1.125 0-1.844-.625-.719-.64-.813-1.75h1.016q.11.734.531 1.11.422.374 1.11.374.75 0 1.187-.515.438-.516.438-1.422 0-.86-.47-1.375-.468-.516-1.25-.516-.702 0-1.109.297l-.28.234-.876-.218Z"/><path stroke="#34a853" stroke-width="3" stroke-linejoin="round" stroke-linecap="round" d="m719.169 253.578-3.531 7.922h-1.141l3.516-7.64h-4.61v-.891h5.766v.61Zm5.047 7.922h-1.078v-7.219l-2.188.797v-.984l3.11-1.172h.156v8.578Zm8.015-2.86h1.188v.876h-1.188v1.984h-1.078v-1.984h-3.89v-.641l3.812-5.906h1.156v5.672Zm-3.734 0h2.656v-4.187l-.14.234-2.516 3.954Z"/><path fill="#fff" d="m719.169 253.578-3.531 7.922h-1.141l3.516-7.64h-4.61v-.891h5.766v.61Zm5.047 7.922h-1.078v-7.219l-2.188.797v-.984l3.11-1.172h.156v8.578Zm8.015-2.86h1.188v.876h-1.188v1.984h-1.078v-1.984h-3.89v-.641l3.812-5.906h1.156v5.672Zm-3.734 0h2.656v-4.187l-.14.234-2.516 3.954Z"/><path stroke="#34a853" stroke-width="3" stroke-linejoin="round" stroke-linecap="round" d="M717.216 322.5h-1.078v-7.219l-2.188.797v-.984l3.11-1.172h.156v8.578Zm8.953-7.922-3.531 7.922h-1.141l3.516-7.64h-4.61v-.891h5.766v.61Zm7 0-3.531 7.922h-1.141l3.516-7.64h-4.61v-.891h5.766v.61Z"/><path fill="#fff" d="M717.216 322.5h-1.078v-7.219l-2.188.797v-.984l3.11-1.172h.156v8.578Zm8.953-7.922-3.531 7.922h-1.141l3.516-7.64h-4.61v-.891h5.766v.61Zm7 0-3.531 7.922h-1.141l3.516-7.64h-4.61v-.891h5.766v.61Z"/><path stroke="#34a853" stroke-width="3" stroke-linejoin="round" stroke-linecap="round" d="M724.919 374.969v.906h-.203q-1.266.031-2.016.766-.75.718-.875 2.03.688-.765 1.844-.765 1.11 0 1.781.781.672.782.672 2.032 0 1.312-.719 2.11-.719.796-1.937.796-1.22 0-1.985-.938-.75-.953-.75-2.437v-.406q0-2.36 1-3.61t2.985-1.265h.203Zm-1.422 3.844q-.563 0-1.031.328-.47.328-.657.843v.391q0 1.063.47 1.703.484.64 1.187.64.734 0 1.156-.53.422-.547.422-1.422 0-.875-.422-1.407-.422-.546-1.125-.546Zm8.422-3.844v.906h-.203q-1.266.031-2.016.766-.75.718-.875 2.03.688-.765 1.844-.765 1.11 0 1.781.781.672.782.672 2.032 0 1.312-.719 2.11-.719.796-1.937.796-1.22 0-1.985-.938-.75-.953-.75-2.437v-.406q0-2.36 1-3.61t2.985-1.265h.203Zm-1.422 3.844q-.563 0-1.031.328-.47.328-.657.843v.391q0 1.063.47 1.703.484.64 1.187.64.734 0 1.156-.53.422-.547.422-1.422 0-.875-.422-1.407-.422-.546-1.125-.546Z"/><path fill="#fff" d="M724.919 374.969v.906h-.203q-1.266.031-2.016.766-.75.718-.875 2.03.688-.765 1.844-.765 1.11 0 1.781.781.672.782.672 2.032 0 1.312-.719 2.11-.719.796-1.937.796-1.22 0-1.985-.938-.75-.953-.75-2.437v-.406q0-2.36 1-3.61t2.985-1.265h.203Zm-1.422 3.844q-.563 0-1.031.328-.47.328-.657.843v.391q0 1.063.47 1.703.484.64 1.187.64.734 0 1.156-.53.422-.547.422-1.422 0-.875-.422-1.407-.422-.546-1.125-.546Zm8.422-3.844v.906h-.203q-1.266.031-2.016.766-.75.718-.875 2.03.688-.765 1.844-.765 1.11 0 1.781.781.672.782.672 2.032 0 1.312-.719 2.11-.719.796-1.937.796-1.22 0-1.985-.938-.75-.953-.75-2.437v-.406q0-2.36 1-3.61t2.985-1.265h.203Zm-1.422 3.844q-.563 0-1.031.328-.47.328-.657.843v.391q0 1.063.47 1.703.484.64 1.187.64.734 0 1.156-.53.422-.547.422-1.422 0-.875-.422-1.407-.422-.546-1.125-.546Z"/><path fill="#000" d="M35.25 305.453v1.125l-6.578 4.297h6.578v1.14h-8.531v-1.14l6.61-4.297h-6.61v-1.125h8.531Zm-.625-6.187q.75.625.75 1.859 0 1.016-.594 1.547-.593.531-1.75.531h-4.125v-1.078H33q1.453 0 1.453-1.172 0-1.25-.937-1.656h-4.61v-1.094h6.344v1.031l-.625.032Zm-5.719-4.11.703-.031q-.812-.688-.812-1.875 0-1.328 1.015-1.813-.453-.312-.734-.812-.281-.516-.281-1.203 0-2.094 2.203-2.125h4.25v1.078h-4.188q-.671 0-1 .313-.343.312-.343 1.046 0 .61.36 1.016.358.39.968.453h4.203v1.078h-4.156q-1.375 0-1.375 1.36 0 1.062.906 1.453h4.625v1.094h-6.344v-1.032Zm3.25-15.344q1.453 0 2.344.672.875.657.875 1.782 0 1.203-.86 1.859l.735.063v.984h-9v-1.078h3.36q-.813-.656-.813-1.813 0-1.156.875-1.812.86-.656 2.39-.656h.094Zm-.125 1.079q-1.11 0-1.703.437-.61.422-.61 1.219 0 1.078.985 1.547h2.75q1-.5 1-1.547 0-.781-.61-1.219-.609-.437-1.812-.437Zm3.344-5.344q0 1.297-.844 2.11-.86.796-2.281.796h-.188q-.953 0-1.687-.36-.75-.359-1.156-1-.422-.656-.422-1.406 0-1.234.812-1.921.813-.688 2.328-.688h.454v4.297q.937-.031 1.515-.547.578-.531.578-1.344 0-.562-.234-.953-.234-.406-.625-.719l.516-.656q1.234.797 1.234 2.39Zm-5.688.14q0 .657.485 1.11.469.437 1.328.531v-3.172h-.078q-.828.047-1.281.453-.453.391-.453 1.079Zm.188-6.578q-.031.25-.031.532 0 1.078.906 1.453h4.5v1.078h-6.344v-1.047l.735-.016q-.844-.53-.844-1.515 0-.313.078-.485h1Zm2.14-3.64q-.921 0-1.671-.36-.75-.375-1.14-1.03-.407-.657-.407-1.485 0-1.297.89-2.094.891-.813 2.391-.813h.078q.922 0 1.657.36.734.36 1.156 1.015.406.657.406 1.516 0 1.281-.89 2.094-.907.797-2.391.797h-.078Zm.141-1.094q1.047 0 1.688-.484.64-.5.64-1.313 0-.828-.64-1.312-.657-.485-1.828-.485-1.032 0-1.672.5-.657.485-.657 1.313 0 .797.641 1.297.625.484 1.828.484Zm3.094-6.734h-5.5v1h-.844v-1h-.64q-1.032 0-1.578-.532-.563-.546-.563-1.546 0-.375.094-.75l.89.062q-.062.281-.062.578 0 .531.312.828.313.281.875.281h.672v-1.359h.844v1.36h5.5v1.078Zm0-6.625h-8.531v-2.797q0-1.39.578-2.078.562-.703 1.687-.703.61 0 1.078.343.454.328.704.922.187-.703.734-1.094.531-.406 1.281-.406 1.157 0 1.813.75.656.734.656 2.094v2.969Zm-3.984-1.125h3.062v-1.86q0-.797-.406-1.25-.406-.453-1.125-.453-1.531 0-1.531 1.688v1.875Zm-.907 0v-1.703q0-.735-.359-1.172-.375-.453-1.016-.453-.703 0-1.015.406-.328.406-.328 1.25v1.672h2.718Zm1.657-5.422q-.922 0-1.672-.36-.75-.375-1.14-1.03-.407-.657-.407-1.485 0-1.297.89-2.094.891-.813 2.391-.813h.078q.922 0 1.657.36.734.36 1.156 1.016.406.656.406 1.515 0 1.281-.89 2.094-.907.797-2.391.797h-.078Zm.14-1.094q1.047 0 1.688-.484.64-.5.64-1.313 0-.828-.64-1.312-.657-.485-1.828-.485-1.032 0-1.672.5-.657.485-.657 1.313 0 .797.641 1.297.625.484 1.828.484ZM35.25 236v1.078h-6.344V236h6.344Zm-8.016 1.172q-.265 0-.453-.156-.187-.172-.187-.485 0-.312.187-.469.188-.171.453-.171.25 0 .438.172.172.156.172.468 0 .313-.172.485-.188.156-.438.156Zm4.797-2.734q-1.468 0-2.343-.688-.891-.688-.891-1.813 0-1.109.75-1.765H26.25v-1.078h9v1l-.688.047q.813.656.813 1.812 0 1.094-.906 1.797-.907.688-2.36.688h-.078Zm.125-1.079q1.078 0 1.688-.437.61-.453.61-1.234 0-1.032-.938-1.516h-2.907q-.89.484-.89 1.5 0 .797.61 1.25.608.437 1.827.437Zm1.407-9.875q-.438 0-.672.344-.25.328-.422 1.156-.172.813-.422 1.297-.25.485-.578.719-.344.219-.813.219-.781 0-1.312-.656-.547-.657-.547-1.688 0-1.078.562-1.734.547-.672 1.407-.672v1.078q-.438 0-.75.39-.328.375-.328.938 0 .594.265.938.25.328.656.328.391 0 .594-.313.203-.312.39-1.125.173-.812.423-1.312t.609-.735q.36-.25.86-.25.859 0 1.374.688.516.672.516 1.75 0 .765-.266 1.36-.28.577-.765.905-.485.328-1.047.328v-1.078q.547-.03.875-.437.312-.406.312-1.078 0-.61-.25-.985t-.672-.375ZM77.25 134.508l.375-3.547h3.64v.828h-2.874l-.22 1.937q.516-.297 1.188-.297.97 0 1.532.641.578.64.578 1.734 0 1.094-.594 1.735-.594.625-1.656.625-.938 0-1.547-.516-.594-.531-.672-1.453h.86q.078.61.421.922.36.312.938.312.625 0 .984-.421.36-.438.36-1.188 0-.719-.391-1.14-.375-.438-1.031-.438-.579 0-.922.25l-.235.203-.734-.187Zm5.656 4.984-.515-.36q.453-.64.484-1.312v-.812h.875v.703q0 .484-.25.984-.234.5-.594.797Zm6.39-4.453q0 1.578-.546 2.36-.531.765-1.688.765-1.14 0-1.687-.75-.547-.75-.563-2.25v-1.203q0-1.578.532-2.328.547-.766 1.703-.766 1.156 0 1.687.734.547.735.563 2.266v1.172Zm-.905-1.235q0-1.156-.329-1.671-.312-.532-1.015-.532-.688 0-1.016.532-.312.515-.312 1.593v1.453q0 1.157.328 1.704.344.546 1.016.546.671 0 .984-.515.328-.516.344-1.625v-1.485Zm6.906 1.235q0 1.578-.547 2.36-.531.765-1.688.765-1.14 0-1.687-.75-.547-.75-.563-2.25v-1.203q0-1.578.532-2.328.547-.766 1.703-.766 1.156 0 1.687.734.547.735.563 2.266v1.172Zm-.906-1.235q0-1.156-.329-1.671-.312-.532-1.015-.532-.688 0-1.016.532-.312.515-.312 1.593v1.453q0 1.157.328 1.704.344.546 1.016.546.671 0 .984-.515.328-.516.344-1.625v-1.485Zm6.906 1.235q0 1.578-.547 2.36-.531.765-1.688.765-1.14 0-1.687-.75-.547-.75-.563-2.25v-1.203q0-1.578.532-2.328.547-.766 1.703-.766 1.156 0 1.687.734.547.735.563 2.266v1.172Zm-.906-1.235q0-1.156-.329-1.671-.312-.532-1.015-.532-.688 0-1.016.532-.312.515-.312 1.593v1.453q0 1.157.328 1.704.344.546 1.016.546.671 0 .984-.515.328-.516.344-1.625v-1.485ZM71.25 195.723l.375-3.547h3.64v.828h-2.874l-.22 1.937q.516-.297 1.188-.297.97 0 1.532.641.578.64.578 1.734 0 1.094-.594 1.735-.594.625-1.656.625-.938 0-1.547-.516-.594-.531-.672-1.453h.86q.078.61.421.922.36.312.938.312.625 0 .984-.421.36-.438.36-1.188 0-.719-.391-1.14-.375-.438-1.031-.438-.579 0-.922.25l-.235.203-.734-.187Zm10.047.53q0 1.579-.547 2.36-.531.766-1.688.766-1.14 0-1.687-.75-.547-.75-.563-2.25v-1.203q0-1.578.532-2.328.547-.766 1.703-.766 1.156 0 1.687.734.547.735.563 2.266v1.172Zm-.906-1.234q0-1.156-.329-1.671-.312-.532-1.015-.532-.688 0-1.016.532-.312.515-.312 1.593v1.453q0 1.157.328 1.704.344.546 1.016.546.671 0 .984-.515.328-.516.344-1.625v-1.485Zm2.515 5.688-.515-.36q.453-.64.484-1.312v-.812h.875v.703q0 .484-.25.984-.234.5-.594.797Zm6.39-4.453q0 1.578-.546 2.36-.531.765-1.688.765-1.14 0-1.687-.75-.547-.75-.563-2.25v-1.203q0-1.578.532-2.328.547-.766 1.703-.766 1.156 0 1.687.734.547.735.563 2.266v1.172Zm-.905-1.235q0-1.156-.329-1.671-.312-.532-1.015-.532-.688 0-1.016.532-.312.515-.312 1.593v1.453q0 1.157.328 1.704.344.546 1.016.546.671 0 .984-.515.328-.516.344-1.625v-1.485Zm6.906 1.235q0 1.578-.547 2.36-.531.765-1.688.765-1.14 0-1.687-.75-.547-.75-.563-2.25v-1.203q0-1.578.532-2.328.547-.766 1.703-.766 1.156 0 1.687.734.547.735.563 2.266v1.172Zm-.906-1.235q0-1.156-.329-1.671-.312-.532-1.015-.532-.688 0-1.016.532-.312.515-.312 1.593v1.453q0 1.157.328 1.704.344.546 1.016.546.671 0 .984-.515.328-.516.344-1.625v-1.485Zm6.906 1.235q0 1.578-.547 2.36-.531.765-1.688.765-1.14 0-1.687-.75-.547-.75-.563-2.25v-1.203q0-1.578.532-2.328.547-.766 1.703-.766 1.156 0 1.687.734.547.735.563 2.266v1.172Zm-.906-1.235q0-1.156-.329-1.671-.312-.532-1.015-.532-.688 0-1.016.532-.312.515-.312 1.593v1.453q0 1.157.328 1.704.344.546 1.016.546.671 0 .984-.515.328-.516.344-1.625v-1.485ZM67.813 260.5h-.907v-6.016l-1.828.657v-.813l2.594-.969h.14v7.141Zm7.484-3.031q0 1.578-.547 2.36-.531.765-1.688.765-1.14 0-1.687-.75-.547-.75-.563-2.25v-1.203q0-1.579.532-2.329.547-.765 1.703-.765 1.156 0 1.687.734.547.735.563 2.266v1.172Zm-.906-1.235q0-1.156-.329-1.671-.312-.532-1.015-.532-.688 0-1.016.531-.312.516-.312 1.594v1.453q0 1.157.328 1.704.344.546 1.016.546.671 0 .984-.515.328-.516.344-1.625v-1.485Zm6.906 1.235q0 1.578-.547 2.36-.531.765-1.688.765-1.14 0-1.687-.75-.547-.75-.563-2.25v-1.203q0-1.579.532-2.329.547-.765 1.703-.765 1.156 0 1.687.734.547.735.563 2.266v1.172Zm-.906-1.235q0-1.156-.329-1.671-.312-.532-1.015-.532-.688 0-1.016.531-.312.516-.312 1.594v1.453q0 1.157.328 1.704.344.546 1.016.546.671 0 .984-.515.328-.516.344-1.625v-1.485Zm2.515 5.688-.515-.36q.453-.64.484-1.312v-.813h.875v.704q0 .484-.25.984-.234.5-.594.797Zm6.39-4.453q0 1.578-.546 2.36-.531.765-1.688.765-1.14 0-1.687-.75-.547-.75-.563-2.25v-1.203q0-1.579.532-2.329.547-.765 1.703-.765 1.156 0 1.687.734.547.735.563 2.266v1.172Zm-.905-1.235q0-1.156-.329-1.671-.312-.532-1.015-.532-.688 0-1.016.531-.312.516-.312 1.594v1.453q0 1.157.328 1.704.344.546 1.016.546.671 0 .984-.515.328-.516.344-1.625v-1.485Zm6.906 1.235q0 1.578-.547 2.36-.531.765-1.688.765-1.14 0-1.687-.75-.547-.75-.563-2.25v-1.203q0-1.579.532-2.329.547-.765 1.703-.765 1.156 0 1.687.734.547.735.563 2.266v1.172Zm-.906-1.235q0-1.156-.329-1.671-.312-.532-1.015-.532-.688 0-1.016.531-.312.516-.312 1.594v1.453q0 1.157.328 1.704.344.546 1.016.546.671 0 .984-.515.328-.516.344-1.625v-1.485Zm6.906 1.235q0 1.578-.547 2.36-.531.765-1.688.765-1.14 0-1.687-.75-.547-.75-.563-2.25v-1.203q0-1.579.532-2.329.547-.765 1.703-.765 1.156 0 1.687.734.547.735.563 2.266v1.172Zm-.906-1.235q0-1.156-.329-1.671-.312-.532-1.015-.532-.688 0-1.016.531-.312.516-.312 1.594v1.453q0 1.157.328 1.704.344.546 1.016.546.671 0 .984-.515.328-.516.344-1.625v-1.485ZM65.25 318.152l.375-3.546h3.64v.828h-2.874l-.22 1.937q.516-.297 1.188-.297.97 0 1.532.641.578.64.578 1.734 0 1.094-.594 1.735-.594.625-1.656.625-.938 0-1.547-.516-.594-.531-.672-1.453h.86q.078.61.421.922.36.312.938.312.625 0 .984-.422.36-.437.36-1.187 0-.719-.391-1.14-.375-.438-1.031-.438-.579 0-.922.25l-.235.203-.734-.188Zm10.047.532q0 1.578-.547 2.36-.531.765-1.688.765-1.14 0-1.687-.75-.547-.75-.563-2.25v-1.203q0-1.579.532-2.329.547-.765 1.703-.765 1.156 0 1.687.734.547.735.563 2.266v1.172Zm-.906-1.235q0-1.156-.329-1.672-.312-.53-1.015-.53-.688 0-1.016.53-.312.516-.312 1.594v1.453q0 1.157.328 1.703.344.547 1.016.547.671 0 .984-.515.328-.516.344-1.625v-1.485Zm6.906 1.235q0 1.578-.547 2.36-.531.765-1.688.765-1.14 0-1.687-.75-.547-.75-.563-2.25v-1.203q0-1.579.532-2.329.547-.765 1.703-.765 1.156 0 1.687.734.547.735.563 2.266v1.172Zm-.906-1.235q0-1.156-.329-1.672-.312-.53-1.015-.53-.688 0-1.016.53-.312.516-.312 1.594v1.453q0 1.157.328 1.703.344.547 1.016.547.671 0 .984-.515.328-.516.344-1.625v-1.485Zm2.515 5.688-.515-.36q.453-.64.484-1.312v-.813h.875v.704q0 .484-.25.984-.234.5-.594.797Zm6.39-4.453q0 1.578-.546 2.36-.531.765-1.688.765-1.14 0-1.687-.75-.547-.75-.563-2.25v-1.203q0-1.579.532-2.329.547-.765 1.703-.765 1.156 0 1.687.734.547.735.563 2.266v1.172Zm-.905-1.235q0-1.156-.329-1.672-.312-.53-1.015-.53-.688 0-1.016.53-.312.516-.312 1.594v1.453q0 1.157.328 1.703.344.547 1.016.547.671 0 .984-.515.328-.516.344-1.625v-1.485Zm6.906 1.235q0 1.578-.547 2.36-.531.765-1.688.765-1.14 0-1.687-.75-.547-.75-.563-2.25v-1.203q0-1.579.532-2.329.547-.765 1.703-.765 1.156 0 1.687.734.547.735.563 2.266v1.172Zm-.906-1.235q0-1.156-.329-1.672-.312-.53-1.015-.53-.688 0-1.016.53-.312.516-.312 1.594v1.453q0 1.157.328 1.703.344.547 1.016.547.671 0 .984-.515.328-.516.344-1.625v-1.485Zm6.906 1.235q0 1.578-.547 2.36-.531.765-1.688.765-1.14 0-1.687-.75-.547-.75-.563-2.25v-1.203q0-1.579.532-2.329.547-.765 1.703-.765 1.156 0 1.687.734.547.735.563 2.266v1.172Zm-.906-1.235q0-1.156-.329-1.672-.312-.53-1.015-.53-.688 0-1.016.53-.312.516-.312 1.594v1.453q0 1.157.328 1.703.344.547 1.016.547.671 0 .984-.515.328-.516.344-1.625v-1.485ZM59.813 382.93h-.907v-6.016l-1.828.657v-.813l2.594-.969h.14v7.14Zm3.093 1.422-.515-.36q.453-.64.484-1.312v-.813h.875v.704q0 .484-.25.984-.234.5-.594.797Zm6.39-4.453q0 1.578-.546 2.359-.531.766-1.688.766-1.14 0-1.687-.75-.547-.75-.563-2.25v-1.203q0-1.579.532-2.329.547-.765 1.703-.765 1.156 0 1.687.734.547.735.563 2.266v1.172Zm-.905-1.235q0-1.156-.329-1.672-.312-.53-1.015-.53-.688 0-1.016.53-.312.516-.312 1.594v1.453q0 1.157.328 1.703.344.547 1.016.547.671 0 .984-.515.328-.516.344-1.625v-1.485Zm6.906 1.235q0 1.578-.547 2.359-.531.766-1.688.766-1.14 0-1.687-.75-.547-.75-.563-2.25v-1.203q0-1.579.532-2.329.547-.765 1.703-.765 1.156 0 1.687.734.547.735.563 2.266v1.172Zm-.906-1.235q0-1.156-.329-1.672-.312-.53-1.015-.53-.688 0-1.016.53-.312.516-.312 1.594v1.453q0 1.157.328 1.703.344.547 1.016.547.671 0 .984-.515.328-.516.344-1.625v-1.485Zm6.906 1.235q0 1.578-.547 2.359-.531.766-1.688.766-1.14 0-1.687-.75-.547-.75-.563-2.25v-1.203q0-1.579.532-2.329.547-.765 1.703-.765 1.156 0 1.687.734.547.735.563 2.266v1.172Zm-.906-1.235q0-1.156-.329-1.672-.312-.53-1.015-.53-.688 0-1.016.53-.312.516-.312 1.594v1.453q0 1.157.328 1.703.344.547 1.016.547.671 0 .984-.515.328-.516.344-1.625v-1.485Zm2.515 5.688-.515-.36q.453-.64.484-1.312v-.813h.875v.704q0 .484-.25.984-.234.5-.594.797Zm6.39-4.453q0 1.578-.546 2.359-.531.766-1.688.766-1.14 0-1.687-.75-.547-.75-.563-2.25v-1.203q0-1.579.532-2.329.547-.765 1.703-.765 1.156 0 1.687.734.547.735.563 2.266v1.172Zm-.905-1.235q0-1.156-.329-1.672-.312-.53-1.015-.53-.688 0-1.016.53-.312.516-.312 1.594v1.453q0 1.157.328 1.703.344.547 1.016.547.671 0 .984-.515.328-.516.344-1.625v-1.485Zm6.906 1.235q0 1.578-.547 2.359-.531.766-1.688.766-1.14 0-1.687-.75-.547-.75-.563-2.25v-1.203q0-1.579.532-2.329.547-.765 1.703-.765 1.156 0 1.687.734.547.735.563 2.266v1.172Zm-.906-1.235q0-1.156-.329-1.672-.312-.53-1.015-.53-.688 0-1.016.53-.312.516-.312 1.594v1.453q0 1.157.328 1.703.344.547 1.016.547.671 0 .984-.515.328-.516.344-1.625v-1.485Zm6.906 1.235q0 1.578-.547 2.359-.531.766-1.688.766-1.14 0-1.687-.75-.547-.75-.563-2.25v-1.203q0-1.579.532-2.329.547-.765 1.703-.765 1.156 0 1.687.734.547.735.563 2.266v1.172Zm-.906-1.235q0-1.156-.329-1.672-.312-.53-1.015-.53-.688 0-1.016.53-.312.516-.312 1.594v1.453q0 1.157.328 1.703.344.547 1.016.547.671 0 .984-.515.328-.516.344-1.625v-1.485ZM105.313 435.11q0 1.906-.657 2.843-.64.922-2.031.922-1.36 0-2.016-.906-.656-.906-.687-2.719v-1.438q0-1.89.64-2.796.657-.922 2.047-.922 1.375 0 2.032.89.656.875.671 2.72v1.405Zm-1.094-1.485q0-1.375-.39-2-.376-.64-1.22-.64-.828 0-1.218.64-.375.625-.375 1.922v1.734q0 1.375.39 2.047.406.656 1.219.656.797 0 1.188-.625.39-.625.406-1.953v-1.781Zm2.64-1.766q0-.765.485-1.265.5-.5 1.265-.5.782 0 1.266.5t.484 1.297v.421q0 .766-.5 1.266-.484.485-1.234.485-.766 0-1.266-.485-.5-.5-.5-1.312v-.407Zm.813.454q0 .453.25.75.266.296.703.296.422 0 .672-.28.25-.298.25-.798v-.422q0-.453-.25-.75-.25-.312-.688-.312-.437 0-.687.312-.25.297-.25.766v.438Zm3.344 4.343q0-.765.484-1.25.5-.5 1.266-.5.765 0 1.25.5.5.485.5 1.297v.406q0 .766-.485 1.266-.484.5-1.25.5-.765 0-1.265-.484-.5-.5-.5-1.313v-.422Zm.812.453q0 .47.25.766.266.297.703.297.422 0 .672-.281.25-.297.25-.797v-.438q0-.469-.266-.75-.25-.297-.671-.297-.422 0-.688.297-.25.281-.25.781v.422Zm-2.953 1-.625-.39 4.172-6.672.61.39-4.157 6.672ZM259.922 438.75h-5.594v-.781l2.953-3.281q.656-.75.906-1.204.25-.468.25-.968 0-.672-.406-1.094-.39-.438-1.078-.438-.797 0-1.25.47-.453.452-.453 1.28h-1.078q0-1.187.75-1.906.766-.734 2.031-.734 1.203 0 1.89.625.688.625.688 1.672 0 1.25-1.61 3l-2.28 2.468h4.28v.891Zm1.906-4.281.438-4.25h4.375v1h-3.454l-.265 2.328q.64-.375 1.437-.375 1.157 0 1.844.781.688.766.688 2.078 0 1.313-.72 2.078-.702.766-1.983.766-1.125 0-1.844-.625-.719-.64-.813-1.75h1.016q.11.734.531 1.11.422.374 1.11.374.75 0 1.187-.515.438-.516.438-1.422 0-.86-.47-1.375-.468-.516-1.25-.516-.702 0-1.109.297l-.28.235-.876-.22Zm6.406-2.61q0-.765.485-1.265.5-.5 1.265-.5.782 0 1.266.5t.484 1.297v.421q0 .766-.5 1.266-.484.485-1.234.485-.766 0-1.266-.485-.5-.5-.5-1.312v-.407Zm.813.454q0 .453.25.75.265.296.703.296.422 0 .672-.28.25-.298.25-.798v-.422q0-.453-.25-.75-.25-.312-.688-.312-.437 0-.687.312-.25.297-.25.766v.438Zm3.344 4.343q0-.765.484-1.25.5-.5 1.266-.5.765 0 1.25.5.5.485.5 1.297v.406q0 .766-.485 1.266-.484.5-1.25.5-.765 0-1.265-.484-.5-.5-.5-1.313v-.422Zm.812.453q0 .47.25.766.266.297.703.297.422 0 .672-.281.25-.297.25-.797v-.438q0-.469-.265-.75-.25-.297-.672-.297-.422 0-.688.297-.25.281-.25.781v.422Zm-2.953 1-.625-.39 4.172-6.672.61.39-4.157 6.672ZM412.703 434.469l.438-4.25h4.375v1h-3.454l-.265 2.328q.64-.375 1.437-.375 1.157 0 1.844.781.688.766.688 2.078 0 1.313-.72 2.078-.702.766-1.983.766-1.125 0-1.844-.625-.719-.64-.813-1.75h1.016q.11.734.531 1.11.422.374 1.11.374.75 0 1.187-.515.438-.516.438-1.422 0-.86-.47-1.375-.468-.516-1.25-.516-.702 0-1.109.297l-.28.235-.876-.22Zm11.86.64q0 1.907-.657 2.844-.64.922-2.031.922-1.36 0-2.016-.906-.656-.906-.687-2.719v-1.438q0-1.89.64-2.796.657-.922 2.047-.922 1.375 0 2.032.89.656.875.671 2.72v1.405Zm-1.094-1.484q0-1.375-.39-2-.376-.64-1.22-.64-.828 0-1.218.64-.375.625-.375 1.922v1.734q0 1.375.39 2.047.406.656 1.219.656.797 0 1.188-.625.39-.625.406-1.953v-1.781Zm2.64-1.766q0-.765.485-1.265.5-.5 1.265-.5.782 0 1.266.5t.484 1.297v.421q0 .766-.5 1.266-.484.485-1.234.485-.766 0-1.266-.485-.5-.5-.5-1.312v-.407Zm.813.454q0 .453.25.75.265.296.703.296.422 0 .672-.28.25-.298.25-.798v-.422q0-.453-.25-.75-.25-.312-.688-.312-.437 0-.687.312-.25.297-.25.766v.438Zm3.344 4.343q0-.765.484-1.25.5-.5 1.266-.5.765 0 1.25.5.5.485.5 1.297v.406q0 .766-.485 1.266-.484.5-1.25.5-.765 0-1.265-.484-.5-.5-.5-1.313v-.422Zm.812.453q0 .47.25.766.266.297.703.297.422 0 .672-.281.25-.297.25-.797v-.438q0-.469-.265-.75-.25-.297-.672-.297-.422 0-.688.297-.25.281-.25.781v.422Zm-2.953 1-.625-.39 4.172-6.672.61.39-4.157 6.672ZM575.594 430.828l-3.532 7.922h-1.14l3.515-7.64h-4.609v-.891h5.766v.61Zm1.984 3.64.438-4.25h4.375v1h-3.453l-.266 2.329q.64-.375 1.437-.375 1.157 0 1.844.781.688.766.688 2.078 0 1.313-.72 2.078-.702.766-1.984.766-1.125 0-1.843-.625-.719-.64-.813-1.75h1.016q.11.734.531 1.11.422.374 1.11.374.75 0 1.187-.515.438-.516.438-1.422 0-.86-.47-1.375-.468-.516-1.25-.516-.702 0-1.109.297l-.28.235-.876-.22Zm6.406-2.609q0-.765.485-1.265.5-.5 1.265-.5.782 0 1.266.5t.484 1.297v.421q0 .766-.5 1.266-.484.485-1.234.485-.766 0-1.266-.485-.5-.5-.5-1.312v-.407Zm.813.454q0 .453.25.75.265.296.703.296.422 0 .672-.28.25-.298.25-.798v-.422q0-.453-.25-.75-.25-.312-.688-.312-.437 0-.687.312-.25.297-.25.766v.438Zm3.344 4.343q0-.765.484-1.25.5-.5 1.266-.5.765 0 1.25.5.5.485.5 1.297v.406q0 .766-.485 1.266-.484.5-1.25.5-.765 0-1.265-.484-.5-.5-.5-1.313v-.422Zm.812.453q0 .47.25.766.266.297.703.297.422 0 .672-.281.25-.297.25-.797v-.438q0-.469-.265-.75-.25-.297-.672-.297-.422 0-.688.297-.25.281-.25.781v.422Zm-2.953 1-.625-.39 4.172-6.672.61.39L586 438.11ZM728.016 438.75h-1.078v-7.219l-2.188.797v-.984l3.11-1.172h.156v8.578Zm8.797-3.64q0 1.906-.657 2.843-.64.922-2.031.922-1.36 0-2.016-.906-.656-.906-.687-2.719v-1.438q0-1.89.64-2.796.657-.922 2.047-.922 1.375 0 2.032.89.656.875.672 2.72v1.405Zm-1.094-1.485q0-1.375-.39-2-.376-.64-1.22-.64-.828 0-1.218.64-.375.625-.375 1.922v1.734q0 1.375.39 2.047.407.656 1.219.656.797 0 1.188-.625.39-.625.406-1.953v-1.781Zm8.093 1.484q0 1.907-.656 2.844-.64.922-2.031.922-1.36 0-2.016-.906-.656-.906-.687-2.719v-1.438q0-1.89.64-2.796.657-.922 2.047-.922 1.375 0 2.032.89.656.875.672 2.72v1.405Zm-1.093-1.484q0-1.375-.39-2-.376-.64-1.22-.64-.828 0-1.218.64-.375.625-.375 1.922v1.734q0 1.375.39 2.047.407.656 1.219.656.797 0 1.188-.625.39-.625.406-1.953v-1.781Zm2.64-1.766q0-.765.485-1.265.5-.5 1.265-.5.782 0 1.266.5t.484 1.297v.421q0 .766-.5 1.266-.484.485-1.234.485-.766 0-1.266-.485-.5-.5-.5-1.312v-.407Zm.813.454q0 .453.25.75.265.296.703.296.422 0 .672-.28.25-.298.25-.798v-.422q0-.453-.25-.75-.25-.312-.688-.312-.437 0-.687.312-.25.297-.25.766v.438Zm3.344 4.343q0-.765.484-1.25.5-.5 1.266-.5.765 0 1.25.5.5.485.5 1.297v.406q0 .766-.485 1.266-.484.5-1.25.5-.765 0-1.265-.484-.5-.5-.5-1.313v-.422Zm.812.453q0 .47.25.766.266.297.703.297.422 0 .672-.281.25-.297.25-.797v-.438q0-.469-.265-.75-.25-.297-.672-.297-.422 0-.688.297-.25.281-.25.781v.422Zm-2.953 1-.625-.39 4.172-6.672.61.39-4.157 6.672Z"/><path fill="#ea4335" d="M190 65.25a1 1 0 0 1 1-1h10a1 1 0 0 1 1 1v10a1 1 0 0 1-1 1h-10a1 1 0 0 1-1-1Z"/><path fill="#1a1a1a" d="M213.5 70.953q-1.438-.422-2.11-1.031-.656-.61-.656-1.5 0-1 .797-1.656.813-.672 2.11-.672.875 0 1.562.344.688.343 1.063.937.39.594.39 1.313h-1.14q0-.782-.5-1.22-.485-.437-1.375-.437-.828 0-1.297.375-.469.36-.469 1 0 .531.438.89.453.36 1.515.657 1.063.297 1.656.656.61.36.891.844.297.484.297 1.125 0 1.047-.813 1.672-.812.625-2.156.625-.89 0-1.656-.344-.75-.344-1.172-.922-.406-.593-.406-1.328h1.125q0 .766.578 1.219.578.453 1.531.453.89 0 1.36-.36.468-.374.468-1 0-.624-.437-.968-.438-.344-1.594-.672Zm6.86 3.031q.577 0 1.015-.343.438-.36.484-.891h1.032q-.032.547-.391 1.047-.344.484-.922.781-.562.297-1.219.297-1.297 0-2.062-.86-.75-.874-.75-2.374v-.188q0-.922.328-1.64.344-.72.969-1.11.64-.406 1.515-.406 1.063 0 1.766.64.719.626.766 1.657h-1.032q-.047-.625-.468-1.016-.422-.39-1.032-.39-.828 0-1.28.593-.454.594-.454 1.719v.203q0 1.094.453 1.688.453.593 1.281.593Zm7.374.766q-.093-.188-.156-.672-.75.797-1.797.797-.937 0-1.547-.531-.593-.531-.593-1.36 0-.984.75-1.53.75-.548 2.125-.548h1.047v-.5q0-.562-.344-.89-.328-.344-1-.344-.578 0-.969.297-.39.281-.39.703h-1.094q0-.484.328-.922.344-.438.922-.688.578-.265 1.265-.265 1.11 0 1.719.547.625.547.656 1.5v2.922q0 .875.219 1.39v.094h-1.14Zm-1.797-.828q.516 0 .97-.266.452-.265.655-.687v-1.297h-.843q-2 0-2 1.172 0 .5.344.797.343.28.875.28Zm6.36-7.047v1.531h1.172v.844h-1.172v3.922q0 .39.156.578.156.188.531.188.188 0 .516-.063v.875q-.422.125-.828.125-.719 0-1.094-.438-.375-.453-.375-1.265V69.25h-1.156v-.844h1.156v-1.531h1.094Zm4 0v1.531h1.172v.844h-1.172v3.922q0 .39.156.578.156.188.531.188.188 0 .516-.063v.875q-.422.125-.828.125-.719 0-1.094-.438-.375-.453-.375-1.265V69.25h-1.156v-.844h1.156v-1.531h1.094Zm5.156 8q-1.297 0-2.11-.844-.796-.86-.796-2.281v-.188q0-.953.36-1.687.359-.75 1-1.156.655-.422 1.405-.422 1.235 0 1.922.812.688.813.688 2.329v.453h-4.297q.031.937.547 1.515.531.578 1.344.578.562 0 .953-.234.406-.234.719-.625l.656.516q-.797 1.234-2.39 1.234Zm-.14-5.688q-.657 0-1.11.485-.437.469-.531 1.328h3.172v-.078q-.047-.828-.453-1.281-.391-.454-1.078-.454Zm6.578.188q-.25-.031-.532-.031-1.078 0-1.453.906v4.5h-1.078v-6.344h1.047l.016.735q.53-.844 1.515-.844.313 0 .485.078v1Zm3.562 5.5q-1.297 0-2.11-.844-.796-.86-.796-2.281v-.188q0-.953.36-1.687.359-.75 1-1.156.655-.422 1.405-.422 1.235 0 1.922.812.688.813.688 2.329v.453h-4.297q.031.937.547 1.515.531.578 1.344.578.562 0 .953-.234.406-.234.719-.625l.656.516q-.797 1.234-2.39 1.234Zm-.14-5.688q-.657 0-1.11.485-.437.469-.531 1.328h3.172v-.078q-.047-.828-.453-1.281-.391-.454-1.078-.454Zm3.25 2.344q0-1.469.687-2.344.688-.89 1.813-.89 1.109 0 1.765.75V65.75h1.078v9h-1l-.047-.688q-.656.813-1.812.813-1.094 0-1.797-.906-.688-.906-.688-2.36v-.078Zm1.078.125q0 1.078.437 1.688.453.61 1.235.61 1.03 0 1.515-.938v-2.907q-.484-.89-1.5-.89-.797 0-1.25.61-.437.609-.437 1.827Zm8.437-.094h-2.86v-.874h2.86v.874Zm5.813-3.124q0 .64-.344 1.14-.344.5-.906.781.656.282 1.046.844.391.547.391 1.25 0 1.094-.75 1.766-.734.656-1.953.656-1.234 0-1.984-.656-.735-.672-.735-1.766 0-.703.375-1.25.375-.562 1.047-.844-.562-.28-.89-.78-.329-.5-.329-1.141 0-1.079.688-1.704.687-.64 1.828-.64 1.125 0 1.813.64.703.625.703 1.704ZM269 72.421q0-.719-.453-1.156-.453-.454-1.188-.454-.734 0-1.187.454-.438.437-.438 1.171 0 .72.438 1.141.437.406 1.203.406.75 0 1.188-.421.437-.422.437-1.141Zm-1.625-5.438q-.64 0-1.047.407-.39.39-.39 1.078 0 .64.39 1.047.39.406 1.031.406.657 0 1.047-.406.39-.407.39-1.047 0-.656-.405-1.063-.407-.422-1.016-.422Z"/><path fill="#fbbc04" d="M287 65.25a1 1 0 0 1 1-1h10a1 1 0 0 1 1 1v10a1 1 0 0 1-1 1h-10a1 1 0 0 1-1-1Z"/><path fill="#1a1a1a" d="M310.5 70.953q-1.438-.422-2.11-1.031-.656-.61-.656-1.5 0-1 .797-1.656.813-.672 2.11-.672.875 0 1.562.344.688.343 1.063.937.39.594.39 1.313h-1.14q0-.782-.5-1.22-.485-.437-1.375-.437-.829 0-1.297.375-.469.36-.469 1 0 .531.438.89.453.36 1.515.657 1.063.297 1.656.656.61.36.891.844.297.484.297 1.125 0 1.047-.813 1.672-.812.625-2.156.625-.89 0-1.656-.344-.75-.344-1.172-.922-.406-.593-.406-1.328h1.125q0 .766.578 1.219.578.453 1.531.453.89 0 1.36-.36.468-.374.468-1 0-.624-.437-.968-.438-.344-1.594-.672Zm6.86 3.031q.577 0 1.015-.343.438-.36.484-.891h1.032q-.032.547-.391 1.047-.344.484-.922.781-.562.297-1.219.297-1.296 0-2.062-.86-.75-.874-.75-2.374v-.188q0-.922.328-1.64.344-.72.969-1.11.64-.406 1.515-.406 1.063 0 1.766.64.719.626.766 1.657h-1.032q-.046-.625-.468-1.016-.422-.39-1.032-.39-.828 0-1.28.593-.454.594-.454 1.719v.203q0 1.094.453 1.688.453.593 1.281.593Zm7.374.766q-.093-.188-.156-.672-.75.797-1.797.797-.937 0-1.547-.531-.593-.531-.593-1.36 0-.984.75-1.53.75-.548 2.125-.548h1.046v-.5q0-.562-.343-.89-.328-.344-1-.344-.578 0-.969.297-.39.281-.39.703h-1.094q0-.484.328-.922.344-.438.922-.688.578-.265 1.265-.265 1.11 0 1.719.547.625.547.656 1.5v2.922q0 .875.219 1.39v.094h-1.14Zm-1.796-.828q.515 0 .968-.266.453-.265.656-.687v-1.297h-.843q-2 0-2 1.172 0 .5.344.797.343.28.875.28Zm6.359-7.047v1.531h1.172v.844h-1.172v3.922q0 .39.156.578.156.188.531.188.188 0 .516-.063v.875q-.422.125-.828.125-.719 0-1.094-.438-.375-.453-.375-1.265V69.25h-1.156v-.844h1.156v-1.531h1.094Zm4 0v1.531h1.172v.844h-1.172v3.922q0 .39.156.578.156.188.531.188.188 0 .516-.063v.875q-.422.125-.828.125-.719 0-1.094-.438-.375-.453-.375-1.265V69.25h-1.156v-.844h1.156v-1.531h1.094Zm5.156 8q-1.297 0-2.11-.844-.796-.86-.796-2.281v-.188q0-.953.36-1.687.359-.75 1-1.156.656-.422 1.406-.422 1.234 0 1.921.812.688.813.688 2.329v.453h-4.297q.031.937.547 1.515.531.578 1.344.578.562 0 .953-.234.406-.234.719-.625l.656.516q-.797 1.234-2.39 1.234Zm-.14-5.688q-.657 0-1.11.485-.437.469-.531 1.328h3.172v-.078q-.047-.828-.453-1.281-.391-.454-1.079-.454Zm6.578.188q-.25-.031-.532-.031-1.078 0-1.453.906v4.5h-1.078v-6.344h1.047l.016.735q.53-.844 1.515-.844.313 0 .485.078v1Zm3.562 5.5q-1.297 0-2.11-.844-.796-.86-.796-2.281v-.188q0-.953.36-1.687.359-.75 1-1.156.656-.422 1.406-.422 1.234 0 1.921.812.688.813.688 2.329v.453h-4.297q.031.937.547 1.515.531.578 1.344.578.562 0 .953-.234.406-.234.719-.625l.656.516q-.797 1.234-2.39 1.234Zm-.14-5.688q-.657 0-1.11.485-.437.469-.531 1.328h3.172v-.078q-.047-.828-.453-1.281-.391-.454-1.079-.454Zm3.25 2.344q0-1.469.687-2.344.688-.89 1.813-.89 1.109 0 1.765.75V65.75h1.078v9h-1l-.047-.688q-.656.813-1.812.813-1.094 0-1.797-.906-.688-.906-.688-2.36v-.078Zm1.078.125q0 1.078.437 1.688.453.61 1.235.61 1.03 0 1.515-.938v-2.907q-.484-.89-1.5-.89-.797 0-1.25.61-.437.609-.437 1.827Zm8.437-.094h-2.86v-.874h2.86v.874Zm6.219 3.188h-5.594v-.781l2.953-3.281q.656-.75.906-1.204.25-.468.25-.968 0-.672-.406-1.094-.39-.438-1.078-.438-.797 0-1.25.47-.453.452-.453 1.28h-1.078q0-1.187.75-1.906.765-.734 2.031-.734 1.203 0 1.89.625.688.625.688 1.672 0 1.25-1.61 3l-2.28 2.468h4.28v.891Zm6.922-7.922-3.531 7.922h-1.141l3.515-7.64h-4.609v-.891h5.766v.61Z"/><path fill="#4285f4" d="M391 65.25a1 1 0 0 1 1-1h10a1 1 0 0 1 1 1v10a1 1 0 0 1-1 1h-10a1 1 0 0 1-1-1Z"/><path fill="#1a1a1a" d="M418.266 72.047q-.157 1.344-1 2.094-.844.734-2.235.734-1.515 0-2.422-1.078-.906-1.094-.906-2.922v-.813q0-1.187.422-2.093.422-.906 1.203-1.39.781-.485 1.797-.485 1.36 0 2.172.765.828.766.969 2.094h-1.125q-.157-1.016-.641-1.469-.484-.453-1.375-.453-1.078 0-1.688.797-.609.797-.609 2.266v.828q0 1.39.578 2.219.578.812 1.625.812.938 0 1.438-.422.5-.437.672-1.484h1.125Zm1.265-.531q0-.922.36-1.672.375-.75 1.03-1.14.657-.407 1.485-.407 1.297 0 2.094.89.813.891.813 2.391v.078q0 .922-.36 1.656-.36.735-1.015 1.157-.657.406-1.516.406-1.281 0-2.094-.89-.797-.907-.797-2.391v-.078Zm1.094.14q0 1.047.484 1.688.5.64 1.313.64.828 0 1.312-.64.485-.656.485-1.828 0-1.032-.5-1.672-.485-.656-1.313-.656-.797 0-1.297.64-.484.625-.484 1.828Zm7.281-2.484q.719-.875 1.875-.875 2.016 0 2.031 2.266v4.187h-1.093v-4.203q0-.672-.313-1-.297-.328-.953-.328-.531 0-.937.281-.391.281-.61.734v4.516h-1.078v-9h1.078v3.422Zm8.547 5.703q-1.297 0-2.11-.844-.796-.86-.796-2.281v-.188q0-.953.36-1.687.359-.75 1-1.156.656-.422 1.406-.422 1.234 0 1.921.812.688.813.688 2.329v.453h-4.297q.031.937.547 1.515.531.578 1.344.578.562 0 .953-.234.406-.234.719-.625l.656.516q-.797 1.234-2.39 1.234Zm-.14-5.688q-.657 0-1.11.485-.437.469-.531 1.328h3.172v-.078q-.047-.828-.453-1.281-.391-.454-1.079-.454Zm6.578.188q-.25-.031-.532-.031-1.078 0-1.453.906v4.5h-1.078v-6.344h1.047l.016.735q.53-.844 1.515-.844.313 0 .485.078v1Zm3.562 5.5q-1.297 0-2.11-.844-.796-.86-.796-2.281v-.188q0-.953.36-1.687.359-.75 1-1.156.656-.422 1.406-.422 1.234 0 1.921.812.688.813.688 2.329v.453h-4.297q.031.937.547 1.515.531.578 1.344.578.562 0 .953-.234.406-.234.719-.625l.656.516q-.797 1.234-2.39 1.234Zm-.14-5.688q-.657 0-1.11.485-.437.469-.531 1.328h3.172v-.078q-.047-.828-.453-1.281-.391-.454-1.079-.454Zm4.53-.78.032.796q.734-.906 1.906-.906 2.016 0 2.031 2.266v4.187h-1.093v-4.203q0-.672-.313-1-.297-.328-.953-.328-.531 0-.937.281-.391.281-.61.734v4.516h-1.078v-6.344h1.016Zm7.454-1.532v1.531h1.172v.844h-1.172v3.922q0 .39.156.578.156.188.531.188.188 0 .516-.063v.875q-.422.125-.828.125-.719 0-1.094-.438-.375-.453-.375-1.265V69.25h-1.156v-.844h1.156v-1.531h1.094Zm4.781 4.688h-2.86v-.876h2.86v.876Zm5.813-3.126q0 .641-.344 1.141t-.906.781q.656.282 1.046.844.391.547.391 1.25 0 1.094-.75 1.766-.734.656-1.953.656-1.234 0-1.984-.656-.735-.672-.735-1.766 0-.703.375-1.25.375-.562 1.047-.844-.562-.28-.89-.78-.329-.5-.329-1.141 0-1.079.688-1.704.687-.64 1.828-.64 1.125 0 1.813.64.703.625.703 1.704ZM468 72.422q0-.719-.453-1.156-.453-.454-1.188-.454-.734 0-1.187.454-.438.437-.438 1.171 0 .72.438 1.141.437.406 1.203.406.75 0 1.188-.421.437-.422.437-1.141Zm-1.625-5.438q-.64 0-1.047.407-.39.39-.39 1.078 0 .64.39 1.047.39.406 1.031.406.657 0 1.047-.406.39-.407.39-1.047 0-.656-.405-1.063-.407-.422-1.016-.422Z"/><path fill="#34a853" d="M486 65.25a1 1 0 0 1 1-1h10a1 1 0 0 1 1 1v10a1 1 0 0 1-1 1h-10a1 1 0 0 1-1-1Z"/><path fill="#1a1a1a" d="M513.266 72.047q-.157 1.344-1 2.094-.844.734-2.235.734-1.515 0-2.422-1.078-.906-1.094-.906-2.922v-.813q0-1.187.422-2.093.422-.906 1.203-1.39.781-.485 1.797-.485 1.36 0 2.172.765.828.766.969 2.094h-1.125q-.157-1.016-.641-1.469-.484-.453-1.375-.453-1.078 0-1.688.797-.609.797-.609 2.266v.828q0 1.39.578 2.219.578.812 1.625.812.938 0 1.438-.422.5-.437.672-1.484h1.125Zm1.265-.531q0-.922.36-1.672.375-.75 1.03-1.14.657-.407 1.485-.407 1.297 0 2.094.89.813.891.813 2.391v.078q0 .922-.36 1.656-.36.735-1.015 1.157-.657.406-1.516.406-1.281 0-2.094-.89-.797-.907-.797-2.391v-.078Zm1.094.14q0 1.047.484 1.688.5.64 1.313.64.828 0 1.312-.64.485-.656.485-1.828 0-1.032-.5-1.672-.485-.656-1.313-.656-.797 0-1.297.64-.484.625-.484 1.828Zm7.281-2.484q.719-.875 1.875-.875 2.016 0 2.032 2.266v4.187h-1.094v-4.203q0-.672-.313-1-.297-.328-.953-.328-.531 0-.937.281-.391.281-.61.734v4.516h-1.078v-9h1.078v3.422Zm8.547 5.703q-1.297 0-2.11-.844-.796-.86-.796-2.281v-.188q0-.953.36-1.687.359-.75 1-1.156.655-.422 1.405-.422 1.235 0 1.922.812.688.813.688 2.329v.453h-4.297q.031.937.547 1.515.531.578 1.344.578.562 0 .953-.234.406-.234.718-.625l.657.516q-.797 1.234-2.39 1.234Zm-.14-5.688q-.657 0-1.11.485-.437.469-.531 1.328h3.172v-.078q-.047-.828-.453-1.281-.391-.454-1.078-.454Zm6.578.188q-.25-.031-.532-.031-1.078 0-1.453.906v4.5h-1.078v-6.344h1.047l.016.735q.53-.844 1.515-.844.313 0 .485.078v1Zm3.562 5.5q-1.297 0-2.11-.844-.796-.86-.796-2.281v-.188q0-.953.36-1.687.359-.75 1-1.156.655-.422 1.405-.422 1.235 0 1.922.812.688.813.688 2.329v.453h-4.297q.031.937.547 1.515.531.578 1.344.578.562 0 .953-.234.406-.234.718-.625l.657.516q-.797 1.234-2.39 1.234Zm-.14-5.688q-.657 0-1.11.485-.437.469-.531 1.328h3.172v-.078q-.047-.828-.453-1.281-.391-.454-1.078-.454Zm4.53-.78.032.796q.734-.906 1.906-.906 2.016 0 2.032 2.266v4.187h-1.094v-4.203q0-.672-.313-1-.297-.328-.953-.328-.531 0-.937.281-.391.281-.61.734v4.516h-1.078v-6.344h1.016Zm7.454-1.532v1.531h1.172v.844h-1.172v3.922q0 .39.156.578.156.188.531.188.188 0 .516-.063v.875q-.422.125-.828.125-.719 0-1.094-.438-.375-.453-.375-1.265V69.25h-1.156v-.844h1.156v-1.531h1.094Zm4.781 4.688h-2.86v-.876h2.86v.876Zm6.219 3.187h-5.594v-.781l2.953-3.281q.657-.75.907-1.204.25-.468.25-.968 0-.672-.407-1.094-.39-.438-1.078-.438-.797 0-1.25.47-.453.452-.453 1.28h-1.078q0-1.187.75-1.906.765-.734 2.031-.734 1.203 0 1.89.625.688.625.688 1.672 0 1.25-1.61 3l-2.28 2.468h4.28v.891Zm6.922-7.922-3.532 7.922h-1.14l3.515-7.64h-4.609v-.891h5.766v.61Z"/><path fill="#757575" d="M32.75 35.969h-5.969v6.281h-1.875V28.031h8.797v1.547h-6.922v4.86h5.969v1.53Zm5.031.718v5.563h-1.875V28.031h5.235q2.343 0 3.656 1.188 1.328 1.187 1.328 3.156 0 2.078-1.297 3.203-1.297 1.11-3.703 1.11h-3.344Zm0-1.53h3.36q1.515 0 2.312-.704.797-.719.797-2.062 0-1.266-.797-2.016-.797-.766-2.203-.797h-3.469v5.578Zm15.313.75q-2.422-.688-3.516-1.688-1.094-1.016-1.094-2.5 0-1.688 1.344-2.782 1.344-1.109 3.484-1.109 1.47 0 2.61.578 1.156.563 1.781 1.563.625.984.625 2.172h-1.875q0-1.282-.828-2.016-.813-.75-2.313-.75-1.39 0-2.171.61-.766.609-.766 1.703 0 .859.734 1.468.735.594 2.5 1.094 1.782.5 2.782 1.11 1 .593 1.484 1.39.484.797.484 1.89 0 1.72-1.343 2.766-1.344 1.047-3.61 1.047-1.453 0-2.734-.562-1.266-.563-1.953-1.532-.688-.984-.688-2.234h1.89q0 1.297.954 2.047.953.734 2.531.734 1.485 0 2.282-.593.796-.61.796-1.657 0-1.047-.734-1.61-.734-.577-2.656-1.14Zm21.875 3.859L77 31.688h1.813L75.734 42.25h-1.468l-2.563-8.016-2.5 8.016h-1.469l-3.062-10.563h1.797l2.078 7.907 2.469-7.907h1.453l2.5 8.079Zm7.61 2.484H80.78V31.687h1.797V42.25Zm-1.954-13.375q0-.438.266-.734.28-.313.796-.313.532 0 .797.313.282.297.282.734 0 .438-.282.734-.265.297-.796.297-.516 0-.797-.297-.266-.297-.266-.734Zm7.438.25v2.563h1.984v1.39h-1.984v6.547q0 .64.265.969.266.312.906.312.313 0 .86-.125v1.469q-.719.203-1.39.203-1.204 0-1.829-.734-.61-.735-.61-2.094v-6.547h-1.921v-1.39h1.922v-2.563h1.796Zm6.359 3.844q1.203-1.485 3.125-1.485 3.36 0 3.375 3.782v6.984h-1.797v-7q-.016-1.14-.531-1.688-.5-.546-1.594-.546-.875 0-1.547.468-.656.47-1.031 1.235v7.531h-1.797v-15h1.797v5.719Zm19.187 6.797 4.063-11.735h2.047l-5.266 14.219h-1.672l-5.25-14.219h2.031l4.047 11.735Zm9.97 2.484h-1.798V31.687h1.797V42.25Zm-1.954-13.375q0-.438.266-.734.28-.313.796-.313.532 0 .797.313.282.297.282.734 0 .438-.282.734-.265.297-.796.297-.516 0-.797-.297-.266-.297-.266-.734Zm11.14 10.578q0-.734-.546-1.14-.547-.407-1.922-.704t-2.188-.703q-.797-.406-1.187-.968-.375-.579-.375-1.36 0-1.297 1.094-2.187 1.093-.907 2.812-.907 1.797 0 2.906.938 1.125.922 1.125 2.36h-1.828q0-.735-.625-1.266-.625-.547-1.578-.547-1 0-1.562.437-.547.422-.547 1.125 0 .64.515.985.516.328 1.875.64 1.36.297 2.188.719.844.406 1.25 1t.406 1.438q0 1.421-1.14 2.28-1.125.86-2.938.86-1.266 0-2.25-.453-.969-.453-1.531-1.25-.547-.813-.547-1.75h1.812q.047.906.72 1.438.687.53 1.796.53 1.031 0 1.64-.406.626-.421.626-1.109Zm10.376 1.75q-1.047 1.25-3.094 1.25-1.688 0-2.578-.984-.875-.985-.89-2.907v-6.874h1.812v6.828q0 2.39 1.953 2.39 2.062 0 2.75-1.531v-7.688h1.812V42.25h-1.719l-.046-1.047Zm11 1.047q-.157-.313-.25-1.11-1.266 1.313-3.016 1.313-1.563 0-2.563-.89-1-.891-1-2.25 0-1.641 1.25-2.547 1.266-.922 3.532-.922h1.765v-.828q0-.953-.578-1.516-.562-.563-1.656-.563-.969 0-1.625.5-.656.485-.656 1.172h-1.813q0-.78.563-1.515.562-.75 1.515-1.172.97-.438 2.125-.438 1.828 0 2.86.922 1.031.907 1.078 2.516v4.86q0 1.452.36 2.312v.156h-1.891Zm-3-1.375q.859 0 1.609-.438.766-.437 1.11-1.14v-2.172h-1.423q-3.312 0-3.312 1.938 0 .859.563 1.343.562.469 1.453.469Zm9.437 1.375h-1.797v-15h1.797v15Zm5 0h-1.797V31.687h1.797V42.25Zm-1.953-13.375q0-.438.266-.734.28-.313.797-.313.53 0 .796.313.282.297.282.734 0 .438-.282.734-.265.297-.797.297-.515 0-.796-.297-.266-.297-.266-.734Zm6.688 11.906h6.187v1.469h-8.39v-1.328l5.827-7.75h-5.734v-1.484h8v1.28l-5.89 7.813Zm14.828 1.469q-.157-.313-.25-1.11-1.266 1.313-3.016 1.313-1.563 0-2.563-.89-1-.891-1-2.25 0-1.641 1.25-2.547 1.266-.922 3.532-.922h1.765v-.828q0-.953-.578-1.516-.562-.563-1.656-.563-.969 0-1.625.5-.656.485-.656 1.172h-1.813q0-.78.563-1.515.562-.75 1.515-1.172.97-.438 2.125-.438 1.828 0 2.86.922 1.031.907 1.078 2.516v4.86q0 1.452.36 2.312v.156h-1.891Zm-3-1.375q.859 0 1.609-.438.766-.437 1.11-1.14v-2.172h-1.423q-3.312 0-3.312 1.938 0 .859.563 1.343.562.469 1.453.469Zm9.922-11.75v2.563h1.984v1.39h-1.984v6.547q0 .64.265.969.266.312.906.312.313 0 .86-.125v1.469q-.719.203-1.39.203-1.204 0-1.829-.734-.61-.735-.61-2.094v-6.547h-1.921v-1.39h1.922v-2.563h1.797Zm6.515 13.125h-1.797V31.687h1.797V42.25Zm-1.953-13.375q0-.438.266-.734.28-.313.797-.313.53 0 .796.313.282.297.282.734 0 .438-.282.734-.265.297-.797.297-.515 0-.796-.297-.266-.297-.266-.734Zm4.516 8q0-1.563.609-2.797.61-1.25 1.688-1.922 1.093-.672 2.5-.672 2.156 0 3.484 1.5 1.344 1.485 1.344 3.97v.124q0 1.547-.594 2.781-.594 1.22-1.703 1.907-1.094.687-2.516.687-2.14 0-3.484-1.5-1.328-1.5-1.328-3.953v-.125Zm1.812.203q0 1.766.813 2.828.828 1.063 2.187 1.063 1.375 0 2.188-1.078.812-1.078.812-3.016 0-1.75-.828-2.828-.828-1.078-2.188-1.078-1.343 0-2.171 1.062-.813 1.063-.813 3.047Zm11.375-5.39.063 1.328q1.203-1.532 3.156-1.532 3.36 0 3.375 3.782v6.984h-1.797v-7q-.016-1.14-.531-1.688-.5-.546-1.594-.546-.875 0-1.547.468-.656.47-1.031 1.235v7.531h-1.797V31.687h1.703Zm25.516 3.906q0 2.093-.703 3.656-.703 1.547-2 2.375-1.282.828-3 .828-1.688 0-2.985-.828t-2.015-2.36q-.72-1.53-.735-3.546v-1.016q0-2.047.703-3.625.72-1.578 2.016-2.406 1.313-.844 2.984-.844 1.72 0 3.016.828 1.313.828 2.016 2.407.703 1.562.703 3.64v.89Zm-1.875-.907q0-2.53-1.016-3.874-1.016-1.36-2.844-1.36-1.765 0-2.797 1.36-1.015 1.343-1.046 3.734v1.047q0 2.453 1.03 3.86 1.032 1.405 2.845 1.405 1.812 0 2.797-1.328 1-1.328 1.03-3.797v-1.047Zm12.781 1.282h-5.969v6.281h-1.875V28.031h8.797v1.547h-6.922v4.86h5.969v1.53Zm11 0h-5.969v6.281h-1.875V28.031h8.797v1.547h-6.922v4.86h5.969v1.53Zm2.813 9.11-1.032-.704q.922-1.281.953-2.64v-1.626h1.782v1.422q0 .985-.485 1.969-.484.984-1.219 1.578Zm17.5-13.345q0 1.078-.563 1.907-.563.828-1.531 1.297 1.125.468 1.765 1.39.657.922.657 2.078 0 1.844-1.25 2.953-1.25 1.094-3.282 1.094-2.046 0-3.28-1.094-1.235-1.109-1.235-2.953 0-1.14.625-2.062.64-.938 1.75-1.422-.953-.469-1.5-1.297t-.547-1.89q0-1.797 1.156-2.844 1.156-1.063 3.031-1.063 1.875 0 3.032 1.063 1.171 1.047 1.171 2.843Zm-1.485 6.641q0-1.188-.765-1.938-.75-.765-1.97-.765-1.218 0-1.952.75-.735.734-.735 1.953 0 1.203.719 1.906.719.688 1.984.688 1.282 0 2-.688.72-.703.72-1.906Zm-2.719-9.063q-1.062 0-1.718.672-.657.657-.657 1.782 0 1.093.641 1.765.656.657 1.734.657 1.094 0 1.735-.657.656-.672.656-1.75 0-1.093-.672-1.781t-1.719-.688Zm22.547 11.079q-.734 1.03-2.031 1.547-1.281.515-3 .515-1.75 0-3.094-.812-1.344-.828-2.078-2.328-.734-1.5-.765-3.485v-1.25q0-3.203 1.5-4.969 1.5-1.78 4.218-1.78 2.219 0 3.578 1.14 1.36 1.14 1.672 3.234h-1.875q-.531-2.828-3.36-2.828-1.89 0-2.858 1.328-.97 1.328-.985 3.828v1.172q0 2.39 1.094 3.797 1.094 1.406 2.953 1.406 1.063 0 1.844-.234.797-.234 1.312-.781v-3.203h-3.281v-1.516h5.156v5.219Zm8.313-7.094q-.406-.063-.875-.063-1.781 0-2.422 1.516v7.5h-1.797V31.687h1.75l.031 1.22q.89-1.423 2.516-1.423.531 0 .797.141v1.672Zm3.86 8.953h-1.798V31.687h1.797V42.25Zm-1.954-13.375q0-.438.266-.734.28-.313.796-.313.532 0 .797.313.282.297.282.734 0 .438-.282.734-.265.297-.796.297-.516 0-.797-.297-.266-.297-.266-.734Zm4.547 8q0-2.422 1.156-3.906 1.156-1.485 3.016-1.485t2.937 1.266v-5.5h1.813v15h-1.656l-.094-1.14q-1.078 1.343-3.016 1.343-1.828 0-3-1.5-1.156-1.516-1.156-3.937v-.141Zm1.812.203q0 1.797.735 2.813.75 1.015 2.062 1.015 1.719 0 2.5-1.531v-4.86q-.797-1.5-2.484-1.5-1.328 0-2.078 1.032-.735 1.031-.735 3.031Zm15.782 2.375q0-.734-.547-1.14-.547-.407-1.922-.704t-2.188-.703q-.796-.406-1.187-.968-.375-.579-.375-1.36 0-1.297 1.094-2.187 1.093-.907 2.812-.907 1.797 0 2.906.938 1.125.922 1.125 2.36h-1.828q0-.735-.625-1.266-.625-.547-1.578-.547-1 0-1.562.437-.547.422-.547 1.125 0 .64.515.985.516.328 1.875.64 1.36.297 2.188.719.844.406 1.25 1t.406 1.438q0 1.421-1.14 2.28-1.125.86-2.938.86-1.266 0-2.25-.453-.969-.453-1.531-1.25-.547-.813-.547-1.75h1.812q.047.906.72 1.438.687.53 1.796.53 1.031 0 1.64-.406.626-.421.626-1.109Zm12.343.344 2.61-8.11h1.844L345.78 42.25h-1.375l-3.828-10.563h1.844l2.687 8.11Zm6.547 1.5q0-.469.281-.781.282-.313.829-.313.562 0 .843.313.297.312.297.78 0 .454-.297.767-.28.296-.843.296-.547 0-.829-.297-.28-.312-.28-.765Zm11.11-1.844q0-.734-.547-1.14-.547-.407-1.922-.704t-2.188-.703q-.796-.406-1.187-.968-.375-.579-.375-1.36 0-1.297 1.094-2.187 1.093-.907 2.812-.907 1.797 0 2.906.938 1.125.922 1.125 2.36h-1.828q0-.735-.625-1.266-.625-.547-1.578-.547-1 0-1.562.437-.547.422-.547 1.125 0 .64.515.985.516.328 1.875.64 1.36.297 2.188.719.844.406 1.25 1t.406 1.438q0 1.421-1.14 2.28-1.125.86-2.938.86-1.266 0-2.25-.453-.969-.453-1.531-1.25-.547-.813-.547-1.75h1.812q.047.906.72 1.438.687.53 1.796.53 1.031 0 1.64-.406.626-.421.626-1.109Zm3.89 1.844q0-.469.281-.781.282-.313.829-.313.562 0 .843.313.297.312.297.78 0 .454-.297.767-.28.296-.843.296-.547 0-.829-.297-.28-.312-.28-.765Zm19.094.953h-9.313v-1.297l4.922-5.469q1.094-1.25 1.5-2.015.422-.782.422-1.61 0-1.109-.672-1.828-.671-.718-1.796-.718-1.36 0-2.11.78-.734.766-.734 2.126h-1.813q0-1.969 1.266-3.172 1.265-1.219 3.39-1.219 1.985 0 3.125 1.047 1.157 1.047 1.157 2.766 0 2.109-2.672 5l-3.813 4.14h7.141v1.469Zm10.86-13.203-5.891 13.203h-1.89l5.874-12.734H387V28.03h9.61v1.016Zm17.796 11.344q-.734 1.03-2.031 1.547-1.281.515-3 .515-1.75 0-3.094-.812-1.344-.828-2.078-2.328-.734-1.5-.765-3.485v-1.25q0-3.203 1.5-4.969 1.5-1.78 4.218-1.78 2.219 0 3.578 1.14 1.36 1.14 1.672 3.234h-1.875q-.531-2.828-3.36-2.828-1.89 0-2.858 1.328-.97 1.328-.985 3.828v1.172q0 2.39 1.094 3.797 1.094 1.406 2.953 1.406 1.063 0 1.844-.234.797-.234 1.312-.781v-3.203h-3.281v-1.516h5.156v5.219Zm8.313-7.094q-.406-.063-.875-.063-1.781 0-2.422 1.516v7.5h-1.797V31.687h1.75l.031 1.22q.89-1.423 2.516-1.423.531 0 .797.141v1.672Zm3.86 8.953h-1.798V31.687h1.797V42.25Zm-1.954-13.375q0-.438.266-.734.28-.313.796-.313.532 0 .797.313.282.297.282.734 0 .438-.282.734-.265.297-.796.297-.516 0-.797-.297-.266-.297-.266-.734Zm4.547 8q0-2.422 1.156-3.906 1.156-1.485 3.016-1.485t2.937 1.266v-5.5h1.813v15h-1.656l-.094-1.14q-1.078 1.343-3.016 1.343-1.828 0-3-1.5-1.156-1.516-1.156-3.937v-.141Zm1.812.203q0 1.797.735 2.813.75 1.015 2.062 1.015 1.719 0 2.5-1.531v-4.86q-.797-1.5-2.484-1.5-1.328 0-2.078 1.032-.735 1.031-.735 3.031Zm15.782 2.375q0-.734-.547-1.14-.547-.407-1.922-.704t-2.188-.703q-.796-.406-1.187-.968-.375-.579-.375-1.36 0-1.297 1.094-2.187 1.093-.907 2.812-.907 1.797 0 2.906.938 1.125.922 1.125 2.36h-1.828q0-.735-.625-1.266-.625-.547-1.578-.547-1 0-1.562.437-.547.422-.547 1.125 0 .64.515.985.516.328 1.875.64 1.36.297 2.188.719.844.406 1.25 1t.406 1.438q0 1.421-1.14 2.28-1.125.86-2.938.86-1.266 0-2.25-.453-.969-.453-1.531-1.25-.547-.813-.547-1.75h1.812q.047.906.72 1.438.687.53 1.796.53 1.031 0 1.64-.406.626-.421.626-1.109Zm13.328-3.547q-2.422-.687-3.516-1.687-1.094-1.016-1.094-2.5 0-1.688 1.344-2.782 1.344-1.109 3.485-1.109 1.468 0 2.609.578 1.156.563 1.781 1.563.625.984.625 2.172h-1.875q0-1.282-.828-2.016-.813-.75-2.313-.75-1.39 0-2.171.61-.766.609-.766 1.703 0 .859.734 1.468.735.594 2.5 1.094 1.782.5 2.782 1.11 1 .593 1.484 1.39.484.797.484 1.89 0 1.72-1.343 2.766-1.344 1.047-3.61 1.047-1.453 0-2.734-.562-1.266-.563-1.953-1.532-.688-.984-.688-2.234h1.89q0 1.297.954 2.047.953.734 2.531.734 1.485 0 2.281-.593.797-.61.797-1.657 0-1.047-.734-1.61-.734-.577-2.656-1.14ZM472 42.453q-2.14 0-3.5-1.406-1.344-1.422-1.344-3.781v-.344q0-1.563.594-2.797.61-1.234 1.688-1.938 1.078-.703 2.343-.703 2.063 0 3.203 1.36 1.141 1.36 1.141 3.89v.75h-7.156q.031 1.563.906 2.532.875.953 2.219.953.969 0 1.625-.39.672-.392 1.172-1.032l1.093.86q-1.328 2.046-3.984 2.046Zm-.219-9.484q-1.094 0-1.844.797-.734.797-.906 2.234h5.281v-.14q-.078-1.376-.75-2.126-.656-.765-1.78-.765Zm13.36 9.281q-.157-.313-.25-1.11-1.266 1.313-3.016 1.313-1.563 0-2.563-.89-1-.891-1-2.25 0-1.641 1.25-2.547 1.266-.922 3.532-.922h1.765v-.828q0-.953-.578-1.516-.562-.563-1.656-.563-.969 0-1.625.5-.656.485-.656 1.172h-1.813q0-.78.563-1.515.562-.75 1.515-1.172.97-.438 2.125-.438 1.829 0 2.86.922 1.031.907 1.078 2.516v4.86q0 1.452.36 2.312v.156h-1.891Zm-3-1.375q.859 0 1.609-.438.766-.437 1.11-1.14v-2.172h-1.423q-3.312 0-3.312 1.938 0 .859.563 1.343.562.469 1.453.469Zm12.578-7.578q-.406-.063-.875-.063-1.781 0-2.422 1.516v7.5h-1.797V31.687h1.75l.031 1.22q.89-1.423 2.516-1.423.531 0 .797.141v1.672Zm6.14 7.672q.97 0 1.688-.578.719-.594.797-1.47h1.719q-.063.907-.641 1.735-.563.813-1.531 1.313-.954.484-2.032.484-2.156 0-3.437-1.437-1.266-1.453-1.266-3.953v-.297q0-1.547.563-2.75.562-1.203 1.625-1.86 1.062-.672 2.5-.672 1.781 0 2.953 1.063 1.187 1.062 1.265 2.766h-1.718q-.078-1.016-.781-1.672-.688-.672-1.72-.672-1.374 0-2.14 1-.75.984-.75 2.86v.343q0 1.828.75 2.812.75.985 2.156.985Zm7.563-8q1.203-1.485 3.125-1.485 3.36 0 3.375 3.782v6.984h-1.797v-7q-.016-1.14-.531-1.688-.5-.546-1.594-.546-.875 0-1.547.468-.656.47-1.031 1.235v7.531h-1.797v-15h1.797v5.719Zm9.14 12.11-1.03-.704q.921-1.281.952-2.64v-1.626h1.782v1.422q0 .985-.485 1.969-.484.984-1.218 1.578Zm13.532-9.173q-2.422-.687-3.516-1.687-1.094-1.016-1.094-2.5 0-1.688 1.344-2.782 1.344-1.109 3.485-1.109 1.468 0 2.609.578 1.156.563 1.781 1.563.625.984.625 2.172h-1.875q0-1.282-.828-2.016-.813-.75-2.313-.75-1.39 0-2.171.61-.766.609-.766 1.703 0 .859.734 1.468.735.594 2.5 1.094 1.782.5 2.782 1.11 1 .593 1.484 1.39.484.797.484 1.89 0 1.72-1.343 2.766-1.344 1.047-3.61 1.047-1.453 0-2.734-.562-1.266-.563-1.953-1.532-.688-.984-.688-2.234h1.89q0 1.297.954 2.047.953.734 2.531.734 1.485 0 2.282-.593.796-.61.796-1.657 0-1.047-.734-1.61-.734-.577-2.656-1.14Zm9.968-6.781v2.563h1.985v1.39h-1.985v6.547q0 .64.266.969.266.312.906.312.313 0 .86-.125v1.469q-.719.203-1.39.203-1.204 0-1.829-.734-.61-.735-.61-2.094v-6.547h-1.921v-1.39h1.922v-2.563h1.797Zm11.079 13.125q-.157-.313-.25-1.11-1.266 1.313-3.016 1.313-1.563 0-2.563-.89-1-.891-1-2.25 0-1.641 1.25-2.547 1.266-.922 3.532-.922h1.765v-.828q0-.953-.578-1.516-.562-.563-1.656-.563-.969 0-1.625.5-.656.485-.656 1.172h-1.813q0-.78.563-1.515.562-.75 1.515-1.172.97-.438 2.125-.438 1.828 0 2.86.922 1.031.907 1.078 2.516v4.86q0 1.452.36 2.312v.156h-1.891Zm-3-1.375q.859 0 1.609-.438.766-.437 1.11-1.14v-2.172h-1.423q-3.312 0-3.312 1.938 0 .859.563 1.343.562.469 1.453.469Zm11.718.094q.97 0 1.688-.578.719-.594.797-1.47h1.718q-.062.907-.64 1.735-.563.813-1.531 1.313-.953.484-2.032.484-2.156 0-3.437-1.437-1.266-1.453-1.266-3.953v-.297q0-1.547.563-2.75.562-1.203 1.625-1.86 1.062-.672 2.5-.672 1.781 0 2.953 1.063 1.187 1.062 1.265 2.766h-1.718q-.078-1.016-.782-1.672-.687-.672-1.718-.672-1.375 0-2.14 1-.75.984-.75 2.86v.343q0 1.828.75 2.812.75.985 2.155.985Zm8.703-3.61-1.125 1.172v3.719h-1.812v-15h1.813v9.078l.968-1.172 3.282-3.468h2.203l-4.11 4.406 4.594 6.156h-2.125l-3.688-4.89ZM581 42.453q-2.14 0-3.5-1.406-1.344-1.422-1.344-3.781v-.344q0-1.563.594-2.797.61-1.234 1.688-1.938 1.078-.703 2.343-.703 2.063 0 3.203 1.36 1.141 1.36 1.141 3.89v.75h-7.156q.031 1.563.906 2.532.875.953 2.219.953.968 0 1.625-.39.672-.392 1.172-1.032l1.093.86q-1.328 2.046-3.984 2.046Zm-.219-9.484q-1.093 0-1.843.797-.735.797-.907 2.234h5.282v-.14q-.079-1.376-.75-2.126-.657-.765-1.782-.765Zm6.39 3.906q0-2.422 1.157-3.906 1.156-1.485 3.016-1.485t2.937 1.266v-5.5h1.813v15h-1.657l-.093-1.14q-1.078 1.343-3.016 1.343-1.828 0-3-1.5-1.156-1.516-1.156-3.937v-.141Zm1.813.203q0 1.797.735 2.813.75 1.015 2.062 1.015 1.719 0 2.5-1.531v-4.86q-.797-1.5-2.484-1.5-1.328 0-2.078 1.032-.735 1.031-.735 3.031Z"/></svg>