<?xml version="1.0" encoding="UTF-8" standalone="no"?>
<svg
   width="1208"
   height="137"
   viewBox="0 0 1208 137"
   version="1.1"
   id="svg71"
   sodipodi:docname="Western Digital Logo (2022).svg"
   inkscape:version="1.2 (dc2aedaf03, 2022-05-15)"
   xmlns:inkscape="http://www.inkscape.org/namespaces/inkscape"
   xmlns:sodipodi="http://sodipodi.sourceforge.net/DTD/sodipodi-0.dtd"
   xmlns="http://www.w3.org/2000/svg"
   xmlns:svg="http://www.w3.org/2000/svg">
  <defs
     id="defs75" />
  <sodipodi:namedview
     id="namedview73"
     pagecolor="#ffffff"
     bordercolor="#000000"
     borderopacity="0.25"
     inkscape:showpageshadow="2"
     inkscape:pageopacity="0.0"
     inkscape:pagecheckerboard="0"
     inkscape:deskcolor="#d1d1d1"
     showgrid="false"
     inkscape:zoom="0.88583815"
     inkscape:cx="699.90212"
     inkscape:cy="165.94454"
     inkscape:window-width="1366"
     inkscape:window-height="705"
     inkscape:window-x="-8"
     inkscape:window-y="-8"
     inkscape:window-maximized="1"
     inkscape:current-layer="svg71" />
  <g
     id="g411"
     transform="matrix(6.9989966,0,0,7.0402126,-1059.291,-640.15431)">
    <path
       id="Path_24173"
       data-name="Path 24173"
       d="m 223.53723,93.193296 h 2.957 v 2.609 h 2.343 v 2.091 h -2.348 v 5.040004 a 1.372,1.372 0 0 0 1.435,1.522 2.422,2.422 0 0 0 0.826,-0.087 v 1.82499 a 6.88,6.88 0 0 1 -2.044,0.3 c -2.435,0 -3.174,-1.56499 -3.174,-3.52199 v -9.778004" />
    <path
       id="Path_24174"
       data-name="Path 24174"
       d="m 250.97623,95.798296 h -2.957 v 10.399994 h 3 v -6.264994 c 0,-1.261 0.652,-2.087 1.87,-2.087 a 1.837,1.837 0 0 1 1.87,2.087 v 6.264994 h 3 v -6.959994 a 3.414,3.414 0 0 0 -3.7,-3.74 3.077,3.077 0 0 0 -2.957,1.565 h -0.043 v -1.265 z" />
    <path
       id="Path_24175"
       data-name="Path 24175"
       d="m 247.01923,95.498296 c -2.7,0 -3.348,1.522 -3.522,2 h -0.04 v -1.7 h -2.7 v 10.399994 h 3 v -5.17799 a 2.932,2.932 0 0 1 3.261,-3.131004 z" />
    <path
       id="Path_24176"
       data-name="Path 24176"
       d="m 220.10223,98.715296 1.913,-1.3 c -0.261,-0.435 -1.261,-1.957 -4.261,-1.957 -2.218,0 -4.087,1.131 -4.087,3.174 0,1.870004 1.348,2.783004 2.87,3.261004 0.435,0.13 0.913,0.261 1.3,0.391 0.826,0.261 1.435,0.478 1.435,1.087 0,0.565 -0.609,0.957 -1.7,0.957 a 2.479,2.479 0 0 1 -2.261,-1.218 l -2,1.131 c 0.174,0.478 1.261,2.21799 4.479,2.21799 2.435,0 4.479,-1.044 4.479,-3.29999 0,-1.913 -1.348,-2.783 -2.957,-3.261004 a 12,12 0 0 0 -1.174,-0.348 c -0.739,-0.217 -1.478,-0.435 -1.478,-1.087 0,-0.522 0.478,-0.826 1.348,-0.826 a 2.223,2.223 0 0 1 2.094,1.078 z" />
    <path
       id="Path_24177"
       data-name="Path 24177"
       d="m 200.40423,91.280296 -2.739,10.610004 -2.7,-10.610004 h -3.74 l -2.783,10.914004 -2.779,-10.914004 h -3.174 l 3.87,14.914994 h 3.957 l 2.7,-10.565994 2.7,10.565994 h 3.74 l 3.87,-14.914994 z" />
    <path
       id="Path_24178"
       data-name="Path 24178"
       d="m 212.71023,100.9773 c 0,-2.739004 -1.609,-5.479004 -5.131,-5.479004 -3.174,0 -5.175,2.392 -5.175,5.479004 0,3.087 1.957,5.47899 5.3,5.47899 a 4.477,4.477 0 0 0 4.3,-2.29999 l -2,-1.174 a 2.319,2.319 0 0 1 -2.261,1.3 2.351,2.351 0 0 1 -2.3,-2.435 h 7.349 c -0.082,0.043 -0.082,-0.827 -0.082,-0.87 z m -7.306,-1.131004 c 0.13,-1.174 0.739,-2.218 2.174,-2.218 a 2.163,2.163 0 0 1 2.174,2.218 z" />
    <path
       id="Path_24179"
       data-name="Path 24179"
       d="m 239.36623,100.9773 c 0,-2.739004 -1.609,-5.479004 -5.131,-5.479004 -3.174,0 -5.175,2.392 -5.175,5.479004 0,3.087 1.957,5.47899 5.3,5.47899 a 4.477,4.477 0 0 0 4.3,-2.29999 l -2,-1.174 a 2.319,2.319 0 0 1 -2.261,1.3 2.351,2.351 0 0 1 -2.3,-2.435 h 7.349 c -0.082,0.043 -0.082,-0.827 -0.082,-0.87 z m -7.306,-1.131004 c 0.13,-1.174 0.739,-2.218 2.174,-2.218 a 2.163,2.163 0 0 1 2.174,2.218 z" />
    <path
       id="Path_24180"
       data-name="Path 24180"
       d="m 299.28623,93.193296 h 2.957 v 2.609 h 2.343 v 2.091 h -2.348 v 5.040004 a 1.372,1.372 0 0 0 1.435,1.522 2.422,2.422 0 0 0 0.826,-0.087 v 1.82499 a 6.881,6.881 0 0 1 -2.044,0.3 c -2.435,0 -3.174,-1.56499 -3.174,-3.52199 v -9.778004" />
    <path
       id="Path_24181"
       data-name="Path 24181"
       d="m 268.54323,91.280296 h -5.088 v 14.914994 h 5.088 c 4.74,0 7.566,-2.26099 7.566,-7.478994 -0.044,-5.175 -2.954,-7.436 -7.566,-7.436 z m -0.217,12.436004 h -1.7 v -9.957004 h 1.7 c 3.87,0 4.435,2.609 4.435,5 0.043,2.348004 -0.522,4.957004 -4.436,4.957004 z" />
    <rect
       id="Rectangle_24354"
       data-name="Rectangle 24354"
       width="3.0869999"
       height="14.915"
       x="316.59222"
       y="91.280296" />
    <path
       id="Path_24182"
       data-name="Path 24182"
       d="m 322.59323,103.9343 a 1.261,1.261 0 1 0 1.261,1.261 1.262,1.262 0 0 0 -1.261,-1.261 z m 0,2.34799 a 1.044,1.044 0 1 1 1.039,-1.04799 1.058,1.058 0 0 1 -1.039,1.04799 z" />
    <path
       id="Path_24183"
       data-name="Path 24183"
       d="m 323.07123,105.49929 a 0.29,0.29 0 0 0 -0.217,-0.29999 v 0 a 0.339,0.339 0 0 0 0.261,-0.348 c 0,-0.3 -0.217,-0.391 -0.522,-0.391 h -0.479 v 1.47799 h 0.261 v -0.61299 h 0.174 c 0.174,0 0.261,0.087 0.3,0.34799 a 1.537,1.537 0 0 0 0.044,0.261 h 0.261 c -0.04,-0.001 -0.083,-0.261 -0.083,-0.435 z m -0.478,-0.39099 h -0.217 v -0.435 h 0.217 a 0.245,0.245 0 0 1 0.261,0.217 c -10e-4,0.13 -0.088,0.217 -0.262,0.217 z" />
    <path
       id="Path_24184"
       data-name="Path 24184"
       d="m 289.32823,95.798296 v 1.131 h -0.043 a 3.055,3.055 0 0 0 -2.826,-1.435 c -3.174,0 -4.348,2.609 -4.348,5.261004 0,2.652 1.174,5.21799 4.348,5.21799 a 2.93,2.93 0 0 0 2.826,-1.43499 h 0.043 v 1.21799 a 2.17,2.17 0 0 1 -2.218,2.3 2.579,2.579 0 0 1 -2.261,-1.261 c -0.261,0.13 -2,1.174 -2,1.174 0.217,0.435 1.087,2.3 4.348,2.3 3.435,0 5.088,-2.174 5.088,-5.26199 v -9.209004 z m -2,7.957004 c -1.7,0 -2,-1.652 -2,-3 0,-1.522004 0.435,-3.000004 2,-3.000004 1.565,0 2,1.478 2,3.000004 0,1.309 -0.348,3.005 -2,3.005 z" />
    <path
       id="Path_24185"
       data-name="Path 24185"
       d="m 309.59123,95.498296 a 4.787,4.787 0 0 0 -4.087,1.826 l 1.739,1.3 a 2.54,2.54 0 0 1 2.131,-1.044 c 1.348,0 2.174,0.652 2.174,1.783 v 0.217 h -1.3 c -3.044,0 -5,1.131004 -5,3.479004 a 3.562,3.562 0 0 0 6.349,2 h 0.043 v 1.04899 h 2.913 v -6.478994 c -0.005,-3 -2.396,-4.131 -4.962,-4.131 z m 1.957,6.566004 c 0,1.218 -0.522,2.3 -1.826,2.3 a 1.384,1.384 0 0 1 -1.522,-1.391 c 0,-0.87 0.609,-1.522 2.174,-1.522 h 1.174 z" />
    <rect
       id="Rectangle_24355"
       data-name="Rectangle 24355"
       width="3.0869999"
       height="10.393"
       x="277.63123"
       y="95.802299" />
    <circle
       id="Ellipse_534"
       data-name="Ellipse 534"
       cx="279.19623"
       cy="92.671295"
       r="1.652" />
    <rect
       id="Rectangle_24356"
       data-name="Rectangle 24356"
       width="3.0869999"
       height="10.393"
       x="294.28522"
       y="95.802299" />
    <circle
       id="Ellipse_535"
       data-name="Ellipse 535"
       cx="295.85022"
       cy="92.671295"
       r="1.652" />
    <path
       id="Path_24186"
       data-name="Path 24186"
       d="m 170.83523,91.280296 h 3.479 a 1.541,1.541 0 0 1 1.522,1.522 v 3.478 a 1.514,1.514 0 0 1 -2.566,1.087 l -3.479,-3.479 a 1.51,1.51 0 0 1 1.044,-2.608 z"
       fill="#5da7fb" />
    <path
       id="Path_24187"
       data-name="Path 24187"
       d="m 163.18223,99.672296 h -2.478 a 2.635,2.635 0 0 1 -2.652,-2.652 v 0 -4.218 a 1.541,1.541 0 0 0 -1.523,-1.522 h -3.478 a 1.514,1.514 0 0 0 -1.087,2.566 l 1.351,1.348 1.826,1.826 0.043,0.043 0.3,0.3 4.914,4.870004 0.435,0.435 0.13,0.13 1.826,1.826 1.087,1.13099 a 1.5,1.5 0 0 0 2.566,-1.08699 v -3.474 a 1.541,1.541 0 0 0 -1.522,-1.522004 z"
       fill="#fc1859" />
    <path
       id="Path_24188"
       data-name="Path 24188"
       d="m 172.57423,99.672296 h -2.478 a 2.635,2.635 0 0 1 -2.652,-2.652 v 0 -4.218 a 1.541,1.541 0 0 0 -1.523,-1.522 h -3.478 a 1.514,1.514 0 0 0 -1.087,2.566 l 1.351,1.348 1.826,1.826 0.043,0.043 0.3,0.3 4.915,4.917004 0.435,0.435 0.13,0.13 1.826,1.826 1.131,1.13099 a 1.5,1.5 0 0 0 2.566,-1.08699 v -3.477 a 1.541,1.541 0 0 0 -1.522,-1.522004 h -1.783 z"
       fill="#995dff" />
    <path
       id="Path_24189"
       data-name="Path 24189"
       d="m 178.44523,104.8473 h -0.478 v 1.34799 h -0.174 v -1.34799 h -0.479 v -0.174 h 1.174 v 0.174 z"
       fill="#995dff" />
    <path
       id="Path_24190"
       data-name="Path 24190"
       d="m 178.70523,104.7163 h 0.261 l 0.522,1.17399 v 0 l 0.517,-1.17399 h 0.261 v 1.47799 h -0.174 v -1.26099 0 l -0.565,1.26099 h -0.087 l -0.522,-1.26099 v 0 1.26099 h -0.174 v -1.47799 z"
       fill="#995dff" />
  </g>
</svg>
