<svg fill="none" stroke-linecap="square" stroke-miterlimit="10" width="762" height="465" xmlns="http://www.w3.org/2000/svg"><path fill="#fff" d="M0 0h762v465H0V0Z"/><path stroke="#ccc" stroke-linecap="butt" d="M90.5 348.5h648M90.5 311.5h648M90.5 225.5h648M90.5 188.5h648"/><path stroke="#eee" stroke-linecap="butt" d="M155.313 191.608h16M317.438 252.21h16M479.563 319.127h16M155.313 179.008h16M317.438 240.468h16M479.563 305.497h16M641.688 371.936h16M155.313 164.63h16M317.438 224.994h16M479.563 294.646h16M641.688 364.18h16M317.438 212.081h16M479.563 260.65h16M641.688 311.608h16"/><path stroke="#000" stroke-linecap="butt" d="M738.5 390.5h-648M90.5 390.5v-246"/><clipPath id="a"><path d="M90.25 144.25h648.5v246.5H90.25v-246.5Z"/></clipPath><path stroke="#f49c94" stroke-linecap="butt" clip-path="url(#a)" d="M171.313 197.236v-10.72M165.313 197.236h12M165.313 186.517h12M333.438 257.837v-10.719M327.438 257.837h12M327.438 247.118h12M495.563 324.755v-10.719M489.563 324.755h12M489.563 314.036h12M657.688 390.75v-10.72M651.688 390.75h12M651.688 380.03h12"/><path stroke="#a27903" stroke-linecap="butt" clip-path="url(#a)" d="M171.313 184.636v-10.72M165.313 184.636h12M165.313 173.917h12M333.438 246.095v-10.719M327.438 246.095h12M327.438 235.376h12M495.563 311.124v-10.719M489.563 311.124h12M489.563 300.405h12M657.688 377.564v-10.72M651.688 377.564h12M651.688 366.844h12"/><path stroke="#a2c3fa" stroke-linecap="butt" clip-path="url(#a)" d="M171.313 170.259v-10.72M165.313 170.259h12M165.313 159.54h12M333.438 230.622v-10.72M327.438 230.622h12M327.438 219.903h12M495.563 300.274v-10.719M489.563 300.274h12M489.563 289.555h12M657.688 369.808V359.09M651.688 369.808h12M651.688 359.09h12"/><path stroke="#9ad4a9" stroke-linecap="butt" clip-path="url(#a)" d="M171.313 154.97v-10.72M165.313 154.97h12M165.313 144.25h12M333.438 217.71v-10.72M327.438 217.71h12M327.438 206.99h12M495.563 266.279v-10.72M489.563 266.279h12M489.563 255.56h12M657.688 317.236v-10.72M651.688 317.236h12M651.688 306.517h12"/><path stroke="#ea4335" stroke-width="2" stroke-linecap="butt" clip-path="url(#a)" d="m171.313 191.608 162.125 60.601 162.125 66.918 162.125 65.995"/><path stroke="#fbbc04" stroke-width="2" stroke-linecap="butt" clip-path="url(#a)" d="m171.313 179.008 162.125 61.46 162.125 65.029 162.125 66.439"/><path stroke="#4285f4" stroke-width="2" stroke-linecap="butt" clip-path="url(#a)" d="m171.313 164.63 162.125 60.364 162.125 69.652 162.125 69.534"/><path stroke="#34a853" stroke-width="2" stroke-linecap="butt" clip-path="url(#a)" d="m171.313 149.341 162.125 62.74 162.125 48.57 162.125 50.957"/><path fill="#ea4335" clip-path="url(#a)" d="M175.813 191.608a4.5 4.5 0 1 1-9 0 4.5 4.5 0 0 1 9 0ZM337.938 252.21a4.5 4.5 0 1 1-9 0 4.5 4.5 0 0 1 9 0ZM500.063 319.127a4.5 4.5 0 1 1-9 0 4.5 4.5 0 0 1 9 0ZM662.188 385.122a4.5 4.5 0 1 1-9 0 4.5 4.5 0 0 1 9 0Z"/><path fill="#fbbc04" clip-path="url(#a)" d="M175.813 179.008a4.5 4.5 0 1 1-9 0 4.5 4.5 0 0 1 9 0ZM337.938 240.468a4.5 4.5 0 1 1-9 0 4.5 4.5 0 0 1 9 0ZM500.063 305.497a4.5 4.5 0 1 1-9 0 4.5 4.5 0 0 1 9 0ZM662.188 371.936a4.5 4.5 0 1 1-9 0 4.5 4.5 0 0 1 9 0Z"/><path fill="#4285f4" clip-path="url(#a)" d="M175.813 164.63a4.5 4.5 0 1 1-9 0 4.5 4.5 0 0 1 9 0ZM337.938 224.994a4.5 4.5 0 1 1-9 0 4.5 4.5 0 0 1 9 0ZM500.063 294.646a4.5 4.5 0 1 1-9 0 4.5 4.5 0 0 1 9 0ZM662.188 364.18a4.5 4.5 0 1 1-9 0 4.5 4.5 0 0 1 9 0Z"/><path fill="#34a853" clip-path="url(#a)" d="M175.813 149.341a4.5 4.5 0 1 1-9 0 4.5 4.5 0 0 1 9 0ZM337.938 212.081a4.5 4.5 0 1 1-9 0 4.5 4.5 0 0 1 9 0ZM500.063 260.65a4.5 4.5 0 1 1-9 0 4.5 4.5 0 0 1 9 0ZM662.188 311.608a4.5 4.5 0 1 1-9 0 4.5 4.5 0 0 1 9 0Z"/><path stroke="#000" stroke-linecap="butt" d="M171.5 390.5v-12M333.5 390.5v-12M495.5 390.5v-12M657.5 390.5v-12M90.5 348.5h12M90.5 311.5h12M90.5 225.5h12M90.5 188.5h12"/><path stroke="#fff" stroke-width="3" stroke-linejoin="round" stroke-linecap="round" d="M137.172 192.358q-.328.406-.813.656-.468.235-1.03.235-.735 0-1.282-.36t-.844-1.015q-.297-.672-.297-1.47 0-.843.313-1.53.328-.688.922-1.047.609-.375 1.406-.375 1.266 0 1.984.953.735.953.735 2.578v.313q0 2.5-.985 3.64-.984 1.14-2.969 1.172h-.218v-.906h.234q1.344-.031 2.063-.703.718-.672.78-2.141Zm-1.672 0q.547 0 1-.328.469-.344.688-.828v-.438q0-1.062-.47-1.734-.468-.672-1.171-.672-.719 0-1.156.547-.422.547-.422 1.453 0 .875.406 1.438.422.562 1.125.562Zm6.094-1.047h.812q.781-.016 1.219-.406.438-.39.438-1.063 0-1.5-1.5-1.5-.704 0-1.125.407-.407.406-.407 1.062h-1.094q0-1.016.735-1.687.75-.672 1.89-.672 1.204 0 1.891.64.688.641.688 1.782 0 .562-.36 1.078-.36.515-.984.781.703.219 1.078.734.39.516.39 1.266 0 1.14-.75 1.828-.75.672-1.952.672-1.188 0-1.954-.656-.75-.656-.75-1.719h1.094q0 .672.438 1.078.437.406 1.187.406.781 0 1.188-.406.422-.422.422-1.187 0-.735-.454-1.125-.453-.407-1.328-.422h-.812v-.89Zm9.687-3.734v.906h-.203q-1.266.031-2.016.766-.75.718-.875 2.03.688-.765 1.844-.765 1.11 0 1.781.781.672.782.672 2.032 0 1.312-.718 2.11-.72.796-1.938.796-1.219 0-1.984-.938-.75-.953-.75-2.437v-.406q0-2.36 1-3.61t2.984-1.265h.203Zm-1.422 3.844q-.562 0-1.03.328-.47.328-.657.843v.391q0 1.063.469 1.703.484.64 1.187.64.734 0 1.156-.53.422-.547.422-1.422 0-.875-.422-1.407-.422-.547-1.125-.547Z"/><path fill="#ea4335" d="M137.172 192.358q-.328.406-.813.656-.468.235-1.03.235-.735 0-1.282-.36t-.844-1.015q-.297-.672-.297-1.47 0-.843.313-1.53.328-.688.922-1.047.609-.375 1.406-.375 1.266 0 1.984.953.735.953.735 2.578v.313q0 2.5-.985 3.64-.984 1.14-2.969 1.172h-.218v-.906h.234q1.344-.031 2.063-.703.718-.672.78-2.141Zm-1.672 0q.547 0 1-.328.469-.344.688-.828v-.438q0-1.062-.47-1.734-.468-.672-1.171-.672-.719 0-1.156.547-.422.547-.422 1.453 0 .875.406 1.438.422.562 1.125.562Zm6.094-1.047h.812q.781-.016 1.219-.406.438-.39.438-1.063 0-1.5-1.5-1.5-.704 0-1.125.407-.407.406-.407 1.062h-1.094q0-1.016.735-1.687.75-.672 1.89-.672 1.204 0 1.891.64.688.641.688 1.782 0 .562-.36 1.078-.36.515-.984.781.703.219 1.078.734.39.516.39 1.266 0 1.14-.75 1.828-.75.672-1.952.672-1.188 0-1.954-.656-.75-.656-.75-1.719h1.094q0 .672.438 1.078.437.406 1.187.406.781 0 1.188-.406.422-.422.422-1.187 0-.735-.454-1.125-.453-.407-1.328-.422h-.812v-.89Zm9.687-3.734v.906h-.203q-1.266.031-2.016.766-.75.718-.875 2.03.688-.765 1.844-.765 1.11 0 1.781.781.672.782.672 2.032 0 1.312-.718 2.11-.72.796-1.938.796-1.219 0-1.984-.938-.75-.953-.75-2.437v-.406q0-2.36 1-3.61t2.984-1.265h.203Zm-1.422 3.844q-.562 0-1.03.328-.47.328-.657.843v.391q0 1.063.469 1.703.484.64 1.187.64.734 0 1.156-.53.422-.547.422-1.422 0-.875-.422-1.407-.422-.547-1.125-.547Z"/><path stroke="#fff" stroke-width="3" stroke-linejoin="round" stroke-linecap="round" d="M296.719 251.912h.812q.781-.015 1.219-.406.438-.39.438-1.062 0-1.5-1.5-1.5-.704 0-1.125.406-.407.406-.407 1.062h-1.094q0-1.015.735-1.687.75-.672 1.89-.672 1.204 0 1.891.64.688.641.688 1.782 0 .562-.36 1.078t-.984.781q.703.219 1.078.735.39.515.39 1.265 0 1.14-.75 1.828-.75.672-1.952.672-1.188 0-1.954-.656-.75-.656-.75-1.719h1.094q0 .672.438 1.078.437.407 1.187.407.781 0 1.188-.407.421-.421.421-1.187 0-.734-.453-1.125-.453-.406-1.328-.422h-.812v-.89Zm10.781 1.157q0 1.906-.656 2.843-.64.922-2.031.922-1.36 0-2.016-.906-.656-.906-.688-2.719v-1.437q0-1.89.641-2.797.656-.922 2.047-.922 1.375 0 2.031.89.656.876.672 2.72v1.406Zm-1.094-1.485q0-1.375-.39-2-.375-.64-1.22-.64-.827 0-1.218.64-.375.625-.375 1.922v1.735q0 1.375.39 2.046.407.657 1.22.657.796 0 1.187-.625.39-.625.406-1.953v-1.782Zm6.297 5.125h-1.078v-7.218l-2.188.796v-.984l3.11-1.172h.156v8.578Z"/><path fill="#ea4335" d="M296.719 251.912h.812q.781-.015 1.219-.406.438-.39.438-1.062 0-1.5-1.5-1.5-.704 0-1.125.406-.407.406-.407 1.062h-1.094q0-1.015.735-1.687.75-.672 1.89-.672 1.204 0 1.891.64.688.641.688 1.782 0 .562-.36 1.078t-.984.781q.703.219 1.078.735.39.515.39 1.265 0 1.14-.75 1.828-.75.672-1.952.672-1.188 0-1.954-.656-.75-.656-.75-1.719h1.094q0 .672.438 1.078.437.407 1.187.407.781 0 1.188-.407.421-.421.421-1.187 0-.734-.453-1.125-.453-.406-1.328-.422h-.812v-.89Zm10.781 1.157q0 1.906-.656 2.843-.64.922-2.031.922-1.36 0-2.016-.906-.656-.906-.688-2.719v-1.437q0-1.89.641-2.797.656-.922 2.047-.922 1.375 0 2.031.89.656.876.672 2.72v1.406Zm-1.094-1.485q0-1.375-.39-2-.375-.64-1.22-.64-.827 0-1.218.64-.375.625-.375 1.922v1.735q0 1.375.39 2.046.407.657 1.22.657.796 0 1.187-.625.39-.625.406-1.953v-1.782Zm6.297 5.125h-1.078v-7.218l-2.188.796v-.984l3.11-1.172h.156v8.578Z"/><path stroke="#fff" stroke-width="3" stroke-linejoin="round" stroke-linecap="round" d="M469.453 317.315q0 .64-.344 1.14-.343.5-.906.782.656.281 1.047.844.39.546.39 1.25 0 1.093-.75 1.765-.734.656-1.952.656-1.235 0-1.985-.656-.734-.672-.734-1.765 0-.704.375-1.25.375-.563 1.047-.844-.563-.281-.891-.781-.328-.5-.328-1.141 0-1.078.687-1.703.688-.64 1.829-.64 1.125 0 1.812.64.703.625.703 1.703Zm-.89 3.984q0-.718-.454-1.156-.453-.453-1.187-.453-.735 0-1.188.453-.437.438-.437 1.172 0 .719.437 1.14.438.407 1.204.407.75 0 1.187-.422.438-.422.438-1.14Zm-1.625-5.437q-.641 0-1.047.406-.391.39-.391 1.078 0 .64.39 1.047.391.406 1.032.406.656 0 1.047-.406.39-.406.39-1.047 0-.656-.406-1.062-.406-.422-1.015-.422Zm8.593-.766v.906h-.203q-1.265.032-2.015.766-.75.719-.875 2.031.687-.765 1.843-.765 1.11 0 1.781.781.672.781.672 2.031 0 1.313-.718 2.11-.72.796-1.938.796-1.219 0-1.984-.937-.75-.953-.75-2.438v-.406q0-2.36 1-3.61t2.984-1.265h.203Zm-1.422 3.844q-.562 0-1.03.328-.47.328-.657.844v.39q0 1.063.469 1.704.484.64 1.187.64.735 0 1.156-.531.422-.547.422-1.422 0-.875-.422-1.406-.421-.547-1.125-.547Z"/><path fill="#ea4335" d="M469.453 317.315q0 .64-.344 1.14-.343.5-.906.782.656.281 1.047.844.39.546.39 1.25 0 1.093-.75 1.765-.734.656-1.952.656-1.235 0-1.985-.656-.734-.672-.734-1.765 0-.704.375-1.25.375-.563 1.047-.844-.563-.281-.891-.781-.328-.5-.328-1.141 0-1.078.687-1.703.688-.64 1.829-.64 1.125 0 1.812.64.703.625.703 1.703Zm-.89 3.984q0-.718-.454-1.156-.453-.453-1.187-.453-.735 0-1.188.453-.437.438-.437 1.172 0 .719.437 1.14.438.407 1.204.407.75 0 1.187-.422.438-.422.438-1.14Zm-1.625-5.437q-.641 0-1.047.406-.391.39-.391 1.078 0 .64.39 1.047.391.406 1.032.406.656 0 1.047-.406.39-.406.39-1.047 0-.656-.406-1.062-.406-.422-1.015-.422Zm8.593-.766v.906h-.203q-1.265.032-2.015.766-.75.719-.875 2.031.687-.765 1.843-.765 1.11 0 1.781.781.672.781.672 2.031 0 1.313-.718 2.11-.72.796-1.938.796-1.219 0-1.984-.937-.75-.953-.75-2.438v-.406q0-2.36 1-3.61t2.984-1.265h.203Zm-1.422 3.844q-.562 0-1.03.328-.47.328-.657.844v.39q0 1.063.469 1.704.484.64 1.187.64.735 0 1.156-.531.422-.547.422-1.422 0-.875-.422-1.406-.421-.547-1.125-.547Z"/><path stroke="#fff" stroke-width="3" stroke-linejoin="round" stroke-linecap="round" d="M127.578 183.508H126.5v-7.219l-2.188.797v-.984l3.11-1.172h.156v8.578Zm3.516 1.703-.61-.422q.547-.765.578-1.594v-.968h1.063v.843q0 .594-.297 1.188t-.734.953Zm5.484-1.703H135.5v-7.219l-2.188.797v-.984l3.11-1.172h.156v8.578Zm8.625-6.313q0 .641-.344 1.141-.343.5-.906.781.656.282 1.047.844.39.547.39 1.25 0 1.094-.75 1.766-.734.656-1.952.656-1.235 0-1.985-.656-.734-.672-.734-1.766 0-.703.375-1.25.375-.562 1.047-.844-.563-.28-.891-.78-.328-.5-.328-1.142 0-1.078.687-1.703.688-.64 1.828-.64 1.125 0 1.813.64.703.625.703 1.703Zm-.89 3.985q0-.719-.454-1.156-.453-.454-1.187-.454t-1.188.454q-.437.437-.437 1.171 0 .72.437 1.141.438.406 1.203.406.75 0 1.188-.422.438-.421.438-1.14Zm-1.625-5.438q-.641 0-1.047.407-.391.39-.391 1.078 0 .64.39 1.047.391.406 1.032.406.656 0 1.047-.406.39-.407.39-1.047 0-.657-.406-1.063-.406-.422-1.016-.422Zm4.828 3.485.437-4.25h4.375v1h-3.453l-.266 2.328q.641-.375 1.438-.375 1.156 0 1.844.781.687.766.687 2.078 0 1.313-.719 2.078-.703.766-1.984.766-1.125 0-1.844-.625-.719-.64-.812-1.75h1.015q.11.734.532 1.11.422.374 1.109.374.75 0 1.188-.515.437-.516.437-1.422 0-.86-.469-1.375-.469-.516-1.25-.516-.703 0-1.11.297l-.28.234-.875-.218Z"/><path fill="#fbbc04" d="M127.578 183.508H126.5v-7.219l-2.188.797v-.984l3.11-1.172h.156v8.578Zm3.516 1.703-.61-.422q.547-.765.578-1.594v-.968h1.063v.843q0 .594-.297 1.188t-.734.953Zm5.484-1.703H135.5v-7.219l-2.188.797v-.984l3.11-1.172h.156v8.578Zm8.625-6.313q0 .641-.344 1.141-.343.5-.906.781.656.282 1.047.844.39.547.39 1.25 0 1.094-.75 1.766-.734.656-1.952.656-1.235 0-1.985-.656-.734-.672-.734-1.766 0-.703.375-1.25.375-.562 1.047-.844-.563-.28-.891-.78-.328-.5-.328-1.142 0-1.078.687-1.703.688-.64 1.828-.64 1.125 0 1.813.64.703.625.703 1.703Zm-.89 3.985q0-.719-.454-1.156-.453-.454-1.187-.454t-1.188.454q-.437.437-.437 1.171 0 .72.437 1.141.438.406 1.203.406.75 0 1.188-.422.438-.421.438-1.14Zm-1.625-5.438q-.641 0-1.047.407-.391.39-.391 1.078 0 .64.39 1.047.391.406 1.032.406.656 0 1.047-.406.39-.407.39-1.047 0-.657-.406-1.063-.406-.422-1.016-.422Zm4.828 3.485.437-4.25h4.375v1h-3.453l-.266 2.328q.641-.375 1.438-.375 1.156 0 1.844.781.687.766.687 2.078 0 1.313-.719 2.078-.703.766-1.984.766-1.125 0-1.844-.625-.719-.64-.812-1.75h1.015q.11.734.532 1.11.422.374 1.109.374.75 0 1.188-.515.437-.516.437-1.422 0-.86-.469-1.375-.469-.516-1.25-.516-.703 0-1.11.297l-.28.234-.875-.218Z"/><path stroke="#fff" stroke-width="3" stroke-linejoin="round" stroke-linecap="round" d="M296.719 240.17h.812q.781-.015 1.219-.406.438-.39.438-1.062 0-1.5-1.5-1.5-.704 0-1.125.406-.407.406-.407 1.063h-1.094q0-1.016.735-1.688.75-.672 1.89-.672 1.204 0 1.891.64.688.642.688 1.782 0 .563-.36 1.078-.36.516-.984.781.703.22 1.078.735.39.516.39 1.266 0 1.14-.75 1.828-.75.672-1.952.672-1.188 0-1.954-.657-.75-.656-.75-1.719h1.094q0 .672.438 1.079.437.406 1.187.406.781 0 1.188-.406.421-.422.421-1.188 0-.734-.453-1.125-.453-.406-1.328-.422h-.812v-.89Zm10.937-3.124-3.531 7.922h-1.14l3.515-7.641h-4.61v-.89h5.766v.609Zm1.985 3.64.437-4.25h4.375v1H311l-.266 2.328q.641-.375 1.438-.375 1.156 0 1.844.782.687.765.687 2.078 0 1.312-.719 2.078-.703.766-1.984.766-1.125 0-1.844-.625-.719-.641-.812-1.75h1.015q.11.734.532 1.109.421.375 1.109.375.75 0 1.188-.516.437-.515.437-1.422 0-.859-.469-1.375-.469-.515-1.25-.515-.703 0-1.11.297l-.28.234-.875-.219Z"/><path fill="#fbbc04" d="M296.719 240.17h.812q.781-.015 1.219-.406.438-.39.438-1.062 0-1.5-1.5-1.5-.704 0-1.125.406-.407.406-.407 1.063h-1.094q0-1.016.735-1.688.75-.672 1.89-.672 1.204 0 1.891.64.688.642.688 1.782 0 .563-.36 1.078-.36.516-.984.781.703.22 1.078.735.39.516.39 1.266 0 1.14-.75 1.828-.75.672-1.952.672-1.188 0-1.954-.657-.75-.656-.75-1.719h1.094q0 .672.438 1.079.437.406 1.187.406.781 0 1.188-.406.421-.422.421-1.188 0-.734-.453-1.125-.453-.406-1.328-.422h-.812v-.89Zm10.937-3.124-3.531 7.922h-1.14l3.515-7.641h-4.61v-.89h5.766v.609Zm1.985 3.64.437-4.25h4.375v1H311l-.266 2.328q.641-.375 1.438-.375 1.156 0 1.844.782.687.765.687 2.078 0 1.312-.719 2.078-.703.766-1.984.766-1.125 0-1.844-.625-.719-.641-.812-1.75h1.015q.11.734.532 1.109.421.375 1.109.375.75 0 1.188-.516.437-.515.437-1.422 0-.859-.469-1.375-.469-.515-1.25-.515-.703 0-1.11.297l-.28.234-.875-.219Z"/><path stroke="#fff" stroke-width="3" stroke-linejoin="round" stroke-linecap="round" d="M460.828 309.997h-1.078v-7.22l-2.188.798v-.985l3.11-1.172h.156v8.579Zm7 0h-1.078v-7.22l-2.188.798v-.985l3.11-1.172h.156v8.579Zm7 0h-1.078v-7.22l-2.188.798v-.985l3.11-1.172h.156v8.579Z"/><path fill="#fbbc04" d="M460.828 309.997h-1.078v-7.22l-2.188.798v-.985l3.11-1.172h.156v8.579Zm7 0h-1.078v-7.22l-2.188.798v-.985l3.11-1.172h.156v8.579Zm7 0h-1.078v-7.22l-2.188.798v-.985l3.11-1.172h.156v8.579Z"/><path stroke="#fff" stroke-width="3" stroke-linejoin="round" stroke-linecap="round" d="M627.969 371.639h.812q.782-.016 1.219-.407.438-.39.438-1.062 0-1.5-1.5-1.5-.704 0-1.125.406-.407.406-.407 1.063h-1.093q0-1.016.734-1.688.75-.672 1.89-.672 1.204 0 1.891.641.688.64.688 1.781 0 .563-.36 1.078-.36.516-.984.782.703.218 1.078.734.39.516.39 1.266 0 1.14-.75 1.828-.75.672-1.952.672-1.188 0-1.954-.657-.75-.656-.75-1.718h1.094q0 .671.438 1.078.437.406 1.187.406.781 0 1.188-.406.422-.422.422-1.188 0-.734-.454-1.125-.453-.406-1.328-.422h-.812v-.89Zm11.015 4.797h-5.593v-.782l2.953-3.28q.656-.75.906-1.204.25-.469.25-.969 0-.672-.406-1.094-.39-.437-1.078-.437-.797 0-1.25.469-.453.453-.453 1.281h-1.079q0-1.188.75-1.906.766-.735 2.032-.735 1.203 0 1.89.625.688.625.688 1.672 0 1.25-1.61 3l-2.28 2.469h4.28v.89Z"/><path fill="#fbbc04" d="M627.969 371.639h.812q.782-.016 1.219-.407.438-.39.438-1.062 0-1.5-1.5-1.5-.704 0-1.125.406-.407.406-.407 1.063h-1.093q0-1.016.734-1.688.75-.672 1.89-.672 1.204 0 1.891.641.688.64.688 1.781 0 .563-.36 1.078-.36.516-.984.782.703.218 1.078.734.39.516.39 1.266 0 1.14-.75 1.828-.75.672-1.952.672-1.188 0-1.954-.657-.75-.656-.75-1.718h1.094q0 .671.438 1.078.437.406 1.187.406.781 0 1.188-.406.422-.422.422-1.188 0-.734-.454-1.125-.453-.406-1.328-.422h-.812v-.89Zm11.015 4.797h-5.593v-.782l2.953-3.28q.656-.75.906-1.204.25-.469.25-.969 0-.672-.406-1.094-.39-.437-1.078-.437-.797 0-1.25.469-.453.453-.453 1.281h-1.079q0-1.188.75-1.906.766-.735 2.032-.735 1.203 0 1.89.625.688.625.688 1.672 0 1.25-1.61 3l-2.28 2.469h4.28v.89Z"/><path stroke="#fff" stroke-width="3" stroke-linejoin="round" stroke-linecap="round" d="M127.578 169.13H126.5v-7.218l-2.188.797v-.985l3.11-1.172h.156v8.579Zm3.516 1.704-.61-.422q.547-.766.578-1.594v-.969h1.063v.844q0 .594-.297 1.188-.297.593-.734.953Zm2.422-5.985.437-4.25h4.375v1h-3.453l-.266 2.328q.641-.375 1.438-.375 1.156 0 1.844.782.687.765.687 2.078 0 1.312-.719 2.078-.703.766-1.984.766-1.125 0-1.844-.625-.719-.641-.812-1.75h1.015q.11.734.532 1.109.422.375 1.109.375.75 0 1.188-.516.437-.515.437-1.422 0-.859-.469-1.375-.469-.515-1.25-.515-.703 0-1.11.297l-.28.234-.875-.219Zm7 0 .437-4.25h4.375v1h-3.453l-.266 2.328q.641-.375 1.438-.375 1.156 0 1.844.782.687.765.687 2.078 0 1.312-.719 2.078-.703.766-1.984.766-1.125 0-1.844-.625-.719-.641-.812-1.75h1.015q.11.734.532 1.109.422.375 1.109.375.75 0 1.188-.516.437-.515.437-1.422 0-.859-.469-1.375-.469-.515-1.25-.515-.703 0-1.11.297l-.28.234-.875-.219Zm10.062 4.282H149.5v-7.22l-2.188.798v-.985l3.11-1.172h.156v8.579Z"/><path fill="#4285f4" d="M127.578 169.13H126.5v-7.218l-2.188.797v-.985l3.11-1.172h.156v8.579Zm3.516 1.704-.61-.422q.547-.766.578-1.594v-.969h1.063v.844q0 .594-.297 1.188-.297.593-.734.953Zm2.422-5.985.437-4.25h4.375v1h-3.453l-.266 2.328q.641-.375 1.438-.375 1.156 0 1.844.782.687.765.687 2.078 0 1.312-.719 2.078-.703.766-1.984.766-1.125 0-1.844-.625-.719-.641-.812-1.75h1.015q.11.734.532 1.109.422.375 1.109.375.75 0 1.188-.516.437-.515.437-1.422 0-.859-.469-1.375-.469-.515-1.25-.515-.703 0-1.11.297l-.28.234-.875-.219Zm7 0 .437-4.25h4.375v1h-3.453l-.266 2.328q.641-.375 1.438-.375 1.156 0 1.844.782.687.765.687 2.078 0 1.312-.719 2.078-.703.766-1.984.766-1.125 0-1.844-.625-.719-.641-.812-1.75h1.015q.11.734.532 1.109.422.375 1.109.375.75 0 1.188-.516.437-.515.437-1.422 0-.859-.469-1.375-.469-.515-1.25-.515-.703 0-1.11.297l-.28.234-.875-.219Zm10.062 4.282H149.5v-7.22l-2.188.798v-.985l3.11-1.172h.156v8.579Z"/><path stroke="#fff" stroke-width="3" stroke-linejoin="round" stroke-linecap="round" d="m295.64 225.213.438-4.25h4.375v1H297l-.266 2.328q.641-.375 1.438-.375 1.156 0 1.844.78.687.767.687 2.079 0 1.313-.719 2.078-.703.766-1.984.766-1.125 0-1.844-.625-.719-.64-.812-1.75h1.015q.11.734.532 1.11.421.374 1.109.374.75 0 1.188-.515.437-.516.437-1.422 0-.86-.469-1.375-.469-.516-1.25-.516-.703 0-1.11.297l-.28.234-.875-.218Zm11.86.64q0 1.906-.656 2.844-.64.922-2.031.922-1.36 0-2.016-.906-.656-.907-.688-2.72v-1.437q0-1.89.641-2.797.656-.921 2.047-.921 1.375 0 2.031.89.656.875.672 2.719v1.406Zm-1.094-1.484q0-1.375-.39-2-.375-.64-1.22-.64-.827 0-1.218.64-.375.625-.375 1.922v1.734q0 1.375.39 2.047.407.656 1.22.656.796 0 1.187-.625.39-.625.406-1.953v-1.781Zm6.297 5.125h-1.078v-7.219l-2.188.797v-.984l3.11-1.172h.156v8.578Z"/><path fill="#4285f4" d="m295.64 225.213.438-4.25h4.375v1H297l-.266 2.328q.641-.375 1.438-.375 1.156 0 1.844.78.687.767.687 2.079 0 1.313-.719 2.078-.703.766-1.984.766-1.125 0-1.844-.625-.719-.64-.812-1.75h1.015q.11.734.532 1.11.421.374 1.109.374.75 0 1.188-.515.437-.516.437-1.422 0-.86-.469-1.375-.469-.516-1.25-.516-.703 0-1.11.297l-.28.234-.875-.218Zm11.86.64q0 1.906-.656 2.844-.64.922-2.031.922-1.36 0-2.016-.906-.656-.907-.688-2.72v-1.437q0-1.89.641-2.797.656-.921 2.047-.921 1.375 0 2.031.89.656.875.672 2.719v1.406Zm-1.094-1.484q0-1.375-.39-2-.375-.64-1.22-.64-.827 0-1.218.64-.375.625-.375 1.922v1.734q0 1.375.39 2.047.407.656 1.22.656.796 0 1.187-.625.39-.625.406-1.953v-1.781Zm6.297 5.125h-1.078v-7.219l-2.188.797v-.984l3.11-1.172h.156v8.578Z"/><path stroke="#fff" stroke-width="3" stroke-linejoin="round" stroke-linecap="round" d="M460.828 299.146h-1.078v-7.218l-2.188.796v-.984l3.11-1.172h.156v8.578Zm5.016-4.797h.812q.781-.015 1.219-.406.438-.39.438-1.062 0-1.5-1.5-1.5-.704 0-1.125.406-.407.406-.407 1.062h-1.094q0-1.015.735-1.687.75-.672 1.89-.672 1.204 0 1.891.64.688.641.688 1.782 0 .562-.36 1.078t-.984.781q.703.219 1.078.735.39.515.39 1.265 0 1.14-.75 1.828-.75.672-1.952.672-1.188 0-1.954-.656-.75-.656-.75-1.719h1.094q0 .672.438 1.078.437.407 1.187.407.781 0 1.188-.407.421-.421.421-1.187 0-.734-.453-1.125-.453-.406-1.328-.422h-.812v-.89Zm9.687-3.734v.906h-.203q-1.265.032-2.015.766-.75.719-.875 2.031.687-.765 1.843-.765 1.11 0 1.781.78.672.782.672 2.032 0 1.313-.718 2.11-.72.796-1.938.796-1.219 0-1.984-.937-.75-.953-.75-2.438v-.406q0-2.36 1-3.61t2.984-1.265h.203Zm-1.422 3.844q-.562 0-1.03.328-.47.328-.657.844v.39q0 1.063.469 1.703.484.641 1.187.641.735 0 1.156-.531.422-.547.422-1.422 0-.875-.422-1.406-.421-.547-1.125-.547Z"/><path fill="#4285f4" d="M460.828 299.146h-1.078v-7.218l-2.188.796v-.984l3.11-1.172h.156v8.578Zm5.016-4.797h.812q.781-.015 1.219-.406.438-.39.438-1.062 0-1.5-1.5-1.5-.704 0-1.125.406-.407.406-.407 1.062h-1.094q0-1.015.735-1.687.75-.672 1.89-.672 1.204 0 1.891.64.688.641.688 1.782 0 .562-.36 1.078t-.984.781q.703.219 1.078.735.39.515.39 1.265 0 1.14-.75 1.828-.75.672-1.952.672-1.188 0-1.954-.656-.75-.656-.75-1.719h1.094q0 .672.438 1.078.437.407 1.187.407.781 0 1.188-.407.421-.421.421-1.187 0-.734-.453-1.125-.453-.406-1.328-.422h-.812v-.89Zm9.687-3.734v.906h-.203q-1.265.032-2.015.766-.75.719-.875 2.031.687-.765 1.843-.765 1.11 0 1.781.78.672.782.672 2.032 0 1.313-.718 2.11-.72.796-1.938.796-1.219 0-1.984-.937-.75-.953-.75-2.438v-.406q0-2.36 1-3.61t2.984-1.265h.203Zm-1.422 3.844q-.562 0-1.03.328-.47.328-.657.844v.39q0 1.063.469 1.703.484.641 1.187.641.735 0 1.156-.531.422-.547.422-1.422 0-.875-.422-1.406-.421-.547-1.125-.547Z"/><path stroke="#fff" stroke-width="3" stroke-linejoin="round" stroke-linecap="round" d="M627.969 363.884h.812q.782-.016 1.219-.407.438-.39.438-1.062 0-1.5-1.5-1.5-.704 0-1.125.406-.407.406-.407 1.063h-1.093q0-1.016.734-1.688.75-.672 1.89-.672 1.204 0 1.891.64.688.642.688 1.782 0 .563-.36 1.078-.36.516-.984.781.703.22 1.078.735.39.515.39 1.265 0 1.141-.75 1.829-.75.671-1.952.671-1.188 0-1.954-.656-.75-.656-.75-1.719h1.094q0 .672.438 1.079.437.406 1.187.406.781 0 1.188-.406.422-.422.422-1.188 0-.734-.454-1.125-.453-.406-1.328-.422h-.812v-.89Zm10.937-3.125-3.531 7.921h-1.14l3.515-7.64h-4.61v-.89h5.766v.609Z"/><path fill="#4285f4" d="M627.969 363.884h.812q.782-.016 1.219-.407.438-.39.438-1.062 0-1.5-1.5-1.5-.704 0-1.125.406-.407.406-.407 1.063h-1.093q0-1.016.734-1.688.75-.672 1.89-.672 1.204 0 1.891.64.688.642.688 1.782 0 .563-.36 1.078-.36.516-.984.781.703.22 1.078.735.39.515.39 1.265 0 1.141-.75 1.829-.75.671-1.952.671-1.188 0-1.954-.656-.75-.656-.75-1.719h1.094q0 .672.438 1.079.437.406 1.187.406.781 0 1.188-.406.422-.422.422-1.188 0-.734-.454-1.125-.453-.406-1.328-.422h-.812v-.89Zm10.937-3.125-3.531 7.921h-1.14l3.515-7.64h-4.61v-.89h5.766v.609Z"/><path stroke="#fff" stroke-width="3" stroke-linejoin="round" stroke-linecap="round" d="M299.406 208.05v.906h-.203q-1.265.032-2.015.766-.75.719-.875 2.031.687-.765 1.843-.765 1.11 0 1.781.78.672.782.672 2.032 0 1.313-.718 2.11-.72.796-1.938.796-1.219 0-1.984-.937-.75-.953-.75-2.438v-.406q0-2.36 1-3.61t2.984-1.265h.203Zm-1.422 3.844q-.562 0-1.03.328-.47.328-.657.844v.39q0 1.063.469 1.703.484.641 1.187.641.735 0 1.156-.531.422-.547.422-1.422 0-.875-.422-1.406-.421-.547-1.125-.547Zm5.735-.11h.812q.781-.015 1.219-.406.438-.39.438-1.062 0-1.5-1.5-1.5-.704 0-1.125.406-.407.406-.407 1.062h-1.094q0-1.015.735-1.687.75-.672 1.89-.672 1.204 0 1.891.64.688.641.688 1.782 0 .562-.36 1.078t-.984.781q.703.22 1.078.735.39.515.39 1.265 0 1.14-.75 1.828-.75.672-1.952.672-1.188 0-1.954-.656-.75-.656-.75-1.719h1.094q0 .672.438 1.078.437.407 1.187.407.781 0 1.188-.407.421-.421.421-1.187 0-.734-.453-1.125-.453-.406-1.328-.422h-.812v-.89Zm10.61-1.515q0 .64-.345 1.14-.343.5-.906.782.656.28 1.047.843.39.547.39 1.25 0 1.094-.75 1.766-.734.656-1.952.656-1.235 0-1.985-.656-.734-.672-.734-1.766 0-.703.375-1.25.375-.562 1.047-.843-.563-.282-.891-.782-.328-.5-.328-1.14 0-1.078.687-1.703.688-.64 1.829-.64 1.125 0 1.812.64.703.625.703 1.703Zm-.892 3.984q0-.719-.453-1.156-.453-.453-1.187-.453-.735 0-1.188.453-.437.437-.437 1.172 0 .719.437 1.14.438.407 1.204.407.75 0 1.187-.422.438-.422.438-1.14Zm-1.625-5.437q-.64 0-1.046.406-.391.39-.391 1.078 0 .64.39 1.047.391.406 1.032.406.656 0 1.047-.406.39-.406.39-1.047 0-.656-.406-1.062-.406-.422-1.015-.422Z"/><path fill="#34a853" d="M299.406 208.05v.906h-.203q-1.265.032-2.015.766-.75.719-.875 2.031.687-.765 1.843-.765 1.11 0 1.781.78.672.782.672 2.032 0 1.313-.718 2.11-.72.796-1.938.796-1.219 0-1.984-.937-.75-.953-.75-2.438v-.406q0-2.36 1-3.61t2.984-1.265h.203Zm-1.422 3.844q-.562 0-1.03.328-.47.328-.657.844v.39q0 1.063.469 1.703.484.641 1.187.641.735 0 1.156-.531.422-.547.422-1.422 0-.875-.422-1.406-.421-.547-1.125-.547Zm5.735-.11h.812q.781-.015 1.219-.406.438-.39.438-1.062 0-1.5-1.5-1.5-.704 0-1.125.406-.407.406-.407 1.062h-1.094q0-1.015.735-1.687.75-.672 1.89-.672 1.204 0 1.891.64.688.641.688 1.782 0 .562-.36 1.078t-.984.781q.703.22 1.078.735.39.515.39 1.265 0 1.14-.75 1.828-.75.672-1.952.672-1.188 0-1.954-.656-.75-.656-.75-1.719h1.094q0 .672.438 1.078.437.407 1.187.407.781 0 1.188-.407.421-.421.421-1.187 0-.734-.453-1.125-.453-.406-1.328-.422h-.812v-.89Zm10.61-1.515q0 .64-.345 1.14-.343.5-.906.782.656.28 1.047.843.39.547.39 1.25 0 1.094-.75 1.766-.734.656-1.952.656-1.235 0-1.985-.656-.734-.672-.734-1.766 0-.703.375-1.25.375-.562 1.047-.843-.563-.282-.891-.782-.328-.5-.328-1.14 0-1.078.687-1.703.688-.64 1.829-.64 1.125 0 1.812.64.703.625.703 1.703Zm-.892 3.984q0-.719-.453-1.156-.453-.453-1.187-.453-.735 0-1.188.453-.437.437-.437 1.172 0 .719.437 1.14.438.407 1.204.407.75 0 1.187-.422.438-.422.438-1.14Zm-1.625-5.437q-.64 0-1.046.406-.391.39-.391 1.078 0 .64.39 1.047.391.406 1.032.406.656 0 1.047-.406.39-.406.39-1.047 0-.656-.406-1.062-.406-.422-1.015-.422Z"/><path stroke="#fff" stroke-width="3" stroke-linejoin="round" stroke-linecap="round" d="M462.86 265.15h-5.594v-.78l2.953-3.282q.656-.75.906-1.203.25-.468.25-.968 0-.672-.406-1.094-.39-.438-1.078-.438-.797 0-1.25.469-.454.453-.454 1.281h-1.078q0-1.187.75-1.906.766-.734 2.032-.734 1.203 0 1.89.625.688.625.688 1.672 0 1.25-1.61 3l-2.28 2.468h4.28v.89Zm1.906-4.28.437-4.25h4.375v1h-3.453l-.266 2.328q.641-.375 1.438-.375 1.156 0 1.844.781.687.766.687 2.078 0 1.313-.719 2.078-.703.766-1.984.766-1.125 0-1.844-.625-.719-.64-.812-1.75h1.015q.11.734.532 1.11.421.374 1.109.374.75 0 1.188-.515.437-.516.437-1.422 0-.86-.469-1.375-.469-.516-1.25-.516-.703 0-1.11.297l-.28.234-.875-.218Zm12.015-3.641-3.531 7.922h-1.14l3.515-7.64h-4.61v-.891h5.766v.609Z"/><path fill="#34a853" d="M462.86 265.15h-5.594v-.78l2.953-3.282q.656-.75.906-1.203.25-.468.25-.968 0-.672-.406-1.094-.39-.438-1.078-.438-.797 0-1.25.469-.454.453-.454 1.281h-1.078q0-1.187.75-1.906.766-.734 2.032-.734 1.203 0 1.89.625.688.625.688 1.672 0 1.25-1.61 3l-2.28 2.468h4.28v.89Zm1.906-4.28.437-4.25h4.375v1h-3.453l-.266 2.328q.641-.375 1.438-.375 1.156 0 1.844.781.687.766.687 2.078 0 1.313-.719 2.078-.703.766-1.984.766-1.125 0-1.844-.625-.719-.64-.812-1.75h1.015q.11.734.532 1.11.421.374 1.109.374.75 0 1.188-.515.437-.516.437-1.422 0-.86-.469-1.375-.469-.516-1.25-.516-.703 0-1.11.297l-.28.234-.875-.218Zm12.015-3.641-3.531 7.922h-1.14l3.515-7.64h-4.61v-.891h5.766v.609Z"/><path stroke="#fff" stroke-width="3" stroke-linejoin="round" stroke-linecap="round" d="M630.547 312.358q-.328.406-.813.656-.468.234-1.03.234-.735 0-1.282-.359-.547-.36-.844-1.016-.297-.671-.297-1.468 0-.844.313-1.531.328-.688.922-1.047.609-.375 1.406-.375 1.265 0 1.984.953.735.953.735 2.578v.312q0 2.5-.985 3.641-.984 1.14-2.968 1.172h-.22v-.906h.235q1.344-.032 2.063-.704.718-.671.78-2.14Zm-1.672 0q.547 0 1-.328.469-.344.688-.828v-.438q0-1.062-.47-1.734-.468-.672-1.171-.672-.719 0-1.156.547-.422.547-.422 1.453 0 .875.406 1.437.422.563 1.125.563Zm8.672 0q-.328.406-.813.656-.468.234-1.03.234-.735 0-1.282-.359-.547-.36-.844-1.016-.297-.671-.297-1.468 0-.844.313-1.531.328-.688.922-1.047.609-.375 1.406-.375 1.265 0 1.984.953.735.953.735 2.578v.312q0 2.5-.985 3.641-.984 1.14-2.968 1.172h-.22v-.906h.235q1.344-.032 2.063-.704.718-.671.78-2.14Zm-1.672 0q.547 0 1-.328.469-.344.688-.828v-.438q0-1.062-.47-1.734-.468-.672-1.171-.672-.719 0-1.156.547-.422.547-.422 1.453 0 .875.406 1.437.422.563 1.125.563Z"/><path fill="#34a853" d="M630.547 312.358q-.328.406-.813.656-.468.234-1.03.234-.735 0-1.282-.359-.547-.36-.844-1.016-.297-.671-.297-1.468 0-.844.313-1.531.328-.688.922-1.047.609-.375 1.406-.375 1.265 0 1.984.953.735.953.735 2.578v.312q0 2.5-.985 3.641-.984 1.14-2.968 1.172h-.22v-.906h.235q1.344-.032 2.063-.704.718-.671.78-2.14Zm-1.672 0q.547 0 1-.328.469-.344.688-.828v-.438q0-1.062-.47-1.734-.468-.672-1.171-.672-.719 0-1.156.547-.422.547-.422 1.453 0 .875.406 1.437.422.563 1.125.563Zm8.672 0q-.328.406-.813.656-.468.234-1.03.234-.735 0-1.282-.359-.547-.36-.844-1.016-.297-.671-.297-1.468 0-.844.313-1.531.328-.688.922-1.047.609-.375 1.406-.375 1.265 0 1.984.953.735.953.735 2.578v.312q0 2.5-.985 3.641-.984 1.14-2.968 1.172h-.22v-.906h.235q1.344-.032 2.063-.704.718-.671.78-2.14Zm-1.672 0q.547 0 1-.328.469-.344.688-.828v-.438q0-1.062-.47-1.734-.468-.672-1.171-.672-.719 0-1.156.547-.422.547-.422 1.453 0 .875.406 1.437.422.563 1.125.563Z"/><path fill="#000" d="M344.047 438.75h-1.125l-4.297-6.578v6.578h-1.14v-8.531h1.14l4.297 6.61v-6.61h1.125v8.531Zm6.187-.625q-.625.75-1.859.75-1.016 0-1.547-.594-.531-.594-.531-1.75v-4.125h1.078v4.094q0 1.453 1.172 1.453 1.25 0 1.656-.937v-4.61h1.094v6.344h-1.031l-.032-.625Zm4.11-5.719.031.703q.688-.812 1.875-.812 1.328 0 1.813 1.015.312-.453.812-.734.516-.281 1.203-.281 2.094 0 2.125 2.203v4.25h-1.078v-4.188q0-.671-.313-1-.312-.343-1.046-.343-.61 0-1.016.36-.39.358-.453.968v4.203h-1.078v-4.156q0-1.375-1.36-1.375-1.062 0-1.453.906v4.625h-1.094v-6.344h1.032Zm15.344 3.25q0 1.453-.672 2.344-.657.875-1.782.875-1.203 0-1.859-.86l-.063.735h-.984v-9h1.078v3.36q.656-.813 1.813-.813 1.156 0 1.812.875.656.86.656 2.39v.094Zm-1.079-.125q0-1.11-.437-1.703-.422-.61-1.219-.61-1.078 0-1.547.985v2.75q.5 1 1.547 1 .781 0 1.219-.61.437-.609.437-1.812Zm5.344 3.344q-1.297 0-2.11-.844-.796-.86-.796-2.281v-.188q0-.953.36-1.687.359-.75 1-1.156.656-.422 1.406-.422 1.234 0 1.921.812.688.813.688 2.329v.453h-4.297q.031.937.547 1.515.531.578 1.344.578.562 0 .953-.234.406-.234.719-.625l.656.516q-.797 1.234-2.39 1.234Zm-.14-5.688q-.657 0-1.11.485-.437.469-.531 1.328h3.172v-.078q-.047-.828-.453-1.281-.391-.454-1.079-.454Zm6.578.188q-.25-.031-.532-.031-1.078 0-1.453.906v4.5h-1.078v-6.344h1.047l.016.735q.53-.844 1.515-.844.313 0 .485.078v1Zm3.64 2.14q0-.921.36-1.671.375-.75 1.03-1.14.657-.407 1.485-.407 1.297 0 2.094.89.813.891.813 2.391v.078q0 .922-.36 1.656-.36.735-1.015 1.157-.657.406-1.516.406-1.281 0-2.094-.89-.797-.907-.797-2.391v-.078Zm1.094.141q0 1.047.484 1.688.5.64 1.313.64.828 0 1.312-.64.485-.656.485-1.828 0-1.032-.5-1.672-.485-.656-1.313-.656-.797 0-1.297.64-.484.625-.484 1.828Zm6.734 3.094v-5.5h-1v-.844h1v-.64q0-1.032.532-1.579.546-.562 1.546-.562.375 0 .75.094l-.062.89q-.281-.062-.578-.062-.531 0-.828.312-.281.313-.281.875v.672h1.359v.844h-1.36v5.5h-1.078Zm6.625 0v-8.531h2.797q1.39 0 2.078.578.704.562.704 1.687 0 .61-.344 1.079-.328.453-.922.703.703.187 1.094.734.406.531.406 1.281 0 1.156-.75 1.813-.735.656-2.094.656h-2.969Zm1.125-3.984v3.062h1.86q.797 0 1.25-.406.453-.406.453-1.125 0-1.531-1.688-1.531h-1.875Zm0-.907h1.704q.734 0 1.171-.359.454-.375.454-1.016 0-.703-.407-1.015-.406-.328-1.25-.328h-1.672v2.718Zm6.891 4.891h-1.078v-9h1.078v9Zm5.734 0q-.093-.188-.156-.672-.75.797-1.797.797-.937 0-1.547-.531-.593-.531-.593-1.36 0-.984.75-1.53.75-.548 2.125-.548h1.046v-.5q0-.562-.343-.89-.328-.344-1-.344-.578 0-.969.297-.39.281-.39.703h-1.094q0-.485.328-.922.344-.438.922-.688.578-.265 1.265-.265 1.11 0 1.719.547.625.547.656 1.5v2.922q0 .875.219 1.39v.094h-1.14Zm-1.796-.828q.515 0 .968-.266.453-.265.656-.687v-1.297h-.843q-2 0-2 1.172 0 .5.344.797.343.28.875.28Zm4.625-2.39q0-1.47.687-2.344.688-.891 1.813-.891 1.109 0 1.765.75v-3.297h1.078v9h-1l-.047-.688q-.656.813-1.812.813-1.094 0-1.797-.906-.688-.906-.688-2.36v-.078Zm1.078.124q0 1.078.437 1.688.453.61 1.235.61 1.03 0 1.515-.938v-2.907q-.484-.89-1.5-.89-.797 0-1.25.61-.437.608-.437 1.827Zm8.812 3.219q-1.297 0-2.11-.844-.796-.86-.796-2.281v-.188q0-.953.36-1.687.359-.75 1-1.156.656-.422 1.406-.422 1.234 0 1.921.812.688.813.688 2.329v.453h-4.297q.031.937.547 1.515.531.578 1.344.578.562 0 .953-.234.406-.234.719-.625l.656.516q-.797 1.234-2.39 1.234Zm-.14-5.688q-.657 0-1.11.485-.437.469-.531 1.328h3.172v-.078q-.047-.828-.453-1.281-.391-.454-1.079-.454Zm7.203 3.875q0-.437-.344-.671-.328-.25-1.156-.422-.813-.172-1.297-.422-.485-.25-.719-.578-.219-.344-.219-.813 0-.781.656-1.312.657-.547 1.688-.547 1.078 0 1.734.562.672.547.672 1.407h-1.078q0-.438-.39-.75-.375-.329-.938-.329-.594 0-.938.266-.328.25-.328.656 0 .391.313.594.312.203 1.125.39.812.173 1.312.423t.735.609q.25.36.25.86 0 .859-.688 1.374-.672.516-1.75.516-.765 0-1.36-.266-.577-.28-.905-.765-.329-.485-.329-1.047h1.079q.03.547.437.875.406.312 1.078.312.61 0 .985-.25t.375-.671Zm5.265-1.78q0-1.313.344-2.532.36-1.219 1.063-2.219.703-1 1.468-1.406l.219.719q-.86.656-1.406 2-.547 1.344-.594 3.015l-.016.5q0 2.266.829 3.922.5 1 1.187 1.563l-.219.656q-.781-.422-1.5-1.453-1.375-1.985-1.375-4.766Zm5.219 3.468h-1.078v-9h1.078v9Zm1.531-3.234q0-.922.36-1.672.375-.75 1.03-1.14.657-.407 1.485-.407 1.297 0 2.094.89.813.891.813 2.391v.078q0 .922-.36 1.656-.36.735-1.015 1.157-.657.406-1.516.406-1.281 0-2.094-.89-.797-.907-.797-2.391v-.078Zm1.094.14q0 1.047.484 1.688.5.64 1.313.64.828 0 1.312-.64.485-.656.485-1.828 0-1.032-.5-1.672-.485-.656-1.313-.656-.797 0-1.297.64-.484.625-.484 1.828Zm5.938-.125q0-1.484.687-2.36.688-.874 1.813-.874 1.156 0 1.812.812l.047-.703h1v6.188q0 1.234-.735 1.937-.734.719-1.953.719-.687 0-1.343-.297-.657-.297-1-.797l.562-.656q.688.86 1.703.86.781 0 1.219-.454.453-.437.453-1.25v-.547q-.656.766-1.781.766-1.11 0-1.797-.89-.688-.907-.688-2.454Zm1.093.125q0 1.063.438 1.688.437.61 1.234.61 1.016 0 1.5-.938v-2.891q-.5-.906-1.5-.906-.781 0-1.234.61-.438.608-.438 1.827Zm12.86 1.406q0-.437-.344-.671-.328-.25-1.156-.422-.813-.172-1.297-.422-.485-.25-.719-.578-.219-.344-.219-.813 0-.781.656-1.312.657-.547 1.688-.547 1.078 0 1.734.562.672.547.672 1.407h-1.078q0-.438-.39-.75-.375-.329-.938-.329-.594 0-.938.266-.328.25-.328.656 0 .391.313.594.312.203 1.125.39.812.173 1.312.423t.735.609q.25.36.25.86 0 .859-.688 1.374-.672.516-1.75.516-.765 0-1.36-.266-.577-.28-.905-.765-.329-.485-.329-1.047h1.079q.03.547.437.875.406.312 1.078.312.61 0 .985-.25t.375-.671Zm4.843.922q.579 0 1.016-.343.438-.36.484-.891h1.032q-.032.547-.391 1.047-.344.484-.922.781-.562.297-1.219.297-1.296 0-2.062-.86-.75-.874-.75-2.374v-.188q0-.922.328-1.64.344-.72.969-1.11.64-.406 1.515-.406 1.063 0 1.766.64.719.625.766 1.657h-1.032q-.046-.625-.468-1.016-.422-.39-1.032-.39-.828 0-1.28.593-.454.594-.454 1.719v.203q0 1.094.453 1.688.453.593 1.281.593Zm7.375.766q-.093-.188-.156-.672-.75.797-1.797.797-.937 0-1.547-.531-.593-.531-.593-1.36 0-.984.75-1.53.75-.548 2.125-.548h1.046v-.5q0-.562-.343-.89-.328-.344-1-.344-.578 0-.969.297-.39.281-.39.703h-1.094q0-.485.328-.922.344-.438.922-.688.578-.265 1.265-.265 1.11 0 1.719.547.625.547.656 1.5v2.922q0 .875.219 1.39v.094h-1.14Zm-1.796-.828q.515 0 .968-.266.453-.265.656-.687v-1.297h-.843q-2 0-2 1.172 0 .5.344.797.343.28.875.28Zm6.062.828h-1.078v-9h1.078v9Zm4.453.125q-1.297 0-2.11-.844-.796-.86-.796-2.281v-.188q0-.953.36-1.687.359-.75 1-1.156.656-.422 1.406-.422 1.234 0 1.921.812.688.813.688 2.329v.453h-4.297q.031.937.547 1.515.531.578 1.344.578.562 0 .953-.234.406-.234.719-.625l.656.516q-.797 1.234-2.39 1.234Zm-.14-5.688q-.657 0-1.11.485-.437.469-.531 1.328h3.172v-.078q-.047-.828-.453-1.281-.391-.454-1.079-.454Zm6.015 2.157q0 1.312-.344 2.515-.343 1.188-1.062 2.204-.703 1.015-1.469 1.437l-.234-.656q.906-.688 1.453-2.14.547-1.47.562-3.235v-.188q0-1.234-.265-2.297-.25-1.062-.719-1.89-.453-.844-1.031-1.313l.234-.656q.766.422 1.469 1.422.703 1 1.047 2.219.36 1.203.36 2.578ZM33.016 331.047v3.578l2.234.797v1.156l-8.531-3.25v-.984l8.531-3.266v1.156l-2.234.813Zm-.922 3.234v-2.906l-3.985 1.453 3.985 1.453Zm1.687-8.437-4.875-1.578v-1.11l6.344 2.281v.829l-6.344 2.296v-1.109l4.875-1.61Zm1.594-6.547q0 1.297-.844 2.11-.86.796-2.281.796h-.188q-.953 0-1.687-.36-.75-.359-1.156-1-.422-.656-.422-1.406 0-1.234.812-1.921.813-.688 2.328-.688h.454v4.297q.937-.031 1.515-.547.578-.531.578-1.344 0-.562-.234-.953-.234-.406-.625-.719l.516-.656q1.234.797 1.234 2.39Zm-5.688.14q0 .657.485 1.11.469.437 1.328.531v-3.172h-.078q-.828.047-1.281.453-.453.391-.453 1.079Zm.188-6.578q-.031.25-.031.532 0 1.078.906 1.453h4.5v1.078h-6.344v-1.047l.735-.016q-.844-.53-.844-1.515 0-.313.078-.485h1Zm5.375-4.843q-.188.093-.672.156.797.75.797 1.797 0 .937-.531 1.547-.532.593-1.36.593-.984 0-1.53-.75-.548-.75-.548-2.125v-1.046h-.5q-.562 0-.89.343-.344.328-.344 1 0 .578.297.969.281.39.703.39v1.094q-.485 0-.922-.328-.438-.344-.688-.922-.265-.578-.265-1.265 0-1.11.547-1.719.547-.625 1.5-.656h2.922q.875 0 1.39-.219h.094v1.14Zm-.828 1.796q0-.515-.266-.968-.265-.453-.687-.656h-1.297v.843q0 2 1.172 2 .5 0 .797-.344.28-.343.28-.875Zm-2.39-4.625q-1.485 0-2.36-.687-.875-.688-.875-1.813 0-1.156.812-1.812l-.703-.047v-1h6.188q1.234 0 1.937.735.719.734.719 1.953 0 .687-.297 1.343-.297.657-.797 1l-.656-.562q.86-.688.86-1.703 0-.781-.454-1.219-.437-.453-1.25-.453h-.547q.766.656.766 1.781 0 1.11-.89 1.797-.907.688-2.454.688Zm.124-1.093q1.063 0 1.688-.438.61-.437.61-1.234 0-1.016-.938-1.5h-2.891q-.906.5-.906 1.5 0 .781.61 1.234.608.438 1.827.438Zm3.219-8.797q0 1.297-.844 2.11-.86.796-2.281.796h-.188q-.953 0-1.687-.36-.75-.359-1.156-1-.422-.656-.422-1.406 0-1.234.812-1.921.813-.688 2.328-.688h.454v4.297q.937-.031 1.515-.547.578-.531.578-1.344 0-.562-.234-.953-.234-.406-.625-.719l.516-.656q1.234.797 1.234 2.39Zm-5.688.14q0 .657.485 1.11.469.437 1.328.531v-3.172h-.078q-.828.047-1.281.453-.453.391-.453 1.079Zm1.797-11.39v3.594h3.766v1.125h-8.531v-5.297h.922v4.172h2.922v-3.594h.921Zm.422-3.406h3.344v1.125h-8.531v-3.157q0-1.39.718-2.187.704-.797 1.891-.797 1.235 0 1.906.781.672.766.672 2.219v2.016Zm-.922 0v-2.032q0-.906-.422-1.375-.421-.484-1.218-.484-.766 0-1.219.484-.469.47-.484 1.313v2.094h3.343Zm.47-9.391q-.423 1.438-1.032 2.11-.61.656-1.5.656-1 0-1.656-.797-.672-.813-.672-2.11 0-.875.343-1.562.344-.688.938-1.063.594-.39 1.313-.39v1.14q-.782 0-1.22.5-.437.485-.437 1.375 0 .829.375 1.297.36.469 1 .469.532 0 .89-.438.36-.453.657-1.515.297-1.063.656-1.656.36-.61.844-.891.485-.297 1.125-.297 1.047 0 1.672.813.625.812.625 2.156 0 .89-.344 1.656-.343.75-.922 1.172-.593.406-1.328.406v-1.125q.766 0 1.219-.578.453-.578.453-1.531 0-.89-.36-1.36-.374-.468-1-.468-.624 0-.968.437-.344.438-.672 1.594Zm.327-7.281q-1.312 0-2.531-.344-1.219-.36-2.219-1.063-1-.703-1.406-1.468l.719-.219q.656.86 2 1.406 1.343.547 3.015.594l.5.016q2.266 0 3.922-.829 1-.5 1.563-1.187l.656.219q-.422.781-1.453 1.5-1.984 1.375-4.766 1.375Zm3.469-5.219v1.078h-9v-1.078h9Zm-3.234-1.531q-.922 0-1.672-.36-.75-.375-1.14-1.03-.407-.657-.407-1.485 0-1.297.89-2.094.891-.813 2.391-.813h.078q.922 0 1.657.36.734.36 1.156 1.016.406.656.406 1.515 0 1.281-.89 2.094-.907.797-2.391.797h-.078Zm.14-1.094q1.047 0 1.688-.484.64-.5.64-1.313 0-.828-.64-1.312-.657-.485-1.828-.485-1.032 0-1.672.5-.657.485-.657 1.313 0 .797.641 1.297.625.484 1.828.484Zm-.125-5.938q-1.484 0-2.36-.687-.874-.688-.874-1.813 0-1.156.812-1.812l-.703-.047v-1h6.188q1.234 0 1.937.734.719.735.719 1.954 0 .687-.297 1.343-.297.657-.797 1l-.656-.562q.86-.688.86-1.703 0-.781-.454-1.219-.437-.453-1.25-.453h-.547q.766.656.766 1.781 0 1.11-.89 1.797-.907.688-2.454.688Zm.125-1.093q1.063 0 1.688-.438.61-.437.61-1.234 0-1.016-.938-1.5h-2.891q-.906.5-.906 1.5 0 .781.61 1.234.608.438 1.827.438Zm1.407-12.86q-.438 0-.672.344-.25.328-.422 1.156-.172.813-.422 1.297-.25.485-.578.719-.344.219-.813.219-.781 0-1.312-.656-.547-.657-.547-1.688 0-1.078.562-1.734.547-.672 1.407-.672v1.078q-.438 0-.75.39-.328.375-.328.938 0 .594.265.938.25.328.656.328.391 0 .594-.313.203-.312.39-1.125.173-.812.423-1.312t.609-.735q.36-.25.86-.25.859 0 1.374.688.516.672.516 1.75 0 .765-.266 1.36-.28.577-.765.905-.485.328-1.047.328v-1.078q.547-.03.875-.437.312-.406.312-1.078 0-.61-.25-.985t-.672-.375Zm.921-4.843q0-.578-.343-1.016-.36-.438-.891-.484v-1.032q.547.032 1.047.391.484.344.781.922.297.562.297 1.219 0 1.297-.86 2.062-.874.75-2.374.75h-.188q-.922 0-1.64-.328-.72-.344-1.11-.969-.406-.64-.406-1.515 0-1.063.64-1.766.625-.719 1.657-.766v1.032q-.625.047-1.016.468-.39.422-.39 1.032 0 .828.593 1.28.594.454 1.719.454h.203q1.094 0 1.688-.453.593-.453.593-1.281Zm.766-7.375q-.188.093-.672.156.797.75.797 1.797 0 .937-.531 1.547-.532.593-1.36.593-.984 0-1.53-.75-.548-.75-.548-2.125v-1.047h-.5q-.562 0-.89.344-.344.328-.344 1 0 .578.297.969.281.39.703.39v1.094q-.485 0-.922-.328-.438-.344-.688-.922-.265-.578-.265-1.265 0-1.11.547-1.719.547-.625 1.5-.656h2.922q.875 0 1.39-.219h.094v1.14Zm-.828 1.797q0-.516-.266-.97-.265-.452-.687-.655h-1.297v.843q0 2 1.172 2 .5 0 .797-.344.28-.343.28-.875Zm.828-6.063v1.078h-9v-1.078h9Zm.125-4.453q0 1.297-.844 2.11-.86.796-2.281.796h-.188q-.953 0-1.687-.36-.75-.359-1.156-1-.422-.655-.422-1.405 0-1.235.812-1.922.813-.688 2.328-.688h.454v4.297q.937-.031 1.515-.547.578-.531.578-1.344 0-.562-.234-.953-.234-.406-.625-.719l.516-.656q1.234.797 1.234 2.39Zm-5.688.14q0 .657.485 1.11.469.437 1.328.531v-3.172h-.078q-.828.047-1.281.453-.453.391-.453 1.078Zm2.157-6.015q1.312 0 2.515.344 1.188.343 2.203 1.062 1.016.703 1.438 1.469l-.656.234q-.688-.906-2.14-1.453-1.47-.547-3.235-.562h-.188q-1.234 0-2.297.265-1.062.25-1.89.719-.844.453-1.313 1.031l-.656-.234q.422-.766 1.422-1.469 1-.703 2.219-1.047 1.203-.36 2.578-.36ZM71.453 348.315l.438-4.25h4.375v1h-3.454l-.265 2.328q.64-.375 1.437-.375 1.157 0 1.844.782.688.765.688 2.078 0 1.312-.72 2.078-.702.766-1.984.766-1.124 0-1.843-.625-.719-.641-.813-1.75h1.016q.11.734.531 1.109.422.375 1.11.375.75 0 1.187-.516.438-.515.438-1.422 0-.859-.47-1.375-.468-.515-1.25-.515-.702 0-1.109.297l-.28.234-.876-.219Zm11.86.64q0 1.907-.657 2.845-.64.922-2.031.922-1.36 0-2.016-.907-.656-.906-.687-2.718v-1.438q0-1.89.64-2.797.657-.922 2.047-.922 1.375 0 2.032.89.656.876.671 2.72v1.406Zm-1.094-1.483q0-1.375-.39-2-.376-.641-1.22-.641-.828 0-1.218.64-.375.626-.375 1.922v1.735q0 1.375.39 2.047.406.656 1.219.656.797 0 1.188-.625.39-.625.406-1.953v-1.781ZM67.516 315.571h-1.079v-7.219l-2.187.797v-.984l3.11-1.172h.156v8.578Zm8.796-3.64q0 1.906-.656 2.843-.64.922-2.031.922-1.36 0-2.016-.906-.656-.906-.687-2.719v-1.437q0-1.891.64-2.797.657-.922 2.047-.922 1.375 0 2.032.89.656.875.671 2.72v1.405Zm-1.093-1.485q0-1.375-.39-2-.376-.64-1.22-.64-.828 0-1.218.64-.375.625-.375 1.922v1.734q0 1.375.39 2.047.406.656 1.219.656.797 0 1.188-.625.39-.625.406-1.953v-1.781Zm8.094 1.484q0 1.907-.657 2.844-.64.922-2.031.922-1.36 0-2.016-.906-.656-.906-.687-2.719v-1.437q0-1.891.64-2.797.657-.922 2.047-.922 1.375 0 2.032.89.656.875.671 2.72v1.405Zm-1.094-1.484q0-1.375-.39-2-.376-.64-1.22-.64-.828 0-1.218.64-.375.625-.375 1.922v1.734q0 1.375.39 2.047.406.656 1.219.656.797 0 1.188-.625.39-.625.406-1.953v-1.781ZM64.453 225.32l.438-4.25h4.375v1h-3.454l-.265 2.327q.64-.375 1.437-.375 1.157 0 1.844.782.688.765.688 2.078 0 1.312-.72 2.078-.702.766-1.984.766-1.124 0-1.843-.625-.719-.641-.813-1.75h1.016q.11.734.531 1.109.422.375 1.11.375.75 0 1.187-.516.438-.515.438-1.422 0-.859-.47-1.375-.468-.515-1.25-.515-.702 0-1.109.297l-.28.234-.876-.219Zm11.86.64q0 1.906-.657 2.844-.64.922-2.031.922-1.36 0-2.016-.907-.656-.906-.687-2.718v-1.438q0-1.89.64-2.797.657-.922 2.047-.922 1.375 0 2.032.89.656.876.671 2.72v1.406Zm-1.094-1.484q0-1.375-.39-2-.376-.641-1.22-.641-.828 0-1.218.64-.375.626-.375 1.922v1.735q0 1.375.39 2.047.406.656 1.219.656.797 0 1.188-.625.39-.625.406-1.953v-1.781Zm8.094 1.484q0 1.906-.657 2.844-.64.922-2.031.922-1.36 0-2.016-.907-.656-.906-.687-2.718v-1.438q0-1.89.64-2.797.657-.922 2.047-.922 1.375 0 2.032.89.656.876.671 2.72v1.406Zm-1.094-1.484q0-1.375-.39-2-.376-.641-1.22-.641-.828 0-1.218.64-.375.626-.375 1.922v1.735q0 1.375.39 2.047.406.656 1.219.656.797 0 1.188-.625.39-.625.406-1.953v-1.781ZM60.516 192.575h-1.078v-7.219l-2.188.797v-.984l3.11-1.172h.156v8.578Zm8.797-3.64q0 1.906-.657 2.843-.64.922-2.031.922-1.36 0-2.016-.906-.656-.906-.687-2.719v-1.437q0-1.891.64-2.797.657-.922 2.047-.922 1.375 0 2.032.89.656.875.671 2.72v1.405Zm-1.094-1.485q0-1.375-.39-2-.376-.64-1.22-.64-.828 0-1.218.64-.375.625-.375 1.922v1.734q0 1.375.39 2.047.406.656 1.219.656.797 0 1.188-.625.39-.625.406-1.953v-1.781Zm8.094 1.484q0 1.907-.657 2.844-.64.922-2.031.922-1.36 0-2.016-.906-.656-.906-.687-2.719v-1.437q0-1.891.64-2.797.657-.922 2.047-.922 1.375 0 2.032.89.656.875.671 2.72v1.405Zm-1.094-1.484q0-1.375-.39-2-.376-.64-1.22-.64-.828 0-1.218.64-.375.625-.375 1.922v1.734q0 1.375.39 2.047.406.656 1.219.656.797 0 1.188-.625.39-.625.406-1.953v-1.781Zm8.094 1.484q0 1.907-.657 2.844-.64.922-2.031.922-1.36 0-2.016-.906-.656-.906-.687-2.719v-1.437q0-1.891.64-2.797.657-.922 2.047-.922 1.375 0 2.032.89.656.875.671 2.72v1.405Zm-1.094-1.484q0-1.375-.39-2-.376-.64-1.22-.64-.828 0-1.218.64-.375.625-.375 1.922v1.734q0 1.375.39 2.047.406.656 1.219.656.797 0 1.188-.625.39-.625.406-1.953v-1.781ZM165.563 405.75h-4.657v-.656l2.453-2.735q.547-.609.75-1 .22-.39.22-.812 0-.547-.345-.906-.328-.36-.89-.36-.672 0-1.047.39-.375.376-.375 1.063h-.906q0-.984.625-1.578.64-.61 1.703-.61.984 0 1.562.517.578.515.578 1.39 0 1.047-1.343 2.5L162 405.016h3.563v.734Zm2.828-5.906-.922 2.344h-.844l1.453-3.547h.625l1.453 3.546h-.828l-.937-2.343Zm5.484 5.906h-.906v-6.016l-1.828.657v-.813l2.593-.969h.141v7.141Zm6.844-2.39h.984v.734h-.984v1.656h-.906v-1.656h-3.235v-.531l3.172-4.922h.969v4.718Zm-3.125 0h2.219v-3.485l-.11.203-2.11 3.281ZM327.688 405.75h-4.657v-.656l2.453-2.735q.547-.609.75-1 .22-.39.22-.812 0-.547-.345-.906-.328-.36-.89-.36-.672 0-1.047.39-.375.376-.375 1.063h-.906q0-.984.625-1.578.64-.61 1.703-.61.984 0 1.562.517.578.515.578 1.39 0 1.047-1.343 2.5l-1.891 2.063h3.563v.734Zm2.828-5.906-.922 2.344h-.844l1.453-3.547h.625l1.453 3.546h-.828l-.937-2.343ZM336 405.75h-.906v-6.016l-1.828.657v-.813l2.593-.969H336v7.141Zm6.578-7.11v.766h-.172q-1.047.016-1.672.625-.625.594-.734 1.703.563-.64 1.531-.64.938 0 1.485.656.562.64.562 1.688 0 1.093-.61 1.75-.593.656-1.593.656-1.016 0-1.656-.781-.64-.782-.64-2.016v-.344q0-1.969.827-3 .844-1.047 2.5-1.062h.172Zm-1.187 3.204q-.47 0-.86.281-.39.266-.547.688v.328q0 .89.391 1.421.406.532 1 .532.61 0 .953-.438.36-.453.36-1.187 0-.735-.36-1.172-.36-.453-.937-.453ZM489.813 405.75h-4.657v-.656l2.453-2.735q.547-.609.75-1 .22-.39.22-.812 0-.547-.345-.906-.328-.36-.89-.36-.672 0-1.047.39-.375.376-.375 1.063h-.906q0-.984.625-1.578.64-.61 1.703-.61.984 0 1.562.517.578.515.578 1.39 0 1.047-1.343 2.5l-1.891 2.063h3.563v.734Zm2.828-5.906-.922 2.344h-.844l1.453-3.547h.625l1.453 3.546h-.828l-.937-2.343Zm5.484 5.906h-.906v-6.016l-1.828.657v-.813l2.593-.969h.141v7.141Zm7.344-5.25q0 .531-.281.953-.282.406-.766.64.562.235.875.704.328.453.328 1.031 0 .922-.625 1.469-.61.547-1.625.547-1.031 0-1.656-.547-.61-.547-.61-1.469 0-.578.313-1.031.312-.469.875-.703-.469-.235-.75-.656-.266-.422-.266-.938 0-.906.563-1.422.578-.531 1.531-.531.938 0 1.516.531.578.516.578 1.422Zm-.735 3.313q0-.594-.39-.97-.375-.374-.985-.374-.609 0-.984.375-.36.36-.36.969t.36.953q.36.343 1 .343.625 0 .984-.343.375-.36.375-.954Zm-1.359-4.532q-.531 0-.875.328-.328.329-.328.907 0 .53.328.875.328.328.86.328.546 0 .874-.328.329-.344.329-.875 0-.547-.344-.891-.328-.344-.844-.344ZM651.938 405.75h-4.657v-.656l2.453-2.735q.547-.609.75-1 .22-.39.22-.812 0-.547-.345-.906-.328-.36-.89-.36-.672 0-1.047.39-.375.376-.375 1.063h-.906q0-.984.625-1.578.64-.61 1.703-.61.984 0 1.562.517.578.515.578 1.39 0 1.047-1.343 2.5l-1.891 2.063h3.563v.734Zm2.828-5.906-.922 2.344H653l1.453-3.547h.625l1.453 3.546h-.828l-.937-2.343Zm7.172 5.906h-4.657v-.656l2.453-2.735q.547-.609.75-1 .22-.39.22-.812 0-.547-.345-.906-.328-.36-.89-.36-.672 0-1.047.39-.375.376-.375 1.063h-.906q0-.984.625-1.578.64-.61 1.703-.61.984 0 1.562.517.578.515.578 1.39 0 1.047-1.343 2.5l-1.891 2.063h3.563v.734Zm5.796-3.031q0 1.578-.547 2.36-.53.765-1.687.765-1.14 0-1.688-.75-.546-.75-.562-2.25v-1.203q0-1.579.531-2.329.547-.765 1.703-.765 1.157 0 1.688.734.547.735.562 2.266v1.172Zm-.906-1.235q0-1.156-.328-1.671-.313-.532-1.016-.532-.687 0-1.015.531-.313.516-.313 1.594v1.453q0 1.157.328 1.704.344.546 1.016.546t.984-.515q.328-.516.344-1.625v-1.485Z"/><path fill="#ea4335" d="M173.5 94.75a6 6 0 1 1-12 0 6 6 0 0 1 12 0Z"/><path fill="#1a1a1a" d="M189.047 99.25h-1.125l-4.297-6.578v6.578h-1.14v-8.531h1.14l4.297 6.61v-6.61h1.125v8.531Zm1.984-3.234q0-.922.36-1.672.375-.75 1.03-1.14.657-.407 1.485-.407 1.297 0 2.094.89.813.891.813 2.391v.078q0 .922-.36 1.656-.36.735-1.016 1.157-.656.406-1.515.406-1.281 0-2.094-.89-.797-.907-.797-2.391v-.078Zm1.094.14q0 1.047.484 1.688.5.64 1.313.64.828 0 1.312-.64.485-.656.485-1.828 0-1.032-.5-1.672-.485-.656-1.313-.656-.797 0-1.297.64-.484.625-.484 1.828Zm15.64.39q-.156 1.345-1 2.095-.843.734-2.234.734-1.515 0-2.422-1.078-.906-1.094-.906-2.922v-.813q0-1.187.422-2.093.422-.906 1.203-1.39.781-.485 1.797-.485 1.36 0 2.172.765.828.766.969 2.094h-1.125q-.157-1.016-.641-1.469-.484-.453-1.375-.453-1.078 0-1.688.797-.609.797-.609 2.266v.828q0 1.39.578 2.219.578.812 1.625.812.938 0 1.438-.422.5-.437.672-1.484h1.125Zm5.47 2.079q-.626.75-1.86.75-1.016 0-1.547-.594-.531-.594-.531-1.75v-4.125h1.078V97q0 1.453 1.172 1.453 1.25 0 1.656-.937v-4.61h1.094v6.344h-1.031l-.032-.625Zm4.265.625h-1.078v-9h1.078v9Zm3 0h-1.078v-9h1.078v9Zm3 0h-1.078v-6.344h1.078v6.344Zm-1.172-8.016q0-.265.156-.453.172-.187.485-.187.312 0 .469.187.171.188.171.453 0 .25-.172.438-.156.172-.468.172-.313 0-.485-.172-.156-.188-.156-.438Zm4.016 1.672.031.797q.734-.906 1.906-.906 2.016 0 2.031 2.266v4.187h-1.093v-4.203q0-.672-.313-1-.297-.328-.953-.328-.531 0-.937.281-.391.281-.61.734v4.516h-1.078v-6.344h1.016Zm5.719 3.125q0-1.484.687-2.36.688-.874 1.813-.874 1.156 0 1.812.812l.047-.703h1v6.188q0 1.234-.734 1.937-.735.719-1.954.719-.687 0-1.343-.297-.657-.297-1-.797l.562-.656q.688.86 1.703.86.781 0 1.219-.454.453-.437.453-1.25v-.547q-.656.766-1.781.766-1.11 0-1.797-.89-.688-.907-.688-2.454Zm1.093.125q0 1.063.438 1.688.437.61 1.234.61 1.016 0 1.5-.938v-2.891q-.5-.906-1.5-.906-.781 0-1.234.61-.438.609-.438 1.827Z"/><path fill="#fbbc04" d="M266.5 94.75a6 6 0 1 1-12 0 6 6 0 0 1 12 0Z"/><path fill="#1a1a1a" d="M282.047 95.266q0 1.25-.422 2.187-.422.922-1.203 1.422-.766.5-1.797.5-1 0-1.781-.5-.781-.5-1.219-1.406-.422-.922-.438-2.14v-.61q0-1.235.422-2.172.438-.938 1.22-1.438.78-.515 1.796-.515t1.797.5q.781.5 1.203 1.437.422.938.422 2.188v.547Zm-1.11-.563q0-1.516-.609-2.328-.61-.813-1.703-.813-1.078 0-1.688.813-.609.813-.625 2.25v.64q0 1.47.61 2.313.625.828 1.703.828 1.094 0 1.688-.781.609-.797.625-2.281v-.64Zm5.454-.828q-.25-.031-.532-.031-1.078 0-1.453.906v4.5h-1.078v-6.344h1.047l.016.735q.53-.844 1.515-.844.313 0 .485.078v1Zm2.109 5.375h-1.078v-6.344h1.078v6.344Zm-1.172-8.016q0-.265.156-.453.172-.187.485-.187.312 0 .469.187.171.188.171.453 0 .25-.171.438-.157.172-.47.172-.312 0-.484-.172-.156-.188-.156-.438Zm5.625 8.141q-1.297 0-2.11-.844-.796-.86-.796-2.281v-.188q0-.953.36-1.687.359-.75 1-1.156.656-.422 1.406-.422 1.234 0 1.921.812.688.813.688 2.329v.453h-4.297q.031.937.547 1.515.531.578 1.344.578.562 0 .953-.234.406-.234.719-.625l.656.516q-.797 1.234-2.39 1.234Zm-.14-5.688q-.657 0-1.11.485-.437.469-.531 1.328h3.172v-.078q-.047-.828-.453-1.281-.391-.454-1.079-.454Zm4.53-.78.032.796q.734-.906 1.906-.906 2.016 0 2.031 2.266v4.187h-1.093v-4.203q0-.672-.313-1-.297-.328-.953-.328-.531 0-.937.281-.391.281-.61.734v4.516h-1.078v-6.344h1.016Zm7.454-1.532v1.531h1.172v.844h-1.172v3.922q0 .39.156.578.156.188.531.188.188 0 .516-.063v.875q-.422.125-.828.125-.719 0-1.094-.438-.375-.453-.375-1.265V93.75h-1.156v-.844h1.156v-1.531h1.094Zm6.437 7.875q-.093-.188-.156-.672-.75.797-1.797.797-.937 0-1.547-.531-.593-.531-.593-1.36 0-.984.75-1.53.75-.548 2.125-.548h1.046v-.5q0-.562-.343-.89-.328-.344-1-.344-.578 0-.969.297-.39.281-.39.703h-1.094q0-.484.328-.922.344-.438.922-.688.578-.265 1.265-.265 1.11 0 1.719.547.625.547.656 1.5v2.922q0 .875.219 1.39v.094h-1.14Zm-1.796-.828q.515 0 .968-.266.453-.265.656-.687v-1.297h-.843q-2 0-2 1.172 0 .5.344.797.343.28.875.28Zm6.359-7.047v1.531h1.172v.844h-1.172v3.922q0 .39.156.578.156.188.531.188.188 0 .516-.063v.875q-.422.125-.828.125-.719 0-1.094-.438-.375-.453-.375-1.265V93.75h-1.156v-.844h1.156v-1.531h1.094Zm3.703 7.875h-1.078v-6.344h1.078v6.344Zm-1.172-8.016q0-.265.156-.453.172-.187.485-.187.312 0 .469.187.171.188.171.453 0 .25-.171.438-.157.172-.47.172-.312 0-.484-.172-.156-.188-.156-.438Zm2.703 4.782q0-.922.36-1.672.375-.75 1.03-1.14.657-.407 1.485-.407 1.297 0 2.094.89.813.891.813 2.391v.078q0 .922-.36 1.656-.36.735-1.015 1.157-.657.406-1.516.406-1.281 0-2.094-.89-.797-.907-.797-2.391v-.078Zm1.094.14q0 1.047.484 1.688.5.64 1.313.64.828 0 1.312-.64.485-.656.485-1.828 0-1.032-.5-1.672-.485-.656-1.313-.656-.797 0-1.297.64-.484.625-.484 1.828Zm7.219-3.25.031.797q.734-.906 1.906-.906 2.016 0 2.031 2.266v4.187h-1.093v-4.203q0-.672-.313-1-.297-.328-.953-.328-.531 0-.937.281-.391.281-.61.734v4.516h-1.078v-6.344h1.016Zm15.422 3.64q-.157 1.345-1 2.095-.844.734-2.235.734-1.515 0-2.422-1.078-.906-1.094-.906-2.922v-.813q0-1.187.422-2.093.422-.906 1.203-1.39.781-.485 1.797-.485 1.36 0 2.172.765.828.766.969 2.094h-1.125q-.157-1.016-.641-1.469-.484-.453-1.375-.453-1.078 0-1.688.797-.609.797-.609 2.266v.828q0 1.39.578 2.219.578.812 1.625.812.938 0 1.438-.422.5-.437.672-1.484h1.125Zm5.468 2.079q-.625.75-1.859.75-1.016 0-1.547-.594-.531-.594-.531-1.75v-4.125h1.078V97q0 1.453 1.172 1.453 1.25 0 1.656-.937v-4.61h1.094v6.344h-1.031l-.032-.625Zm4.266.625h-1.078v-9h1.078v9Zm3 0h-1.078v-9h1.078v9Zm3 0h-1.078v-6.344h1.078v6.344Zm-1.172-8.016q0-.265.156-.453.172-.187.485-.187.312 0 .469.187.171.188.171.453 0 .25-.171.438-.157.172-.47.172-.312 0-.484-.172-.156-.188-.156-.438Zm4.016 1.672.031.797q.734-.906 1.906-.906 2.016 0 2.031 2.266v4.187h-1.093v-4.203q0-.672-.313-1-.297-.328-.953-.328-.531 0-.937.281-.391.281-.61.734v4.516h-1.078v-6.344h1.016Zm5.719 3.125q0-1.484.687-2.36.688-.874 1.813-.874 1.156 0 1.812.812l.047-.703h1v6.188q0 1.234-.735 1.937-.734.719-1.953.719-.687 0-1.343-.297-.657-.297-1-.797l.562-.656q.688.86 1.703.86.781 0 1.219-.454.453-.437.453-1.25v-.547q-.656.766-1.781.766-1.11 0-1.797-.89-.688-.907-.688-2.454Zm1.093.125q0 1.063.438 1.688.437.61 1.234.61 1.016 0 1.5-.938v-2.891q-.5-.906-1.5-.906-.781 0-1.234.61-.438.609-.438 1.827Z"/><path fill="#4285f4" d="M403.5 94.75a6 6 0 1 1-12 0 6 6 0 0 1 12 0Z"/><path fill="#1a1a1a" d="M419.047 95.266q0 1.25-.422 2.187-.422.922-1.203 1.422-.766.5-1.797.5-1 0-1.781-.5-.781-.5-1.219-1.406-.422-.922-.438-2.14v-.61q0-1.235.422-2.172.438-.938 1.22-1.438.78-.515 1.796-.515t1.797.5q.781.5 1.203 1.437.422.938.422 2.188v.547Zm-1.11-.563q0-1.516-.609-2.328-.61-.813-1.703-.813-1.078 0-1.688.813-.609.813-.625 2.25v.64q0 1.47.61 2.313.625.828 1.703.828 1.094 0 1.688-.781.609-.797.625-2.281v-.64Zm5.454-.828q-.25-.031-.532-.031-1.078 0-1.453.906v4.5h-1.078v-6.344h1.047l.016.735q.53-.844 1.515-.844.313 0 .485.078v1Zm2.109 5.375h-1.078v-6.344h1.078v6.344Zm-1.172-8.016q0-.265.156-.453.172-.187.485-.187.312 0 .469.187.171.188.171.453 0 .25-.171.438-.157.172-.47.172-.312 0-.484-.172-.156-.188-.156-.438Zm5.625 8.141q-1.297 0-2.11-.844-.796-.86-.796-2.281v-.188q0-.953.36-1.687.359-.75 1-1.156.656-.422 1.406-.422 1.234 0 1.921.812.688.813.688 2.329v.453h-4.297q.031.937.547 1.515.531.578 1.344.578.562 0 .953-.234.406-.234.719-.625l.656.516q-.797 1.234-2.39 1.234Zm-.14-5.688q-.657 0-1.11.485-.437.469-.531 1.328h3.172v-.078q-.047-.828-.453-1.281-.391-.454-1.079-.454Zm4.53-.78.032.796q.734-.906 1.906-.906 2.016 0 2.031 2.266v4.187h-1.093v-4.203q0-.672-.313-1-.297-.328-.953-.328-.531 0-.937.281-.391.281-.61.734v4.516h-1.078v-6.344h1.016Zm7.454-1.532v1.531h1.172v.844h-1.172v3.922q0 .39.156.578.156.188.531.188.188 0 .516-.063v.875q-.422.125-.828.125-.719 0-1.094-.438-.375-.453-.375-1.265V93.75h-1.156v-.844h1.156v-1.531h1.094Zm6.437 7.875q-.093-.188-.156-.672-.75.797-1.797.797-.937 0-1.547-.531-.593-.531-.593-1.36 0-.984.75-1.53.75-.548 2.125-.548h1.046v-.5q0-.562-.343-.89-.328-.344-1-.344-.578 0-.969.297-.39.281-.39.703h-1.094q0-.484.328-.922.344-.438.922-.688.578-.265 1.265-.265 1.11 0 1.719.547.625.547.656 1.5v2.922q0 .875.219 1.39v.094h-1.14Zm-1.796-.828q.515 0 .968-.266.453-.265.656-.687v-1.297h-.843q-2 0-2 1.172 0 .5.344.797.343.28.875.28Zm6.359-7.047v1.531h1.172v.844h-1.172v3.922q0 .39.156.578.156.188.531.188.188 0 .516-.063v.875q-.422.125-.828.125-.719 0-1.094-.438-.375-.453-.375-1.265V93.75h-1.156v-.844h1.156v-1.531h1.094Zm3.703 7.875h-1.078v-6.344h1.078v6.344Zm-1.172-8.016q0-.265.156-.453.172-.187.485-.187.312 0 .469.187.171.188.171.453 0 .25-.171.438-.157.172-.47.172-.312 0-.484-.172-.156-.188-.156-.438Zm2.703 4.782q0-.922.36-1.672.375-.75 1.03-1.14.657-.407 1.485-.407 1.297 0 2.094.89.813.891.813 2.391v.078q0 .922-.36 1.656-.36.735-1.015 1.157-.657.406-1.516.406-1.281 0-2.094-.89-.797-.907-.797-2.391v-.078Zm1.094.14q0 1.047.484 1.688.5.64 1.313.64.828 0 1.312-.64.485-.656.485-1.828 0-1.032-.5-1.672-.485-.656-1.313-.656-.797 0-1.297.64-.484.625-.484 1.828Zm7.219-3.25.031.797q.734-.906 1.906-.906 2.016 0 2.031 2.266v4.187h-1.093v-4.203q0-.672-.313-1-.297-.328-.953-.328-.531 0-.937.281-.391.281-.61.734v4.516h-1.078v-6.344h1.016Zm12.078 1.766h2.39v1.031h-2.39v2.688h-1.078v-2.688h-2.39v-1.031h2.39v-2.484h1.078v2.484Zm9.89 3.078 2.438-7.031h1.234l-3.171 8.531h-.985l-3.156-8.531h1.219l2.421 7.031Zm6.188 1.5h-1.078v-6.344h1.078v6.344Zm-1.172-8.016q0-.265.156-.453.172-.187.485-.187.312 0 .469.187.171.188.171.453 0 .25-.171.438-.157.172-.47.172-.312 0-.484-.172-.156-.188-.156-.438Zm5.625 8.141q-1.297 0-2.11-.844-.796-.86-.796-2.281v-.188q0-.953.36-1.687.359-.75 1-1.156.656-.422 1.406-.422 1.234 0 1.921.812.688.813.688 2.329v.453h-4.297q.031.937.547 1.515.531.578 1.344.578.562 0 .953-.234.406-.234.719-.625l.656.516q-.797 1.234-2.39 1.234Zm-.14-5.688q-.657 0-1.11.485-.437.469-.531 1.328h3.172v-.078q-.047-.828-.453-1.281-.391-.454-1.079-.454Zm9.125 4.063 1.218-4.844h1.078l-1.843 6.344h-.875l-1.547-4.813-1.5 4.813h-.875l-1.844-6.344h1.078l1.25 4.75 1.485-4.75h.859l1.515 4.844Zm5.64-1.688h-2.86v-.874h2.86v.874Zm5.625-.578h-3.594v3.766h-1.125v-8.531h5.297v.922h-4.172v2.921h3.594v.922Zm5.188-1.609q-.25-.031-.532-.031-1.078 0-1.453.906v4.5h-1.078v-6.344h1.047l.016.735q.53-.844 1.515-.844.313 0 .485.078v1Zm4.843 4.75q-.625.75-1.859.75-1.016 0-1.547-.594-.531-.594-.531-1.75v-4.125h1.078V97q0 1.453 1.172 1.453 1.25 0 1.656-.937v-4.61h1.094v6.344h-1.031l-.032-.625Zm6.782-1.063q0-.437-.344-.671-.328-.25-1.156-.422-.813-.172-1.297-.422-.485-.25-.719-.578-.219-.344-.219-.813 0-.781.657-1.312.656-.547 1.687-.547 1.078 0 1.734.562.672.547.672 1.407h-1.078q0-.438-.39-.75-.375-.329-.938-.329-.594 0-.938.266-.328.25-.328.656 0 .391.313.594.312.203 1.125.39.812.173 1.312.423t.735.609q.25.36.25.86 0 .859-.688 1.374-.672.516-1.75.516-.765 0-1.36-.266-.577-.28-.905-.765-.328-.485-.328-1.047h1.078q.03.547.437.875.406.312 1.078.312.61 0 .985-.25t.375-.671Zm3.78-6.187v1.531h1.173v.844h-1.172v3.922q0 .39.156.578.156.188.531.188.188 0 .516-.063v.875q-.422.125-.828.125-.719 0-1.094-.438-.375-.453-.375-1.265V93.75h-1.156v-.844h1.156v-1.531h1.094Zm6.438 7.25q-.625.75-1.859.75-1.016 0-1.547-.594-.531-.594-.531-1.75v-4.125h1.078V97q0 1.453 1.172 1.453 1.25 0 1.656-.937v-4.61h1.094v6.344h-1.031l-.032-.625Zm4.11-5.719.031.703q.688-.812 1.875-.812 1.328 0 1.813 1.016.312-.454.812-.735.516-.281 1.203-.281 2.094 0 2.125 2.203v4.25h-1.078v-4.188q0-.671-.313-1-.312-.343-1.046-.343-.61 0-1.016.36-.39.359-.453.968v4.203h-1.078v-4.156q0-1.375-1.36-1.375-1.062 0-1.453.906v4.625h-1.093v-6.344h1.03Zm19.422 3.64q-.157 1.345-1 2.095-.844.734-2.235.734-1.515 0-2.422-1.078-.906-1.094-.906-2.922v-.813q0-1.187.422-2.093.422-.906 1.203-1.39.781-.485 1.797-.485 1.36 0 2.172.765.828.766.969 2.094h-1.125q-.157-1.016-.641-1.469-.484-.453-1.375-.453-1.078 0-1.688.797-.609.797-.609 2.266v.828q0 1.39.578 2.219.578.812 1.625.812.938 0 1.438-.422.5-.437.672-1.484h1.125Zm5.468 2.079q-.625.75-1.859.75-1.016 0-1.547-.594-.531-.594-.531-1.75v-4.125h1.078V97q0 1.453 1.172 1.453 1.25 0 1.656-.937v-4.61h1.094v6.344h-1.031l-.032-.625Zm4.266.625h-1.078v-9h1.078v9Zm3 0h-1.078v-9h1.078v9Zm3 0h-1.078v-6.344h1.078v6.344Zm-1.172-8.016q0-.265.156-.453.172-.187.485-.187.312 0 .468.187.172.188.172.453 0 .25-.172.438-.156.172-.468.172-.313 0-.485-.172-.156-.188-.156-.438Zm4.016 1.672.031.797q.734-.906 1.906-.906 2.016 0 2.032 2.266v4.187h-1.094v-4.203q0-.672-.313-1-.297-.328-.953-.328-.531 0-.937.281-.391.281-.61.734v4.516h-1.078v-6.344h1.016Zm5.718 3.125q0-1.484.688-2.36.688-.874 1.813-.874 1.156 0 1.812.812l.047-.703h1v6.188q0 1.234-.735 1.937-.734.719-1.953.719-.687 0-1.343-.297-.657-.297-1-.797l.562-.656q.688.86 1.703.86.782 0 1.219-.454.453-.437.453-1.25v-.547q-.656.766-1.781.766-1.11 0-1.797-.89-.688-.907-.688-2.454Zm1.094.125q0 1.063.438 1.688.437.61 1.234.61 1.016 0 1.5-.938v-2.891q-.5-.906-1.5-.906-.781 0-1.234.61-.438.609-.438 1.827Z"/><path fill="#34a853" d="M258.5 113.75a6 6 0 1 1-12 0 6 6 0 0 1 12 0Z"/><path fill="#1a1a1a" d="M274.047 114.266q0 1.25-.422 2.187-.422.922-1.203 1.422-.766.5-1.797.5-1 0-1.781-.5-.781-.5-1.219-1.406-.422-.922-.438-2.14v-.61q0-1.235.422-2.172.438-.938 1.22-1.438.78-.515 1.796-.515t1.797.5q.781.5 1.203 1.437.422.938.422 2.188v.547Zm-1.11-.563q0-1.516-.609-2.328-.61-.813-1.703-.813-1.078 0-1.688.813-.609.813-.625 2.25v.64q0 1.47.61 2.313.625.828 1.703.828 1.094 0 1.688-.781.609-.797.625-2.281v-.64Zm5.454-.828q-.25-.031-.532-.031-1.078 0-1.453.906v4.5h-1.078v-6.344h1.047l.016.735q.53-.844 1.515-.844.313 0 .485.078v1Zm2.109 5.375h-1.078v-6.344h1.078v6.344Zm-1.172-8.016q0-.265.156-.453.172-.187.485-.187.312 0 .469.187.171.188.171.453 0 .25-.171.438-.157.172-.47.172-.312 0-.484-.172-.156-.188-.156-.438Zm5.625 8.141q-1.297 0-2.11-.844-.796-.86-.796-2.281v-.188q0-.953.36-1.687.359-.75 1-1.156.656-.422 1.406-.422 1.234 0 1.921.812.688.813.688 2.329v.453h-4.297q.031.937.547 1.515.531.578 1.344.578.562 0 .953-.234.406-.234.719-.625l.656.516q-.797 1.234-2.39 1.234Zm-.14-5.688q-.657 0-1.11.485-.437.469-.531 1.328h3.172v-.078q-.047-.828-.453-1.281-.391-.454-1.079-.454Zm4.53-.78.032.796q.734-.906 1.906-.906 2.016 0 2.031 2.266v4.187h-1.093v-4.203q0-.672-.313-1-.297-.328-.953-.328-.531 0-.937.281-.391.281-.61.734v4.516h-1.078v-6.344h1.016Zm7.454-1.532v1.531h1.172v.844h-1.172v3.922q0 .39.156.578.156.188.531.188.188 0 .516-.063v.875q-.422.125-.828.125-.719 0-1.094-.438-.375-.453-.375-1.265v-3.922h-1.156v-.844h1.156v-1.531h1.094Zm6.437 7.875q-.093-.188-.156-.672-.75.797-1.797.797-.937 0-1.547-.531-.593-.531-.593-1.36 0-.984.75-1.53.75-.548 2.125-.548h1.046v-.5q0-.562-.343-.89-.328-.344-1-.344-.578 0-.969.297-.39.281-.39.703h-1.094q0-.484.328-.922.344-.438.922-.688.578-.265 1.265-.265 1.11 0 1.719.547.625.547.656 1.5v2.922q0 .875.219 1.39v.094h-1.14Zm-1.796-.828q.515 0 .968-.266.453-.265.656-.687v-1.297h-.843q-2 0-2 1.172 0 .5.344.797.343.28.875.28Zm6.359-7.047v1.531h1.172v.844h-1.172v3.922q0 .39.156.578.156.188.531.188.188 0 .516-.063v.875q-.422.125-.828.125-.719 0-1.094-.438-.375-.453-.375-1.265v-3.922h-1.156v-.844h1.156v-1.531h1.094Zm3.703 7.875h-1.078v-6.344h1.078v6.344Zm-1.172-8.016q0-.265.156-.453.172-.187.485-.187.312 0 .469.187.171.188.171.453 0 .25-.171.438-.157.172-.47.172-.312 0-.484-.172-.156-.188-.156-.438Zm2.703 4.782q0-.922.36-1.672.375-.75 1.03-1.14.657-.407 1.485-.407 1.297 0 2.094.89.813.891.813 2.391v.078q0 .922-.36 1.656-.36.735-1.015 1.157-.657.406-1.516.406-1.281 0-2.094-.89-.797-.907-.797-2.391v-.078Zm1.094.14q0 1.047.484 1.688.5.64 1.313.64.828 0 1.312-.64.485-.656.485-1.828 0-1.032-.5-1.672-.485-.656-1.313-.656-.797 0-1.297.64-.484.625-.484 1.828Zm7.219-3.25.031.797q.734-.906 1.906-.906 2.016 0 2.031 2.266v4.187h-1.093v-4.203q0-.672-.313-1-.297-.328-.953-.328-.531 0-.937.281-.391.281-.61.734v4.516h-1.078v-6.344h1.016Zm12.078 1.766h2.39v1.031h-2.39v2.688h-1.078v-2.688h-2.39v-1.031h2.39v-2.484h1.078v2.484Zm9.89 3.078 2.438-7.031h1.234l-3.171 8.531h-.985l-3.156-8.531h1.219l2.421 7.031Zm6.188 1.5h-1.078v-6.344h1.078v6.344Zm-1.172-8.016q0-.265.156-.453.172-.187.485-.187.312 0 .469.187.171.188.171.453 0 .25-.171.438-.157.172-.47.172-.312 0-.484-.172-.156-.188-.156-.438Zm5.625 8.141q-1.297 0-2.11-.844-.796-.86-.796-2.281v-.188q0-.953.36-1.687.359-.75 1-1.156.656-.422 1.406-.422 1.234 0 1.921.812.688.813.688 2.329v.453h-4.297q.031.937.547 1.515.531.578 1.344.578.562 0 .953-.234.406-.234.719-.625l.656.516q-.797 1.234-2.39 1.234Zm-.14-5.688q-.657 0-1.11.485-.437.469-.531 1.328h3.172v-.078q-.047-.828-.453-1.281-.391-.454-1.079-.454Zm9.125 4.063 1.218-4.844h1.078l-1.843 6.344h-.875l-1.547-4.813-1.5 4.813h-.875l-1.844-6.344h1.078l1.25 4.75 1.485-4.75h.859l1.515 4.844Zm5.64-1.688h-2.86v-.874h2.86v.874Zm5.625-.578h-3.594v3.766h-1.125v-8.531h5.297v.922h-4.172v2.921h3.594v.922Zm5.188-1.609q-.25-.031-.532-.031-1.078 0-1.453.906v4.5h-1.078v-6.344h1.047l.016.735q.53-.844 1.515-.844.313 0 .485.078v1Zm4.843 4.75q-.625.75-1.859.75-1.016 0-1.547-.594-.531-.594-.531-1.75v-4.125h1.078V116q0 1.453 1.172 1.453 1.25 0 1.656-.937v-4.61h1.094v6.344h-1.031l-.032-.625Zm6.782-1.063q0-.437-.344-.671-.328-.25-1.156-.422-.813-.172-1.297-.422-.485-.25-.719-.578-.219-.344-.219-.813 0-.781.656-1.312.657-.547 1.688-.547 1.078 0 1.734.562.672.547.672 1.407h-1.078q0-.438-.39-.75-.375-.329-.938-.329-.594 0-.938.266-.328.25-.328.656 0 .391.313.594.312.203 1.125.39.812.173 1.312.423t.735.609q.25.36.25.86 0 .859-.688 1.374-.672.516-1.75.516-.765 0-1.36-.266-.577-.28-.905-.765-.329-.485-.329-1.047h1.079q.03.547.437.875.406.312 1.078.312.61 0 .985-.25t.375-.671Zm3.78-6.187v1.531h1.173v.844h-1.172v3.922q0 .39.156.578.156.188.531.188.188 0 .516-.063v.875q-.422.125-.828.125-.719 0-1.094-.438-.375-.453-.375-1.265v-3.922h-1.156v-.844h1.156v-1.531h1.094Zm6.438 7.25q-.625.75-1.859.75-1.016 0-1.547-.594-.531-.594-.531-1.75v-4.125h1.078V116q0 1.453 1.172 1.453 1.25 0 1.656-.937v-4.61h1.094v6.344h-1.031l-.032-.625Zm4.11-5.719.031.703q.688-.812 1.875-.812 1.328 0 1.813 1.016.312-.454.812-.735.516-.281 1.203-.281 2.094 0 2.125 2.203v4.25h-1.078v-4.188q0-.671-.313-1-.312-.343-1.046-.343-.61 0-1.016.36-.39.359-.453.968v4.203h-1.078v-4.156q0-1.375-1.36-1.375-1.062 0-1.453.906v4.625h-1.094v-6.344h1.032Zm16.078 1.766h2.39v1.031h-2.39v2.688h-1.078v-2.688h-2.39v-1.031h2.39v-2.484h1.078v2.484Zm7.062 4.578v-8.531h2.422q1.11 0 1.953.5.86.484 1.329 1.39.468.907.468 2.094v.531q0 1.22-.469 2.125-.453.907-1.328 1.391-.859.484-2 .5h-2.375Zm1.125-7.61v6.688h1.188q1.297 0 2.015-.797.735-.812.735-2.312v-.5q0-1.453-.688-2.25-.671-.813-1.937-.828h-1.313Zm7.891 7.61h-1.078v-6.344h1.078v6.344Zm-1.172-8.016q0-.265.156-.453.172-.187.485-.187.312 0 .469.187.171.188.171.453 0 .25-.171.438-.157.172-.47.172-.312 0-.484-.172-.156-.188-.156-.438Zm6.688 6.329q0-.438-.344-.672-.328-.25-1.156-.422-.813-.172-1.297-.422-.485-.25-.719-.578-.219-.344-.219-.813 0-.781.656-1.312.657-.547 1.688-.547 1.078 0 1.734.562.672.547.672 1.407h-1.078q0-.438-.39-.75-.375-.329-.938-.329-.594 0-.938.266-.328.25-.328.656 0 .391.313.594.312.203 1.125.39.812.173 1.312.423t.735.609q.25.36.25.86 0 .859-.688 1.374-.672.516-1.75.516-.765 0-1.36-.266-.577-.28-.905-.765-.329-.485-.329-1.047h1.079q.03.547.437.875.406.312 1.078.312.61 0 .985-.25t.375-.671Zm3.78-6.188v1.531h1.173v.844h-1.172v3.922q0 .39.156.578.156.188.531.188.188 0 .516-.063v.875q-.422.125-.828.125-.719 0-1.094-.438-.375-.453-.375-1.265v-3.922h-1.156v-.844h1.156v-1.531h1.094Zm6.438 7.875q-.093-.188-.156-.672-.75.797-1.797.797-.937 0-1.547-.531-.593-.531-.593-1.36 0-.984.75-1.53.75-.548 2.125-.548h1.046v-.5q0-.562-.343-.89-.328-.344-1-.344-.578 0-.969.297-.39.281-.39.703h-1.094q0-.484.328-.922.344-.438.922-.688.578-.265 1.265-.265 1.11 0 1.719.547.625.547.656 1.5v2.922q0 .875.219 1.39v.094h-1.14Zm-1.796-.828q.515 0 .968-.266.453-.265.656-.687v-1.297h-.843q-2 0-2 1.172 0 .5.344.797.343.28.875.28Zm5.906-5.516.031.797q.734-.906 1.906-.906 2.016 0 2.031 2.266v4.187h-1.093v-4.203q0-.672-.313-1-.297-.328-.953-.328-.531 0-.937.281-.391.281-.61.734v4.516h-1.078v-6.344h1.016Zm8.515 5.578q.579 0 1.016-.343.438-.36.484-.891h1.032q-.032.547-.391 1.047-.344.484-.922.781-.562.297-1.219.297-1.296 0-2.062-.86-.75-.874-.75-2.374v-.188q0-.922.328-1.64.344-.72.969-1.11.64-.406 1.515-.406 1.063 0 1.766.64.719.626.766 1.657h-1.032q-.046-.625-.468-1.016-.422-.39-1.032-.39-.828 0-1.28.593-.454.594-.454 1.719v.203q0 1.094.453 1.688.453.593 1.281.593Zm6.094.891q-1.297 0-2.11-.844-.796-.86-.796-2.281v-.188q0-.953.36-1.687.359-.75 1-1.156.656-.422 1.406-.422 1.234 0 1.921.812.688.813.688 2.329v.453h-4.297q.031.937.547 1.515.531.578 1.344.578.562 0 .953-.234.406-.234.719-.625l.656.516q-.797 1.234-2.39 1.234Zm-.14-5.688q-.657 0-1.11.485-.437.469-.531 1.328h3.172v-.078q-.047-.828-.453-1.281-.391-.454-1.079-.454Zm12.953 2.86q-.157 1.344-1 2.094-.844.734-2.235.734-1.515 0-2.422-1.078-.906-1.094-.906-2.922v-.813q0-1.187.422-2.093.422-.906 1.203-1.39.781-.485 1.797-.485 1.36 0 2.172.765.828.766.969 2.094h-1.125q-.157-1.016-.641-1.469-.484-.453-1.375-.453-1.078 0-1.688.797-.609.797-.609 2.266v.828q0 1.39.578 2.219.578.812 1.625.812.938 0 1.438-.422.5-.437.672-1.484h1.125Zm5.468 2.078q-.625.75-1.859.75-1.016 0-1.547-.594-.531-.594-.531-1.75v-4.125h1.078V116q0 1.453 1.172 1.453 1.25 0 1.656-.937v-4.61h1.094v6.344h-1.031l-.032-.625Zm4.266.625h-1.078v-9h1.078v9Zm3 0h-1.078v-9h1.078v9Zm3 0h-1.078v-6.344h1.078v6.344Zm-1.172-8.016q0-.265.156-.453.172-.187.485-.187.312 0 .469.187.171.188.171.453 0 .25-.171.438-.157.172-.47.172-.312 0-.484-.172-.156-.188-.156-.438Zm4.016 1.672.031.797q.734-.906 1.906-.906 2.016 0 2.031 2.266v4.187h-1.093v-4.203q0-.672-.313-1-.297-.328-.953-.328-.531 0-.937.281-.391.281-.61.734v4.516h-1.078v-6.344h1.016Zm5.719 3.125q0-1.484.687-2.36.688-.874 1.813-.874 1.156 0 1.812.812l.047-.703h1v6.188q0 1.234-.735 1.937-.734.719-1.953.719-.687 0-1.343-.297-.657-.297-1-.797l.562-.656q.688.86 1.703.86.781 0 1.219-.454.453-.437.453-1.25v-.547q-.656.766-1.781.766-1.11 0-1.797-.89-.688-.907-.688-2.454Zm1.093.125q0 1.063.438 1.688.437.61 1.234.61 1.016 0 1.5-.938v-2.891q-.5-.906-1.5-.906-.781 0-1.234.61-.438.609-.438 1.827Z"/><path fill="#999" d="M31.281 58.875h-3.203v8.875h-1.297v-8.875h-3.203v-1.078h7.703v1.078Zm4 9.016q-1.515 0-2.453-.985-.937-1-.937-2.656v-.219q0-1.11.422-1.969.421-.874 1.171-1.359.75-.484 1.641-.484 1.438 0 2.234.953.797.937.797 2.719v.515h-5q.016 1.094.625 1.781.625.672 1.563.672.672 0 1.125-.265.468-.281.828-.735l.766.594q-.922 1.438-2.782 1.438Zm-.156-6.641q-.766 0-1.297.563-.516.562-.64 1.562h3.703v-.094q-.047-.968-.516-1.5-.469-.531-1.25-.531Zm8.39 4.531q0-.5-.39-.781-.39-.297-1.344-.5-.953-.203-1.531-.484-.563-.297-.828-.688-.266-.39-.266-.937 0-.922.766-1.547.766-.625 1.969-.625 1.25 0 2.03.656.782.64.782 1.656h-1.266q0-.531-.437-.906-.438-.375-1.11-.375-.687 0-1.078.313-.39.296-.39.78 0 .454.36.688.359.235 1.296.453.953.203 1.547.5t.875.72q.281.405.281 1 0 .984-.797 1.593-.797.594-2.062.594-.875 0-1.563-.313-.687-.328-1.078-.89-.375-.563-.375-1.22h1.266q.031.641.5 1.016.484.375 1.25.375.719 0 1.156-.296.438-.297.438-.782Zm4.407-7.219v1.797h1.375v.97h-1.375v4.593q0 .437.187.672.188.219.625.219.22 0 .61-.094v1.031q-.5.14-.969.14-.86 0-1.297-.515-.422-.516-.422-1.453v-4.594h-1.343v-.969h1.343v-1.797h1.266Zm6.36 9.329q-1.516 0-2.454-.985-.937-1-.937-2.656v-.219q0-1.11.422-1.969.421-.874 1.171-1.359.75-.484 1.641-.484 1.438 0 2.234.953.797.937.797 2.719v.515h-5q.016 1.094.625 1.781.625.672 1.563.672.672 0 1.125-.265.468-.281.828-.735l.766.594q-.922 1.438-2.782 1.438Zm-.157-6.641q-.766 0-1.297.563-.516.562-.64 1.562h3.703v-.094q-.047-.968-.516-1.5-.469-.531-1.25-.531Zm3.781 2.734q0-1.703.797-2.734.813-1.031 2.11-1.031 1.312 0 2.062.89V57.25h1.266v10.5h-1.157l-.062-.797q-.766.938-2.11.938-1.296 0-2.109-1.047-.797-1.063-.797-2.766v-.094Zm1.266.157q0 1.25.516 1.968.515.704 1.437.704 1.203 0 1.75-1.079v-3.406q-.563-1.031-1.734-1.031-.938 0-1.453.719-.516.703-.516 2.125Zm9.703-.157q0-1.093.422-1.953.437-.875 1.187-1.343.766-.47 1.75-.47 1.5 0 2.438 1.048.937 1.047.937 2.78v.095q0 1.078-.421 1.937-.407.844-1.188 1.328-.766.485-1.75.485-1.516 0-2.453-1.047-.922-1.047-.922-2.766v-.094Zm1.266.157q0 1.218.562 1.968.578.75 1.547.75.953 0 1.516-.75.578-.765.578-2.125 0-1.218-.578-1.968-.579-.766-1.532-.766-.937 0-1.515.75-.578.75-.578 2.14Zm8.265-3.782.031.922q.86-1.062 2.22-1.062 2.343 0 2.374 2.64v4.891h-1.265v-4.89q-.016-.797-.375-1.172-.36-.391-1.11-.391-.625 0-1.094.328-.453.328-.718.86v5.265h-1.266v-7.39h1.203Zm11.516-1.797v1.797h1.375v.97h-1.375v4.593q0 .437.187.672.188.219.625.219.22 0 .61-.094v1.031q-.5.14-.969.14-.86 0-1.297-.515-.422-.516-.422-1.453v-4.594h-1.344v-.969h1.344v-1.797h1.266Zm4.547 2.688q.844-1.031 2.187-1.031 2.344 0 2.375 2.64v4.891h-1.265v-4.89q-.016-.797-.375-1.172-.36-.391-1.11-.391-.625 0-1.094.328-.453.328-.718.86v5.265h-1.266v-10.5h1.266v4Zm9.812 6.64q-1.515 0-2.453-.984-.937-1-.937-2.656v-.219q0-1.11.421-1.969.422-.874 1.172-1.359.75-.484 1.641-.484 1.438 0 2.234.953.797.937.797 2.719v.515h-5q.016 1.094.625 1.781.625.672 1.563.672.672 0 1.125-.265.469-.281.828-.735l.766.594q-.922 1.438-2.782 1.438Zm-.156-6.64q-.766 0-1.297.563-.516.562-.64 1.562h3.703v-.094q-.047-.968-.516-1.5-.469-.531-1.25-.531Zm11.39 4.531q0-.5-.39-.781-.39-.297-1.344-.5-.953-.203-1.531-.484-.563-.297-.828-.688-.266-.39-.266-.937 0-.922.766-1.547.766-.625 1.969-.625 1.25 0 2.03.656.782.64.782 1.656h-1.266q0-.531-.437-.906-.438-.375-1.11-.375-.687 0-1.078.313-.39.296-.39.78 0 .454.36.688.359.235 1.296.453.953.203 1.547.5t.875.72q.281.405.281 1 0 .984-.797 1.593-.796.594-2.062.594-.875 0-1.563-.313-.687-.328-1.078-.89-.375-.563-.375-1.22h1.266q.031.641.5 1.016.484.375 1.25.375.719 0 1.156-.296.438-.297.438-.782Zm7.266 1.969q-.11-.219-.187-.781-.875.922-2.11.922-1.093 0-1.796-.61-.688-.625-.688-1.578 0-1.156.875-1.797.875-.64 2.469-.64h1.234v-.578q0-.672-.406-1.063-.39-.39-1.156-.39-.688 0-1.141.343-.453.344-.453.828h-1.281q0-.562.39-1.078.406-.516 1.078-.812.672-.297 1.47-.297 1.28 0 2 .64.734.641.765 1.75v3.407q0 1.015.25 1.625v.109h-1.313Zm-2.11-.969q.595 0 1.126-.297.547-.312.781-.812v-1.516h-1q-2.312 0-2.312 1.36 0 .593.39.937.39.328 1.016.328Zm6.72-6.422.046.813q.813-.953 2.188-.953 1.547 0 2.11 1.187.374-.531.968-.86.594-.327 1.39-.327 2.438 0 2.485 2.578v4.953h-1.266v-4.875q0-.797-.375-1.188-.359-.39-1.203-.39-.718 0-1.187.422-.453.406-.531 1.125v4.906h-1.266v-4.844q0-1.61-1.578-1.61-1.25 0-1.703 1.048v5.406h-1.266v-7.39h1.188Zm13.89 7.532q-1.515 0-2.453-.985-.937-1-.937-2.656v-.219q0-1.11.422-1.969.421-.874 1.171-1.359.75-.484 1.641-.484 1.438 0 2.234.953.797.937.797 2.719v.515h-5q.016 1.094.625 1.781.625.672 1.563.672.672 0 1.125-.265.469-.281.828-.735l.766.594q-.922 1.438-2.782 1.438Zm-.156-6.641q-.766 0-1.297.563-.516.562-.64 1.562h3.703v-.094q-.047-.968-.516-1.5-.469-.531-1.25-.531Zm9.516 4.781 1.843-5.672h1.282l-2.641 7.391h-.969l-2.687-7.39h1.297l1.875 5.671Zm5.937 1.719h-1.266v-7.39h1.266v7.39Zm-1.36-9.36q0-.312.188-.515.188-.219.547-.219.375 0 .563.219.203.203.203.516 0 .312-.203.515-.188.203-.563.203-.36 0-.547-.203-.187-.203-.187-.515Zm6.063 9.5q-1.515 0-2.453-.984-.937-1-.937-2.656v-.219q0-1.11.422-1.969.421-.874 1.171-1.359.75-.484 1.641-.484 1.438 0 2.234.953.797.937.797 2.719v.515h-5q.016 1.094.625 1.781.625.672 1.563.672.672 0 1.125-.265.469-.281.828-.735l.766.594q-.922 1.438-2.782 1.438Zm-.156-6.64q-.766 0-1.297.563-.516.562-.64 1.562h3.703v-.094q-.047-.968-.516-1.5-.469-.531-1.25-.531ZM171.75 66l1.422-5.64h1.266l-2.141 7.39h-1.031l-1.797-5.61-1.75 5.61h-1.031l-2.141-7.39h1.25l1.469 5.53 1.718-5.53H170l1.75 5.64Zm7.156-2.016q0-1.703.797-2.734.813-1.031 2.11-1.031 1.312 0 2.062.89V57.25h1.266v10.5h-1.157l-.062-.797q-.766.938-2.11.938-1.296 0-2.109-1.047-.797-1.063-.797-2.766v-.094Zm1.266.157q0 1.25.516 1.968.515.704 1.437.704 1.203 0 1.75-1.079v-3.406q-.563-1.031-1.734-1.031-.938 0-1.453.719-.516.703-.516 2.125Zm8.406 3.609h-1.266v-7.39h1.266v7.39Zm-1.36-9.36q0-.312.188-.515.188-.219.547-.219.375 0 .563.219.203.203.203.516 0 .312-.203.515-.188.203-.563.203-.36 0-.547-.203-.187-.203-.187-.515Zm6.563 3.094q-.281-.047-.625-.047-1.234 0-1.687 1.063v5.25h-1.266v-7.39h1.234l.016.843q.625-.984 1.766-.984.375 0 .562.093v1.172Zm4.5 6.407q-1.515 0-2.453-.985-.937-1-.937-2.656v-.219q0-1.11.422-1.969.421-.874 1.171-1.359.75-.484 1.641-.484 1.438 0 2.234.953.797.937.797 2.719v.515h-5q.016 1.094.625 1.781.625.672 1.563.672.672 0 1.125-.265.469-.281.828-.735l.766.594q-.922 1.438-2.782 1.438Zm-.156-6.641q-.766 0-1.297.563-.516.562-.64 1.562h3.703v-.094q-.047-.968-.516-1.5-.469-.531-1.25-.531Zm7.047 5.61q.672 0 1.172-.407.515-.422.578-1.031h1.187q-.03.625-.437 1.203-.406.578-1.078.922-.672.344-1.422.344-1.516 0-2.406-1-.891-1.016-.891-2.766v-.219q0-1.078.39-1.922.407-.843 1.141-1.297.75-.468 1.766-.468 1.234 0 2.062.75.828.734.875 1.922h-1.187q-.063-.72-.547-1.172-.484-.469-1.203-.469-.969 0-1.5.703-.531.688-.531 2v.234q0 1.282.53 1.985.532.687 1.5.687Zm5.75-8.297v1.796h1.375v.97h-1.375v4.593q0 .437.187.672.188.219.625.219.22 0 .61-.094v1.031q-.5.14-.969.14-.86 0-1.297-.515-.422-.516-.422-1.453v-4.594h-1.344v-.969h1.344v-1.797h1.266Zm4.656 9.187h-1.266v-7.39h1.266v7.39Zm-1.36-9.36q0-.312.188-.515.188-.219.547-.219.375 0 .563.219.203.203.203.516 0 .312-.203.515-.188.203-.563.203-.36 0-.547-.203-.187-.203-.187-.515Zm2.657 5.594q0-1.093.422-1.953.437-.875 1.187-1.343.766-.47 1.75-.47 1.5 0 2.438 1.048.937 1.047.937 2.78v.095q0 1.078-.422 1.937-.406.844-1.187 1.328-.766.485-1.75.485-1.516 0-2.453-1.047-.922-1.047-.922-2.766v-.094Zm1.266.157q0 1.218.562 1.968.578.75 1.547.75.953 0 1.516-.75.578-.765.578-2.125 0-1.218-.578-1.968-.578-.766-1.532-.766-.937 0-1.515.75-.578.75-.578 2.14Zm8.265-3.782.031.922q.86-1.062 2.22-1.062 2.343 0 2.374 2.64v4.891h-1.265v-4.89q-.016-.797-.375-1.172-.36-.391-1.11-.391-.625 0-1.094.328-.453.328-.718.86v5.265h-1.266v-7.39h1.203Zm6.766 9.375-.719-.5q.64-.89.672-1.843V66.25h1.234v1q0 .688-.343 1.375-.344.688-.844 1.11Zm11.719-6.375h-4.172v4.391h-1.313v-9.953h6.172v1.078h-4.86v3.406h4.173v1.078Zm3.828.5v3.891h-1.313v-9.953h3.672q1.625 0 2.547.844.938.828.938 2.203 0 1.437-.907 2.234-.906.781-2.594.781h-2.343Zm0-1.078h2.36q1.046 0 1.608-.5.563-.5.563-1.422 0-.89-.563-1.422-.562-.546-1.53-.562h-2.438v3.906Zm10.625.532q-1.688-.485-2.469-1.188-.766-.719-.766-1.75 0-1.172.938-1.938.937-.78 2.453-.78 1.016 0 1.813.406.812.39 1.25 1.093.453.688.453 1.516h-1.329q0-.906-.578-1.422-.562-.516-1.609-.516-.969 0-1.516.438-.546.422-.546 1.187 0 .61.515 1.032.516.406 1.75.765 1.25.344 1.953.766.703.422 1.031.984.344.563.344 1.313 0 1.219-.953 1.953-.937.719-2.515.719-1.032 0-1.922-.391-.875-.406-1.36-1.078-.484-.688-.484-1.563h1.312q0 .907.672 1.438.672.516 1.781.516 1.047 0 1.594-.422.547-.422.547-1.157 0-.734-.515-1.125-.5-.406-1.844-.796Zm12.437 4.437q-.11-.219-.187-.781-.875.922-2.11.922-1.093 0-1.796-.61-.688-.625-.688-1.578 0-1.156.875-1.797.875-.64 2.469-.64h1.234v-.578q0-.672-.406-1.063-.39-.39-1.156-.39-.688 0-1.141.343-.453.344-.453.828h-1.281q0-.562.39-1.078.406-.516 1.078-.812.672-.297 1.47-.297 1.28 0 2 .64.733.641.765 1.75v3.407q0 1.015.25 1.625v.109h-1.313Zm-2.11-.969q.595 0 1.126-.297.547-.312.781-.812v-1.516h-1q-2.312 0-2.312 1.36 0 .593.39.937.39.328 1.016.328Zm9.11-5.297q-.281-.047-.625-.047-1.234 0-1.687 1.063v5.25h-1.266v-7.39h1.235l.015.843q.625-.984 1.766-.984.375 0 .562.093v1.172Zm4.5 6.407q-1.515 0-2.453-.985-.937-1-.937-2.656v-.219q0-1.11.421-1.969.422-.874 1.172-1.359.75-.484 1.641-.484 1.438 0 2.234.953.797.937.797 2.719v.515h-5q.016 1.094.625 1.781.625.672 1.563.672.672 0 1.125-.265.469-.281.828-.735l.765.594q-.921 1.438-2.78 1.438Zm-.156-6.641q-.766 0-1.297.563-.515.562-.64 1.562h3.703v-.094q-.047-.968-.516-1.5-.469-.531-1.25-.531Zm11.656 6.5q-.11-.219-.187-.781-.875.922-2.11.922-1.093 0-1.796-.61-.688-.625-.688-1.578 0-1.156.875-1.797.875-.64 2.469-.64h1.234v-.578q0-.672-.406-1.063-.39-.39-1.156-.39-.688 0-1.141.343-.453.344-.453.828h-1.281q0-.562.39-1.078.406-.516 1.078-.812.672-.297 1.47-.297 1.28 0 2 .64.733.641.765 1.75v3.407q0 1.015.25 1.625v.109h-1.313Zm-2.11-.969q.595 0 1.126-.297.547-.312.781-.812v-1.516h-1q-2.312 0-2.312 1.36 0 .593.39.937.39.328 1.016.328Zm7.97-.75 1.843-5.672h1.282l-2.641 7.391h-.969l-2.687-7.39h1.297l1.875 5.671Zm7.64 1.86q-1.515 0-2.453-.985-.937-1-.937-2.656v-.219q0-1.11.421-1.969.422-.874 1.172-1.359.75-.484 1.641-.484 1.438 0 2.234.953.797.937.797 2.719v.515h-5q.016 1.094.625 1.781.625.672 1.563.672.672 0 1.125-.265.469-.281.828-.735l.765.594q-.921 1.438-2.78 1.438Zm-.156-6.641q-.766 0-1.297.563-.515.562-.64 1.562h3.703v-.094q-.047-.968-.516-1.5-.469-.531-1.25-.531Zm7.656.234q-.281-.047-.625-.047-1.234 0-1.687 1.063v5.25h-1.266v-7.39h1.235l.015.843q.625-.984 1.766-.984.375 0 .562.093v1.172Zm6 6.266q-.11-.219-.187-.781-.875.922-2.11.922-1.093 0-1.796-.61-.688-.625-.688-1.578 0-1.156.875-1.797.875-.64 2.469-.64h1.234v-.578q0-.672-.406-1.063-.39-.39-1.156-.39-.688 0-1.141.343-.453.344-.453.828h-1.281q0-.562.39-1.078.406-.516 1.078-.812.672-.297 1.47-.297 1.28 0 2 .64.733.641.765 1.75v3.407q0 1.015.25 1.625v.109h-1.313Zm-2.11-.969q.595 0 1.126-.297.547-.312.781-.812v-1.516h-1q-2.312 0-2.312 1.36 0 .593.39.937.39.328 1.016.328Zm5.235-2.797q0-1.718.797-2.734.797-1.031 2.125-1.031 1.344 0 2.11.953l.062-.813h1.156v7.22q0 1.437-.86 2.25-.843.827-2.28.827-.797 0-1.563-.344-.765-.328-1.172-.921l.656-.766q.813 1 1.985 1 .922 0 1.437-.516.532-.515.532-1.468v-.625q-.766.875-2.079.875-1.296 0-2.109-1.047-.797-1.047-.797-2.86Zm1.266.157q0 1.25.515 1.968.516.704 1.438.704 1.203 0 1.766-1.094v-3.375q-.594-1.047-1.75-1.047-.922 0-1.454.719-.515.703-.515 2.125Zm10.11 3.75q-1.516 0-2.454-.985-.937-1-.937-2.656v-.219q0-1.11.421-1.969.422-.874 1.172-1.359.75-.484 1.641-.484 1.438 0 2.234.953.797.937.797 2.719v.515h-5q.016 1.094.625 1.781.625.672 1.563.672.672 0 1.125-.265.469-.281.828-.735l.765.594q-.921 1.438-2.78 1.438Zm-.157-6.641q-.766 0-1.297.563-.515.562-.64 1.562h3.703v-.094q-.047-.968-.516-1.5-.469-.531-1.25-.531Zm3.781 2.734q0-1.703.797-2.734.813-1.031 2.11-1.031 1.312 0 2.062.89V57.25h1.266v10.5h-1.157l-.062-.797q-.766.938-2.11.938-1.296 0-2.109-1.047-.797-1.063-.797-2.766v-.094Zm1.266.157q0 1.25.515 1.968.516.704 1.438.704 1.203 0 1.75-1.079v-3.406q-.563-1.031-1.734-1.031-.938 0-1.454.719-.515.703-.515 2.125Zm10.656 3.609v-6.422h-1.172v-.969h1.172v-.765q0-1.188.625-1.828.64-.657 1.813-.657.437 0 .859.11l-.063 1.031q-.328-.063-.687-.063-.61 0-.953.36-.328.36-.328 1.031v.781h1.578v.97h-1.578v6.421h-1.266Zm7.953-6.266q-.281-.047-.625-.047-1.234 0-1.687 1.063v5.25h-1.266v-7.39h1.235l.015.843q.625-.984 1.766-.984.375 0 .562.093v1.172Zm1.094 2.5q0-1.093.422-1.953.437-.875 1.187-1.343.766-.47 1.75-.47 1.5 0 2.438 1.048.937 1.047.937 2.78v.095q0 1.078-.421 1.937-.407.844-1.188 1.328-.766.485-1.75.485-1.516 0-2.453-1.047-.922-1.047-.922-2.766v-.094Zm1.266.157q0 1.218.562 1.968.578.75 1.547.75.953 0 1.516-.75.578-.765.578-2.125 0-1.218-.578-1.968-.579-.766-1.532-.766-.937 0-1.515.75-.578.75-.578 2.14Zm8.25-3.782.046.813q.813-.953 2.188-.953 1.547 0 2.11 1.187.374-.531.968-.86.594-.327 1.39-.327 2.438 0 2.485 2.578v4.953h-1.265v-4.875q0-.797-.375-1.188-.36-.39-1.204-.39-.718 0-1.187.422-.453.406-.531 1.125v4.906h-1.266v-4.844q0-1.61-1.578-1.61-1.25 0-1.703 1.048v5.406h-1.266v-7.39h1.188Zm17.843 7.391h-1.265v-8.422l-2.563.922v-1.14l3.625-1.36h.203v10Zm10.079-4.25q0 2.219-.766 3.313-.75 1.078-2.36 1.078-1.593 0-2.359-1.047-.765-1.063-.797-3.172v-1.688q0-2.187.75-3.25.766-1.078 2.39-1.078 1.61 0 2.36 1.032.766 1.03.781 3.171V63.5Zm-1.266-1.719q0-1.61-.453-2.343-.438-.735-1.422-.735-.969 0-1.422.734-.438.72-.453 2.235v2.031q0 1.61.469 2.39.468.766 1.421.766.938 0 1.391-.718.453-.735.469-2.297V61.78Zm10.469 4q0-.5-.391-.781-.39-.297-1.344-.5-.953-.203-1.531-.484-.563-.297-.828-.688-.266-.39-.266-.937 0-.922.766-1.547.765-.625 1.969-.625 1.25 0 2.03.656.782.64.782 1.656h-1.265q0-.531-.438-.906t-1.11-.375q-.687 0-1.077.313-.391.296-.391.78 0 .454.36.688.359.235 1.296.453.953.203 1.547.5t.875.72q.281.405.281 1 0 .984-.797 1.593-.796.594-2.062.594-.875 0-1.563-.313-.687-.328-1.078-.89-.375-.563-.375-1.22h1.266q.031.641.5 1.016.484.375 1.25.375.719 0 1.156-.296.438-.297.438-.782Zm5.765 2.11q-1.515 0-2.453-.985-.937-1-.937-2.656v-.219q0-1.11.421-1.969.422-.874 1.172-1.359.75-.484 1.641-.484 1.438 0 2.234.953.797.937.797 2.719v.515h-5q.016 1.094.625 1.781.625.672 1.563.672.672 0 1.125-.265.469-.281.828-.735l.765.594q-.921 1.438-2.78 1.438Zm-.156-6.641q-.766 0-1.297.563-.515.562-.64 1.562h3.703v-.094q-.047-.968-.516-1.5-.469-.531-1.25-.531Zm7.047 5.61q.672 0 1.172-.407.515-.422.578-1.031h1.187q-.03.625-.437 1.203-.406.578-1.078.922-.672.344-1.422.344-1.516 0-2.406-1-.891-1.016-.891-2.766v-.219q0-1.078.39-1.922.407-.843 1.141-1.297.75-.468 1.766-.468 1.234 0 2.062.75.829.734.875 1.922h-1.187q-.063-.72-.547-1.172-.484-.469-1.203-.469-.969 0-1.5.703-.531.688-.531 2v.234q0 1.282.53 1.985.532.687 1.5.687Zm3.703-2.876q0-1.093.422-1.953.437-.875 1.187-1.343.766-.47 1.75-.47 1.5 0 2.438 1.048.937 1.047.937 2.78v.095q0 1.078-.421 1.937-.407.844-1.188 1.328-.766.485-1.75.485-1.516 0-2.453-1.047-.922-1.047-.922-2.766v-.094Zm1.266.157q0 1.218.562 1.968.578.75 1.547.75.953 0 1.516-.75.578-.765.578-2.125 0-1.218-.578-1.968-.579-.766-1.532-.766-.937 0-1.515.75-.578.75-.578 2.14Zm8.265-3.782.031.922q.86-1.062 2.22-1.062 2.343 0 2.374 2.64v4.891h-1.265v-4.89q-.016-.797-.375-1.172-.36-.391-1.11-.391-.625 0-1.094.328-.453.328-.718.86v5.265h-1.266v-7.39h1.203Zm6.5 3.625q0-1.703.797-2.734.813-1.031 2.11-1.031 1.312 0 2.062.89V57.25h1.266v10.5h-1.157l-.062-.797q-.766.938-2.11.938-1.296 0-2.109-1.047-.797-1.063-.797-2.766v-.094Zm1.266.157q0 1.25.515 1.968.516.704 1.438.704 1.203 0 1.75-1.079v-3.406q-.563-1.031-1.734-1.031-.938 0-1.454.719-.515.703-.515 2.125Zm11.344 1.64q0-.5-.391-.781-.39-.297-1.344-.5-.953-.203-1.531-.484-.563-.297-.828-.688-.266-.39-.266-.937 0-.922.766-1.547.765-.625 1.969-.625 1.25 0 2.03.656.782.64.782 1.656h-1.265q0-.531-.438-.906t-1.11-.375q-.687 0-1.077.313-.391.296-.391.78 0 .454.36.688.359.235 1.296.453.953.203 1.547.5t.875.72q.281.405.281 1 0 .984-.797 1.593-.796.594-2.062.594-.875 0-1.563-.313-.687-.328-1.078-.89-.375-.563-.375-1.22h1.266q.031.641.5 1.016.484.375 1.25.375.719 0 1.156-.296.438-.297.438-.782Z"/><path fill="#757575" d="M32.75 35.969h-5.969v6.281h-1.875V28.031h8.797v1.547h-6.922v4.86h5.969v1.53Zm5.031.718v5.563h-1.875V28.031h5.235q2.343 0 3.656 1.188 1.328 1.187 1.328 3.156 0 2.078-1.297 3.203-1.297 1.11-3.703 1.11h-3.344Zm0-1.53h3.36q1.515 0 2.312-.704.797-.719.797-2.062 0-1.266-.797-2.016-.797-.766-2.203-.797h-3.469v5.578Zm15.313.75q-2.422-.688-3.516-1.688-1.094-1.016-1.094-2.5 0-1.688 1.344-2.782 1.344-1.109 3.484-1.109 1.47 0 2.61.578 1.156.563 1.781 1.563.625.984.625 2.172h-1.875q0-1.282-.828-2.016-.813-.75-2.313-.75-1.39 0-2.171.61-.766.609-.766 1.703 0 .859.734 1.468.735.594 2.5 1.094 1.782.5 2.782 1.11 1 .593 1.484 1.39.484.797.484 1.89 0 1.72-1.343 2.766-1.344 1.047-3.61 1.047-1.453 0-2.734-.562-1.266-.563-1.953-1.532-.688-.984-.688-2.234h1.89q0 1.297.954 2.047.953.734 2.531.734 1.485 0 2.282-.593.796-.61.796-1.657 0-1.047-.734-1.61-.734-.577-2.656-1.14Zm21.875 3.859L77 31.688h1.813L75.734 42.25h-1.468l-2.563-8.016-2.5 8.016h-1.469l-3.062-10.563h1.797l2.078 7.907 2.469-7.907h1.453l2.5 8.079Zm5.687 1.53q0-.468.281-.78.282-.313.829-.313.562 0 .843.313.297.312.297.78 0 .454-.297.767-.28.296-.843.296-.547 0-.829-.297-.28-.312-.28-.765Zm10.063-8q-.406-.062-.875-.062-1.781 0-2.422 1.516v7.5h-1.797V31.687h1.75l.031 1.22q.89-1.423 2.516-1.423.531 0 .797.141v1.672Zm1.937 8q0-.468.281-.78.282-.313.829-.313.562 0 .843.313.297.312.297.78 0 .454-.297.767-.28.296-.843.296-.547 0-.829-.297-.28-.312-.28-.765Zm7.406-12.171v2.563h1.985v1.39h-1.984v6.547q0 .64.265.969.266.312.906.312.313 0 .86-.125v1.469q-.719.203-1.39.203-1.204 0-1.829-.734-.61-.735-.61-2.094v-6.547h-1.921v-1.39h1.922v-2.563h1.796Zm20.766 13.125h-1.89l-7.157-10.953V42.25h-1.875V28.031h1.875l7.188 11v-11h1.86V42.25Zm9.313-1.047q-1.047 1.25-3.094 1.25-1.688 0-2.578-.984-.875-.985-.89-2.907v-6.874h1.812v6.828q0 2.39 1.953 2.39 2.062 0 2.75-1.531v-7.688h1.812V42.25h-1.719l-.046-1.047Zm6.172-9.516.046 1.172q1.172-1.375 3.141-1.375 2.219 0 3.016 1.703.53-.765 1.375-1.234.843-.469 2-.469 3.468 0 3.53 3.688v7.078h-1.812v-6.969q0-1.14-.515-1.703-.516-.562-1.735-.562-1 0-1.672.609-.656.594-.765 1.61v7.015h-1.813v-6.922q0-2.312-2.265-2.312-1.781 0-2.422 1.515v7.719h-1.813V31.687h1.703Zm25.25 5.391q0 2.422-1.11 3.906-1.11 1.47-2.984 1.47-2.016 0-3.11-1.423l-.078 1.219h-1.656v-15h1.797v5.594q1.094-1.36 3.016-1.36 1.921 0 3.015 1.453 1.11 1.454 1.11 3.985v.156Zm-1.813-.203q0-1.844-.719-2.844-.703-1.015-2.031-1.015-1.797 0-2.578 1.672v4.562q.828 1.656 2.594 1.656 1.297 0 2.015-1 .719-1 .719-3.031Zm8.25 5.578q-2.14 0-3.5-1.406-1.344-1.422-1.344-3.781v-.344q0-1.563.594-2.797.61-1.234 1.688-1.938 1.078-.703 2.343-.703 2.063 0 3.203 1.36 1.141 1.36 1.141 3.89v.75h-7.156q.031 1.563.906 2.532.875.953 2.219.953.969 0 1.625-.39.672-.392 1.172-1.032l1.093.86q-1.328 2.046-3.984 2.046Zm-.219-9.484q-1.094 0-1.844.797-.734.797-.906 2.234h5.281v-.14q-.078-1.376-.75-2.126-.656-.765-1.78-.765Zm11.938.328q-.406-.063-.875-.063-1.781 0-2.422 1.516v7.5h-1.797V31.687h1.75l.031 1.22q.89-1.423 2.516-1.423.531 0 .797.141v1.672Zm6.422 3.578q0-1.563.609-2.797.61-1.25 1.688-1.922 1.093-.672 2.5-.672 2.156 0 3.484 1.5 1.344 1.485 1.344 3.97v.124q0 1.547-.594 2.781-.594 1.22-1.703 1.907-1.094.687-2.516.687-2.14 0-3.484-1.5-1.328-1.5-1.328-3.953v-.125Zm1.812.203q0 1.766.813 2.828.828 1.063 2.187 1.063 1.375 0 2.188-1.078.812-1.078.812-3.016 0-1.75-.828-2.828-.828-1.078-2.188-1.078-1.343 0-2.171 1.062-.813 1.063-.813 3.047ZM198.5 42.25v-9.172h-1.656v-1.39h1.656v-1.094q0-1.688.906-2.61.922-.937 2.578-.937.625 0 1.235.156l-.094 1.469q-.453-.078-.969-.078-.89 0-1.375.515-.469.5-.469 1.453v1.125h2.25v1.391h-2.25v9.172H198.5Zm11.406 0V28.031h4.64q2.313 0 3.485.953 1.172.953 1.172 2.828 0 1-.578 1.766-.563.766-1.531 1.188 1.14.328 1.812 1.234.672.89.672 2.14 0 1.922-1.25 3.016-1.234 1.094-3.5 1.094h-4.922Zm1.875-6.656v5.125h3.094q1.313 0 2.063-.672.75-.688.75-1.875 0-2.578-2.782-2.578h-3.125Zm0-1.5h2.828q1.235 0 1.97-.61.733-.625.733-1.672 0-1.171-.687-1.703-.672-.53-2.078-.53h-2.766v4.515Zm11.797 8.156h-1.797v-15h1.797v15Zm9.563 0q-.157-.313-.25-1.11-1.266 1.313-3.016 1.313-1.563 0-2.563-.89-1-.891-1-2.25 0-1.641 1.25-2.547 1.266-.922 3.532-.922h1.765v-.828q0-.953-.578-1.516-.562-.563-1.656-.563-.969 0-1.625.5-.656.485-.656 1.172h-1.813q0-.78.563-1.515.562-.75 1.515-1.172.97-.438 2.125-.438 1.828 0 2.86.922 1.031.907 1.078 2.516v4.86q0 1.452.36 2.312v.156h-1.891Zm-3-1.375q.859 0 1.609-.438.766-.437 1.11-1.14v-2.172h-1.423q-3.312 0-3.312 1.938 0 .859.563 1.343.562.469 1.453.469Zm7.03-4q0-2.422 1.157-3.906 1.156-1.485 3.016-1.485t2.937 1.266v-5.5h1.813v15h-1.656l-.094-1.14q-1.078 1.343-3.016 1.343-1.828 0-3-1.5-1.156-1.516-1.156-3.937v-.141Zm1.813.203q0 1.797.735 2.813.75 1.015 2.062 1.015 1.719 0 2.5-1.531v-4.86q-.797-1.5-2.484-1.5-1.328 0-2.078 1.032-.735 1.031-.735 3.031ZM253 42.453q-2.14 0-3.5-1.406-1.344-1.422-1.344-3.781v-.344q0-1.563.594-2.797.61-1.234 1.688-1.938 1.078-.703 2.343-.703 2.063 0 3.203 1.36 1.141 1.36 1.141 3.89v.75h-7.156q.031 1.563.906 2.532.875.953 2.219.953.969 0 1.625-.39.672-.392 1.172-1.032l1.093.86q-1.328 2.046-3.984 2.046Zm-.219-9.484q-1.094 0-1.844.797-.734.797-.906 2.234h5.281v-.14q-.078-1.376-.75-2.126-.656-.765-1.78-.765Zm12.985 6.484q0-.734-.547-1.14-.547-.407-1.922-.704t-2.188-.703q-.796-.406-1.187-.968-.375-.579-.375-1.36 0-1.297 1.094-2.187 1.093-.907 2.812-.907 1.797 0 2.906.938 1.125.922 1.125 2.36h-1.828q0-.735-.625-1.266-.625-.547-1.578-.547-1 0-1.562.437-.547.422-.547 1.125 0 .64.515.985.516.328 1.875.64 1.36.297 2.188.719.844.406 1.25 1t.406 1.438q0 1.421-1.14 2.28-1.125.86-2.938.86-1.266 0-2.25-.453-.969-.453-1.531-1.25-.547-.813-.547-1.75h1.812q.047.906.72 1.438.687.53 1.796.53 1.031 0 1.64-.406.626-.421.626-1.109Zm15.375 2.797q-.157-.313-.25-1.11-1.266 1.313-3.016 1.313-1.563 0-2.563-.89-1-.891-1-2.25 0-1.641 1.25-2.547 1.266-.922 3.532-.922h1.765v-.828q0-.953-.578-1.516-.562-.563-1.656-.563-.969 0-1.625.5-.656.485-.656 1.172h-1.813q0-.78.563-1.515.562-.75 1.515-1.172.97-.438 2.125-.438 1.829 0 2.86.922 1.031.907 1.078 2.516v4.86q0 1.452.36 2.312v.156h-1.891Zm-3-1.375q.859 0 1.609-.438.766-.437 1.11-1.14v-2.172h-1.423q-3.312 0-3.312 1.938 0 .859.563 1.343.562.469 1.453.469Zm9.187-9.188.063 1.329q1.203-1.532 3.156-1.532 3.36 0 3.375 3.782v6.984h-1.797v-7q-.016-1.14-.531-1.688-.5-.546-1.594-.546-.875 0-1.547.468-.656.47-1.031 1.235v7.531h-1.797V31.687h1.703Zm8.844 5.188q0-2.422 1.156-3.906 1.156-1.485 3.016-1.485t2.937 1.266v-5.5h1.813v15h-1.656l-.094-1.14q-1.078 1.343-3.016 1.343-1.828 0-3-1.5-1.156-1.516-1.156-3.937v-.141Zm1.812.203q0 1.797.735 2.813.75 1.015 2.062 1.015 1.719 0 2.5-1.531v-4.86q-.797-1.5-2.484-1.5-1.328 0-2.078 1.032-.735 1.031-.735 3.031Zm25.375.656q-.265 2.266-1.671 3.5-1.391 1.22-3.72 1.22-2.515 0-4.046-1.813-1.516-1.813-1.516-4.844v-1.36q0-1.984.703-3.484.72-1.5 2.016-2.312 1.297-.813 3.016-.813 2.265 0 3.625 1.266 1.375 1.265 1.593 3.5h-1.89q-.235-1.688-1.063-2.453-.812-.766-2.265-.766-1.797 0-2.829 1.328-1.015 1.328-1.015 3.781v1.375q0 2.313.969 3.688.968 1.36 2.703 1.36 1.562 0 2.39-.704.844-.703 1.11-2.469h1.89Zm8.782 3.47q-1.047 1.25-3.094 1.25-1.688 0-2.578-.985-.875-.985-.89-2.907v-6.874h1.812v6.828q0 2.39 1.953 2.39 2.062 0 2.75-1.531v-7.688h1.812V42.25h-1.719l-.046-1.047Zm6.437 1.046h-1.797v-15h1.797v15Zm5 0h-1.797v-15h1.797v15Zm5 0h-1.797V31.687h1.797V42.25Zm-1.953-13.375q0-.438.266-.734.28-.313.796-.313.532 0 .797.313.282.297.282.734 0 .438-.282.734-.265.297-.796.297-.516 0-.797-.297-.266-.297-.266-.734Zm6.703 2.813.063 1.328q1.203-1.532 3.156-1.532 3.36 0 3.375 3.782v6.984h-1.797v-7q-.016-1.14-.531-1.688-.5-.546-1.594-.546-.875 0-1.547.468-.656.47-1.031 1.235v7.531h-1.797V31.687h1.703Zm8.86 5.187q0-2.469 1.14-3.922 1.14-1.469 3.031-1.469 1.938 0 3.016 1.375l.094-1.172h1.64V42q0 2.047-1.218 3.219-1.204 1.187-3.266 1.187-1.14 0-2.234-.484t-1.672-1.344l.937-1.078q1.172 1.438 2.844 1.438 1.328 0 2.063-.75.734-.735.734-2.079v-.922q-1.078 1.266-2.953 1.266-1.86 0-3.016-1.5-1.14-1.5-1.14-4.078Zm1.812.203q0 1.797.734 2.813.735 1.015 2.047 1.015 1.719 0 2.516-1.547v-4.828q-.828-1.515-2.485-1.515-1.328 0-2.078 1.03-.734 1.032-.734 3.032Zm9.563 8-1.032-.703q.922-1.281.953-2.64v-1.626h1.782v1.422q0 .985-.485 1.969-.484.984-1.219 1.578Zm20.265-2.828h-1.89v-6.578h-7.157v6.578h-1.875V28.031h1.875v6.11h7.156v-6.11h1.891V42.25Zm4.75 0h-1.797V31.687h1.797V42.25Zm-1.953-13.375q0-.438.266-.734.28-.313.796-.313.532 0 .797.313.282.297.282.734 0 .438-.282.734-.265.297-.796.297-.516 0-.797-.297-.266-.297-.266-.734Zm4.563 8q0-2.469 1.14-3.922 1.14-1.469 3.031-1.469 1.938 0 3.016 1.375l.094-1.172h1.64V42q0 2.047-1.218 3.219-1.204 1.187-3.266 1.187-1.14 0-2.234-.484t-1.672-1.344l.937-1.078q1.172 1.438 2.844 1.438 1.328 0 2.063-.75.734-.735.734-2.079v-.922q-1.078 1.266-2.953 1.266-1.86 0-3.016-1.5-1.14-1.5-1.14-4.078Zm1.812.203q0 1.797.734 2.813.735 1.015 2.047 1.015 1.719 0 2.516-1.547v-4.828q-.828-1.515-2.485-1.515-1.328 0-2.078 1.03-.734 1.032-.734 3.032Zm11.422-4.11q1.203-1.484 3.125-1.484 3.36 0 3.375 3.782v6.984h-1.797v-7q-.016-1.14-.531-1.688-.5-.546-1.594-.546-.875 0-1.547.468-.656.47-1.031 1.235v7.531h-1.797v-15h1.797v5.719ZM428 42.454q-2.14 0-3.5-1.406-1.344-1.422-1.344-3.781v-.344q0-1.563.594-2.797.61-1.234 1.688-1.938 1.078-.703 2.343-.703 2.063 0 3.203 1.36 1.141 1.36 1.141 3.89v.75h-7.156q.031 1.563.906 2.532.875.953 2.219.953.969 0 1.625-.39.672-.392 1.172-1.032l1.093.86q-1.328 2.046-3.984 2.046Zm-.219-9.484q-1.094 0-1.844.797-.734.797-.906 2.234h5.281v-.14q-.078-1.376-.75-2.126-.656-.765-1.78-.765Zm11.938.328q-.406-.063-.875-.063-1.781 0-2.422 1.516v7.5h-1.797V31.687h1.75l.031 1.22q.89-1.423 2.516-1.423.531 0 .797.141v1.672Zm8.86 8.953h-1.798V31.687h1.797V42.25Zm-1.954-13.375q0-.438.266-.734.28-.313.796-.313.532 0 .797.313.282.297.282.734 0 .438-.282.734-.265.297-.796.297-.516 0-.797-.297-.266-.297-.266-.734Zm11.14 10.578q0-.734-.546-1.14-.547-.407-1.922-.704t-2.188-.703q-.796-.406-1.187-.968-.375-.579-.375-1.36 0-1.297 1.094-2.187 1.093-.907 2.812-.907 1.797 0 2.906.938 1.125.922 1.125 2.36h-1.828q0-.735-.625-1.266-.625-.547-1.578-.547-1 0-1.562.437-.547.422-.547 1.125 0 .64.515.985.516.328 1.875.64 1.36.297 2.188.719.844.406 1.25 1t.406 1.438q0 1.421-1.14 2.28-1.125.86-2.938.86-1.266 0-2.25-.453-.969-.453-1.531-1.25-.547-.813-.547-1.75h1.812q.047.906.72 1.438.687.53 1.796.53 1.031 0 1.64-.406.626-.421.626-1.109Zm9.141 2.797V28.031h4.64q2.313 0 3.485.953 1.172.953 1.172 2.828 0 1-.578 1.766-.563.766-1.531 1.188 1.14.328 1.812 1.234.672.89.672 2.14 0 1.922-1.25 3.016-1.234 1.094-3.5 1.094h-4.922Zm1.875-6.656v5.125h3.094q1.313 0 2.063-.672.75-.688.75-1.875 0-2.578-2.782-2.578h-3.125Zm0-1.5h2.828q1.235 0 1.97-.61.733-.625.733-1.672 0-1.171-.687-1.703-.672-.53-2.078-.53h-2.766v4.515ZM483 42.454q-2.14 0-3.5-1.407-1.344-1.422-1.344-3.781v-.344q0-1.563.594-2.797.61-1.234 1.688-1.938 1.078-.703 2.343-.703 2.063 0 3.203 1.36 1.141 1.36 1.141 3.89v.75h-7.156q.031 1.563.906 2.532.875.953 2.219.953.969 0 1.625-.39.672-.392 1.172-1.032l1.093.86q-1.328 2.046-3.984 2.046Zm-.219-9.485q-1.094 0-1.844.797-.734.797-.906 2.234h5.281v-.14q-.078-1.376-.75-2.126-.656-.765-1.78-.765Zm9.281-3.844v2.563h1.985v1.39h-1.985v6.547q0 .64.266.969.266.312.906.312.313 0 .86-.125v1.469q-.719.203-1.39.203-1.204 0-1.829-.734-.61-.735-.61-2.094v-6.547h-1.921v-1.39h1.922v-2.563h1.796Zm7 0v2.563h1.985v1.39h-1.985v6.547q0 .64.266.969.266.312.906.312.313 0 .86-.125v1.469q-.719.203-1.39.203-1.204 0-1.829-.734-.61-.735-.61-2.094v-6.547h-1.921v-1.39h1.922v-2.563h1.796ZM508 42.453q-2.14 0-3.5-1.406-1.344-1.422-1.344-3.781v-.344q0-1.563.594-2.797.61-1.234 1.688-1.938 1.078-.703 2.343-.703 2.063 0 3.203 1.36 1.141 1.36 1.141 3.89v.75h-7.156q.031 1.563.906 2.532.875.953 2.219.953.969 0 1.625-.39.672-.392 1.172-1.032l1.093.86q-1.328 2.046-3.984 2.046Zm-.219-9.484q-1.094 0-1.844.797-.734.797-.906 2.234h5.281v-.14q-.078-1.376-.75-2.126-.656-.765-1.78-.765Zm11.938.328q-.407-.063-.875-.063-1.782 0-2.422 1.516v7.5h-1.797V31.687h1.75l.031 1.22q.89-1.423 2.516-1.423.531 0 .797.141v1.672Z"/></svg>