<svg xmlns="http://www.w3.org/2000/svg" viewBox="0 -960 960 960"><path fill="currentColor" d="m600.739-159.041-22.13 63.65q-5.13 15.522-18.804 25.066-13.675 9.543-30.196 9.543-26.783 0-42.958-21.87-16.174-21.869-6.478-48.087L624.26-528.782q6.695-17.218 21.5-27.609 14.805-10.392 33.022-10.392h41.87q18.218 0 33.023 10.392 14.804 10.391 21.5 27.609L919.262-130.87q9.695 25.783-6.261 47.936-15.957 22.152-43.305 22.152-16.957 0-30.696-9.543-13.74-9.544-19.87-26.066l-21.565-62.65H600.739ZM348.434-372.738 188-212.738q-15.522 15.522-36.827 15.456-21.304-.065-37.261-16.022Q98.39-228.826 98.39-250.63q0-21.805 15.522-37.327l160.999-160.999q-40.652-41.783-70.565-87.066-29.913-45.282-51.652-97.195h116.784q15.478 29.956 34.913 56.13 19.435 26.174 45.174 53.478 31.869-34.131 64.825-88.826 32.957-54.695 49.261-100.782H70.391q-22.087 0-37.544-15.457Q17.39-744.13 17.39-766.218q0-22.087 15.457-37.544 15.457-15.456 37.544-15.456H297.39v-27q0-22.087 15.457-37.544 15.457-15.456 37.544-15.456 22.087 0 37.544 15.456 15.456 15.457 15.456 37.544v27h227q22.087 0 37.544 15.456 15.456 15.457 15.456 37.544 0 22.088-15.456 37.544-15.457 15.457-37.544 15.457h-55.086q-22.131 69.174-64.978 144.608-42.848 75.435-87.24 121.088l68.868 70.303-39.609 110.827-103.912-106.347Zm285.218 117.695h130.435L698.87-444.346l-65.218 189.303Z"/></svg>
